<mxfile host="65bd71144e">
    <diagram id="e9woW4s50wZAMwBN6k_V" name="第 1 页">
        <mxGraphModel dx="776" dy="619" grid="1" gridSize="10" guides="1" tooltips="1" connect="1" arrows="1" fold="1" page="1" pageScale="1" pageWidth="850" pageHeight="1100" math="0" shadow="0">
            <root>
                <mxCell id="0"/>
                <mxCell id="1" parent="0"/>
                <mxCell id="3" value="" style="shape=image;verticalLabelPosition=bottom;labelBackgroundColor=default;verticalAlign=top;aspect=fixed;imageAspect=0;image=data:image/png,iVBORw0KGgoAAAANSUhEUgAAAQwAAADACAYAAADx0V3oAAAgAElEQVR4nOydd5wV1fn/38+ZmXv3bgWWpS+wFEFQAbGABbtiiw27fjXGmKixxhajsfduEkvsJvYWNZbEGrsiFkAQkSIdFrbvrTPn+f0xc+8uHUk06o/P6wV3d++UM2fO+ZynH6murlYABxckB4CqolawquRhRBCRwu/a7jtRMI5Bbdv3hfOMg+M4eG6MRCJBOpMmmUwWzlexqAYgdqVz1wQRYXVnqOpybV3uPAwGg+Ki6lBpixjVeRBeWRkvfvU+ac/HEGDFIsalY9cqqgf0Y9LnnxO0tmKsBZNd7vlX2YbwZki7w1bXpnWBsPy1vi+s7Tm/K/wnfbUBa4ZFWd+36oYfhsDkcK3FEE1g4y9PCiu+QAFrwykrxmDw0BWOEYFYzKO8ohRjAnK5enK5JowJ1rO5q8ZKg3qNY00QccA4KAajaVqdedjAhaIGjChYizUWz/Po1auGXXYazqIZn7GsuRmjFlRQ+y27XEDW3LAfHvR/RBg/xr76EcGosr6MIdXV1WoUkBxdyg2PP3QdHaqasTSTTqdAIObFUFV838fzPIwxK16GwBZhxF3h74rVANSQP8WqXV4CUAPk/317OOt1XoCagMBRinwozkFgoCkOiOAoZB1QhUADMhrgBFDixvAs0UT6fgf093y7/zGEtbD+fw51AKfd74qs97r744Lo+vduNMMV1+ZwNEO37l9jnUm48UaKS5UgCFi2tBkwuMYBJ4Ebj2G8AMe2KQUq4NiVJ29+Ykn0ckQEMe1UGyvRKvbtJv7yhPMtzkNxCBADOZNDFNwAHIEKB4wYjAo5N1xdfbUErsGxllhgMGpQa793wvgeptBKUNZ7IfrBo31/iki4CLB6VfanAhVCU8N6vtg2kUDBqI/GPsdzGlFrcb0kQoySohIqOw9B/Z60+p9jpR5HsrhO2LnWWkSElQQPVhZp8y9EJCQKMQDmW0/8/DWsfFvCAKzBEoBalFCaCBsbShVYcCIudAF8xUZqlI0uot/r9FUQ/d7FdIGoQ75fKN+DRKUr/Cgr/fmnCSUcv+vZv8vpEJZQLAtQDCERqLUgLrhgtYXm5sWUlgY4KtjCXS1GnZWvTp4g2hFC9EYK41AsYNfJ6LmiTXV9VgPF4DsGK2EbVmVIVANGo8bmD1iB0ORbElXh2us7AduP6u8JK07c79Pw+p3bTn7yzLB6qCqs4MRYV0SEIajEQAx+UI7jpEIyUB+kmHhRjAXz55NsnU2sNMCKENh4NKnC8624oCZqjI0aE/2MAyZYbtK1DQgLahCz8hts87oYlDbCEJHQixN9t+5QICh8OiqYFVaawEDOGNwgFrU3wEo7I60qRi0rNndVHiRp91IKz9vuu28DiRoYtlEIxI3+GrbH1WCtkzk81xCIQ9uMEWx0nfwrC39dhcdLLS5+W5tWeLa81Lg+WKn/CtcxoG54bQnHgFUt8KeDxbHBKu3+VgzWhP2kCsb6oToq0XWtR3sS/qmrI3mI5IBgvUjTVVVUwVchZx1cMxgj0eriV2GMi+v6lHcSiiu6YwNFs4KYFDnfD1dacQjiLmJacX1FcmWo0wjSjiRW1zgNh6uVLIF0QzXAYHB0MW0mlvAaYi0QkosIqHqkMx3xW6soKk2D9bDWA7cBbDHGyRCYZahvyCU7I45Q1HEqrjgY60XuVSUwQtq3JNMeNrUxrlMCnoPaUJJQmnFMAtESAhsQd+rxSmehNh0OWBVUhJwDqjkIOkFQgh8YHDeLE2tGacKQw8u5iBrsKrwsaxqwgUTubhQ/VY6fHIgXF6y3EIkvIyUWDcoQW4HgYTUX2odsHNFSHHcJ8fg3qAaROuZggxKsX4HNlqMaw7qLcYuaUb8c8TuDLSGXc/B9n5ibwDMB6i3GeEtRV8j63QkynfFiPtYsJpP20VxX4sVZYolvEG1cp0Eo0WpQIB7aka3GQQR1mlEbI1nfHZvpSqIsDe58JNaCrk46lVxILrmO2GwX/FwV6jZTlJhNTNJY0/48P5pIP33RI6AIS2y9znUhMoJIDvUMTkkFXrB5wa0qxgNVAhFaMh533/oGD/31OY49ZndOPnM/jImRy3XAVcXKTGKeg3EFCELCWG20RAR1kaCUuQvnccnF93PdzWdRWpLAY2Copph04RpasGqHBBJojBkzmznl5Gu5/OpzKfZqOO20s7jy6nO48A/X8uIrNxDYWj4eP5uLzr+d+x4+i5qqrTHEMdIaERA4xpDJCq8+9yFnnngKpRUegzbvwnZjtmTMDlvTf1BnSss6MfebpfzltieY+vksnn/5fGKJFrCKsYpVB6MVLP6mMw/c9ziPP/YU3bt34oTfjGXf/UchbiPGpHGNg6zOXrOWFU5VCazl1ZcncfzRJ6IGdtljJPc8eBbYJE898W8uueBqbC5GkIvTmm4GAx06wxFHbMallx0DxmIlhp/uzj//8RnnnXMFvoXDj92S444/iNsvncwD9z4XSncqxGKWomKwFkaPGswllx3C4E0GkE45PPPYZ5zz2zMZu89orr3hF3wyfjrXXHE3mw6r4eY//x/GXVfCEIxdhXQiIMRCacdkmTJ5Dtdd/TCBX8WFlxxJn36DcZwkzmrc9IGxGAR1S3ni769z9aUPM+6gw7jw4sNw3SVgUvkjAQVrWOt4/QnAGoOup0rtQvg+xLpk/CxIKZgmAqsgBscY/MBHJU7DMo8br3+W6h5DuPbGN1ncCDV9B3DlZfdw062nsO8hvbDqRx1vAI+1qgziIBojlSrhjdcWcv1Vj3DZladjNQMmFzZR8oRhwp+jCadi6NqjJz/72UFcf91dXHTejWTTinE9/nLPtWgsy5J5ddx++1/x3Aq6dNiW2dM/oaFuGfHyJDU11RQVGYzJYNwUxg0YtHE/Lr3ifNKkmPbVJK656m5mTJ/H0qUZxDpY32PLkf2BChQftYr4DqqGiZ80cvYZlzN9xkwG9O/EwsW13H37e4zZbh86VMXB1BIQBo+tsivWYKMIrUsGNcoeP9uOWbV7M3XKXKZMmwBeEk+hX001e++9A8OGbcYOuw2kV3WHKF4mwHVz4IQxM5M+m83vz76JT8bPYb8DtuXiy0+mU5cs4mQ47dztOOaETRi00caIsaiTQjX0Khn1cAKDrylaky61iwOGjRjML3+1Ox06K7uM3ZjFi8bxwfszUL8a62TWYQgKohJ5ZFYldRmQAJFiZn2TYeoXtey48xD6bFSOmAZUYwSrkQqshmNEjWHsvjsyc3ori+Y1sqi2lh69AlSL2h+NmLy6+tOGFRNZKb89CkZPFYt1lcAJEI1hjBu6FUUQ45BK+zz0xIvsM24MV11/Mh+Pn8POuw6jrn4JHbrGGbPdTqidCeJHtoa8KuKyZtYWjMmSI4Up7sgRhx8NksKaDGK1XZxGO6Nn9Dlr5gJOOPZGJo7PkaWVN/61Pzgee+x/HCj0G1DNyb8+ilf+OQeXIsZsdwzdesZZsngJv/vDgXSp6khRkaCaw9PudO5UjeN+zuCNqzFFBsek8bNpNh60kMaGNLW1LUyd+iU9+xqsacAPMqGx12nho/dncOB+f2SLLTZjxtwnMG6GpYvgkQff4pyzL+Gu+88BUVRjbQ+wir5YFRRFRVGiIBCTwUnUs+nmPRi2RXdEWrCBZevt+jN6zEDEZMC0YoNGrI3hStiDqpbABpRXlHP66ScxfMSmlHWqw3PTkfro0q1rR7p164BIa+iZEVAT2qZUcwSSQSVg0uQ5vPbKm2yySRVbjeqLcbJoIHhFSaZO+oJnn3yVA4/ot5rnWXlaitJuIZDwmbEIAYgP6rBgQQszZy9jDD5EBBp+rnqSh38NzzduGkyar7+ey9Qvv6JrrxpUNYxgBlCnbUHagNVieS9JEIqeNiCK2vTCqEdryWYCpn45lV+feggVXRrZedfuiJ1JZbnLAXtth1faQNZPYW0OG7h4bgJrLZlMBs8tQkwOx2kvIThoEMeYGL54BK7BjTv0GdCRwCZDvTUf0CUR80efqjnAobp3D5565l5iphcLFrRy8ZWX8+4Hn3He737L0cccxpw507nwd1cybMQQXvrXQ3wz5ysuOOcWRvbpx4EHDUOwIZeJECsSOnfqzvSvprHN1vtT3a+SjTfZiOFbjGSXYaPo0aM75eWlZHNJspk6NCjHYjCuJWcCUpqgc69enHT6ATixFlCHzlVlDN+8hvfefRerMVyKUPFZ7Sq2JpUksnpq3pCsPpgUVg0GN7qiRbGodfFTnVla28zSJQ3Mm9tAY1Mt1TUJRm83mD59KujTB9AFCHH+9dLn/O7cmxi711Zcfs3x4aquTijxqBvZFyxWAYmDSVJbu5T6+kX07V+D46VRsYiToaJCCGwDU778kv11cPTO8g8QUYXYNruDCqghME5o/CbvNYNCpKkIgiHwIZOFrC9Y38OJx8jLXisbWyN7iApGFLGGXOCQzCmprMGKixGNWmSRDdGl64TlCEPyhjW1iDhhiDiEL9RXliyqp7JjV/ysYvxGxMDSJUmuueomrrvlXDyvktkzG9h5zKmMHjWQE355EuMOPo0uVRXcfvcJbL1dfxw3QxC4jP/gKw782Q1k01DRsZRdxm6FaxTHC7Aovh/Q0pzEc4soK4sT6pntobiupbTc4cvJ0zjk0F8TeA4trc1ce/3VPP7kXzn1N6cyfdpCjjnuACS2kPqmeXw96xtuOu1UAjI40QTNZqG+toUOHap46ZXHyKQDPp86iS+mTuLRhx9myeJaUuksAJkcNDdBpzLDYeM24eqbz8RQhKEzVV06sN2Om4GpDwegCG48g3HBdb380F6tD3xNfBGGh0SrrnVBYwS+4jgxJn0xjWuvupc3X11ILgO5HDhGKEm4FCU8jAPGCL1qijnp1LHsu//2gIPvK88+/W/OPfMudtt1Vy69+GyymfmkkwHplJJK+dTWLmTiZ9N5++0PmD1rNtttP5xzLzgaq1BWXkanyvKQAwDwcdwMqUwTS5Y0IAUCIPL9G9pc1aFfW1F8H7KpMGS/OJEASaFko34yoB7WxsgFEI87lJWEJCY2Wkyiyb5SzE/UawCu6xKLuTS1NlLX2ACOIGKjEH+N2iIrpTf81CD5cIH1VL0KhCGAY8AYEyaMmTC4KdkS8MzTL/DMU68xZUqKww4+la5dyrj+mpPp128wEyct5F//msslLUpxqSCaoLUB3nlzAR+8dzG33Px7nn32ZX75i7t5/NlTGDS0E3Nm5ThwvxtwTBnHHrMvyXQzf3v4efr17wHGoWGZctutz3P33S+w0+7dueeeSzBOtPJA6IJVJfAtH4+fxv8deT5bbTmaU889g1NOPYebbvodZ599Oh98+Br7/mxnKjvFcMTHEaW8LM7QoT0Q04yqg2ZL+OjdaRwx7nK6dunIxkNG0LemN6WdPKqrqxk4cCBlZWVUVFRQUlJEWVmCspJixPrEYo0EOR8cIZtJU1XlIU4SEUWMBeMjJlrFrEUNqATIaiNb1z5Y589bzIP3/oMnH/2MJUtg9923589/PocTTgjYbddaunTamCceeYN0rom777uEeHEWpRVH4qhpBqcZEDLpHE8/8QGXXXQ/Bx20M5dfeTbPPPNPfnPijaHW44SSpjjQsWMpvau7UezVMP3LHK/88wuEcryiGBUdy0MbGAABjpfDjYFVF4iHRlYrEMXpqEp4USyiOVQDPvpwItdd+QQLF6T41a/25uDDdydR5iISunDVetQutCyc28LOO27LYYfujRfLhZJKnhTyfucC8hKMAVFc16GqKk5d/RImT16In/UQ/JCk8wTW/ryfLAyist5h8CsmfxRgCVArZDOW11+eyUdvpWnJxXGcgA5uFa2tEBiXjJ/AFzDiodKAOFnEsaSyGcbtN5J9DxpJzYDe7L//qTz213c576JjqV/WTNzrzu8v+BWHHT0KUk30qS7n8adfx6iltKyU3ffYjVf/9Q7DNhuwWnfjgvlLuf6qxxgyeCD3PHA+H39Wh+daRozsxauvP4AILFqwkCsvvYsXnnuNM845ih49PTpUWhxrMAripdhhTH++mPYA73/wBW/9+2OaWmYyZfpiFi+pY8HipVhrMQJBAMYRxu49hFtvORdPinEcqG9o5IvpEyjrDo7rAwbV0FWcFQcfF1/qcSSIxN71eVmCUQfxSyhPDOKoQ0bRf0A/Zsz8Gqs+2+04kE2H9+Hh+99h0uTxnHzGvhSVz2X+/AXMmjmHLbcaTjyhkUro8c8XP+fM39yPg5BqVdx4hq1HD+Kxx6+hU2UnunbpRiAJnnvhbRYv+JrfX3A0IhbI4XhNPPXE+1gruG5+CFk0CrlX4xBYh1xWefHl17nmyr+SSkEqA6lWsLkwzKJr9zi/PmUsRx11KMcfn+CWa5/gvN/+jZdf/YwLLz+AjTbqgYjH55/M5vorn6GhznLOuT9no6GVWKmN3KCmLf4nUndC5FWZkFJc13DYUXvRkinm1lueQHQZ5/9uf0rLStqO//8ClpAc/0OjJ4REawLFseGKaEUoryjhnvuvZsF8y36H/5rn/34TZZUWx2klF6RI+WnUEbyYwVrwfZ94HMpKK7n8yt9TVLqEzlUJbCbDa69N5uwLDPMXL6W0gzDu6C2Id1iEF4Odd92cJ/7+GpYMnmfZclRn3nj7PjCtiMnSJkblbSCGntVdeeTvfwBRli79hjfefJPKqoCAelzXR0wWdVOUlBUzeeJCahcZRm+7Ga7r49go2MQKSIATT7Ng4WJeeH4ix/3iKH592hhmzp7PjdffwaOP34ZrhFwmw7tvj+eB+x5FKEedZQSitKRS1NUuI2HC8HgbAGJoaMoxafIcYvEYRuIgDYgKFJL0lte9JR9wrvlMBylEW4bSudK7TxWnnLkX1np8PmEeX38dgApGEnz0wVTuuO0Z9tt3T4459kDULOGzCQu5/+43ueyaagYP7Qzq8o9nP+E3x/+Ffr0G0a9/XxKJOGJy9O5XTO9+Xiih20ayOaF7z2JqFwUgKRw3E74L44NaAt/Hz+UQJDRQS6g+GCzGgLgO1X16MXzYltQv9dhmxzHU1NTQvXsl9Q3LePXV18n4cdxEEWP3G8Zue27Nm6/M4Npr72GPHS/jwEO34NTTD2ba9PlMmfoNsVgRi5fOwmoPJIrfIVLTlpcwov7T0Fgc6SxkUkkaapfS2pikblkLy5Y1UVJSHi1Ilv9fSEMK4+vbY7USRggFk0SdVogvQ0gj0kqR52BsKYEf4GdCkgkNRwHGBMTjHpsN60tJRSuYJE7Mp2NlglQSUq0+kz5dxICNeuKVNGPJkFNYVlcHhjAfRcP7SsEtt+qXaUTQIMa82cITj8/ghuuepG+fKo4edynjDtmHgw4bTrfuZRz1ix156YUruObqP/HPf19PoAtxVDGRTq0CGEMs4VG7tJ5HHnuYdz75N9Y6LJi3kFtuvp3y0jJKSkqY9fU8skEOJUeo9fpUduzI5sNG8vBj/0JVEAnAljJ14nxefu5tzjrnEMRpBEw4+cVEarO/whPJSo9ZiPDMBzI5PsYEGI2zdInPF198SaL4ACaMn8Idf/obO4zZjiuuPQU1S8GvonuX4aSS73Hddc9y5/2nIQSM2GIAT794Dq5TzN13PEdZeW8gA5JCNHJvmhx4AVm/jpaWlsjF2oyQjdQKpTGZZOHiJeEbilIAMlmlNe1jccAW4xiP7j0rKErEmfTFZD746AOSqQZamurpVFnK6B13BGnGGCFnfEo7ZujctYSWT+C9t+cyatRXHHrYaMYdPJq7b3uLs0+9jVlTl/L7S48AsygcGxqqOAiIRCTcXupASaUy3HPnK9x311ucfd4RnHn2LkgQBR6uYjH6KSMk0fVTvdZCGAA2itI1aA6CrI8RHzHpMABKNfRcoXiuhwj4kX1SjC2Eiudnguc59O5Vzkv/rAO/F+rNZGFDM3fe9Rw2F3ppjDFhKDAmUi9XzfxNTc387d5/c+mFf8O3MfoMrOCs8w4n2Sz86aYnGbP9dnTrC926VbLPz3Ziwkfz8eLpcDi06y9VwUic0pIEAwbUcOMtVxIrE95552M+m/A1tYubWTi3jvq6eqZ9+TW9a7qGrj4Ja2PE4w4VHcqZ/XUrn4xfyKjRmzB92hIevP8lnJhl1LZ9gSRYg6qLBh0Q44O7dJXGuqhV0f8SkUx+EkAghvrmFF/NWUDW8dGiLMlcmtZUhpLiDqRSxcycmePpJ17m+edeZfrM2WzhDOWzzxYwbEQlPXqU0aNnOVMnL8B1PKzNrXDv0CthEGzOJ51WMPFwDIgTLg6OQzrts2RZIxYvzD1CyPkO2cBgvBzGJGlsqOWj9z9k4XxL1+oqKis707NbB1rLlS+nzeTDd6ey4/YjeP2Vifz55hf4ZPwMBg3pxp9v/yUHjBtDSYlPoGkc8XBdJecHJNPNWGmJbEGggQO4iJNFNZRy1Maid5RGNUDVkFNDdf9eDBpUjWgQKoeqYd9GLlr+g8n0o8B/KEStljBEBBdFo75zrEVEyaSzqHpIYBGyOCZ0txU8KhKGmotVDBbf91HfkstlSAgUFzv0G1jJ0sVNvPTMZEZs1ZNXXv6Yd96bRK8ePYASsqkcb7/5FVdedgvjDh/ByaceSWEFgGiiQll5Mf933F706zuUK6+6hQuv+AXbjh7DZ5/Owo1Bpy6K1TSLFzXw3N/foENZTyZ+OpPhIzq25U0AxiixohwdKuN8M286xx13ON2re9G5qhfdqjpx7M/3I+65FBXFCYIA47aiZEMvgISisev6zJ03h8MPuZTu3bqTTidZ1ljLIYdvRsxLAuD7yuuvfMppJ93JTrtszm33HM2aRUONhOu8aqJYUawWMWN6PS889w7FiTJaGzrRo/sgttx6Kx64/3Huf/BxXBfKOwlbbDWYY084lscefZU7/vgYf7nzJMSV8J1ZCALF9yPjYaT/5D05qoL1A/xsDoOD4CDWBxWKi2N48SLqakF9DxwfUYfWJiUR78xmwzcCJ8P2Y7Zm+zGjCs9TIMKCVBzw+uvvc+stjzF/bpbjf70jJ55yAL1rijGmJfLahR6UWExwYxDYABsEGIFsBh564F9MnjSNE08Zx4AB/Xjh+be4449PMXbvbTj59H1BgkIipRfziMXbh0WHC+L/L3kkmk/xWs/z1yJhtNWuMI4hUZLjq6+m0nfAZqiBWDxg8MaldO2mWBtE/7IY11BdUwZqw/R1yWGMUpyAuAcDByfYdqeOnHbGibQmoXePzvzh92fy4F8fBlKk0mk+/GAC079q4MMPpnHSb/Jp8CvCEitKMXDjKjp3KeW6yx9j1oEJbrv9Vi677iScxAIa6nxee3kqHSv6c9Y5J3LeWbfz3HNX4cYb2wKFVMhllQH9+vPaq4/S2ATNyVYmfPI5Uyc/zucTP6a5oYFZs2bxzTcL6NmjB9fecDLlHZxCotSorQfxz1du4Oab/srcb5ZS3TfBhUf+gr33Ho0jkZVPwxiCpUtzLFncGE6dtZb6C412YT2RcJb5gTBnVj3Tpn1F58oyjjz0NK66+lwuueQPXHb5mVFMQRaVRqwGGErYfszGTJ02ASUXlV6U0IOhPrlcBpG8VBdJlCpIPgYjkDZJKDp1wIA+bL3VSNKtjeGkFgGN4Wfj9OxRw1ZbjsTgr5DnkTdMElY2I0xL2GmnUeyy005YqwTaiucGGM2Gi5UYnChGo7RUqKgAiBHmmLQSBAH19VlmzVrK0mVL2GhQfxrqW/hy2hK2GJWN4jnC840jlJUmKC0uCXOvlpNc81649dfvfyzQlTXfdcZKhKHSnv3bUFnVgWefu4byUi8sU2cTiOMzeGiM51+6hFgsFO+69+jI5KkP4sUsmCYMhl59yhj/2X0YIyCtdO7icedffosfeBhKMdYjmVrGqO0PR0yKjp2ECy7dl/Mv2gcbucXaLLttgV9CDM+toHNlOQfudwSnn3YFEyZcxKjRNey22+bg1zFz2gKuv/IJNhk6kN694yybv4RrL3ucS67YBySqCCYec2cv4ayzLyXdWkbXrjX06tuDxsY04NK3T1c6DBvEPvvuQXG8hKK4g+f4YAOsEQwBxg0YMrQDd/7ljMiwaVHNJzSF+rXnuey2yyjuuKOMx554ep1ekETqgY0yLlH49KOp3HL9Q2w1alPOPf9Qrr78LsbucSxbbj6ck085mq236UtpuSUXOBjxcIkxaKPBDBnSF5ymQn8aCQiCDOl0gFoDhWQsE4r0NgbqYK0lsKGLOB/E3bVbOQM36snrr85gypRZbLJZNdhSbFBOj+5dGTKkP8h0DFGd2Ei1Cn8KYyi08Hw2smO4UWxM+5DetozfsvISKis74Jg4rpPAqiGeEE47eyxnnrsvxskhppmjf7E9Rx23bSQ1+QgOrgtGHDp1KqNr1w750b7cfZYLLvupQg3LidffEutgwwjhGKG83MPR0B6hksZiQX1KyhxEw+hMx7Xg1heikATBcSzlndqMZQUrukmCpnFwKI/B1lsPQYO22hjGCfXo5XXKfIKQ0tTUwtOPvcfdd77Al1MX0qO6E3vtvT0P//UFdtnmVwzauAeLFtbTt3cNN1x/IYOG+1xzzSWce9al9B9QxsFH7oqJpRB16FO9FXfc9ihzZy1j/oIGapfOZsKiSTTW1XHvHU8hKEGQC+uDqIvx0hx19O7sf8BoHCOIBvjYMBgIjbIt270bhcBavv56Oi++9DQ9eq6q61dkaiUfIh3GxQvLajO88/oMbDrLoeNGsvGgcu5/4Bw+ev9Lbrr+cY79v1OwQEVFKTV9eyEGli1rYNH8Rew3bnOuv/kE4vGw/qAxWVRbSLV2gMAgTtjYZIvPpxMmU7fUYiSBcQJEsmHcAiBqKClSOpYHzPxyHm+9PpFNN+3L0kWtzJuxlISbxDP1baXgItNA+yEqUUk8jQzAYeBUEB0viAmt+VYJbSZYunUtp3ffzmSyhuaWIrzichyTxpHWsBatVWy+/KOE99DAwUrur3EAACAASURBVGhHxr89hX+/PJmtt9+EmpoKjGlqF9kZelTWfxr9mJCverN+UpT06tUj6iOfiooMn35yO55NhisvhIajPCIR3sjyFcU1L87qqrMGvyuoOqST5aRbSikvL0Pjc6OcBLA5Yf7cpTz4wNPstefebLHlECQ2Dwm6MHt2E3f97W623HYAu4/dFj/j0ry4kpLSclTdMKPUrQeTxVgHNBGJ7JGob9JhXVOTxHFaMGLDWqUFw+Typd7yq7IFbGCwQSmOA7j1y1cVj0yNyz0jFFZmFGxQRC5ZTi4jlHVMgqRDr4xpqwYd5EoJMr3AQs7P4FufRLFQlGhETDIkIQu5bMAnH3/J9C/nccTR+2JiSQQHtR6zvmrl/nv/gUrAGWf+mg5VSUTS0VCzqLrU17u8+Owk6hpmc/Lpe7NwTpbaBXEGbtyBkoo6BBsaJqWd3WK5KamFz8JXUjiwEBEb9qdB1WHJIocnH53Aww89x/CRgznz3L2o6RdHImNb6PXIG5IdHvvba/zxhhfpUlnD4cfswX7jRpMoSaK0oNq2EElUc6WtERuwKkh1dU8N6yzk6FCRXSfCWAkmH8X3/RIGCBYXbBGhT7Y1bE67MRnW3rThcDBZwMFqjJxfijpZjJuJXHGCWosxYRxBePUAVRvV8cx7Kyw2fwM1oS6uFCz2q0dbOhXkBbC2OIxw5ZZVVvLSSO8PbxVOWQnClVmMohKExub8ONdI5M9fT5xwGhiLE01I1VBNstbBKjgmCIkn7EE0KMMG5WF5AdMK0i4WJp8PpIJaN7yPk0VxEY0hEqpiona1Hq5VEYe0s8itagUsZOxSgtrK8L06SzCaWunYPIQS8DuE/WxyYWKeJFGyKxyZd6f+xFWS/xBherv+B2bT/PnfO5Qww1La1TVoy1vIo1ArGEuYVh4gJoPrhVEUoSjarg6CZgpFYbHhBDMI+YKl4ZPmk+Eid7GYgtIkyBrJY3lrfHudeQ19WHg9EV3kpRmJh2fl7U7klRoFYxF1IvUoV/C2tC/co5HL2on6TvPGUFUsSTCKSIBKpu3a0Q0VUBMgJhsaR1FEsii5dqb45ZSQNTxje4li9QMxvGsA0oyYlqgv2vfdiucqSjO4zdF3TrSArLiw/fQNnf8trLMNY+34vn3X0SyJXKxrRr6eBrTVFw3X+vZRfoIt6NOhh8iN9iFpd53lxlVkiGzXAF0n7bBtgIvkp/Lqh2y+3GEhA0Ci1XAVK3j4faTaSFvp/AIZtL939HteqGl7FkXIgWRDU3P70oqFRuY9Jk7hehRiGmj7238ZIWmtjiDWeBYr55xsIIpvi/8iYfwvkK+fEConBWheYlixgpIpfJr894UVd/njRTWckCtG/UUlDQuTLzLkRh/LH8oKK7/mT2kztuVNbWtPBpKCpJE/vx0drGAqbV8weXkyWnXdzTY1qe3ZwrgbWcHoLFE5wuVK3ki7CdimFy137f8+1kV1WBsh5M83azluA/L4kRNGiOWSDdVgJV+kd1WkEf49XyZv+VRz2+6c5ZZdCmLsSlXEpe0YXUVQceGrUERvI421PhV5UsrbMNpPEsVExLHixFxZLG/7bCO7sIRBfqK0SSFtBtuVJ2PocteCWtJ2XVnugdqm6XdpD2hPBiuqJcKq753/23IUysp9uAGrw0qEYSUS0FfVd6vtz/9VKG07CUDb+Rc0DClve4a11WqM6o8WSKDNgBgIhb9L5JJqu3B+wq0i1yWv2pi2galKWzIUbap+24RrM/7lc+Pyg7tNDDdhG4R2ZLbijfPnRf9L6EHJ/yHUTsLriLSrWCWm4DloKyNoC3NsRW1DC2RBQTUMDa0/hIm3KuJYF4ljg8FzTWirh/Gj7CfTbjKb0AaZj+EQKYjlVixq82XmLEYldItKgBWfcBNqBzSs4BT+7kfXd8gr+eGWkkHEEeFmzoKJao8G0YTRQnSsEnm9C+X488QgUap4QceInkfyy3ik5uTVI8mbO9tJACsS1YorZXidfNGd0K6tqJrIReyg+W0rcUNekCQQlqqTqKK6WlOIJxGJo9ZFTDrq2Fh4XSdLvqieSCRJsf5bDqwbVje5VyVFrAvazNYbsHr8JFQScFAbQ6UtiSrQdjKFuGAcxMYwEiPcb9nHkg4zsh0/9AZYB2sTOMaENU0RAlWstmKcIJrADqKWxUsaeenZKVSUdWT/w4ai+CCCqIm2J8jzTN7W4VC7KOCt176kpCxg9302w/X8lYWEaMFW66E4iNuKCtQtsUx4dxFuvJWd9hhUqOhVsDkUjCjhRFF1EONEKlD4fSjwRKFwAVEORQw0gUor4qQjz0p0jSBObW1Ac1MLRSUZJn0ykapOPRm5dQ8Qw/QprUyeMpkRW1ZR069HSHKRkfi72xluRSJYkThW/H51qkt7tCeZDVgTfuSEoYRkUYTNVhI4ZVgL2XSW2tpaGhobmDFrJtOnT+fr6bNZMCdNMtlKOpVEaWDXPQdy2RVng3X5YtICfvPLi6js0J/pM2ZSX9eM70Nxicu+h4zg8muOI5EwUdk5YfasZdxw7ZOMG7cnBx89klzgh5GNQsEjoSpYE4Ykz569hOuvfJIXnpnCwYfszG5jd0GdhYUxmje5iBimTp3GddfeTVWXEVxx7S8wppXFixdz773PE4srO+0xFCGs3BU6NvJh1yExBEERGlTgeQmsjZFOutTVNTD9qxm889ZHvP/ep7Q2N5PL5UilUrQmW9h7/8255qbjiHmCESGwLlOmLub+u1+na7dObLvDQO574F8MHbQxW257OOlkwDtvfcXzz79MzYD9I/bRgkt6xeC19cOqpIRQblvzmPhRiss/CvzICQNam5WnHpnEuWdfE4biSLQnt0I6G1Za6ljpUd7Jp6JjGf0G96Fjpz40Ny1h2bIUiEWNkM4qU6c0UZyYyJjdajjt9AsYPGgkb7/zHuf+9hqe3PJZjjryILAJlAxgsAZyomRzWUQ8rF+JT44gcDBOBjX1iHWYN6+VP1//Lh9/OJ8DDt6GRx/7J+lcLbfcfmIUONZm3xARslmPxQuEVHMK63dCY0m8eILyDlWkMkvCepZOlBhoTcHhqirMnDWHW29+mscfnkrgExU1CvvBYPB9n9JyQ49uRVR1qaB7j95k/Ra69SjGc13EKhaHlpYi3nljAY31Wa645lAmfPohIh45gVwgzJqxhI8nfMHAIdVsOmwLIAhTxk0KxYa1SvS7WLXXJmFswHeJHzlhKMVlsNveA2ho3o8tRtUwauttaKhTHn7wdS65/C/07def2++8nqGbdiPmJjHO3LY6HUR5K1aw1mfoZgO5486r6NZHWFpbRyqTpLQihtqOBJkqPv90ATdeew8nnrgX8UQlxgPjKCi8/95EDv7ZjWTSoeG4S5cKTjh5dw45cmceuPct3v/gMy676pfssOsm7H3gCK66+G7OO/VxzvzdwXTvZUBykRhvwHiIcfFt3rXpYa0hUAlLC2gpQks0T8LNovLhV1VVnRmz/eYk6w077zGcbXbYiqou/Xjn1blc8PuL2WaHGm645TeIhoZewQ3tNOTCJDoD1hbx4QfTeeTRR9lq643DNtkEQRCjviHLosWWL6YsZMJH09hh56155pHpLFgwj3hRC3vtN5g+fTv/T8ZCiA1qxXeJHzlhGER8uvQQfnnynsS8Ir6ZPZebr/8bHSv68Y8XH+LIo0/htTde4O0PUjz92Nu89NIFJBJhbU4i4siksyyaX4vjxuhT05GpM97id+f+mcMPP5S+/cIErqJYKbl0OXNmNfDFpNmM2LIT4tJu20ahurorZ55zNIOHDuXmGx7lswlzqO65gLff+Ip777mTbr080pkmRo8exWNP7MCLT33CmJEnMnrHjXjgkd+C+OEWAbkE6XQxy2qXcuuNT/DFFx8w9ctFfPlVE0EQUFl5MCaKQdp51xHcdtfpdKwURDKUlZZw4IG7MG7/fRAnR0NTlrvueJpHH3qLi644hd3GDka1kULqqwTkvUiqYK3Hpx/N4483/IPp0xZhqWO3XT5i0ietiLj026iZ2279O8sWL6Bvv2r2P+AApk39mqcef4Vttu9L1y57oqQKKU4bJvJPCz9ywiB0pxqhKF7EnFmtnPmbO2lucnjppUuY+NUnJIoNPXt1Zt8DNqem16bsuedFPPLIGfToURnaAaCgc3tOKDH4WaW10aWkqBwjObxEmpKKElQcbODhOvG2+VZISiPM1YiliCVayeWyTJo0nab6gM1HjGC77fcGIr9GAKNHD+JPfzyDr094ioAkrskx6fNvuOzy2/n3a4vIpB0wHjde/yBVnTuz+YhtKS5dTKfOJfztwT9BRpg7dyEPPPAQV1/xMNfeeCxKNnwmSYPrk80U8eLzk3nwnpcZPnIgl1z0R558sjd33fvraPPraDKbaINia/DTcb78oo7xH36BF69k002G8MfbzuOj96Zz7dX3MHTTYVx48VE8/+xzfPjhZLYY41HfnKZDJ8PQYd1x435Uut/+F2wYG/BDww+ueKGVb/MvEuGtx6wZy/jlsVdQW5vm3gfOR+NTEHc+qorjZEkU+2y6hUPPHh3Ya/fLePKxVzA2hqgN6137AQZLYHNks4KfFkpLPHK+RY3FK01jnVToOoxKCgjhfh9EOjuuwfNc/MAnm01jHKH/Rt248NJjmDj5dZ57/kGGjajh6mvO47l/3El1TYJAluK5rYhajJbRo3I4e47dla7dO7D72G2ZNuvfTPjiTs77/T4MqO5KwmkkFvsYr2w8fQYGjN52K1pbWylsfRdFndrA8MrLn3Ht5fez9z47csRRB+AYD8051C/L8fVXtQSBwRJtQKyAOqhfhgYl9BvQnTE7DcOqEtAMXh3xhI/QikgKL2ZIJMKYi1S6lc5di9lm+yFRnzjtkui+rXtzA37IMPmoxvXda/G/jXwiqNF1+6fqMOebBi6+4M+0NMKtt15Ij74OntdC3EJCFUn6uH6W3jVFXHfL6Rx40C6c9uuH2XHb85g+7RtcXMS4BApqA1LJNEWJMjbZdEhUr9ShYyKGZxUrphD8JMbgOG6b3c0oSlhJO5VOscXWm3H51aeRs43gLWBh3URq6+p57sWXuPDCazjrtOu49cY7aWlJYTXN4E3KuOamEzj2l7vjJJox8QxOUSNqGjBOEjQLGmA1i2pAzm8lG/jEEsVtQViiWLF8OH4Kt970DNvssAXn/eFI4okMRUUexnV5/+3ZHLjXZVz5h8fJpYuimBQF8fESTYzYqjP7H7QHiUQRIuA4ICZDYFtQG6BYOnbqRJeufVm6NEljA8TjHeld3RPH+DgEYa1XYINR8qeFH6RKYjSUIMzaxpkaUs0u7745k48/rON35/8fw7fqgpo6xDWo45CzBuuUolKBwdKlp3LWH/bn6CMPZOLE96ju1R/VFgI/hyOQzfk01DdSFI/RpXN3pk6ZT7woTo9u3Vm8OIrFiPYcdYzguob2eSCCIbCWdDqF75fwj+df5TcnX4ORMG0lnROWLJ7K7Bnf0LW0jEzKp25ZK6Vl5YibxXHqkdgyxPExboBKMpqkYVi31XzUpvLNnNm89dY7uK4X5c8qBIq1DvPnJXHjJZx0xr64RQ248RwlpQmMUUZvM5RfnzSOP93yOMkWjwsuPp6SDnVhWrqbZPDQTlizNV/PmEkQKKlkhqbGHH4mTiZtyKRclixu5MUX3wSTZsrEWmIxcJ18cJtGAXQbJIufGn6QhAFtZLFG4pCA4vIUh/98U474+U1M/rSFnh33x+CR1SxZN9w056TTLueUs8ANwMFlh5024/5HTqfvoM3xTEA6VYTnlpLJeCxdFPDWW++y0aCuYBpADUWxInr2rGbxwoVoEBAE+WItkfgdBVKH+a4uftahuamB4pIi9j9oY3524N/xbYzxH0zlkvPvYdyhu3Psr8biuIvxTBZXfASLo7GwqLDNQM7Bc+PkV2i1FpsLk+Ukqg61dPE3oN9w1hln4JlQXWpNKo//bTz/+Pt4br7zMHrXlCGixN1iSkqKcGMZKrtnOPm3O3DAYZvyl9teZFD/A9l1l8256c/HUdUFnFiSWCKJ5yoNjUnu/PNL/PW+1zjsyDEY8dhzl5PYeOgQ+vYdzs3XvsmIzftw/PFbYTQT7mZvLWLa8lTWnjezAT8W/GAJI4+1Shtio+jKAHxDWUmc3caOYM99tqWqW0eGDB1IosTFdYVly5q5+7aP+Oe/XiCwFhNTfAUvUUSvXr1obW3i369/wNSJ9Rx55O4sWlDLs0//HVcCxEni2IBYNrpXO+RDidRCLudifYMNfFyBSROncN65d+G6PUmnfL6Y/CWfT5rCjTffwZHHbMv5FxwT7ZaWr3VBVAbQ4Lhu5FaFomKha684c+eDtQGuZ9l2h00Zvd2IqIBODrUBkydP5uFH7qNntxH0ru6OE0kmRoSY6+A60d65GLr3qOT3F/2cUaO25L67H+a1117h0MPGhg9lJYx8BRwXtt56c846+0Teff8tPnxvMr36VNJ7QE8effQFnHg1w7YcACbKI8nnpKxYl++/hg1qzv8KP3jCgHUhDY2SqLJ079mF3198PF17BYgT4DhN4S7dSjipNBeufjaGqI8aA6r061fBpVccQmtTJ1zKOfSwsWRyTRx13C60NqXCHcBNlnjckrN+SBBKWJqPMEy7tTXLk4++jfVTLFm4jGSqC1hL/bIWkpn57P2zUZz4m+3o1q07UybXc9ddz7Dd6E/YfY9B5DfQEaQQvi1ReX1V6NqrlAuv2A8jBsdLI44UigybcH9CjHEYOXIz7vvr5bQ0pcIygNKuj4ziuu1yXLAYx7LrHoPZddcrMI6PmCCMo5RwYypHog2jJECcDNlcBsd16dGrM/036srILYbjxeKUlJZiXAVtX4jnux0XG/D940dBGLB60jCaL4WjOA4Yk6U5uYQeTvdws6AoVTvaEhk/yOC6inECjEZZoBrQoVOcgYN6ct3lz1BeZvj8swlc/of7uP9vV1PZVRBpoGu3Ig4ctyOjR29K1g8LzqoNM2Zdz2DIMnnSePr368r+B23HZiOqEOvRoaSCPXbfkd9deiiOU4frxshmvsbYgMBmI7LQQvapQFg20A/CuCwjOK4h8ALCiEo3KsEfFgJTDY2dBsWLufTqXRXVrQglCdFQZXKNhMQHhfJ5xoQRo+JFpRjFRmluoWVGHA8vVkQuZ0m1GlqbwM8pXbp0ob6+iXnzFqC2gs8/m8322/QBBVMoO//flgTWdL3/RO/Z4MlZV7jQPonph43VShpRTU7rKFn1mf1NIwM32ghRH6MmUhcccuk0TU2tWGvBZsIVPEzGwNeAed808NGHU7ng4mMZOqwDBx0xkqMOP5N7HjiH6r7l9K3pwCln74OP4ePxs7C+JcgFgMfmW27EJ5/fjusacn6KWMxDNCyyG2ZzOrhShDHFaBAml5WWlTBgYDUQVh0Nc0MsxcUOXboYmhqSBJlOSNxgyGA0FA9864BfRODHqa9vZNHCRXTvnqBr73xV73xRXYPVMDHP2GIck8CY5HKFeUNa8CPPj8WGOxiFvjNRHFdwY4a5c5by1OPv8uGHk1lWnyYXwNxZjaT9NEsahLvufoNNNj2OjqWRyvM/TX/+tkS1gTDWFQXCWN/t3/8XsO3erclnY0qAuDla0z63/+kF3n1jBnV1rTQ2NtDS0kpTcwu1i+tYML+BYZv3JhbPhrkYGqawz5nRyHXXPERV5wr23m9zjNfCNttuyrOPT+D/jryMm//8czYbUY2YAEfDorqBr2SzGUTCbROM8VEUz1XUhjkinmNwcJn+5RxeenoSyXQLmUwzUybNp6goTufKyvweR6HaoMqwYRtz5m9P5OfH3cSuOxzF2LE7kygxZNKN1NXVM2f2UmbPaGDB/IVkMkrv3p046fSxHP+rXcJ+iGprqFqmfjGLZ576nLJET1wtRoJMgSRDrDxRFHBcIe4ZcoFHcVGC2bNm8cILT9OpymPQEIdnHnuUSZ8vZO9dtmDvfbfnqstv56qLHuba648HaWjzkvxXLJ4bCOCHgrZ6GD+SDs5LGXnYSPIVo3SsTLDnXjuiYjn62ENJxDuQKI1TUlKE41qMZAlslow/D1eShRTR5pZWPvpgPGWlcf7y1GWYeANilAFDuvDgkxewdJFP794gpMMALYTyEpfe1cU0Ni5CAz/cTTzaOSzMUVFQQ+eqjozZcTRff5WhW9cavLjFjaUZPnwoAaMoK3MR9aPsaoNKgOMF7LnPZsyc/yh1tS51ta34uTTxWBzXdSkuLqasrJTSEg9xUkAGx02CJENvTTRZRZQhQ2soildzzx0v8/WMyRxy5FZRzy2fwJWvXaFRn3TsFGfo0G7MmFnHYYeN5NBDtsMxHmHF7RxfTV3K9GkLGb19DR06VrDFyBt449WJPPTXZzn66B1p23L++wwNX18VaAPBrCukuro6WtyylFWkmfDp7XhBEi1UVm6/w/gPI7gLlicNyLs0Y2DLsFiMSaNWCiHQRi1SeCbFrFQ52gUbD+0eUVKaqmJtuHNWuOtXKKZbVSwemWwJgYVELIuRXFiQxlAQ9wHEelhNgDHhLm42jpokYnKR6pAJP/OVqiSIiAesSrTRT4x8FbGQHduREqF6ka+gLXkDb1SNLCy644EtiWpkpMG0LNfGqKWRLUVAfFAPm0sgZHG8dNgGBCQXmlusCYvxmBz5+hsWg7i58K6qhfaurRr46vFd2UI2YH3xozF6rogVJQ1BcciAyeAUDqL9ActjpfHng/ELHg/Ix1mYtoNVowpWguDjec140K6maOGHtttKDiNBGAjarlRoW5u0bU7kq5vn61xI3taQbndMFA4fmSXDDXzyJJO/f/tPBRP2y5qnrEaJaPm25TBerq00YLTVQEgaII5d7nqiNkqxX/GahQfdgJ8AfrSEASuTxspYU6GV1UtLhdT3lY6RdqI2OPlVWtq+XnHlDttnIwmhHTmsuD2A6CrX0PyEDbcdzB/RfmLn799GNv+1CRq6a9Zhcc+TTTuC0P+S+WIDflD4URPGqrG6SuHfFqvYgew/8ty1a8+3vk57KWTVX39XJfHyNuV1w4oHbmCMnxp+goTRtvfIard2BP53lc43YAN+vHALlZ21Tf/8T7dO/K6wZvVjFZDVk8J/Qherijj9divxt0Pe1PGtnz86d61JfBuwAeuIgoRh166o/s/x/9g77zgpiuyBf191T9q87C45SFAJKgJmRcUs5vAz62HOiTOf2dMzB045c1bMOYARs4IgIJJzhoVl4+zMdHfV74/u2V0QZFVOwevv57OwszM9Xd3V9erVe6/eW7fN4o/hj25Dg60zJORPZsPxkzaTcLYMCfnz2ChtGH+2pvFnCK3/5pInJKS5bHQaRpY/Y9Bms3yFhPyvslFqGFn+lwbvGkI8QkL+cDZaDSMkJOSPJxQYISEhzSYUGCEhIc0mFBghISHNJhQYISEhzSYUGCEhIc0mFBghISHNJhQYISEhzUaBn2FKhbubQkJC1oENOshavXqOy5CQkJBVCZckISEhzSYUGCEhIc0mFBghISHNJhQYISEhzWaj3t4e8lcl67FrWsCo6d9C/ixCgRGyAbImofAHCIpsNYcwwmCtbPQCY30lldk4HpJ11QBtOhv/L5YX/I1ayDrKvoQ0stELjLUiurEuSdPf1/bxbImFDVpwNFcIrKkA8rouzKzl97XRVHhtKMIpKCjtF5H8WQvh53fBYFaZdX7LVTTkWzXNL+osq5Se2hDuXfPYyI2e2eoiftFSJRYNl2SayEJjo8RCRPmlRmX9XLaYv0ravCaFmJuNLySMURgsMNl7L6xbE/rv09ACETRNk0Zny2Bmf9aniiqrnruhcPbPz+EXyVYYFFo26FlqFTYQDaPpwG8uwaymoxgTA+XgmLygWnsSdBQlVQiC1gqNX8FcRVY2OZdu1D5EY37F+ZtWMJUmdUSb/v7nYxrmfmMEEQswiMkgaBCFMRZIHCUxPJ1CJMXan9+m87TCMzHqnRjacchNJLFQG4QEbRisaLQXw3UKQIFEkkA9gs6Wsl5vZzQ6htE5GC0gdSi7HlHS5GHIPjGCMSAmijZRjLJRkgRSTT634fKrplpPaVxKyJgWJI0ho1wcFSVjWvgzesOPte4vayCQwmIwOvKrmmQMeK4iXRfFyRQwYVI1Rxx9OUtWxPlhYjmuLsazFMsrq7nttpfYf+ClaGXjNcwyfjlFozw8palJGhbMi+NkOrJ0SYLvR1fyxlszefyZ6Tzx1AKefGoOI0YsorrKRoy1aqkDk1VNBaMsPLFxTQxtYhi9PjQaf5AaE2V5uc3331ayeIHCcXLQ2GgiGBJginCdYjLpEjLpVnjp1uC2RJEDuCAOWsATG89EyGRifPnJHB4c8j41NXVoE8VzS/AyXXFT3Vi+rIRR31Uy/P3pjP1+JZl0gd8OhPlzM9x41WtceO59lJfXr4drXD8YDEYMoJg6ZR7nnHkbF57zDAvm2X5R7PV6LsF4MSaOK2fQoHto2foo7rrrtVVnk1WEqAET4eGHXqXnpsfRf9tLeeetH37lmPnz+HUCw40xYWySKwc/z+J5EKEVxilBu7lklwW/lYoVNTz60DsYLSiVvXm/9H0CRJg8ZSEHDPw78+e5ZNK5LFtqMXN6DX+/6D4yThRPW8yZnWbYc6MZdPKRaG0hkhVM2YrnUWqqFK8M+5atep5MWdEB9Np8EKcOupXvvppGLFZEq7btSbnC9Tc+wbFH3IXxEihtrdIaZQBj4zrFjB3rcP11z1JdV4tB+TPPesAYzVdfTmS/va9kh20v4IpLn8XVRSRdw9ffTuS88+7lhOPu47BD/sXeu1/O1lsOYru+f+PBB57H0xrEBhVHm2Imjk9zxqChHHHIdXw3ahq1NVH+M+Rz9th1MFv0OpaWrfamc5ej2HvvKzn66Lu55tpnmTptNoYo2iT46usZPPLom3iOYrdWVwAAIABJREFUELMUv94OspZrxF9C/FpNLWtLEPyDNRpDBte4vPraezz99Dtok9/MljVduqz9CAG+Hz2Ra697lKVL6xky5GJOOGkA0kRNE+OLWIVGGbDE4Ygjd+XpYVey+Vat+PCj75k7d/mGpJqulWYvSURFWDxf2H23QbguvPTaZ7z44j+orvT4+4W3M2LEzXTqkoORJNr7NYJDgY5QsaKSW//1FvMX/MhNN19JYyetuRK7351CQWEZ7Tu14+9/v5krr7uelVV1LFq6lMuuOA+x48ybV82jD75HYX5rDj38UBynCowmZq9EiYcmgxiDiEZFhL7b9Ob1N4YRTQgVyxcyeuwY5s2bz/ixPzJ/1jJMfQKdAxghO0Q88YWFEcGYXEaNWsYxRw2mQ8dCBh64KTts23e1a/htD4YEhryBB2/FvGXD+Pij8Xww4hPqkxoVNcyZX83rb3xPty4l7DqgF1tvvTNt2pSRn6coLbN9T4ARlpXX8dhD73LfHa/Rt/fmvPbmbWy/Sze01NGlex6b97a45thBbLfDtsTjMYzxB46Fg+2lwHjU1wrLy2vpuEkue+7bmaIWcX/ZA8GM+lv9DoGx0jT2vy8IPAhMmbKWgeXXoPU1MTEgoujRczMOPGQZEybMoKbaI522yUn4PdfQzMajyS51Jdv2wDax5lMKxkT48ac5LFlazt9OPZZjT9oeRTVoveblWVDvt2WrAkrLymjXvhNvvTWSyZPm0qlTKSKGhnrHGyDrEBiNjU/VJ/n042/Zb9/N+M/Dd3DXHe+QV5hDh47t6bN1f6orCnA6pbBtg1Kq4Tit9SrS1kejLIXObpANljLxnCL22fMYX4VXDjQMyWD50AQBli9bwT1DXuWnadNZudJw6GHHs7KynpOOv5pYFLbs1YGLLjqBZ5/7Ek8JbdruiWXlgK5i3wGduPSK4+ndrwMC5MUTdO7QhXT6OxYtW0DrNglieYre/XrQqUcbamqq+GncAqb++xmKiwqxbBvPACKo4FrrauGF17/h4vOG4Hiw+ZbF9O3TFxFpsq6WJv//OgwGUYaoQMxOc/CBPTj4wK3xyGDE4Zgjt+XYI3YDDGKlUMo/lzYOBhejPdAWU8bNZsX8Kr749GU265mLsioRqccoj/332YqB+26FQWNUVdb8H8zaFiIWxsCEH2fwwYiR7LlHb0446VCE2qCRCow/WEQEYzQi2echGAgiSFYTIFsEvLEYeHb55aMCge4fg1FoBCPat0JkDxIQ7AZjt8EF0YjyOPSI3Viw0OGrz2YzeeJ8+m2bswZZZhr+l6ZvNgz61fvLt4Foo1iyzLBoSRrPySAZjVIao0yDu3aNfakNkCYaMUyftgLPNezn35QN2oxh+53qm39EDEgGowRlLAweCguDTU0yw/AP3ueEM84kr6yea2/ZFbFTWGYpz7xwKo7r4kol4GK0ja0iaGPQ6OABEYxxQTJABkMUMQk8z8Ill6TbGiuaoG+/fkAlBGq879DILndW1TSiOTns2H8fttv2eKLREr788jM+HfkRjz4yhJ69NmHmjMkM/feDbNljU4a99BCeleJf/3yI8uWTeOSZm4lEazHGxVKglcGOGiZMmsKOO++DGCgoyKHXFpvTpm0Zbdq2orSkjONOPJQ2rXJIOxFUJFjNmziptOb9EVO55oqHyc3Pw8t4tGppEY3aGONgJDs7wu/1IBijMaR8uw/JQPDGESsCksbzwHM9LKIYE8Fz8qiuqcSOGoqKbHbbuze77rE9ouowVDJh4lweHDqMFoUl/POWM30BbwwYgxaDCGgDiEHjYsSwpHw5i8uXssvuXUAy/oRKDMuKo6nG8zy0JyhlBwbWoB+N/7wZNAJo4w/QRg9XIEwNGMn4Swvte7aUKN8+gcEYQUlWtVO+x8FotE4johqWtWI0Ih45uUJNXTnzFy+gL90RcVa7q43eHbNaHEvQwobXWeFvxIDSGG1QRIhYUV9hVk0t4GvubSO+gDSekE4pMp6gDVgbsHYBa9QwssY1DzHBQFUWnqtJ17Sie89OuDqNkiSW1FNfbzHph+/pt11vRGwWLqjgnFOvYotevTjl9DP428lnssWWHbj19mvIL8hBYTBGs2RpksEX3cL0n6opadmBQaediQjEcgKhoC2MFw0eNqdBlWtKQUGCAw7vy+J5Njdc9wDvvDkSz3U47oSTufiiQWy7TW/GjhvPnvvsR+tOHuMmjee70V9z7fUnYEVrQbkYA44neG6MLXr2Zuy4t4kmElTX1LCycgXVNRUsL1/GwkULmDbjO5YsKWfJwqX8Z+jDnHTS3px26sEgHmNGTef0E29nu536cPp5g7j079fQrWtbMB6iGmfR3+/JzrpAVcPYmjd/AY898TLvvzOFqmoHJw31tcHjbfwJ3/Og2+aFXPaPPTnyyH0RO4XWFl9/PZnrrnyCtm17cONN52B0pmFYaBOhNmlYsmwZy5aVs3RxBaUlRey0y5Z4niIWi9CiJIGQxiB8N3oiP4yZzYA9+jNhwo889sgz9N66N2efdywdOuZhiUaI4boxZs9bwjtvD+eHcePYZaftOPqoAykojIC4vPbKSL79ZgpnnXUSpSWliFVPQUEeX4wcxddfjWbPvfvTp99mGFUPoqmrsXn9la945MGX0XgcckR/jj5uf9q2ycGyDAYPy9LU1VZTsaIaYyLBEqeR1fUI3wVvfAtGVkM2Pz8iWZ8kmUwSUQrbdoFMk3762UGNvdigbGkQj3TGxXFcVPS3aZ9/FOu2YRjFsiVV/DRpHvPnJPnP/U/TpWs7Djp4N8qKWvHp8B+44oon+X7cv4nGFNrJY8x3aRbNXsgbrw5m6759+eyjH9l/76sZ8eFd5BbZLJm/gmOPvJqfJipKi/KpSy3h9NMG06VLW0S5pNPCJyOmcPH593LUCb254aaLESu5hqgbxYzJiznmyMspK+vEyy8O49rrrubuu27mxL8dzxY9O5CfX0DXTTuAVYkxVeTm5LDNdt1RlgFtkcp4fDx8HKed/AAAKqEoLM4lGsshGo0Rj+dSWJRDWWkJxUWt6bNVLwp2ycNJpdG6Bu1pLFuz7Q7dmT7rHaIJGD12BjEbysriQUMl0C5+z+zhH5tJeYweNZUh97zBD+Pnsv8B23HZladSkN+VVqU2hx20K3NmL2TJsvncd/+1tG1XSMR20K7CSBV2rArIYIzmy89+4qrLH6VD2+24/Y4rGD36Yy47/17Kl6XxBBwADZYN0QighXatirhg8AHE84uJRC0Ki+OB1hBh7lyHTz5czo/jvuLTTz6iS+fufPT+EubPe41bbz+J9h0jzJ5ewb/ve4cnn/yEnLwEOTkRhr/5Nt+MXMp1/zyGjpsUUFEBb749nQ8/uZF5M1ZQkAMHHrwLLUva8tQTo/jw3fkMvupw9jtoC7R2eOKRT7nh6udp27YlJS3KeGzoDzz37EguuGggJ//tYER5WJbB8zTptBssW+zGpbIBbTSu8UAEyxJAM/y9L7n79rfZbfcduPSKQ0gkIr7hOAj20tri80/H8eXICWy7TT/69dsSIy7grfLda0UMxWUJCotyGDtmGpN+2pw+fTqy6tJ1w9I4flFgKKWoWOFy7qlD+HTkbBwNU+5fQFFhDl3btGDAHnuhpQSjhGgkB6EOZcXIGI/Zi2rYof+mPPL0LYz+ajknnnQajz/+LOdfdBypmk7MnJ7DCSccxB1DBlNevoDLL7+LyROWYrSFm1GUL3FIJV2mTVmC63pE7J/fuLlzFnLh2Q9SkN+SZ569i4VzU2idZtOeNuN/fAtbxZk7fyb33v0w066YymFH70h+wqJT+1yQNEY8InHD7vv0Y9So16mtSzFvcR3JTA0zZ8+komIFy5cvprJqOfMX/8SsOS7FxXnssVdPzrn4SKLiYqk0xhiiUY/SVsvRVgJtUtiWRUF+LiJeoBxlNYvf8QAYYfr0JQy9/x2WrbA48JCjcJwMsZzWXDT4eM6+AN589VueeHwEJ5ywN5t0rqM+XU465VKQG0FIY4mF48GID8dw8QUPkkoWsNc+7WhdJiwsbsEe+wygrKyMLXpvTlFZKaO/nUOyLsmV/zgO2/KwtIOrq3nl9Q+I2DZ5ubmIKEQJ0XiMcT9OIT93IdddN5jDjtqJF198j8suv5P7HhBuvulUhr8/mZdf+IZBJx/K4KtOorhFLs89/i43XHs/Re2KuPm2QWhsli6sY7sde3DB2WcwZtQUnnrudU4/9SjufeAGbr7534wcOZu9B+6M61XgiMcxf9uP6246kaLiXGZNS3Hf3cOYPc0gOo4iiSVCfUZTl3QZN2Y2H33wFZWVVQBoDA4e1bW1IDaHHLYX++zdl06dutFpk67cP+QDPv1oLOddfAD7HbATOTEboxUvvTCc2297HUxbzjhrF3pu2Q6R8jXY7NaGYClN+7ZFvDBsHhed/wj/uOpg9tqvH0rphs9sSPyiwPCMpqhE8fxL9zNrTi3HD7qcV1+7k7YlcaI5Dsn6DHY0Akbw3AhWJAJkiEaF/MIS7vn3YHISi+nYJQcnU88rL4zj1NNOZ+L8WbToUMS1N58I0bmUtE4z6PQDuOyCB0AMuQUeJ56+HccNeg0ruhxIr7F9nTZpxzvvD6UmWUEsZylzv5xLm/YuucVLMMbgGogkkigd4ZvPf+KYow9n4IE74uoUIi5K/LVxIuFRULqct94fzo03vc3mPTqxZe9eRKIJxv8wn7vuvoay0lKM8Rj56de88cY7nHt6ESIVDcZdI74LTztR8Gwitk1hQX6j6mnM7/CaNVrwe/TswpPP3Ym24owfN4ORH05GtIXC4btvR3HHnUPZY59duf66MxCznI9HjOOxJ97hX7ceRc8e7REUn306hssHP4h2W9GufSsWLV4Aqo4+25ax9bYngFhoY6HdPKpWJhkzdgzGnoeRFB6BrYsMNDE4KiNEbItY3GK77Tfn8KP6oOJzyS+up6Awh1Q9RKKKfffbhW36bc8WW7fCjivKl1bhapfW7dtQV2vjZmIgkJOr2WmHDpx40i6k03XwPKhoHbvt1YWJUwfwxZc/8e03U1iyZCYfjPiKw47Yl/wWBm2qiedCPDeB4yVpNJhbwW20SCYtvhu1jB8mTKeoRTGlpcXk5sURk8P8eQto3WIJu26fR4/um/LgI1fx5n5juev2YZx16lP07jecCy88lH322pP5s2zmz3Y59Ije9Nu+C2LXYUw2SmXtnd0QSo5BLEPfbfrQs+dMRn31FV99PoPefTelVeuCBhvIhsRaBIYBcfEvXaPic0kU1+BZlSi7HIkU4XkKcKmvTwULMgcRD4xLxFZ026SIju1jGEli7ApalLTC8wx1qRrGjplC1y7tyS9OYayVaC+K0b4XAKnDSC1YSZTyjYVrWvVrAaUNUbuOhF3E2K8XccmFt9K33xY89sBEBgzYmc6bubRsbXPi6QN4840buPD8Gxnx2S2IrPTNqGJQ4oJEsJVFQWELtOcwZ9Yc5syfgaVsqio8zj7rXIqLi0gkckgmXeLRhG+8FXeVDhUMnqdI1iqUbZHITYBpfHiyQkNjBaa15j4NgYoqglhpxC7HmDyWL6tn+rT5xHMN06Yu4OnHRrLVFjtw34OXoNUixCugRX4XKpdqHhryIfc9cBaelSaagOMG7cxuAw7k4aEv0bJlAVqSWFbavx8GtBYccXDdKjKpOizjgKpFFIixsZVQW5ti8aJy0HZghFQM2H1HBp08ACu6GIxLcZGiTZt8PDeCZ2yWr1zCnbe9yKhvvqVl+yh777sTm/XoSUFpHFE2SkcRIxQWxmjdWmFZVVi2R0mZRWnrDLkFLgUFEZaXV7BoYTlVVRkm/bSYH8c9ydWXPoZoSOTBMSfswAUXHhMsEYRMxkOUTTwnh816duaqq8+nNunieh7JZC011UmWryinoKCAnfv3JifXJaJclHIZeOgO5BZ35J47n+Kbr75l+uSHuPSKxVxwxUFstX0Zd97yLicffz2XX3kkBx3SC1F+1KaRbADZmrpUAIvqGsMLr4ygRRuPz7+9k+6blgXHb3jCAlYTGEoBgVFSEH9QGDvwVGiMp9DG9X+3VmIownUi/kQjfsSmIYNYQm48FwvlBzd5EEsoMmmPaAxatWzJyhWVWERAR1hZWcOwZ1/CsvHddmL5UZ8mB6VctDG+63IVoS1UVaR47KFPuO/eYdTUQaI4Rrykni++/Zrnnh/B668+TGHZIlq2KuWww3dn4vh5KKsOkaywMBgtvlEsrigpLmObrXvx3LAnSRTmMGr091x00XVcc+1F1NfVsmjhIj4f+RVOJu2HFxuvwW2YbZPnetTV1eG7M/2YUiSIKxADJorRRWiVwpZasl6q5pGNDbDIpIWKiipqk8uJxqCqspL58+fRvfsALPJJJ1syedxyXhw2nGlTZ9O6VQuWLhFatkmw887bsONOffhp4nxyYzEs8T0OYvDvRxA0Jcrguinq6tJobOysh9sPlCCdSlFVlcQY8T02BqJWhLx4Atv4cRMxhJjvD2XmjAqefvwjFi5YwJ33ncsRx+8Cohn7/UKK84vAiaDTFkb76rhlFJYXQbCDcHUTePKU/8wZhaVsevTsxJlnHctee2+DpQyJHButUyjRoOvRuDieg6CwosJnX33Fbde/zPTpy1A2xOIQT/i3tq4OBg06jKuuOZK8XMW4H5Zxx+2P8/67X1Naajj3vF05/fTD6di5CFSa3Xftw3dfzufJxz9gyZKViLJBqYZYkYa+NQoh5k8TkgmeH0OqRuOkYKstOtJts0JEJZv5LPw5rCowEERbIHWBXUc1uIUs5RHDIyMubkITdROgY6AjGE8Q0YH7zQGBeDzrrtTYIqRra4nEc4jHYvTq1pbKxXUsnJZHm642s6bUMuLd8ZS1bIPW/o1dODOHe+55hCOO2Yqdd+sZuMFWHVwFLXI58/yBdOjcjgeHvsUF1xzBrrvuwrixy7h88M2IXYvnpaisSPLNV5OIxQrIpCAnz/h2BZ0NNNLYtpCbF2f06In03mobTNR3JYrkM2LEa7Rt15aiwjwOOGhn4jEX16R8V5+ShmWH0QrHccik68k4DlU1VQ3rWSOC9hSjv5nDLf96g/4DtuLSS3b1jzXNDfIL3NPaZvqMFbz51jd4XoS0k09OcQFt2pXwzltv8+XIj6iuTpJOObRtW8JuA7Zi+oxp3Hzjf7j732cSURkso7GMi4UbuE99ISp4ZN2fGIPjuNTXO2BsjLEQNAawoxae1ixflkSj/OO0b0i2lMISF7CwRAU/hnSqmqqacmqTDjXVgk4XMXvOMp569DM+HD6GY45pixgHWyz/ebKN7zYV30irPYPBQeH4E4hJ07lrHpad5puvJzBgj22JR+MsnFvDM0++SW5ehvMvHgiA4xoKigpo07oFAwd259ADd0IbjVIKJYI2QXCWcX27Exmef/YdbrvldcSOcM0Ne3Pc8QNpWZaHZWmUckEE23KJJTwsS4KJw8LoGJMnVPHWm9+xaY8WDDy4DzE7j9dfGcPCBfUMPLgvm3QBZaUwxkG5GeKewXeQWE1iVjY8FWOtNgwTBMtkEVFocZg5czKbdNoRUS6RWIbNepVixTUYjQlmVMeFeI7nq7AiIA5pt4Z4JIGtXDbpFEVUOTvtvDcFRTkkUx7b9t2WuQsWgBFWrFjJv//zJM889yVTZkzkrZ2uJ2pbsLorTBxi+Sm27tcBVIbPP5lEy8Lt+ef1/+aww3cnnreCVCrDjCnV1FTDHgdvx5WXDOHe+88D5frfF/jvsVbSY6ti3v/wHkrLNiG/RSk//DCe668byiWXXEZ19QrmL5jHnFlzcLWD6xpiURtwaQxI0kSiUFwGVjRNTXX5Ku11XI95Cyv4eOQkrIjCDO7foDU1d9OaMWB0hNkzVvLJRyPJzU9w2eC7uO6GU7hvyD+ZOXMO6bRLi5IcylpHKWlRhHEjfPz+GL7++iOU5WHQgf3B4LnBstL/dn/znq9e+LE4WtAefpyEaYxF6NihLT179KK6KlgwiaGuvpyq2hlYkR0xJoqI4GQcUvV1CC5b9GzF8cfuwvwZc7jxmvu5+YahRGI2yopQ2iIOxsXz0mjxKC4roHXrUkQ8CvIdWreCvBxDsrqO6pU1iBgsFLvtsiPTp1Zz47XP8Orzn5Kfl6CqtoZY3OGCiw4EwNMWyaSipKiMTTq2QkkKsTNYIkEouT8QjDbBtfgq1v/93+7sOqAPdixOq5ZFWKJROI1BeMagDcRihlhcYcRCB8FkI0Z8wpAhr7PvATvQc6uWdOvcjQnjZvGfB19CIsdw7vn7+gEMtpBTqEjk4ntizXrcQftfQDp0aGdMIK1LWriM+v5+xFQj2viBMUahMSRTDp+OnMw2u2xKyxYFRNw0mAhaRzFeFFfZYJfj1AvTJ9XRpXN3clssxYihpjLGJx9PpEOnEnr3a4kKZrHq2hRLFpfTvl0XKqvrePThR7j2qosQK43jCBXLMpS2UljKYFkWfg2VIIJU/MhD48Wpr+nAe++P55TTL8K2FX36bMrbwx8gGlvOT+PnccZJt1FU0IZbbv07p548mKuv+z/+79htUKIxaDxRTBi3hGOPvI5kjRDPj9CirIBIPMGs6cvZYZfOFBQkiMcjRK04bdu05rTTB1JUbIFJYeGBeIExS+EphesoIpaD3UQjMihWrDQ89dS3fP7Jd7z5xvmrCOV1CwzffTljRj133PYxyyrnceIpA7j68nuI0Jqzzj6KAw/pT1mrHJSdRJSD9gS8KBY2UItS1YiVAW2YPGkR9979Nla0hCEPnEPEWu4H6hkbjcF147z40gQ++3gcjzx2IdosRQWux9q6OE8+8T1ffP0Zt91xHB07FFNVo0nVG1qWRrCDXcAVFSsYO34W8ZwCdtqxC+gImBgQIZujZHlFJW+88zEZ1+OMUw6iqqqcVEpo36oUCxdHDK7R2AosDJ99NoEFi6o55NAdyc2xcCVKZaXH5B8XUl21kl5bdKBdu8Jg1vcYP34Wt976Lm3bbM4NNx5Dbt6KJoFbWc2gMdI0u19MAK0IQsxANQQ4NnaUNoqhD77Dw0O/4MyzTuD0c3bEllq0E2Xxkgos29CyVSEYWLqkHkvlUFIaQ6jDGMPS5R5PPvUe3TYp4JijdvMjRDdgmr2XJJ6IsP9+fbEQLAff4GH86DtsMFYVEEXFDVv0LQQW+9t4RZFfqDno0C3AclE4aFKIySE3N86m3VoiqpbCggTXXX0eSurRQCQCrdpZgcFTWCW0OCBVrxk3aj4vDXuB555/lxY5Udq2a8miOYv459X307VbOyZNWEBdnXDpZfvRrUeas845gjtvfY8unbvTZ4ditMqgjU2PXjvw/bjvSKXT1NVX4Ho2Y8dM4o5bH+DM009A6wzJuiTJ2jqqKut5+YVv2XX3Hmy6eQ6W8oJW+rYKMRrLcvl53xuSdTUsX7qAgkJZxSbTrCWJEepr4etPp/D1Z59w7kV7ctiBfdixz3089/RI7rnzAa656j6KW+SxzXZb0Kf31ijRzJ49m5GffcK+B/ThjrvP9NV9y/dqudqQqrPB5IJUYIzgZGwWzKulti4DJo6tFEpH/AhIAUQTiyry8yLMmLWQz7+cyInH7EphvlCYD+DbnVAeRSUF7Dmgd2DH0RhxMCrwepkYiENpS4dTBvUHQKk6Skpy/NnX1AGCLY0RkCLCbrv38p8F8RBcbONSUiTs0r8MkZbBdzuIURgjzJy2hFlT59Jj882IJ7SftcNk96gA2jTGeWbDs30TvH+a1QyXq2jf4lFYGCeeiJCqt/B0SRD3kaZ9u1y0coA0GItWbf39Npg0mBzQucyYNpVYPErnLm38OObVNPsNjWZrGFr8m6nMmjeD+aye12LNUY3GeEFuBv8YTxnfdgIodMO28V8StloE8aJUrozy/eg59OqxBS3buXga6mpc5sxeQXUFXHbJ1Zxx9jGccvr+iF2JzrRg0o9zufzyq9j/0L6cee7JLF+W5OMPJpOIF1NSWkhBUQ6RWIRYLEIkYqOUwrIMltLYlkVMRVCi0FYNBQUOsha37yrXHPhFknWalRUW7dqXoGTZOo/zaYg/xHgJqlYoKipq6LpZLkaCEHETxdE2no6QzsRYNL+OxfOrqKmpI5EjdOtWRsfOUVSkwvfOmBg1VS4vDPucnyaWc/eQ87FUOYJGOwm+GDmHW25+glhegkv+fiI779oOpVINnh2jc5g7F4Y+/DZOail33nkqYqXwc4yYVVre+NI0/OsLyOw+FVbZULZOQ7D4HqkGlzbSGI252jkNFg89+CEzZ6S59PITaFGaQkk9YryGc2VD4X/L3G6AjI7xwfBJDLnrNSb8MIvLrzyKwZcNBFL+Uh3fhuVfsoCJcNetr3P/ve8QVblcdvVxDDpjAJaqw/c2/qUExi993S+FPa9NyAQu0l/ZW/4xylefvQRae4hdhVJRMDaeo7CjvrdFmxSWlUHhzzhaFJ4DRupRtp9YRhNDTAJ/SslgRAeeTP+hNhoED6VVYK/RKDxErf26fk7gTFUGIYLozLoPWe14P0oxGGjihxwRhPOD+ElbRKG9CK4b8/9mpRFxEEmDuBgUEmz483QcrRW2ShG1/H0i2ii0juA5uRjAiiSBdOBZItjLIhgdx+gEKCew7jcVFtIwO/+ZOXUMCsfJxXNtrGgaO9ByfVsBv3twGvzcIlrbaDcfL52DbdcRiVcjZBrjNbOKiwDGxknloTMFWMSQaCVWdKUflrAB2y9gtSVJsN9o7SEnv6hdrOm9rAD5NYOqefgCRiPiYll1qIhgTCxQFz3suAPGw4jy9yd5glZ+hgRBsKK+0VNE+d4QXY82fhIYJWBJ0O6GvKDBWFBBmr81LJHWje/K1Vqj8bAbLOLNP54grsBXmfWq72HQWfXMZLDsjD+hGYPv+bDJbg/33b0OluVhKyuwK7mgbf9arTS2CsKoxQusso2zumAgz06UAAAgAElEQVRApUBl1nIf/E1rf24CLr/v7GgtdkT5s3xgVFyfs7jCDz03UoWxalDiIrg/+5xpiK1w/RD9WE3QJz9f9myorMGGYRp2ryrxV3a+5RjAbRxAzaJ5guL32Xl0w2CWQByoYAch+MLCn+y84CJMduQjRIKXfkcqNGIFblINNMwPPv5vWXtF9r1VP7M2Gtyr2Xap35r34JcFlTTEKmQ/bXxtCR0Y87LCIkhQZ/yLNejGTGRGB1el/fsWCMfVh5ivL3mNrZKm7/3ZwgKaPn+idONsuB7b1eAxQSPK+DFLfhTiKp/J7lJu1DaCuBeVabi/Tb9xQ+VnAiN7T1d1qfo5H/Qak+eurlmsMS7z97ZzDd+nVnvtI0EwVnYwi1ho0UCE7JZqkaxFXOELAI0EmoM/A63pGkygxipEBC0GZZovNBqEQ/CwYH7Lk7umz2fNdU3P1SQHiclGyq7drmCMG1xFk+tueH6b13cbhoD4OYH9EtNgK/kvnMOw2qBf9+elyUTX2Icb4A1cjf9CEuD1v/z4OTaNQkPzcwEC2TW9r1mY1fpC+duKV2mrbpL8dk3XoJoYagGTFRqNUZ7rmv2bHNyMz6yJ5s8+v0Z7WZt6vu4BtvqbG+bsuCEJszXfoQ2kcc1gA8ka/lto4onJlhRokgHct7RnSwp4DcsQwFcZRftBSdkpSFzAxmgLwQ6yjxsaArvWZI8xVhD32NjhG3ndhl/JhikgQv57bKQCwwOaJOA1WQ0/uJwgItFPUacRbLRuOuAVRgeejgavQi4AigxYGmVyg9R2a9GYjGCMjVKCaYZbNSTkr8BGKjAaYzjEKIzSiFaBcQ/Iuk890NkwZxXsmhIdGFn9ZYrRvh9ejANYCHHwLN/daGyU8hDlBEFoBMJBkaxTzJ1RTSQSp1uvP+EWhIT8CaxngfFLbtf1SXaJoPA8RX1SkZtTBEYQpXAcjagYGddjZWUV8xbMZsXyaiqWQVVlLel0BqPT9N2mK7vu0QWl0ixctJzXXvyCDq37Mf6HqcyaNY9JkyaTyE1wyWXHc+ARvRGV8pPFoJj44wxOPXEIAw/cndvuOQJ/u/vqtpKQkL8Wq8ZhNF2eB/kMFc01oK3Nu/DfwtcY0inFyBELuOfOW6ioWEEyVYfrQmWdg6ctPCxckyEaA8uCqO1rChELttiiM/0HXIkRj8WLUtx283BSqeGUlOZw0KE7cte51zPqm+nc/M+XiRQo9tyvOzYWytgYsTGWwo4HNU42FKtaSMh/kZ9pGPK7vDtrExr/Pa0jkRPlwEN3ZP/9DsQxKexEivmzq7n44tv4YtQoWpa05Kxzj+aQQ3ciEknRuo2/fFGkMTiIctEGXEfYvMemPP38TVixlXz55Xe0bhdllwFdef5Zh6VLqhjzbTl/v/B6jj1+W7bfYXcsW4hGGm/hBr5vKCTkd7MeVYKmRsXVf9Y3TfJjqnqMtQiVO4lo7kyqqxfw4YjhOKkqXhr2KJbRpGoy3HbjPfzt8KuRFNgmjRIHK0hG4TqGqso6olGbFqUFlJcv5dnHP+GLT6YBLoIQiVgo8ohIC2LRIpSyfHek+iM8BT+PtQgJ+TPYSL2Aq4VEq3qw6lhWWc6DD73NsJdG8tIbj1FQXImyXDq0K+Gaay5hp/79OfKIa3C0xsPDQ2MMaE9Ip/16FlE7h0w6RmWlQ15+IcY4iKWJRK0goM+P1vO09qP6VlHJwkEd8tdmIxUYWfzma2OxdIXD0AdG8Owzn3He4COwCmaDbfx4C1VLSVuPQ4/ZigkTFjNwv2tZsHg52ig/lkJrXEf7rlKElGOoTivyi+NYYiExyC2Oo5VLhkxQzNjPleBvOjENgVwhIX9lNmqBYdC4AssrPZ5+7DteenYUF1x0EPsfsrm/r8S4QYYqjbJdtuhTyjvvP0NUtaNfz2s57ph/UVPn+kLD+Ml5TLCvJBGP0m3T1hhtE4nYFBYUBOnxslWwAARLNYn03AiK6YaE/B42UoGRLZ0opNKarz77iQfue41DDu/PSafth7K9IJLT9VcMIn69Vgydu3s89uzl3HD95XhOFK0tTMQN0qUYUql6li0rJycRo227Mmpr67HtCCUlLfxIUsluzAOlhIidNXqa0FMS8pdnIw3cCnIZoMiNKPbbvzvbj7meyooEJx5+K506d2bUqNGsqKhi0aIqBl94F5cNBteFsrICzj5vf84693DOvLArCkMqrciJ+ZvPqqrTTJ9aTqfWxSgMNXWKWCzO5h3aMLZ8ehBy7idBQSTYtKYC88Uf7VoOCfljsbNq+O9XpptuBvuj0BgF0ZiiZVkxi+Yn+earH5g2ayLt2uez24B+7LPvPmyySXtiMY+6Koe77/+AYa+MZtApA8kv8CM/Y5aiqLCQZDrFyM9H8dKLH3DSsQeRTjssnFeLWH4VOCHiJ8PVBo3jay8q68GQhjaFQiPkr8p61jD++DgMCHZbKgtlJejctSMvv3kLLVqnsQ0opdE6iTLCSqVpVVbs79g2Kki2A5Zt0alLC/Y/uDNgyCso5viTDiSdqaLWmUivrRWaJAYPserxPJ2NLA+2yYe2i5D/DdajwGi61fy/zZo1GYPB1S6pVDmWxLC0QTzBVv7yQWuPTMZBLIL0dtl80B7tOhZy7Al7M+Te92lRFGHWrPk89NAj3DP0CuK5GcRNY0fradM+h3btWwWJZTSe+/PMSiEhf1U2Ut15TUJJI5LBczPMnbsQ7eWhrTiOJEjrKI5JoL0cUilBKYOK+EVs/F2nFp4RKpfVM/aLiezbfydalkbIjyW4+PRb0MkYRiy23LoDTz9zA4cevjMiNq5j/CI/ISH/I2ykRs8sTTUNg7IyYIR3Xp1EuqYtqZRDXV2aZDJJVXUNU2ct5K03PqZHz1JsS4KSkBZgs3RRLc8+/jmF+a048ZT9ySmo5qSTD+TkE27ghP+7gf88dhllbTVWxEXjAI6/G9YJqpH9eTchJOQPYyMXGI2ahkETz7Ho0KktEyfMYuABcVq3aUUiJ0IkIkRiNkZ5/OOqk3C9pfjeUAN4rKyo4vln3mPihEW89Prt5OSnMGTYetuOfPL5y4wZO5VY3PKjPk3WnephqXqWLZvdYMvYgLPDh4SsF6R9+7bG95JkKC50GT3234ipRhk/CbDCCpLDrq0cQHaW/yM9JI37VnTDIBW0ieK5BXhOBDuaQVnZ8o2eX0u0Sfu08hCVwRhBTBSTKaSm2iKvOImy6/0gLjIoiaG8hL9nBb/6utEWGdewdCmkUkk261aAoR7EC+7PRrrSCwlZBxuphhEIKJNNjw9gUKSxrOVIJEicg2p0YIj2c1b4L1AmgtZWUDgpg4qWU1gKyrLQnvGTtCJgPIyqJisEBMGIR9zWdGwriCQQgsxc4bok5C/ORiowwC8vsPpMrv06mQb8Qnguq8z2xl7lsyoQPE21Ju01Lfjc9Dt0w58U+Mm7BGjQv8IdpSF/fTZigQFrL5y0tter83vfDwn53yIcESEhIc0mFBghISHNJhQYISEhzSYUGCEhIc3GN/iHEUchISHNQIXCIiQkpLmES5KQkJBmEwqMkJCQZhMKjJCQkGYTCoyQkJBmEwqMkJCQZhMKjJCQkGYTCoyQkJBmEwqMkJCQZhMKjJCQkGYTCoyQkJBmEwqMkJCQZhMKjJCQkGbTbIFhzNoy3P6RtVRDQkL+TGxjhDWluzZGAxE0BgS8IPmtX49UGv6n4W/ru2nNkWWhsAoJ+SOx/cGvWH2AiiiUCNoIxnj+a+NXO/ffX11CrH3wigHvVy9+slm6f+lAFWT+DgkJ+SMIEug0/ZMEwkCybyMiayhgRMN7vzyof4uwCAkJ2RBZZSiL/LzcnxJZ/WO/9BVr/sTvKfAjoQYRErKhsF7mflHrNmCEQiMkZOPnVwmMtaXzk3VqIcHJzO8QHKJXERwCWGFpwpCQP5RmCYxfyvv5W3KCrg9twwBmg9I8DP87XhvDqp611V+H/FVZQ6nErNFzTa5Ww+oyxhgPYwLDp8Dqg0b/gjxRRoEREC/4rAFjrXsJItqvZGr0KgZXA+hmiEDfUGtQWUeMrLmtWcH287+r7NkQTJPaqg2faPL7mgbX6p//tTSt47p6P/3y9/qXrhtc42uvCftL7Vz9vew1/tJ3NX0/279r66z/lgBavX1Nr6M551zT8f9bgvJnRk/1CwPOaMDJQ3nFeCJkVD0ZlSJjzFoHufULY18DWrkNPyqI9VBGNSxf1vYjxuCJxphcjNsOQy6L5rTiqUe+x021oaoiHzeTjzZQX6/46L0FXHrBM6C07ybWVoOgANAiGJNAu21wdQmkO6DT7amtKWbpojgLF8aYt6CIBYtbUaPz8LCD47PFm333tPYU2sQxJDDEAoG2+sD69fhHCugY2i0ikynDcVvgkYuW7Dn8ivYGG1dFcVUOnskFnRNUs/fQOGhL0ErQEsEhl7mL4owdk8F1o3giuCZCxssh47Qgk2lDur4NdbWtqK8vwjMRNBaeQEV1lHvv/IGzz3yGurRCCxglGGVhiIBOgJcPJooJHOBaTPC/YCSCIYI2ih8nzOf88x/npn99QIoCtPiC2vweudrk3mkRHGIsXh7lH/8YzgEH3MDIz8f5JblFN4j9tX6DaLRRjP5mMUcf9h8OO+hhPvtyJfU6H29jL1H8K1j3lTbRNhQWdVUFjB0zh767dkVFVoASjLaQWC1gMN6qh/+iS7WJkEmnNPNmpui2eQmWuM2agJWxmPTjMq665AaGvfwUy1ZU8NhjI9mkyzZcd+PtvDfiViImztRpy7nsirvZeacd0SYPEQ2SARSe8iu411QbXnvlU66+8ikiNtRXQzQKpW0ilLQqIRKzcdKK+fPL2W7Hrjzx5FUYnOyFYEyEVCqXBQsN43+Yhue5dO3Umn7blCB2TYMW9durvIs/6ASGv/8NJx0zhC5d2nHuxYdz3N92QJGkqsJhxrRqKqodllZXs3RpDbOnTqFu+UJOPm1/dt9rK4xk0MaAl0NFuc0Lz4/kzjufZLttN+Vftx/P0vII349azIRxExg1ahwVFeU4DrgO7LlXb2695US6bF6M1jE+HD6ee+95il1370F1dS2JWB4QAS/B8nKHZUvrad2mBUUlgGQQyWqoQjppMXNKDa5r2KpPOxYu/JpR341Hs4RNN2vNUUds6QfwrC8MzJi2mLvueI+fJk7j5FN2p3v3zRHJasYmmBHXfO8FC8GwSbdiBuzdi8ce+5DnnvqUNm0Oo0vXKAZB/ge0jbUKDPmZj1VYsqyK7XqfRnk1dOrYklFjXmT+vMXce+9Q7r33RJTtEI/aNF2WKPPLyxJQoCMsmLuEg/a9gXMu3pILLzzb78hVWL0zBUOUiA3Lq2q45KrrOeWUi6lLuiTrbE464WiEBIsWV/PsUx9TmNeJO+65hpSejegocaIo5SCSwuCiYjVEczUdOnbi5luvomeXHhS1imMkTSYdZ2XlcqZNmc07b33B5Cnj0W4UFckGvCmWLUky9P6PuGfIC4jxn/WCHMUhh/fl3vsvw4qsYFXVt/lCw7fXZH/x2LpfBx599gJGfT2fTz/+lqOP609dfZJhwz7m5uveRFlQ0Maiy+aFdGzfhm7di0g5Ff7SUUdxPfjm8zlcd+XDlFes5NSz9+WsMw8lGq3j3eHfMnToi+yye1cuvfZASlsUkl8YJRZXFBfk0b51EQI4qTgrllnEEkK/7dpS1qLI72tt8/orn3PpJUOprIbdB2zP1TcMoteWuUQk6Y9LA3Nnr+CBIR8QicS44+5T2XOv/ixY5HLzP19hyk9zMYf3RtAYMf6qld8vP0Z+MoaxY6Zy1rkHMOi0XbDJLoeV36i12qD8vhIxlJYlOPWc3TnoyP154pHP+PTTH+jStT80TB5/bZqtS2XSGcaPn0e3LTfjs6fu5W8nnsaQB4awXd/9GPX5Qj4ZMYuBh2wJpg6EhjWyMQaF+KrqGvajGGMQY2MkSiQWp2evXggx/2ExLjR06qpogVR9PTVOORddeRpff/Ut//jH1cycMZe/nXQ6noEnnunElVedwqOPDcc20KbVAJTld3+XTq25655T2XWPDkAEpIxYpJTKujSTZ86jXdtNKI3kEU0ksCzBjrZi6ZIkk6fMIJ7QqGgK0BgdBQzTpi3kxVc+4N57T+WEQQciOsK3X83gjtufYPyEhfTtl0OjYfS3aBi+WixKaNWmgP0P7s1Bh/QLlpE1xOMRzrngIM45/xAEQTwBcUFsDDGMpEDSGIR33xrPTf94jbPPOZYTz9gNiVUTUR6WTnDBBf258IL+wVJK+ddo/DZnbVsiFlOnT+OzLz9nn7134NxzjyVCBtHC8OGfc9NNT3DAwQdz5LH78+jDz/D5l1/Sa6t9G+SkYBOJFRCJFyOqFjvmIpbm0CN3ZMHieipWVAAWYrRvcxH5Rb1s7fucGm0UrquorVPYsXwKiwt9LVMHSxGj19Ejpsk5NBaK0haFOFqxdFkadAxU3a/pzI2WZguMumSKd9/7kqOP35eytrW8P+IubMvDOHHGjHsWsRdjTB0Q8QeRCB4acAEPMcafJpULOoLyd6ngBjYJnckjGs2j39Z74U9DgugisKrXquitWFnDQ4+8T3WF0L5tF7p0bsn8Bcu4/Y6raNuxkIqKFYwbO4UO7dpx002D2WSzPJ594jOmTh/Lq68+gBVZgqYaRGOrKLkFCVZUV/Ls008z9N7bqU87ZDIQiyjiiRhGG4qLcunXpxuWASMKY2lERxGVoGvX1hx99N5YVg3KtmjZOofu3XsxdepM+vbZBlSS374kwb8vYlAixMRByAT3ChCF1sa3zygFEdDaYIvGIgNeBM9ToDSHHbINhx+8B5YFrrWUyuo07374DQsXzOXCC45DAnuHQWNEoRQY7QsQEQdjFHPnLWLytIl0P2RbxEqDcUA0qZRDLF5M505t2Hnbluy03dkoO41IFcrY/iSCgxEPV4ElBlEeIpqCRILWBQXUllcElyv+KkEMWtbhrTPZ+9poJzKIr52IwqDwNBjPQ3keljaNKouYZpuWspqOuAYc7T/TxvoNfblxsorAWFVQmwY1zSB4nmLhwiWccXF7LEkiSvnzj+Ugpj4YDJrqqjTPPvMyxSWt2GeffXj44cfpumkbjjjiQCzlgjFo8ahLpnn1tU8Z/e1kOndtyXbbHIayLYqKi4BKtFSDVY0iN2iPP9s1pW3bMu4ecim1lRGeevxtHr7pMbQH191wK/958EaKCqM888yz7LzrduxzcHd+mjyZDz56hzPO3B/PWoBIDbYo0DH+v73zjrOiOvv49zkzt+zebbCFsvQuwlpBDaJYorFFNCbGLhqNLRKNmGhMRMWOoogtr9EkajR2VCDG/koiGsFCVVCQpbOw9e5tM+e8f5y5uwvsImDMK7i/z+fuZ3fvnTl3zpzzzFN/T0iFGDSoNzfedBH9e+5Bn57llJV2RIVCJNI1rFxVyfr1a1lVuZzVyyq5bcKjHHf8CAbt3gmFYY89u3LnPecQzUuApNHGoTGxkYZ4Lf37Dg9s3K/vwRNAdOCiE7vOq2vivD9rAbP+uYANVQ0kMimqaxuprKxi3eoUiTj4Huw9vAc33HQS+w3fHW3W4CN8sWQ1d0+azudLarlu/CmIjmTvvn1pA0RAF5KIa5KZ9RQUWXM/P7+ATp1LAsvVOlwbG0PkRDsxYEBvjMRxQklE+U3RrGZdQduXaER8EA835BKJOigncCcIgS2mgs29WTTDEETosprPJrMUTJBgjJBOGlJJH6UcXFexzRKiVTiIEsTRbNxYw8YNtZSWZdfnru3HcDdX57Q2TdqAb9KAg5+JUrMmw6ovEyxetJxUrWHAgJ5ISPPvWV9y0c8u4b2Pbicccamv87hlwtsM7NeTB+/9X+rqVlNV5fPIgzN55vlbyCkQqtal+fWVD/His/NxHEGpL0ml/0mfPuVgBO3D0sUJbrnpXk47+3BGjTqg1SiMFmH9+o3cdP3/8MF7Vdx+60Tu+597uPzyCzh+9AUMHdKZTDrMPvvugecn8TIpQqF8RozaEyfUgDKQSSlm/WsO4341hZpGSCQVYXGJ16RxI4pQTphQyI4XCYUpiuWh8HFDwsba9dxy26WgMxTEFHl9CtGSwRhINBo++6yKpUtX0L9/T4TaHb5JTT45EXxPqFrfyOx/z2fhwk8ZNGg3Bg4cyD+mfcIrL8+lqGMZyYygwvlceMkvGDpkAPl5Ll7KoGUlfQaE7BNeuyyct4KJtz9J5dIwV/3uEkrLQky+63nefW8Oy5ato6Heo6YaMik7/dqHPn1L+dWvj0HCeYTDIToW54GA54dobAixrsqhPumxYnUVXy7NoVeffJxwdqP7ZO0SYwStNY6yFycYjNGocAZxDZmMQYUdBGWFjVa2SFJ5iEoHwsJgjMsLz7/Op4uWMmbMT+jcuQARL5i5QNMwIWb960PeeO1dunXrT+8+vXf4XtgbYnBCaZSTZv7cz5k/r5KDDumJkjSyiwsNt2WZevAvrOppVcCajQ385IQLWTgP6lMw5pR7KeoY5dbbjuOHxx5P9YYajK9wKAWqrZQXjzkffU6vQV14a9YrvPPah4y9eDzPPvMWZ5wzitraDC88t4ihQ/fglVcfY9Wq5Zx66jmkUwYkw4aqDPdOmsarL69k7foZHHzw/luWzxvFii/XcdH5D7F2TZJ77r+BkFNM/t9CHHLYnkx/ZRLFHYrJeLX8+dEnefGFDP0HdSU3N8TAQZ1wfAgbEEcxaMAQrrjiBgbvcTA54QixWJSNNSvxtU+8sZbqjRtYXrmMhpp6OnYo5JBD96BL13wc1dCkigP2QajAeFFmv1vJZZdMZNj+e5BfYBD8r7WMJDA95s+r5PdXP8aHs9cQi8XYf0SaKQ8cxm13juem23L4++tvM/biWzj8iAP46VnlCPWICeP4gqMioDRpLcyZs5gJ45/gi099Lr7kp4wcNZgZr7zB/Q+8Tk4sjz799qGiooL162op7tCBX156BsZLoE09+UU+U6e9juuEyC+IISLM+WgJE254jldfW0DawBVXLKJ/eRGXXHYM51xwFEizjW+Mwcv4eL5POGQ1DIWg8cHxbfDX1zTUNLJ+XZyImw8aa1KQobZ+Hb7R9OnXg6IOVkjdMfkD/ufhdznr1GGcf8GJdO5UbAWZFv535kfccfdU1qzVnHzqcAYP6Qmydofug9VvDJCgQ2GSBQs+YfIkQ27OiQzbv6eNBrVyjL2HOz/a8GHYUKPCpSCvjMl33cP7763gjgfv4+aJ4+jatYSK3TuSjGdQygUxeE4KkTgZJ44fEyI5Zdx856/JyVtHz4GF1NfGeeShv/OTM0bx6dIaSso788Szt0H0U7r1THL9db/m6qtvR5wkpWUhbp54IWMvH0OX7iFEErQmtTt1KuGmCZexfuN6hlaUMH9uLd165FLQwVBUVoKSJCtXbWDl0jpef+l1pjxwNYcdvhch18XRabTRKDGUdlKMGtWRR/50Pzfd8gQSgqLCHDqXlVG1rpGfnvIDCgoUISnk3ZkrefLZ6bz84niUSqGMhxHTZA57mTBvvfIFZ516HYOH9OHm205HnGqMyXrRd2z5WHtcGDJ0AH97ZjJa57Jo4TLefO0Dko0RoiUb+Ojj+dx5xx8YOnRvrvndRYikmPr8xzzy8N+5a9KZ9O/XAQN8PGcxN1/7BB+/X0NBUYyPP5kD8j2OPmooP/j+X3BcwXU1jckcXnx5IZ8uXExuYS2OsxaMRhECDVoLRtu8lj32HMwNN/WmQ8kzLPxsDZf94iwO3LcnXboKimrsNrNmggTpbkZbZ7YJ7CsRQRT42iOV9Hl1xiJ+f83jrKmqtzMmoAJlRWs4+dTDmHDzqZx9zo8ZPGQkkyY+xJR73ueJJz7k5FMO5GfnncTKlcuZMmkqs96p5MKLx3DmWceD+jKYVEFa3LttvRP2p8cZZ5/AurUO9095isTvarnyqtGMOrTCOpsJojtm1xAUWWwhMJQ031SMoNw0A/eKkFfWgSl/ilKxTwmlhbn4fhoVyuBr0CiUykWIYnQS7Sl69Czh4IOGIGoVkViavDKHunpFQ12UuXPW07t7BzqWghPeQCjpECuQwC9i7dpIXh09+0tTaLyZtwOyvoxoRNhjWD6+35MFc2s5/5zfsntFN9ZUJujatQDJ0ZR36s6Yc0/g6O//lp+f+1uenXYNrkrjGI0Rsb4FMYQjipxYDDcvh4oh3Ugn66ivS1JTk+TV16fh+XX4qSjx2ly69y1BI7jiWc+KCNpEWLxA+N01jzLr3+9wzi++x/jrzickWe0ia+PuaJTE3hflNhIKJdAmn5r4RipXLyccS7F02UYee+SflBYN5v6Hr6SopAZMmJKCrjSuT/D4X6YxfvzPUQrWr0/TuVs5j447j7/+eRqdSwsIKR9XNaDxUUohKCKuRjlxGhrXgtMATrKFcwMa40mqa2rA+DhSz8BBEUaM7MGKFWvp0QvK+9SgVAKjDdoojGT9DTbTVgeZw2JCiGRAFImUAaIUFBQw+oRjOfTQH5H2k/jaR2uNbzSZDITdHEpKQxTkb8SVDYzYv4hhT1zH0mUJJk96nDvvfJZZ7y7jqqtH89TUa/nTI68w4do/88UXi7nm9yew++7RbRYWTYHwrFUsPtqPcd/dL/PUE69w860XcvbPRqKchkD7kP9sDsm3CG1GSbTWKFGBU0pQAo6XQTcq3CIHTSPGz8F4EYzRaN2AEQcBIhGH7qWlhKhC46IoxKEjxmATu9KKWCTXbiTxqI3Hmfb31/GNzZJUksDGta092HqqupBoTDH9pXeYcOOfWVVpP1FTX8kPDj+Z8s79mfGPyYSjG+hamsvRRw5l5UpNcYkB7aEJY0Qj2kYdoiGPTh2j9CvvwvXX/p6+fXsyd/4CbppwD088eSepRA3VVRmmPvcOsz6YiSPWM24AbYTZH1ZyztmPUF1bxfkXjGbcuPTeo1QAABlHSURBVDFACs8TfM8gThxHNeCqYOM0Hf3VsHkYgQM6yGtp9DSr13isXLuecMywdn01ny1aRd/eu1OYk4dOpknGc9i4JkF9TYbKxR6+F8KN1HHkkbtx5JG7MX/uclBptNIYZR0V4oARHUQXMig/g8l4ONjsWkEQo1FKEY8nWbu6GtCIGJRJIdrYiIUx9klr7N9iVCA0sXabKOuH8BXGuHYp6jD4MdAG0TD12en8+qqHWFuTBsBREA5lHb+KM84+gusmnEquk8+8j9dy/x8e5KVps0jrOAcf0YfLxh7PyBFDUcZw4vH7s3RJFW++tpwln61g8OB+1j/SPMNN62pzga6J4hlwSOACYhS+FyPt5XDk0Ydz3PHDcZyWPqpdU1hAmwJjy4gEBNPouWjiKEcw4uPrOK6ASFADojKkMhoJbQTSKHxUkN2nDcRiMfbepx9PP/0SOtET/BBfrqvkkT9Np1PHnnbROGnqN+byzttzGbZ/b0rKClBOEkjTROqDIRINMXBwP/baawi+XsWPfnwIV19zPvM+Wcnll9xATc0qyjqFwYRINvoYk8ZkihAVR+sMImKTyrSPikQo7lTM+tUrufaqK1m+uop16zOERDji0GPJL4hRVFiM9jT9BhahiWODjy619WlmvfcZXyxbTcWQciLh7tx+41Q2rKvi88+X0BCvZvyE8zno4P4sX76WaTOWMHC3bhxycN523i67mI3vsvLLBmb962OEEF46h1AY8gqERQs+485bpjJv3jxeeeVNQmGXvFiI2e/XcssNj3HV+NE4IWsKKMfghqT53EZsnUlgMogoMmmf+vok4NBU52MENKQTHvV1HiIhhAyi7RZMpzI0xhOIiSEoDMKKFXEqV2foO6CYoo4QjkBeVCEmjNH5GEng+ZpM2rearaM5ZvQwhg7rg4RcevXqRch1rNAywvq1NaTTDeTlODw45QWu+c1jhCJw4Kj+/HLcj9lvxG4oSaGCcEtOTojc3CgZT+N5NpfEmChrVnosWrCcsq4hBg/phOcp5s2pIp0OUTGsC04kzqcL17F+dSODB3egU+doELCx96K4NJ/iknwgsctqFS2xXUnw2hhqaqop751vw2BOmI4dc1Gh5rkyBry0wRX7PPGNRtNITd06cnI7EY420muAS2XlMvaq2IcBgzvzwbxl5MYc671Hs3ZVnKuvvIfp0+Yx4pBynnn2Nps4E6xtg0Ibg3IMQ4b25JeXn89Zp4+na+c+rFuT5oXnX6ZTlzAdS3LJ+AlWVm7kw9lLGbJHfybd+ld+c/XJiKOxXnuNcQxKQb8+5Vx66ZkcePCBdO7WkyWfreD6aycybcZjaO2TakwRj8fxzVrEaLSxptvKVat5YepzeDrJvIWfU3nPHRQXuhTm5ZFJKXAyzF8wm32Gd2XmzI8Zd8VDjDpkNw45+NLtmP1mdV7IZdmS1Tz37KtEo2EemPI6F198PLdM7Mnzz05l8WdvsMewflw5/ka6dStDmRz++uhb/PuDufiegxMKzBsFGE0qnbYRB8lGFQK12oA2Gq0VStzAmBIQTbcepQwY0IuNVWkwUUBbk1JBOl1PbW0VQik23AqvvzqHX459jNPHHMrtd51NebeO7Da4C4sWrME3aVygMZ6iprreJvM5HnmFmt0KCzH4iKy2syBWW+ncVQAH7ccZfkA5Dz5yBgeMqKC8WxlIBkha/0rwtA+FFZFoCOUE1y0adIinHn+TG697mFPOHMlvrj2Jl1+cyS3XP03XLt257DcncPToYUx74T3uuOUZxl11DON+88MgTVyCaImHcrdMLNxVsanAENDGD1TPAEZhNOTFYpzwowPQfgNCDtoTwg7sd0A//vjwWFBxRAx5eSHG/mokRx32E5AMYgyxmM+pp+3DvvsOBqeePv3CfLLwft775xI+WfgG4645j9KSzlxx2dXgbKSsrITbbr+W7414nqF7dUWpTZk7heYkHkOIHj36cN5553H1uHu5cfxf6NU7l+dfnIiDUFlZzaQ7/kTffj25+vdX8PMLrubYow9iyJ6loKwzVRvN4kWVjLt8MnU1Pn975nGSmTCJRqhaW8PQIUOJRhy0b/DSmr337s+dUy6nuLOLwmf3AT2YOvUu6uIenYoUSomdtyBk3UR5aHyG79eHk045iPVr1u/A7bJP6+oqj4UfVLHH7uV8/9j9uO3m+3jnrfe46rcX8/OLxhKJeIhUodw4ojyMn+b8i0dyPgeBNFrhbgCtSKc10pABwkAimFObB6EDmWp8+3tLoqQBA7pz0MjhLJg7l9oNSToUC46Czp0VFRVRykoITmAQLeRFwxTmR8A3KG032o9+siepJESicfA0K5ev4/NFy+lYEsUm/FmntDEmyAcxTfc/WJw4Shg2vA/DhvcJctgSzfku0hzTMAKREETDBqU0Ih5a6jn59P3p0TtGUTGUlUU57bRD6VFeTH19hpEHD8R1kxx5zBB698unoqIcAM/TZDyN64IbSgGp/0jq+s6AVjSMIJ1bAqeUGMAlvyCHcb85AaMcxE+jtPUBRCJJ9hpWTsZpRDAUdYxy+W9OwdEa/DQKKC0NMfHu82yKuPFRjk+nLiGO+1F/jjX9EZOLchQvvXgbSqXAraO4i3DuRYeCn4fJZjRuTlSsXepq4e03ZvLXx54kk2mgtq6BZGM58+espEt5jLffXMTcj9dy+pjD6d5d8/0RQ7jqVw/wzNSJRAs8tBhE59ClbF/uvHMKZZ26Egp1xJgYH86eyw3XT2DqtD+SSadpjNeRSjYSr0uyYbWmY1EhElmPEo9YWBELuyC+TWfGa1EP01w7UlxSyD57D+aNV9/erhslBpQx6EyEf7/5OQ/eN5nTxgzn4p+PZN89i7nu2r9w3A/OpGPHIg499HsccvgBdO3eAdHCqqVr+GTe+wyu6MhJPx2BBJvQCjZIJDRoFxxsGEI7eKkovhdBSShI088+RQ0oyI9FKC3M54tPVzJz5myOHT0M8Dj8iL047Pt7Nmf2BtmpQ4cM5rijDqEglkDhIWhKyyJgIOM3Ag5z5y7how8+4OTTDqEpZ8Nk+WRb+H0Cs8lGIprn1qadb+lQluCyIiEQL0kinsbXEZTSlJVrjj95cBCq8YjG4IhjKhAVwjcOIFQM7UnFkB4Ivh3eiRJPCGE3Rn5B2F7irhQK2Qo2FRhBcqe99mwdgVVBs6Eim2cTwjq6FOIYDD7hYHEoA67e1P9hS9yDJ4QA2sFm+REMZmP0TftLtVDx3OpWXUj2o5r169bw2OOPc8OtF7Df/j0JUcTGtRn+9c85zJr1MX985GnOGnMS464+ESUJbrjpl7z++kyGDfsx5164L78Y+zPmz61kzGk3UV7eld12H0T//v3JL4iRl1vC2LFn89arr5IbyyEcAkUYJAdRaZYurWLgoALLy4FucmaapppsTbY6016EJpWoZ+iAEn52xgRg3TbephaOOAV9BxYx4cYz+NFPD0S5SUaOqOAfr03G9x0a6h2WLa1n0cJVTH3qPZYt+5KiohyOPGoYhx7RDxVUjIoYYrEYpaUdqForKBxQVivK+GGmzfiQ66+dREFBCSf+5IcYlQnuvcIATshjxIH9eH9WBa9MX8APjtkfcdPWnxmYTl6ToDQsXbWE/rsV8fOLTsdRccSoICPboNEYHBriMOLAI7jgwjOBDQFvR0t6gGAemnzgbVaX0CykA8YSgbPGHEt9XYTLLr2X++/PYeyvfsAJJxxpc45QSDbFW3wwHg5BApgokBDahHjqyVe49ebnWL4ixYUXn865F/wUbWpwviMCQ8rLy40llEnRsSjN+7PvRUydtdKC1FsJKgYtVJPqpYIN0pyS9N9lnDIIvs7FT8dwI8kgX8NGJTAuoox1qmViqFA1yjFo46KNoHUuyq0JPpNDJu0g4qKURmuNKB/HyaYQt/SiGzBWexABbVIB08PmYm1LD3w2NOwbByWeTcbaBo96VhFXxkYXTJD1KMoP7HUHCRLujLG5hlo7aD+MUg6iPFApkKQtugqKusBF63yMjuBIHUol8ZXB+BHwi0kmHFKpNLkdMjhOI45Jky0EFOOAF6O22hBPJujUJYI4jcF1Bj9MkAIuoH0H44dwlEFUym7SwGSz4laRqI/ipaPkFaURp95GbZDAab7jyJokIPh+LutWh1i7ZgUlndKUlxejxCBZ3hJp7V4KiIPWLlVrPVYsS1JcUkR5zxyUpOz1qHQrx+16aEVg3IeiLiCpafFJZVN5FU6LfwnatBQm/0mBsWnORRtfH6Mc0C5CGluv4GC0i1E+SHqLpaYlyIMwDtokEaURE8FoF+sIdDBGByaFQVrlEwzKoY2gjG5yFrZ49LVyHTYsap/QYUyQ3kxQLyFBenRryCY8qWDRZ+sjwA80v6DeIptGjSFbtm0TvrymczU3oTJN57Lj26e9kex4wWmMoLLXtcmCsMfZ++/YsKkkAwWgxTVnpyTY/NLEVpbVRAIfBUJTlnGLzbdlJvKOwQqNwLckThDutabRtp0/qLYOIiSbHrNtgn9XwLeCKqh1vgwrKLbG/2kwaN9HGd8aqRKYBk5m688kIyAeggPGCgrEs4tA+ZtE4lsrnVZN9vzmzZ9gy49nBV7WJNOBcDPBAoamjKA2rzW7WVtqPFlV3aVJGGXNPPttyAqoTZ+cTTu46TqNDaK2GF6Cn8ZqJK18MYMEGwes4NJ2PltqYk1DBSLPtDQVjM2Dydr/Yn0ILWbTjvIfcg40j+/bK836obeB0ss0/bTH2a/03RAQm+Mrdb3shmmbc+DrYke1EkFMyGpCm7U5aLsbmrb0f2iUsYq8Eyi8jghO0LBJGWwCktat0gNmYZe4y5yPljP20smIiqK118bYm4ihTf+f5TbdyrU2aQ6B8BDlg/Ixykcrjd6k+ZRDk8YRbEYjEjiJWr5ajqmbtR1jCxCz2oa2M7bJKytgmjdTS8GyqbBovv5gnBafbSo23eQc39wT2xas6eC1bWNkZ1a20Cy+e9guDUOyT8QAelsn3HzFftgq2pJpdhO13hOlrWPUVt/fcgG19rlN/RkGg6chldF4GQ+1NVLUpl1kAifbVj66yVH2mName+u1CnZbS1NYMqid2CKWkNUANv2f1cBbP3vWndj81+ZDm+xpNjuqLfx3NuJ3fcN/XbQpMEyQBgwE6mzrH90W/4WRr6Lp2xFk+5RsOW7Ljb/jC8T6A+yD29/0nIEAzPr2tPEJ9mPgI9jO66ClY25LbLmZW4Np5fesj6ClWdQao7ls9neLcbf6pG+pNbTju4BNpIAtaVcBV78f1BME5TTZBJqm2Gc2ZNgSmzsqm1PM2/ZFqM1+b158ljk6e/zm6ep2M+jN/QjKoHVLgdHWuG3ACFoTVOHqoDxSrGPT2NCbjVZk0GIwvoC2YWYk3YK6vy20ZpZsq1Bo+pL2u23C9NTamNnozJaMUM0C8OtI8uy1tubsbceuiFbUhuDJbQDxgsKgFu9t/tnt+nv7YIVMa4IJsk6zzZ/KxjjQYoO0voyz59zs+4n9vyhbDOVrg/E9lGOac0TEgPLwdS4m0wHIAZYGpMltDvgfhrQQFv/fKna7oPguYes+jCZhoYMQwNeLh39jEIOYEH4mZjkajA2PosWmlRtta0B8TSKVoXqDRyKeS3lPQ1lnhVJpGmqSLF/m06lTf+rrEsyZvYBPF32GG/b48WnD6dW7g00pNgCKOR8s5IKz72bUIQdx4hkVTaxc7WjHroyvdHp+PYflNw/tO6xaDn+f/ia1VRFWr17DkiWf8+lnS6it8TAGHDcoawC0sf44X8Pe+/Vm+qvXgFJ8tmQtJxx9I+k0KCX07lXK8OH7s2xZJS+/9DaTHzydvfbpZyMNnovGw9NCfkGYSDSK9rOByvYnbjt2XXwr8jB2DNZ3oPxCSks0Iw8aRWO6iKKyOpLJFA9Mns6jD79J1y7duOaGMznuhN2IiI/jphC/EKM24huDUknEKLT2GdB/AH9+/EZKOivwi1DEmP3hTM4Zczf/fH812unH7Tfdx+gfDqZHv774YcF3rdZlEJQoTFBv0I527Ir4ltoY2wYRHwltJBKrof/uEYbs7dKptANrKhPMencRDz08GU/Xs2D+Qs4681KO+v4VGNIQXo0KpQiF4igyeF6KhvoUBo2vPT5d9CmjR5/IlHvuQ4ngupATjZBIJlm8ZDEbqjcA2PoBs71RkXa0Y+fFTiwwgkiBeIjyEJUgmapmxrT3+O1Vk/njw7fTvXcubjRN7z7dGf/78eREIky6/UlMNqqBIITwPKGhPo2rInTp3AXPM2gvRs8eAzHGRTlCLC/XMkEBSNDcRwRxduIpbEc7thM78Wq3TlgVvLyUMOutVVx2ySRGHNSTvrsbtLMcbTSGJAMGd+X6my9iyh1v8IvzJlteBqNQGIwnNMY9cGwmXyYNGzcYDB7aeCjlE43kYHAwxg2SxWxthOu0ezvb8d3BTiwwgvoKHSGdcHn7Hx9z0RnXc+Ix+3HHrWPJdWrJVQnCaYeol0NYqthz71JeeOkPvPbqPAb1Gcfdd04j3piyJoUfwlUeEqpDqwT5hVEGDe5GJg2xkE9pYZiIThIynu1OLg7iCOHw5kVI7UlM7dh1sRMLDMAI6UQeb85Yx7ln3M9+3+vPpAfPR7uVGFUHThLlalANICnESVKxV2dm/P0R9hvWl+efeo+Vq1ZachiVARF8T5FOQjSSQ/+B3cikfEKhECXFHQAHJREbsg1KMzY1SbK1HO1ox66JnThKAohPKFrHviNzefKli+nbrz933foye1ccytszpzF/XiWrVtUy5a6pvPjCTNIpn85dOnDWuaP54xNjUeKjlE8ynSavMI2Ioq7a56PZX9C1SwGQwXhRcnJy6d27Dx9/9GWQ19GKl9PA/38SVTva8c1i5xYYCOKkKC4N8b3ifZk7WzHxpqm4OU+SXwilZWGOOr4H3XuUU1paQkPa54WnPmLBbyfx8j+uJD8WBgRHhcnN6Ug87vPBe18wY/p0DjtkNJ6foLZhNZFcUI7GoDDGweht5VBoRzt2LezkAqMZBo02Kfr2K+Nvz0+ka/cYRtWAyeDrNL4Rqmo0rt+Dl1+aiu95QAhjDI7jUlKcT3mPBF98/gUuXTjhxKNZu7qOGTNepKyzAfFQysPzG0mlUwEbVzva8d3CLiMwRDTKbcSIRzKzBi3FllDYaFRQSGdI0ZioRhvLFN5cnGWo2GMA995/A0//9T1yYwrlNjJj+ts8cP+9GHedpZ9T9XTumktZaRk6aE5s/GxrNmjP2GrHro7tfExu+vFvjlSn7TFbR5ZCTpMhzcq1K/GNHzTvBXFtRMMoQ1onUGFFNBxpcbgPKsXKymqe/ttL9OrViXjDOqa98AoTb38AER98zd57DeSpZx7ixycdj8JHe8Y23mlHO74jcLMsQq3Rs7dEti+EMX7QNao1spmWZe07iq0d2/Z7BsE3LnV1Hh++X0P3rgZfEhiTwWgfo8N8ucRn3oefkBeBSNTyaCqj0Sg2Vlfzxptvgolw0UUX0GuA4fqbL+bsUyYQTy7n+pvPB1WH69YgKIzvodOCzrhgsk0Av8qv0Xpp+7ahJWPXN41vjvGqHTs3ttkkESUYXzU5+75dTj9LdhMOF5GXX8AD9/6DFct9orkKx7GEt45riOSmGDlqH8qKI3bTB5mbGzZU8+D9LzPtuZU89PB4evQqQJlV7Du8D8+9PJEH//AIsz+Yx7D9B2CMgxAiZBQuaWo3bkTrXs3l798I/pvCouV47YKjHZtCunXrZmz7uRQdilK8P/s+xNRZTksJWg2IDgSGi6W1b213/Kc0jO2F5bDQBnzfJZ3KJ5lU5BcZDJmgAU8LZinxcUTjqCy5vSbjK+pqHRpqw3QsjhLL83BUEl802mBbFUjSMm2LAeOSaoTF8+uob2ggnJ/m0T89zZR7f4XR6eb+FltAWvBXbg/+2wKjJdqFRjuascs4PRFwXJ+cUCPRXIVIJngjS5bjW19FC/IcFfB7OA4UFvkUdkhjTMo29MFHRFtCXPGbKLFEZRAS5ORrKobngSnhg9mLm7eUbG17tW+8duzc2HaBYRxoopFvJf3ZqBYPwbZYsr4pNDNeG9MIRlC4IAZNC2YqowKOcI0W1UzvJzroP2JbDPg+GGWpCpWy/hvJsn/5CkO0aVxjkmjtk8kQUBsqpM30cME0tQr4tmNn+I7t+G/jKwWGVaEVGudbmseoMGiMzvpWHNudO8slSppmc6mFEGvBHtbMF6pAdIscCxO08wve22wPabH9Tnt1K+H0Uw8jK5SaSXc3h+ygHN1R/s0dOS57THC90h4FakcztiIwNBACoyzjt/GRb6kFI6iAm6IVns42Wgtke7M2/9WKUIHNuC5a9v6wwgKgrKyE0rJSfFIBZ3BbG1TYuj/i2+IvMMHXCEy5drSB7P3Krp+vc46dA4EEsGaGUQ443chk6hFfB2zTdlNpVFO3783ZrQ1WqGjA2ezN7HvN7fm2D6pVHtFs4pVC9BZf5huCHzg8nRZd2e2AtjensfR/tOXwBCMG47SufYgB8bfSYUTAtNqDJTi21T4Otrt5a8e1fQwIGkFjcPHboHv/6uPbaui0Lfg6G3BH0XrLiq+CQVkmfck2j/rmxhUxOEGrS/9r1C45YttTaUNglm/7ef4PH+cQnfgSzTsAAAAASUVORK5CYII=;movable=0;resizable=0;rotatable=0;deletable=0;editable=0;connectable=0;" vertex="1" parent="1">
                    <mxGeometry x="170" y="20" width="268" height="192" as="geometry"/>
                </mxCell>
                <mxCell id="4" value="" style="shape=image;verticalLabelPosition=bottom;labelBackgroundColor=default;verticalAlign=top;aspect=fixed;imageAspect=0;image=data:image/png,iVBORw0KGgoAAAANSUhEUgAAARgAAADYCAYAAAAwEfyMAAAgAElEQVR4nOydd5xV1fX2v2ufc26ZDgwMA0OvdgVEBBVb1Kixt0TjL8bX2I0liS0mmkRNLNHYW4y9R03sRlPU2BArIKDSO8P0mdvO2ev9Y587DAgqdg3P5zMi3DnlnrP3s1d51trSf0CdAqCGVSD2w//2OUBEKC0tJZ1OY4w7f2NjI4VCAVX9jOcGYwRVIYqitV4fsWv4wOJFPmW2GyOrN2CjYcN5+LkHyHkRGRNhjaKmgGCJxFDwwLMQRGAUrLjTqABW3XW+pRBA1vFVafFAjZ/RevxPwKusqjh3zUTyxYwCz/MoLS2lvb2dXC4HQElJCfl8HmvXMPHXASKCiPsuayMrRzBr+EwUowZT8KDDUOFXUG5KWdixCPVAjYBxpKWeIRMIlphIup4yvu4nJZjPQqoi8plJ+RNfCxw5dP79U4wPWe3P9fhcIQoGvlbP9/M3UT4BRIRCoUAYhp0k85Wv+Go6LbYojLD5kD6lvTHWR9TDKIgK6XSabSdO5I9XXcFGW2yO+p4znWI4klvzdxGctfN5/WC/HHLp+t2MCObrNILXoxMqzpL+ckfFR8P/Ki4aBMEqk9AY85USjALWWCKJKGiOINcEURY/3R2iNAXJkjcRPgZNBlTWdEeNUtutO4uzEISQ8Va6SWvCp3ErPg7mS7RgHBTR2HL6Eq+6Ht9cfOkEUyQSay1BEBAEwVdOMJ41GIXQgBjBmogVK+oZMHwkVV4ZhSjvXCSB9vZ2Hn3kER564jGitgyVJiDyxNmCHzHZizGI1UnmK7fcPiE6XSMFRVex2tZjPdaGdSQYA6xDnKRrMFVXxkZEhNraGqxarLUIimFlsLT4O2sMxn70BVf785PBSjHwaEBAjRIRMrhXXw7ZZT/uf+1BFnUsJfI81EZE2QJiLQnxyBsIiSfex1gTypotmW8CyRTvsGiGf+pb/vp/1W80RL9ej9j/5Jkig+qqmZnihDJrm1ddCELjERmGIUuWLAHAEyWdLiGdSmHDAmgUT0CDJVpnZ1LjmWs9xYr90IQ3CtbIh+7XBTANiEExhBqR0wwfLJjFg68+QlNZG5q0KKA2AhtirAuEhMbDYPA/oauiuEnalWi+XDfn06NohRnlI621jzyHfLQr+VH4vF3MbxskztB9tlTJ54tPYMEoSAHwEXyKt2/ijMInnRxitZNwNFSMB4lkinQ6RXtbO1G+0GkfqVhEI+eWrH43H3U9C4WoAN6aSdMCREq02itQPEAggiBSyo1Pt17dWVSoJx9EqIaoVWyoGD9Fz97VDB00mCmvv0XUlgUNyQXRV0IUX+ak68wkfUqC6OSlT3HPwtdrZf7a4mtnwXwkBLUJxFMgdKuX7ZJDWKfBYt2XFyGVTlJRUYEgNDY1ks9nMWQQETwEVc8dsRbrSj8ie2JUkWjdOFxFEbXO7YkE31jwIxrsMsJEKxq0gSd4ahAN6N27O9vuuQNvzXybjlwe31qMdLAGPvz4a39D0tSrXPczHPdp79YlzdabMN80SP/+/df61qyGlFeU8sy/7yRIteJLgAk9gnj+qupHalc+avAX4w5iDCERQpZIXZTCwwcEo2vmv4+bVJ7nfeTnq8NiYrfJIFYxVlE1iHhEHoQmwoU2IxTBGsgFBt8qiTwYtWAK63TN1fHp4jDaqfv5sqBx3OxTH8+ns4C+iCzcx0INX5GSY51RfK6f9vl+UfDXugqKBVVUlpMun4f4zfhAqpBcdRX6HLQYCSD0DMki6WiEIcR8RuHdusK5ZJYIRbFYY0EMgfoYDVwgGutEeRYILSbh4ktRYLGf8s12BrXXGd8cx+HrNvA/GT6lP/cVoVNo9zXCR7hIiiGLoCSxeFYJIrCmAwEiY/EssVuwtq+1ZoJYE6F5q71LEVnjab9Il6C4QvrxdcTp/hEpYLSAldUC2h4u8aSKp8KnVod8hqDnVzFpP7Ulsb5M4AuDytfz2a6ZYMRirEEV/EjwRPCjKJ4+ceYo0lgTARCxKht8NstDNYqTFGvn449a8T+PtO/q54hi1yBak8VmBFGDrGHmdV25VQRRXS2L9enXnLUNKJft0TgQLx/+jDhI/2liRoBdyy2vyY353CwXdUT+adH1fa6+SK0ps/eNw9csuFvESoIpppQ7JfMK+FjWHFsQcbU42lnl54GE8WASkAijfpfp88lIZ9WXbxHxUAtKtEq8Ye2WjKDir1KACKtaHtZY9zkGo4o1hViHI6CeS3EDqgaDwYpBRVGVzlT4yqvF55YCViyGOJXfGaAWUJ+iCtYAqCBYkOgzG+AKriZKBTBYERcTUkskxG6ucZ8rTsCiQiRFC8h2pundd1MnpNOPiGOtyaN20SlUDasPdTcmnGspCCL66SbyGhYOVeHDUgv7kRoqQTrv05GLOuLvKiJR/QY5R19fOIIppo/tyji/YrEf85AVAwY0rMQYj0hyYDpQ8hh8jJdCbEhkQ3BTddXjPyYIHBlDJAF+IY0JWoHIDaiPgEXQQjlh1JNkuSXK5ImsoUCbW7X9VgIxKCkKHb0Q04pJLwBxxGqwGCxFqsjmEthcHQm/EjF5rBQc0amPjUI0TFHI+yRKFxOk52PFEUeRoi0+an0wAUhIpIqI4pHD11RMZNGHiOuTwqirncrl0yS8/kTSRkFbSCQLQIiowbMBKgFWE6g1iLogOqYdY3JuforBaoSNfAxJNEqjavGCXPyuAjRKkc96EPqkUiWAENpmIllISVpADFGmljBbTbJ0KeovQyhFwlos7UhyDi6buO6Td801XoIQoIU+aL4X1lsCwRKMyX/o2FWOMQYs5HM+BdsdkxYS3jKE8OvpZ3wCfFXu8sfB6IdWXDfx3eQ3ax0IKoBY2jIZLrrgWUYO/SEXX/AgNqpCtTtR2BPCHqgkUBHUWGynCtQNFmPMGn9EDJYE82a3c8gB55DNFjpbO6Cm8/jVfxSIVJj81my2HHcIjz3yCq++sYQddjqeyZNXsMtup4PtSSYT8NTjbzNxmyOZM78BSwqrKdAkxSVMRWnN5bnnr/+i/6AdGbbhOPY58Af86eobeWvqu7TlmsnYFuYte59zf3sB++17EgUrWPWwNkUkghVBbTnLFvXijxc9x4jBx7DjNhfw+KPvk7M+kTgXRjHOxVrlR5wq82N+ClFEJpfnyadeok/vXair2Y+jfnwDUb6WjhbhrlufY/jAHzOo9v/o1+OH1FV/n57d9mVAv/351VnXYUlijRIaJbLVPP7YYkYMPZKhQw/kdxdexcwPlnDqybdQU70/tb32oF//3eg/fGf6Dh1P36Fb88P/dwrzFiyggJDLpbjj9n8wdOhoTjntN7Tlczz74mtsv8uhnHDyxSiVzp2MCybX5WfVubPyb1OnvM//O/I0jj32DBYvbkJMsEb91MpxYkAFa33uu+sfjNpkX845406ybd0Q6620rORT1Yt/Zfg6kgsULZh17PtS/DIWQ0NjB5dfdjN1A3ty8eVPki+U0LfPIM7/zR+55I+Hssvuo0mXeRjVWED38ecXcVqbfDbFay8v5/LL/sRZ5xzrPC/jiG+tAWQjDBo8gsMP/wGX/+k2zvvVBbQ358lkElx1xRXYqIqF8xdw03X3UVnanbo+m7J43lSWLVtEeakycngdVgqx6RzhecLQEYM4+6yfEyRzzJg5jfPPv5TZHyxj8eIGsB5aSLHl1n1ii8VicBaORiVMeTPDKSdfwow5U+g3sJT6xoVc+ofHGbnRmQwY0kJgw9jaWfeMkAAJ38cr89hnv23Ya+99eO+9+bz51puE2kBZWRnDRwxi+x1HM27CWLbfdQB9+tUg1mDExzN5xOsgspY33pzPhb+9iFf+O4s99tyWM355BH0GeIiEHHPqRPY4YCQTxu+MEUsk9YiJkPh9GjGgSi6ntLcrm40ZwkE/nECqRNh6my04/MiQyS/PIArLkUTTp54MKw+zLt5lA2bPXsSUqTPZYYfB1PRLoF6Lc4EQp23CKbfj/GRsMVqMsex1wHg+WNTCrDnLWbpkKRWDEl/bifpNxTqUChSxcnK3trZxy02Psu+BE/jD5cfz2qsz2HiTwfhSSVnZqYzbuh8l6TRWc+6FxxZRhIuBdFoenRaTRcRHxANCVA2lJZXstc8+hFEez9dV1MSrQ0SYP38Jxx19Jm9OaiRbsOy80wGo9fjeHj+mJCEMGVHHKacexgvPz4GokonjD6dbT59lSxZyzrkH0LummoqqFCoRyaCU2poB+FLGmNFjQVopFPJkMlkGDV5KpqOFFSuyvD15FnUDSvE8QSWKidTjlVfe5oC9L2GLUZswc9Z9eAnL0kUhN1//OGf+4nzuuu9sVFrR2I5ZN2hMgnFhkGTBn8fQjX2GbDQe0RxKhjHj+zJ63IkgCdRzroNaC+rcPY0KqPhUdevB8ccewa1/GUWibDkqGSAAVQYNKWfgoCqEJYgRjAldEN4qJk7qQ4pJk97k4YcfZOz4QYzbamNCk0E0TzKZ491pU/nbw0+z38EbfDol7+rukbonVt8QMn9xgUgFMTGFSIRKhGhsrVAM3xRjTOIC9hQoRBFzZy9g9uzZDB08Yj3BfM74TNXUhULE7NmzOfGkM0ikc2y7Uz+QFqKwjX0P2oDAK2A17wjGVuD7WZfizqex+GCyGC+MBXVRHMYXCpFHFFUSeQ0EiSRDhw9DvGZUCkgUgMmt9Z7q6mq58+5rwFaxfHmGC351Ly+/8iQ/P/swDj30uyxatIJf/eIaNtxoCx57+iLmzJvGGafeyvhtN2SPfcdj4lqOSA1iPFKJEmZMn8K4MdtR16+aDTYczlbjRrPtuB2prq6morIctQUi24JG7WAKePGqWSgYevWu5YSf7kYq0QwofXql2W7rzXj3zWl4URXqt7FSb7Euo1u6/FhA41RlHgjBClGUAvXQKI0QUMikaW4wNDevYOHi91i0ZDp9+/Rg4o7bMaRfKUP7RwjziQh56unJnHPm9eyw61jO//1PMJ5bBKxGSAQi1gW91XMWjBgam1poa2+ld98Kokjw1RDYFipSreTam5n57gKETREpOFWvJQ62xt9IxBGBWFQtxWCtIxev03QW1wEMKz6ZjEd7i2CjAI08rBcixgWuY91ml/41xecVxxljUaXNCvmMuhuSz6I3Xo/V8ckJRk0cDLaAoFGKKJuguSlPZWXaWRYqqPo0LClw0R/+wCWX/gyDx+KFbXxnu5OYMG4kxx57EnvueTg1NZVcf9OxbDluCEFCUYXZ01vZc9dfUF8P3WvK2HanCaBgPAEJwPpEmsREBvEyuIHg0dWi8YyltDLD26/P4rAf/JKOxnJUM1zxx7u445ZHOOPMn/De3Okc8eODILWcptYW5s1dxM/OOBHjx+RihTAXsnjZcqq6BTzxj5tob4fpU2cy84OZ3PvAvSxZsoRMe472DkUiKBQgSMJe+43g6ivOwjcFjHj0ravmO98ZhycNqPVcdkaVXN7igrCfJaXvZpDaAEuAVYNKCApvTn6LX591Ha+/lHWayciJCdJpKCv38NRH/AL9B/RiRb2y/0HjUHWk8dgjr3PCcdex224TufB3P0ejDJm2Nhoam2hrzdDU0MGbr8/kxRdf4YMP5rLbruM59dSjwaYpLamgrDyN8Vx7USMeiURALpdl+bIVYH2K+gbnZuUBA9aPpQku61Yo5Mlm8gR+GalUACZLceILCqpYXMwrlfIoKXPkKmLjx+LFVot0jg5B41R3HI8xzvrryCqtGcXimvqICVlPMp8P1k4w8cqyhnAZHa3KHbc8xisvLual/zTwox+eSp+6Hpx93qEMHbgB095s5l+PLyI8v4xEOoNPJe1tyvPPLuLl58/g8j+excMPPsPxx9zALXeexmab1zJ37hJ23fEcrO3Oj4/cm4bWpdx15+MMHVoLAk2NEdde8RBX/+lJdvxOLXfecx6YfDxgV96dLQS8/nI7R/74N4weNYGfnvALTj31NK648gLOOeccJr08gx223ZHykloKmSoMCcrLAwYP7xFPCKFgQ159aToH73cxtb3LGbXFWPoNGEgqCf1692HD4cMpLSsjnSqhsrKSkpIy0skEQTJDkFoBKGFBKXT49KxJgrTjRMnqsjiIK/60Nlb1rSTudVPnCtgEC+Y1csONf+XOe/5LSwvsuPMYrrzyeM466zQWzOqgJNmPB+9/Chsp1/z5Z5RWtWIJMcbiSS62eiJymYiHH3yFC35zDwftvw+//u0pPPzA4xx/1B+IImcRqBqUgOrqNMOG1dKrajjvvLWUfzz9KkZTJJIJqqrKOkkEwDMexgsIC4KNEkix/486NxgV1HpEkUFV8H3h5Zcnc8Fvb6NxWTeOO+4A9j9kNCXlzYiYOL6SpGEpLF3Uzg47jeOAg3eOF514+FoQNRiJE+9S1AdJZ8i4rLycAUNraWh5kTden8Y++2xMEIhL6X9jBTFfL3ykBeNkAW4iqHFZHxtZCvmQt9+YxT+feQctBCyYkyftJ/AliSdpbK4SjQTPS6BkEPVIJSzZTAf7HLgtBx++FUMGb8oBBx7KrbfczSWXnUO2vQbf9OA3vzudg4/YlOWNrQzdoIa77nwCJEdpSZodd9iZpx59i9FbjFvz/QJLFi3hj5feyfARg/jzrb9m2tttmGSWIRsWePjJ8zCkWLhwOeefdyOPPHovZ551Ir1qquhV62OwaCSkfGHidqOZOfMfvPDCSzz9zLMsa3iPxQuX01Bfz7JlKygULCIQRSDis/NOW3DtzT8HL4khR8OSdt6dOZuKbilU2l2MSQNnsotPKhVgsXjY1YLfq0ma1/pyYmNfDdg0ZakaDvv+wWy22Wjemfo6gZ9m7IQBbLxJgTtve553Z77DscfvT2n3xcybP485s5aw1VajSJVECBGESZ5+4k1OPfE2ImvI5jMkU1m2mjCU2+79NdXdqhkyZBiFfMATjz3HgqXTOe30A1CaMZ5BiXjkgcmoBT/hOxlN5KwEP/BJJBPOyo0SPPX0s1x68U001fvk25NEGpItFGjPWnr38Tj+xN045JD9OeLHEVde+hSnnHIZT/5jML88b09GjhyJZz0mvTqT31/0ECsa4OTTfsTIDWtBlqDq4l8G6dT5aGf8xsS6GWflGCz7H7gVjQ1ZbrzyYRJBxKmnHUBlhRdHCwX9WjU/+ObBh7XoUeJB7wFKAcQSRS6DU1WR4trrTmLZeTn2Ovg3/PWvv6O6R4JAIRsJGdtMFIAQgORRClgLNT278ZvzT8NPrqC2LkkhH/Hf55eRz2eY/36GssqAPQ8ajPoLqaiKmLDdRtxzz1OgKfxElrHb9uSZFy/E95x7gRpktS7HdQNquP3ec0CEhsY53PfgQyRThtJyH4J6sOWkStqo7lHOW5OXsXyRz7htB2NDgzERxNkH9dqwwQoWLHyffz4xhSOOOpifnrgz8+cu5OKLbuDWO64hEQQUCgX+89zL3HbrzUQadZYMhCo0tWRQrx2rUSyuExqbVjDl3bcJvLTTXfDJ7ZVVoHGY12ToN8Tw81/tSaglvDF5AbPmBgR+d5QmXnn5Le645e98Z+fd+b8fHUIULeS1V5q58aZH+d0FCcaOHYFYw4N/f45jf3wbA/sPYfiGg0iXGiS1gr79AvrVDUJVELuCfLaSqm7lzF1gMJ6H+IJIBlGXHs5IRKEQ4lvwdGXoWgTUhITSQXXv7gwcMJKmiiRbb7cTAwf1p3/fXjQ1rOCxJx6iqTWitDzBQQdtxR67bcezT07liivvYucdrmKfA0dxxlkHMn9pE3NntRNFASvqG7FxaYfBxGM3TipYE+t8uuSR1GWSFMh35Gipb6K1tUA+r4RhDiHF+kjM54NVLJgPEU2xQ76NnBCNyGUNNARjwbQThu34XoaAEDUdRLaMfAQ2AiWHUACTIUgm2HTTjSir8F2w1oOqyjRRDlqac0x+8y1GbDgIE1gKhZCoIDQ3NIMFIxYkDyhBMgDcBZyyd9UVxlPwQmHWB63cc88/uO2mJ+jbtzuH7HM+++6zKwf/cHt69BQOOnQbHnr4aS644GKefe4ifL8BoxbV0IWaxGC8iETa0NTSwr333s/k11/GWmHu3MVcf80NdO/RnUSQ4v335qIheAieOHVpaWXAkJG9mfrILIxWYdRHou68N+UD/vXUZE4+/WDUb0PVYPHw1FG5+57rgljLayKi0LB4QSvvTp1FIqVMm7qUO255lC1Hb8/5Fx+LmoVoIcXAfhtRUfIi1172CmNu3hoTtDJ67EgeeOIU0sle3HLTo5RXlLn3J4VOo8q9t4BC2E5bWwcqoftcLEoBEchls6yor4+fobvDfCFPR6YDMQHGlGIop3/dJlSWe0yb9gGvvvoGuXwrra3NdO+eZqc9vksoCl4Wv1SoG9aDPgP68vaUObz7+iL++5932X2/sey5z87ccNV/OPP0S5g/f0/O/NU+iGl3Lo51zdhVNM4bdQ3wunGdzYbccPU/ufmGf/PTX+zJKT/bjUBDkA6wCVzGdD3VfBasQjDr2l9EFcLQYiIfNIX6LVCwhBGodSuJxhXR1lra2lqwNkIjSxQVSCbdSuF5hn79qnjmmUWAAeOzorGBm2++jTDmD6F4Po2zAwZvDS++tbWJO295nHPP+SthCH2H1nDm2cfR1JDnumvuYuL2o+k7OKS2bxV77b0dr/53EeLHKd8up1Msge/Tq2cNQ4cM4/qbLkPJ8Mork3nt1auor1/BokULaWxsYe7sBdTWVsXBQQEiUkmfml5lzJq5nNdem8UWm41hzgdNXHfdXRRCGLvlSDxZAaJYq4R5IQi8degpUwx4xhNHoaU5w6z3l9PSHBFGbWSyy2lqytKzqpRCzmPZcrj/vse4846/8/6sxYwdtQGvT57N6HE9qBtQTt9+1UyZshirIWEhdK4xH5b1F3eDMHHGRVQQm8SIoaOjg4b6BtezR5yDkcmF5AoRqbTB+C20tM7n5UlPs3hxSJ/+fejRswc9e5fQ2trBB7Nm89rrL7PN+I3512OLufqKO3n77VmM2KCOSy4/nD2+txnde5UTmRBYCIklZDN52lojjJQg0oGojTNbrmQF3F5ZRoyzTtUlB6yNUBsyZFhfNthwUEwncXasyzNej0+PD8Vg1oVkDJDKQXtLSEV3iwlL8RV6pQskiQDrJOZqKOSEkpIUqgWUCLxWjB8S4lNSHrLhxt1YMLeNR+9bxJZbD+O+h6bwr2fn0r9fH8CQz5Tywr8/4LxfX8qOu9dw9jknOBN9NX1EeWUZhx27P4M33Jqfn/oHzr/weCZutzMzprTyF7mLHrUFIs2ydHETjzz0AqXpQbw5eTqjRvV338g0OxObJL5fSmVlBTNmT2Pv/Xend7/e9KoZQGWvCvb//rakEgGlZWUk/BSJQFzQWVw0VIB0skDz8qUcsPel1NZV09ragA3zHPL9iXjpRvBCMtkczzw1mbN/djfbTBjNdTcd/gmLNSVeoeMVVpPM+6CFfzz5MuUVJWAr6NtvOKO22owbr7yfe+97AM9XevSCbbfbkpNOOoIbrruVq65+gOvG/ITAV5QcmCZUmoiiKqCo6o6vh0W8dtQ0UQidxEAkwgs9IE9pYEjkkyxblCcfZ5at8ckWAkrT3Rg0uA9iCmy7/Ri22W7z+N7XlEaAF59/gRtvvp9ljQ2ccOqW/PiIQ+jbvwKRqLMY1pAmkASBD2IsViI8Dcjnhbtv+zdvvDmFo0/cleHDh/Dog1O48crn2H3PzTjulIlxNrpACHhpn5J0gGeLWUmKFVlrvL/1+ORYS5D3kwW2jAc9ehX4YNZU6gaNQSXECyz9B5ZR09sSRhnSqRR+IkOqRBkwPIOX6CBSi/FC2nOt9KpJUVoS0L+/sNHmBU459STCSOnTv5pzf30at9x6F0ieXD7L1OmTmDW3kd7TUgReEjUWrF11QkpEItlGv4El9Kvrw+/Pv4m57yk3XH8tv7/0eLxEC81NOZ59ajrVVSM55eeHcebPbuLxpy/EGAFJ4IjRJ5/LU1vbi3/98wEy+YgVzQ28+eZ0ZkyZx/vvNtHUuIJZsz9g3rzZVHYLuOaG06noFrdtEGXUqOHcff+ZXHftwyxYuIwRw/tw2A/3Ztfdh8ZaHiGRSFBaUUVDc4Fl9c3r+PqKEr2AfKaUmdMWM23adGpqy/nhoadx7nk/46yzfsUvf3UCRqK4nKIDSxaMsNlWP2Hq1MkYvwPn4LkFJgxDCmGIMR6QccSDAQ0QEqA+UcGgYYAYd5xRw4YjBrHNdmPJZFcQaQIjOSBJNpuits9AJmyzJSKu146zMFirxn3bbUYz8cnxIGnUFhByKPnYI4yFiWopLTNUVgVYq2AFNR4WS1NLltlzllJfv5whwwbS0rqcufPeYeny7uRyORLJBJEaEI9UOkkqmVyFStbbLp8P1kgwIt4naiTVo7qKO+67iMrKMoyXdy/F5BixURXP/Ps6bNCKVZ/evaqY8d7dYFqxthkRqOvfg6nT/4qlCasFetf05aGHriSSJIgiUZKOfCMTJn4fK5byKjjh5P049sTvI14TKtbVzcVC1mK1tKrBagU11dUccsgPOfonP+O9Keex7cRN2XHid7DZJj6Y+g43XHU/I0dswoAhHksW1vPLMy7nwgt+hpF8LNQKWLBgDj89/jeo7UndgMH0rO1JJgtWhT79yhixQS9223McpaUByaRQVpqCqCFWwabwfNh00zquvfpkMKEraBRdKRRUxYgwdvSmXPjbM3n47w+v0rFf+JhsqQqQRLWU1ybP4orL/sxW4zfkF788mD9degff2e4oxm89huNP+j6bj+1NVTcPJIFRA2EJw4bWMGhoH4wJAYtawRNXD5bryMTk7UR8WB+1pajtBlEZalN4VKA0o+SxKD1rKxm2QS1PPvEeU96az2ZjailkExQyKfr07cYGG/dFdTFixWWuPqKJiaiCdqBkwJg4R1783k6NrET07FFOXV13PFJg06hkSARJjjvpexxz4iXo4n8AACAASURBVK54foggHPrDnfjBobuiNkS8EERIBt1JJ3pQ07OD2preHzve12Pd4cOH3SLVeIUQu4b3X2zTqKhE9Kh2vqw7VQ4ogNeM1RxishhbhqAYL4MSuWpjLMbkMIlm51JIROi3YBQC9Sh4Bs8LKQ8SjNliIyIUNMQYt+uA9Vymp3PJUcWoYFVpaspw222vcudt/2T2rDkMG9STgw7ejVtvvYsdtvseffv2Zd7cxZRX9OJnZx7GBht24+LLTuKMU//EwP53ctSx++MZRY1hyIANuPUv97JgXguLl9YzZ+4sJr/xNpmWRm6/5WGIIgphnoLNYgsRFaXd2Gu/7Tj4sNFg8vFzlLhlhfPtRUAjD423oUVg4fx5PPvPRxnQr1uXupmuT3zN89DgHl/Tsg4mPT8dkVZ++KPt2GTjCq6+7ngmHTGdi/9wC4ceegJhDnpUJxkwuAcJP8nSJRkWLljC7nttyXV/Ps4J3lQRmyTKe3SQj0V7AcamaGtWJr08g+YWQa1PIsgjpsPVBKkrWfAThlRamTN7Nq++NInNtzyA+hUtzJk1Dz/oQGjCRBKnjg2dTVhWw0rHyYBaROM2IJ2/G3e5kYje/VIMGFxFpkNpbxVSZQbfUzw/jyeupEEUxIswXuRighIQhWmeeepNnnj0P0zYbivq6noDS1d/uqy3ZT4bZMCAQfqhmEvkNB5q26mqCpn02pUYr8MdYHVlabhVMAb1cmiccnVK1QTGBm4lNjmcMx641KAXOr2JlU5lsDUR1i9goiRubfPiHibuV4QCYDDWEBlXkV3cLO1DDY7UoxBVYUyAlQi1eZAQrEE1YMnCDm64+u8cePDubDwmBSZECgkWzmvmrttvZ8LEUWy73VhsJBRypYhJoJRSHGyKE4gRuxwiBXxctbh4GfAaULMyMGrU9ZwpNktyPX2LLTIltvitO2+nVH61wKp+ONAqOAm8C047clUFz+/ah8YDm8TaJNa6SaVahqqHSgHPy+MFLeA1InE9mGrA65MW8cbk9znkiNGUluaRKIlE5bw/vZE7bn+KRKqS4048hG692oA2pLidjQa0NCR58rEXqW95j6OPP5SFi9pYMi9gyLCeVHVvRky2y0tbuwUDzopxfXPW9DvSmQ9atjjg/rve5J67H2SzLQZx0ml7MWJkVTxOizmkWF4ncOcdT3PlpY9T3X0Ahxy+N/setDUl6QZ8za7Uzdj11PJ5QAYMGLBGgnGq0wzdukW8NvkqkDY3oboQjGeNa+ok4ZrPXtxs7UuMkynidiOI0zGux43p7OFiJEBtEksrxmtzezCpQa2PMYIhDtTiqsXdHk3u+RhVJzgk6mxmJVhM3EfHWSiy2veVD3ViW/l5F9LCTRmJ2wRInMmwos5bXUOjK+dxOaIqxk/cM1hVctD1eqoS719s3QSWlQ2iiseIBKAJkLZYaiCIJhBbimoCi5MNGD90Fkax5QcCNgk2gZo8+FnUgg3TqAkRaceXrl752lTLn1BsCNDZKdlHNYmzsHMYDeNnViQxtxopQhQlsGEJxggSZDEmg6cr67mc67a+4dTnga9kb+ovEm6SFnMABjERnS09pYDVHJg2jAGsj2ARE8YpZuvKBuNeOFBAxcSFd4KK19mMSnH9bbDgaYgV4yTwOJn5SvfIEY50nrPIFcXhG3fLk+KAXtm4QZHOgr1Vq967mm5uMq6eZl/lmejKMyIat4fQLtvdFonF3ZxIFrQQNyP3498JUdOGiLfanthdEwIWTAYkB7FeSrHgFfAEV928CtaFSD4CCoYQisJF24VUY6IotjMVFN/kIMjH4yQC6+qaiun+9bbL54dvHcGsii6DX5zyFxNRbPnQVafn+tca577EHd9UXTWvy6aAW/dBbNS5ODpSMRiVuGo3jknExPJxY3VN1l1nzOUjj+2cQR99gZVndEdpl+TNGiaTi6U6Qin6FEIQx+S6fl4k0dXvSTvdZaN+nFJWhA9LCj4/FAk3rqLGsFJcB3FT0aKdRrF1Z1eShzgktJ5bPld8ywmmC4qrpwoYRzZF4wB1zTwNFs+KC0THnfPoMjGKG76prAwBYt2qqGbNrgzxmXVtk0vXTDJfJD7qelL8hSJXChTFauAsgZX9jbXrURSJrHMqW8WI1znZv5i52yXYT9y4orNdg3a+9mKJQOedx+/JdMbCBD5TZft6rAnfToKRVQfd6nDWvYsbRCbmBDWr7pncdV/tD80j00lCa75AvBSqYGX1XQSK1kQxE9fV1VnlS6x+0pVJjS7Wx+dPTjE9FOMxq6RvVrY7+PB9ru7uFHvofto9n9YNq2fatOutreHz4sfa2ZZ+venyReDbSTCrxAVWxj1W32nA/buJg56OELpOhk7LReN0VjEzU/wVwTVe6vT5BVHPtfXUuBJXcbsNdFn1i+0DHBGtDC6KitOoxBNZReN762reu3tQ1GWytOsEXzucFCG+6U4USaEriUhsbUQUG1mt8oVX///OAKpd7fOPv6fPE8Wg97pifbX0F4tvGcGok+tr0OXfnItShLfKeDJEqqjxEDxUhcjmnd7GGET8eJtUia0VN4FsZDEmcK6DFdTk3HWjJIW8TxCUgpd1XKAW02kCmTg2E5vl4nQeiIk7CMS6j84oB7i9lHC/X6zL6twFwnObFJkMmDyiJWt/MvF2uIg7u6jGBFkMfho0lhg4AmxfWUwqUXysY1K1SRf8lQJWDKFx/WRcrU9xSLlso7feMPifxscSzDdrfAjYwFV6460kms74S9fvIy7wqAnEehhJEEWKmCaMyTuyCUuwkY9nEqhVFxRWDyFEpTVWwApiUyiGxQvb+es9L1Nb24f9DhmLmCyC211g5X0Usz4ehjQr6i1PPzWJkpJS9vzeWIxZFpv38c1qMUMkaJTA4IMXgoSsWJ7npX8txMpy9j5w1FrcwuL1YnKRYvobOuX/xVS1BmiURKISDN1QvwkJWhz5iAX1UZuksSGko70R/DyTX3+P7tWVbDVhOKoB06c28ObkWYwZN5BhwytYa2prPf4n8O2zYCQCm0ILddh8RbzdiSUfhrS0tNDY1Mg706Yyd9Zspr09nYb6iKaWZjra2/CCPNvvOoTzfncyIpbpU+Zy7JEXUV5ezdIli2lqaqej3ZJM+eyx12Zccc1JSJDFGoPRNAvmLebG655ij+9OZL9DxgJCZA1+XK9jUTDOggjDBB9My3PR7+7hmWf+y34H7Mqee2wPJgW4zmyd7Y5skmlTFnDJhTfTu+dm/P7S48Cfz5LFDdxx+9MkS+B7+22P+G1r8BOc9gWbhqg71vpE4pO1Ia3NypzZi/nXs//htUlvUN+wjFw2S66lQL4tx977bM1FfzoKEi2oTYAt4f1pjdzy5ycp62bZaeetue+OFxi8QR1bjt+MMOfz338v5dFHX2Djzfp/mS9+Pb6m+JYRjEN7e4GH7/0Hp592GbmcK2XxPBADuQjUCN26J6gqDehV4zF8wz5UVfWnobGepUvbO8+TzWd5770Gkokmxm8zgjPPPIPhIwbwzDPP8cszL+feu1/gsMN3wtoMReWNmICSiioUD40C8h2VaJCKVbIF8LKYoJmF81dw7dWP8sZbM9hz74k8/MiDZPOzue7ac5DA6UjcHkIGxCef9Zgzu54w0wCkUDyS6RK6VVfRkWt0hZ/xDgNSjDHH+p3Zs+Zx+UV/5YHbZjly8yx5z8WHVN1zKa+C7j0S1PWrpmaTOmxbC2XdcuAVsOqBJmmoD3n4by+xoiHPb3//Mya/9RIqARqWQ1TKzBmzefmlyQwb2YMNNhkAtNBV57M+Bfy/h89MMMUu/F8PODO/pFTZYY8qzi5syagtJjB29A60Nqa46/ZnOO93lzBg4DBuuf1S6vpbEpRgSuYhOCISI6jVWFpvGTliCH++9Vx69RGWL+0gFzbSq6+gCaU9EiZNbuWSP/yJo4/ZnWS6hEhcryMjEa++/A4H7HkFbTlBvTy1fUr58VHb8oND9+SuW19m8uvvcdk1P2LUloPY96URXH35/Zxx+vWcdsYhVPUs4PlOiyNehkRpRPee1UR+gby043lC5EHBQOgpBaOI5/bHFgXPKqIGVaWurjeHHLYDyTRsuvkQdtp5V6p7bMi//r2QX/ziDMaM7csNNxyD73lF6QvF8gS3w6dPgTSvvrOQh596ka236of12wjDgFxWaWm0LJ4HM6ct450pHzBhuwncddsMVixdSlkix3f3GsqAwRV8OAi8Ht92fCstGMGjtndvjjnmJwge8+fM5Xe/voXeNUN44sn7OfSw43jqyX+TTGS4/+5HefCJ0yktTXRRawhRFNLa2kwylaC2T09mzX2Ns8/8IwcdtC9Dhg9API9UaQmhjVi4YDGzZsxi4zGbIp5i4y1IrUL/ATX89PRjGbnhIC664BYmvdRAXc1i/v3Mu9xyy+X0rhNSJVm2nbglW2y2LX97YDKbbXgE220/mjsfOAv1F6A2IJezNLfmydUv46or7ubFF59n3pxGFszN0daeo3e3/0MEEknYc48tufzykyktb0OARDJg6wmbs/WEMYj4dLQluOOWR7j19if4/R9OYKedh2DivsFFgpLOUDOgHpNemcoffn8n7703BxsuZIeJhzFjagYQBg9u48/X/51FSxdRU9eT/Q4az8wZc7nvvr+x7YSh/F/tBNR0xBvSrVtTs/X4ZuNbSTBFqMLsD+o54+Q7WdHYzlXXHslb09/EBFBdXcFee+9Fv94bsM/uF3Db3SfRu7YbeAYRsNbFbACCZEQ2n6WhPqA00dPV2mBIJhJxAtlgPR8Pt1VGManspDDthGYmfqIniMes95bz4D3/ZsL4cWy7zf4uMxQ562nUVsO5/KqTmHvUQxgPvMQK3n13KRecdxdPPjqHfN5HJWDmzDvp07uajTfeksqyBqprunHzX65EvIhF8+u54y93c+5ZN3DxFYfSKX4TUPIU8mme/PsMrr/mb2y82cacffrVPDCqjj//5VgE6wpYZSW5qCrW+syb3cY7b88hCBJsvtk2XHnV2bz832lceslNbLTJEM469yAeeeRJXnp5KqPGVbN8xXyqe1UxatwIgjQrxXvr8T+FDynF1mV1sWJX0ZV8TpUlnxMMc2fVc/T/XcG8eY38+ZazIbEMJE9kI0IaKa1aziajE9R0G8S+u53P44//k8gqVi3WKvkwi/EtSAHUo5ALKCmppL2tg8D3KCstQVUJC2EnU0vsZhWLHsUIyaRPLszS3LIMz4/oP2AAJ592HG+88xT3P3Q9Q0f254xzTuHBR26i/5Ae4LUgQb1TBtsSenYbyG7fmUivnil23XVz5ix8jJfeupxf/nY/BgyqBb8ZKXkDk3qdvgMLjNt6DIVCZ69R9x9R0FKefeotfvPbi9lj3/EcfuQ+JJI+YQFaWtpZMHch2WwuTl9L5+FaMNhcwIhhQ9hh+4mu1aTXgEnNIlGyFPFawV+EmBY8yYMouXyWnr3K2HLcSFyfYYk3Wvv6jJD1+OJh1vbC7ScaCK4VwerEslLD8eXL4AGwaRbMjjj757fT0KBcefXPqRtUwJgCmDzGGlTTWMlRN0j407WncMD+h3D0Yfew68RfMW/eAhcgjVKIGsK8T0N9CxUVpYzaahhqDH4APWoiImkEayigRBIhnuAn4s3gxMbWgIfVkHyYYdPRAzj39wfhp5ox4rFs2RJa2jv45/P/5pxf/5qTTzyHP15yLfX19ahGDB3Rnd//6fv85JTRlFeGlKV9Ai9L4GcQ6YgDuQV82khGOUyYIYxCjJcETa58Aeox6ZV3uPTie9lsy+EcffJ38NONlFaU4CcD/vPPuew08Xx+e+7fyeVThISo28IRL1FgzJi+HHbAblSXl2GSWazfgJoIG5WgUSmeVFJX14dhQ4fR0ZSibXkViSBNv/49UC2WGqyPwfyv4TO7SGFxw0dWqmTNV7hIKdDanuPZJ2cw5a3FnPHLw9hy6/5YsxzFYMMyF5RWtzslCt17hZxy+j7sf+BuvPH2M/TvN5BsJtOpPynkDa2tEemUUF6RxFrBeB6JVIL2TB4xTmliVeOKZPmQYthaSz6XI5+3/O2hSfz0+PNJBkKkHrlCxMLFDcyc3o0eZdUUOnKoDRDjOt6phEAOISTh4aq/Jb5WXHLgCvgCFs1byHP//M/Kwss48B1FwsLFbVT1rOTcC4+iW/cS/CAilfYRz2PijhM4/cwOLvzdjWQ7Ii649EiCVAZRxUjIiI2q8bxypkybQSESCtlSolwvwnwJ+VyeXNby3vtLuO/ef9LeEfHOGwspLcvjexl88WLF8dfLxl2PLx7fwhiMUlah/OiYzTni6Bt549Vm+lUfgNqAgu3AdcKF00+7gNN/5qx333hst9NIbrjtGIZvPgpr83hBRFV3D6uwZHELr7w4jSHD6rAKre2GspIShg0ZzluTP0BtvHFabLHE3bgoalA89dB8RLajjdLSiAN+MIzvH/YYhbzHq69O5Tfn3My++3+Po4/bBzFzUM0iQR7X+c/1pbGREkUGL0hgBIy1xM0h3OSNywfmzJ9DY1MDZ5xxIi5NLLS3htx92ySeemoSf7r5aKprkqhmCHyfdDKN1RypqmYOP2YLvnfAH7j95v8wqPcP2GnXzbj8qh/Rs3sZKhkis4JcmKEjE3H9lf/g1pse56BDtkU8y04Tj2HjjTZl8MARXP3Hxxmz1UD2/8HGeFLsh/P1yTWux5eHbyHBxPU9kiMKwRiPiooqdtl9U0aNq2bI8Go23mhzyssqEFHql7dz01Vv8NQ//k6hQLw/sxIEPt26VdKebeeF51/iv8+9zVHH7UH98gU8//QLBAK+tSQISPgpXPFkxMq6HJzqVwWxHlFeIXRNq6ZMmcZ5Z99J0q+msbmBd99exjtv/Z4br/szRx65F0ceP450QlFNuHOqBU2hYrCe211TPKU0aek3UFiw1CcijfUKjN9pU8bvsCWi7VjTgbEw/d2ZPPjg/dT2G0x1jaJkEJsmkIiKNFQmlaRaxFh6dkvz05O/x0ab9Of22+7h+RdfYK+9v+uqknyPRDIgkzUY8dlqwkh+/suDeeXlqbw+eRZ9+tTSr38tf73vGVIlw9hqq+1cAwXpiNthSGc4aD3+N/AtJBic+yMRYsDzhB69Epx21j706efRWcVMs0tLmwgRJbIQhcWCQGeJDBnWk1//djdalpdTXlrNgfsfRhhmOOD7Y+jo2Jhk4DqPRDaH8fIUe6Y4NyACgZbGkAdvn0HBvsLyxSvQqB9hqCxeuJQw38r39h3Dz8/ch5qaGt54dT43Xf8AQzbOs9vu45G4s56IwQsseILx3YZinhX69O7GWWfvC55iTDtWNO5SZ0HzQAYVZeRGdVxz01l4QanbH4gEHj6eCIEn+J4LSpu4wFKCPLt8d1N22mVzV5ukWRSLMYYgEWD8CEwBsW6r4ELUiHjt9O5TxgYb92Xc+NGAhzE+rgnU6hXY6/G/gm8nwYCr+1GL1TyKJZdrR0ljzMrAp6oSRnlaW5sJPJ+KikpUMxS73Xbv0Z2Bg/P85qb76NGznGnTpnLO2Vfw51vPoXdf13azW888+xywCdtP3JIVjRkkb5BCAok8ggCCZAtTpr1It+4lfG/vbRk1rjeGiNKSFBN33ZVf/fpHkFiEEUNTQwZrIcwX2zlAl5A5CV8QY9yeQJ7bds54rsGTqwY3cQW3RaIAKAOToaQsZGBZJYqPC7caDIGrw8JgTPHYYm8UBXJOeCgRrg0p7rmI6/ubSHiEeUNHa5qmFUJYSDFwwDAaVqxg9uzZRLY3M6cvYsuxvRHj3DcrX218bj2+fHx7CQbARPjJVjSyfDA9w+BBw9zKHitcrVqiQoHW1lZEBN/vTDYj4hGFMH9OlilvL+f8i3ZnyAYJ9t5/LIcd/CuuvP4kNtyoB/0HduP4X+xNIGnqJ83CRoKGBpWIMaM35I13HgCvDZU8qgF4Hbz22gxXI6Um7npvsdZgrVBeXsnIkRs610riHQnVUlHm0avGY+nipYR5gy1xhZrYJGg+DlwnERvQVN/B3Dnzqe1bQm3fACNeXP0cC+hs4LYeiZoRSbvsmvvaMVEVdzxwliDq4RVbZaL4XpKSdDkfvL+Me2+bxNtTl7JiqSGfLWHZ8gaigseKZXmuv+Yhhg7/P3p09xAiiru2rMf/Dr7VBKN45KSMpc0hl15xP489M5kw59HW3kpzczP19fXU1zeybFkLo0YNjTM2xQJgw4J5jVxzxf3U9q1il++OxUs0s+POG/Hog89z/P+7lMuuPYItxvTFI+EmojUQhWTaW5zew4SoV0+xKbp4OUco5AkSMGf2Yp7827vkwhW0tbfy9lszSSRT9OjRI/YoQnzr+s1suuFwfnrC/3H4D65hh3GnscsuW1NereRy0NDYyKIFy/lgxnLmz1tIoQB1/dKccPJ4jjzqAPBc72GjBmPh3Xfn8sQj75MKupPwPIRV98MWE7eI6NIr2LlWloRvKXiWZCKisXEez/3nr5SUG0aOKOGeO29ixvRF7LLbGPbcczwXnH8pl194P+edfxS+3xZvNbM+2Pu/BF9EsKvvjvgtgVCgunvAwfvtS1t7M6ec8BMSJTlKSnwiG1JSUuL29KKAaitQ6Owu0NGe47VXp5MuEW665bdYWYaoMmxkLX995DJWLM1R01dQ24x4ijERpeVKvwGG9vbF8R7Ixd4tsZo2/ntNTU+23mYDls5XavpUUl7eGzHK2K1GY4JmyioAXB8Z15dKMZ5ll+9uxpwlf6Gt1dBYb+jI5FH1SKVSlJSmKStPk05bfK8D37TheXkwEUb+P3vnHWZXUf7xzztzbttespveIAmhhBJaIIQOQgxI7yqCNEFAUH4gCKKIICC9Kk1BUOlKlV4DCYEUAiEhCelte7vlnJnfH3Pu7t3NbrIpEMT9Ps8hD2fv6TPfefubzSvyAc3I4UPRE/pzz52PM/mjdzjm+7uTrfDXWpiqtTeNuxewlJXmMXyLCubNaeaYY8dw9LG7oqXQKVXW8sWcZcyfu5SddhtCSXEJO+54L8899wb33vtPTjvjUNfpscfI+z8FGTx4sM0lGGstEkazik1SUhrwYRdtS8QqjLaICdt8rBYH00VJya8QrtZJWMUOgzJR8EtBUqCStJZ0yEIsWO1+rRTGpsNmYppM2qUCeLE0SqdwrT48tI2C0VgyriSmSmNUgPUjmEwEiKF0BiTjqtu5u3L2ERGsVViTwJoiUA1YcZ0eRbTzPCmDUj7KWJQNO1hahRFNgIcV18zNxZa4KFn3vO0zliUsKCXWhraZrK0lgrVFWFOGVQ2ga9FYF7GMCQPjwvcp0noMJAh8D2uTeJGkq48TVrWz1mICjdg4olOhpKIxNoYVHyVJlA1YredTD77V+FarSGIVQgC6OiQVC9Z1FGiFdc3fXDU3H8R1GxAJiKpk2NVDQxANC0hlHCkpl7inbNhvyWoMynlYbAplNaDDSpKZ0L4R9mxCEEkh3rJWe1BbBpMBI658Jtb1R7Ku94+IoAErfliRzji1gyzZtJWxdDlRzuBrwzYqtIb/+4iqJdBJlKQ61N11uVXZpmVO6nKVaSwptJd0zycGCZMXwWLFICpbkS8AXKtcJc05Vfl68L+GbzXBtNbazRoxAciurjmwimzvJGmtVxC2WxPIlsb0fOukIwnTAmz4eysQZGV/1zXJubqtq2gZkoQV174DJOxs4Aw+ymYbrrVFukq2JYiVsKxlqMLgt3Y3kLA6XVufpez+bLxfSCztJne2ILqb/LmRwEBodM6JAnZ7EYyz1UgoiYWlHIS27GiRrBSUfYbwmVoLhUtPIO//GL7VBANtqtwajYthwer2cSzZaFxwTdsCsMqpLBaUuN47Tp1QruBTtkc2WVIgrMcrrWRhxbQZIcTV03Ec1dYitV0B62xN7ZDITA6RtPUQ7+y5OyuLkD2RhKqThM/QRkKtlJIr0IgNzTAm7IKQK/F0co3V9vXkIP2v4ltHMG4om9V3rg22Q5RpJ/2gswhEud5I1uDaXpiQv1wOkljTOkFNqB7YVuIKC0EJiLFu0iJIaMCyXS3yrVJKNx4lvP8u/54VKlrfU5YA3P1li5KHYkoo1eTub7uQ7ZQ8esikBw6etW19a6TjqpetXh8m8a3eya/zfZs6oCq3c8Dq2dwqVIk6k2gC2jp1mVDqaPttIGBF4ZmcqWlzr6NQRrXbn0XXUzBsX7pe7lvBro8hfbV3kit1ZEUmExq/Q2kpS3zr7QVaXeKxdPZ9Oj9yQ2w4X9d1erA62hFMR2QbZ/03o523tR06mZi5xJNDNLkN1sQ6omnbERIR2RYf604UbcdvauToRTnk0u6vbYapDbxGiG4Nr87Urh78N+BbpyJB91arrpGd6Ll9rTt0cZT2JPTtGfrfnifpwTcD30qC2ajorD1suO+bUP+mBz34JuObIJf34H8U3yTfUo/95atBD8H0YJPim0QyPdj46FGRerAe2LhG15xEh412znW9fo/08tWgR4LpwTcCjl6+/lneQy5fLXokmG6jh4u/amQJ5uuSZHrI5atHz6zpEoqe1/P14+uSZHrI5etBzwzqwTcOXzXJ9JDL14ceFWmt6OHgTYGvSl3qIZevFz0EsxGwqXOvvq3YmJJMD7FsGvQszxsByjqS6djNsQcbDxtCDj3ksungbcxavN+UVbytpGf7/V3lKGWzyNeU+NkRbVKLdWUzO0sp+MrRVU2W7h6be3x3z5Gbdd2DHqwZXls1MlfMKNuw3gLGKow1tJU4WB3KeAiuav7GbHTf1YqTSxydXs9YVEaBp7ERQYyPyT5jh8zqjmSyLmTbRqYSSjBmNZLJLRPQnnw79jz6urH2+Nn27yqnWl743/W767DY1Xo+8vod58p5bjgJ92B94K1WA2YD0F2JoTvwdfu6Lt09rxUwUQv44CpdthsiuRNnYz23I5nVb6pr0dyR9sZ8991H9yaNI3Kb10VAVwAAIABJREFU8wAbLrlsKjWl65Ida8OmCf772mElLCa28fGtM/KKOPErd0BtTMlqY2PTkEwuuitFbfhLtGGHg68bwvqp73YTpS+4+szrDmvtetHhVzk/vrEE8+03yhlsa3HtTYX1UdFczWGTLZa5zod/vR0GLNnKPus+i/5XFKRsbeav4mG/sQTTg68a604ugiCiWjsgBEGwxtq/HY/GKhC9fmU+NwFc8b6vfwEwZt2vuUHOmmz3TrLLx8Z75m8dwYhkm7f/N2BT3Of6GpZdKXVrDca3pIMMNjCI6V6J0Ky6IUjYFuVrwnqqDRt8WTZM9Vgfwlibqr2m0rgRrfAiGlEb99t86whmk8AS9j/a1DeyoehoyA3diRKSkgh+2lC1cCUr5y0jnjJEgrU/tJtsghXttq9L8bAWTNiWxdh1Xnhayw+vI0QkdLzKeksWjizW7X5VWDu+oy1GENd3XYvrk9PhoYyAV56gYvM+FJblsTHtvd9IghGRsA+QXW0/rJmpN4nBVEAZRzLwdRLNxrxQm5CchQCIwlqDDdutxKrS6NdWkHr5EyItBozGdctc+9mNWIyymPVY2u16BjJqA55pe6p1MdxasV1FZ6z9WDqXYLLxVl0e16FRnqwDSWmr0J1cNGuH6uj4yCZjpHRAy+B84kdHKdwpDyLduly34G1aD0bnyG1z2vr/IRz5bGrPSxtaA+7WmC7QlTE32zPpm2noNdagUCjl2t36TQF1ixpoXNJEr/o4JDPURAzNkQBfga+cBt9xYWjX+RH79Yp6qyXF23bv2034zhcm1yFzw5ZzN15Vh8WxewtkbjuhtYtSgmtivvbfWmvRgVCQhKK0JS8CyVpDS12KTNoSi7qmgrldO9cX30gJBnBNycgOAINSer0fdk2EFJgAT3ur/b2r2ImOq2huwF3HgZMbENhVjNCmc6F3NdDdhGsX4xt+C4PFNwEmY4gZaMzzqB8WJzM0iopqAq3I4CI1I5EImUw696xgzSb3DiolRCIexhqstXje6t/+q4DNVdG6upy0EYy1FtNN+1brwd2VzKxFtXjwZQuR+Q0UtgREshrDRn4XG0wwnbVOypKCaL3e5zXSRjIiqt2LX/uq0rZkWWvx/QDPW/1RjbNadnKs628kVmGstBq+DKz2rKb1iI6+EfdiHLm4j9+eTNbX2No5uhL9Vx92uaqQtO0JZ74zwzpPRhBYlLIopVAiKC2oiCaCRlmIlhRQsfNQErv3IhaNgCjEixMYhc34xGIxjPHDy4b9rcOxsalgrcGaAGNd101PKfT6d5PrFCIuutOKIp3JkEymiEQ8Ip5GK4XneZ2O4XQqTSbjE43FECUYa9DrIkF1Q3oBNydamhWNHy6Gls/gy3pMYAi+AoP4BhFMIAqLYDyLtnF830eLRXvNWBvHZAaiaQLdAJJiXXIrlRVEotgghug0xia7Ja5aJQRGkWzxiMUV8z4VLr/icm6/60oWL1jKyK22RiLLqKlu4K5bn2Xi63N4/s1f0to0zTp1ACyBSVFdLTSkLL0H9qNplWLeojksWbSUhnpLkNYEmRjl5QXsPKaU3n0NSkDZKK2TOGx6j1VYE8GYOKKToFoAF3Qv62tNDBEYy8pVSRbOT1LZt5z+A4oR1RzGqSiwBhMojI2glIeIRiSDoQnIYJVTGyxuQfAziklvL2LGtHkcf/LOFBYUY0whVmskmo8yDfiZemobhSAZZVBxH/KKFGhh7vwW7rz5VVasmM8frj+J3n1ibf4jq772QDuLs/tY5YhTjGXG1Pnc+IfnSeRvziW/OoG+A5pBUtgw5aX1W3RzwnYGYz2mTV3Jddc8yUsvfcDFlx7CBReM72IMO8L96wMvc9uNL5Cf35fzLj6ECYdsi1btrAVYY9ZfklehqmYFvxFqy0tojBaT0kmsUnjW2atUQGvK0IZiwwISxCcwAZ9+mM8FZ9/P55/Vk7IRUn5vUi39N+DE7oVXVzVyz11/o6G+0V2uOwTjK6Z9WMWBe17G3FlCc3MZS5Z6zJqV4hf/dzfN6TTGFDLvc8sT/5jK6ed8DxEPace1AkRIJoV/P/MRo0acT0XRMWw54ih+eMI1vP3mPIzVlJT3wgA33fgAp55yK0gJ0Nag3mVYC9ZGCYISpk1u4ne/vtcF2NlwwG/AIA5fCqI9Jk+aw4F7X8Ju25/NBefchfELSCV93n5jJmef+idOOPZODj30esbt+Uu22fLHbLfFydx03d+ct0MCrE2AKWDm1GpO++FNHD7hN7w/cS4N1QXcfsPr7LPbhYwadgpjdv4hd9//ENb4fPHlQv788D+ZNeszlBKs9Xj37U958IHHEBSeVmFMhdO5jJjWrPOvZ3PEqcJ8MbGAGGJ5oBLCk8+8yCN/e7z1/Wfte62bAlF2PTb4cMo0rrrqHmpq0/zxlp9z7PH7o7Ss4Rjhe4d9l9vvvJpBmw3ijTdnsGRpIygPxNmvRNy5lZY1bKC07WTLISpxZl9jDMYaRAlKCeor8O5tkARjjcfyJc3svfsZBMBTL0zn3r/8hqaaJv7v/J/yn/9cz4D+eet61lYDSF2Nzy1/fIEV1Z9x2a9+0UowxpguyUYpobJ3OSOG9eeSS37P/11+HfXpZlY11XLBL39CfoHH0qWL+dsjT1Be2osJhxwFfiMY0F4TxjaBSoMJwBpisQQ77bQNf3vsL/QqzGPp0qV8+PEHLF0+l0+mvceiBatoaGgkFi2FQGM8lWOXcVJMYIp4843FnHjcBQzZvBcHH/EhO47eaj3feoe3FV7roO/uxNLaJ3j95Wm89PKzZDJuRV6woIpnn3+XAUOLGbPXTowZcxD9+5TTuyxOeYVxq7b1qF4Z8Jd7X+SG3/+VrUZtxqNPXspe+26BEp+tdojz6Rzh2KPPYlTxIFqe/AiZNJdddhzG7kcfSuk2RYBPqiVKXbXH5sMrOfyorSmvyAPSgMJacUbeTWCEse36kFuGDR/G+Alj+fjjRTTW+9ggD/EydN6vvDvILhJZG4vmk2kLWL6kju+ffCjHnLQ7nlcNNuhiCmtAKClT7Dy2kqs2O5GnnnqFGdO+YMCAnRAN1qxuPO/sSbtWu7O+JNlgiXldsI4E44HN3qrQ3Bjw3NNTmPC9/bjm1pO4496XqOgXZcCAMkZsM4yVq1bRf0AlIhmwUZAAUWlEiXthYZa2tYCJgG7EqRXuhVtRRKMF7L/ffgS+QkUtWA+RAHcj2qk1rS9Os3JZLbfd8k9mfbaA2oZqDjxoAskWOPaYi/AsbLvVYH5+4ck8+Od3iWphYJ+9SUSjGOszdtxgfnHZBLbfcTMQTSSSR1l5Kcm0T231KkoL4sSLmth+x80Y3jiQVDLDF3MWcd2sGyjpbQkEPDznrjYWazUtzTGee/ZdzjnrZlJJTUlpEdtsuSVaKawJ2s23dRVJ240TSePFl7HvdyvZd/zJKJoQohx34jiOO24sqDSifBR5GBPFCiiVJjBJjFXM/GQ6CxZ8yb9evJNtdyxFe/V4kQxY2HvfMey73274mWYaZy3FeimsBHhRDx2V0IAJH02dxrPPPsOuuw5jwuFjQDIY4wzhopy6YiUrua3pudzvsLZ1VW3zRIW/yHlZIlnbXIds9tBa3fpTa3EWF813D92D+V82MPntecyYtoBRo4voPMs919y9pi/R/u8rV1qWLU8R2CZEtSA2wOCM3J1bygACrCTRCj6bUYfNBIhKIlajQo+OWaMNUsJTdXGv7XabnM1iLKt7/zaCRabLbGoRTRujm3AFMhjJlm4wJDNNfPDx2xxz4v7065Xkip/vjheNkUoFPPK3C4l6CqurCYxgg3yMVBPRMUxG0J6HEkVgU7T5eKMYY7Emga99moxG8goZvcPBWFlFJrChqxM38MTPueMAK5ZIXoJddxnPuN1K0RHFG5Nm8Ozzz3HnXdey1ZZDqF45m1tveIwRIzfjoUduQkeSXHvlfTQ0L+DhR36HlQaM34IVhdKa4qJi5n7+BQfueRx1qWp69YowYkQfNhsynIGDBlNSXMYPTzmO4tI0ijhBoFFePdbGSCXTvPT8x5x79g0Yo0nkKYpLhUhMMMZmzandXNVzVams2iEEAhbfic9W40kES+AMqRJgtXGqiTGOxEUwJoVNaxoaGwhUPRWVvRg3bhTjdtsN0Qarapk+bS533vI0vXoX8durf+xctr6P9qJE45qMgsCmsX6aIAN+oKhablm1som99y5AEwfb4gzE6NB2oLFEsBgEH6VMSCbui2I9jA0pxQYoaZsAbmxo96zKjcXsjLEoF0CWXXhwK761Xvi7TBiv48aISIaI0hTkCbUNNSxYsoptdihDCMJzdHjPWeQYQVtjtVq/TejcCCOefd9iM6BNFO3HQDe1plisjvbXUZJCTIaM7xFkPES7mkNIdsxAa/Bju9Nk2VQ6/3u7fY6oxHoIQqACAi9cDch6vELVcS0OCbsGD5bXGnDT4e+KTAeB0dDqaxeFwZLxMyxb3sA2222OwRKPxQgCi59K8tnMBWw/egusCMuXN/Cj71/A9jtuyVk/OZ9TTzqHzUaUcettVxNNgCWNUpbly2q59OI7+PCDZVT078Vpp55NEIBVGiSGNWkQheoqlkICioojHHLESBZ+mebCn93Aa29NJQOccvLZnPuTE9l2u2154bnXOOmk8QwdFuHjKXN5f9IkfvP7k/C9agxpFE66QMP2Ow5nysf/oqlZkwoCks0rqWusora6hiWLlzF7zicsWbKYqpXV3HfP45z8o4M48eS9EZXm449mc85ZN7Dt9tvw4zOO5eKf/4Fhmw8O40ps65hYOzr7gKHRFEGJAitYG2CtYJVl4eLF3HfPCzz5z0mkW6C5GTIBpC0EQVss1ZChxZz/8z058cT9sSqNiOb9d2fyq0seYED/LfjFL07DWgUmCkEeNoDARLEGViyvZsaLkxnQOJL9JuyGwSee51HRuxBLBrEek9//gvff+ZL9DhzHZ7NncOMf72PnXUZx4YU/pE/ffGf8t4pM4DF/fg1PPfEKH02ZwoQJ+3D88YcikgbJ8I9HXmPSe3M457wTqOxTRjQvQCmfd9+eyOQPZnLA/geyzbZDEZXGiqElKTz12Hvc+6d/EAQ+h3xvL046eX/KeyXQ4TCOaI/6+jqWLF9ORrZAoxBrclQqN1GzROJc9gprNKIsKgyddZKTgAjWQjqVIZ3OuE+msqQXeie78aUjWqO1YGw2GsXdV1Z7WH/kEEVoh3EaAI48s3/OjVPYwGt1rSLZrl3MxlhWrGjkk+krWfhlmhv/+HdGjezHEUfuT35xCRMnzuanZ9/Fx1NvJ+JFyaRjTP8oxeLli/nLwz9m77GjmPzeTPYYcz7vfnALOmpZtGgJxx5xKbNmQmm5Jv1lM6edchnDNu8Lup50Cl55YTY/O/8PHHVsX6695spw3mU/WuA2C3PmfMEpP7iM3pVb8+QTj3PRxf/HVVdfxOmn/5SthvVmxJZl9BtUjm/cylBSEmfX3Qch1hWNSqfTvPX2TE468g60EiKxGEXFlUQSMWJ5lmg0RUF+Kb0qelFeVs7oHQ6gJD8fYxow6RYwBaCa2HmXLfls9vNE8jTvvjOdvDyPfgMKnTTQrVDwrlaGMEBPgRJFS4ti4jtfcNddj/LxtLl856DRXHTRKZQVDWL4Zo1st91eLFy8jKqa5dx062+o6FWGpwKUSmKkCu3VIpLCGo83Xv6ESy66m2GbjeWGGy7ivfef58Kf3cyqlWADKEzBUaUVnDF8Kz6dU8X1L3xK8YtTWFZTTUFJGfn5UUpLi8IgrXzmzbe88eYiPv/8bV544UX6992C555ezJIFj3PtH06h7yDDgvkp7rjlXzxw/zMk8mLE8jxeeuFv/PvpufzmqpPYfHgJTfUez//rM1575Srmzl9BXpEw/rtjKS0u59G/vsO/Hl/IL355BAeN34mMJLnnvhe58uJ/0qd3CeW9yrjzjtd56OFX+dmF3+H73/8uFtBK4fs+zckM1nhYm3GqWZZQbCgxK2kNunvh+Te49cZ/M27cWH76s++RX6TDsSeIaIJA89JLb/PKyxMZu8cu7D52FEISyQb4rXHuut8UFkcpKIgx5YNZTP9oJKO339yZaWiT2v5bsI42GIslQ11twI9/8Hvef3clGQ1/uXsKvUrnMqDfEPY5YBypZB7aJvCDGJ5NIzaGEPDll9XsNnYYf37waia/tZgf/Og0rrzqWn595UW01A1i0dwEJ5/yHX53zU9ZsbyOSy+9kWnT5iAiBL5QvSKD36z4cp6EKpsK2dYPRVv4csESzv3JvcAQbrz5BpavbEBHhV13G870Tx9BKY9lS5byxz/cx5SPZ3LCSUcQjcYo7hUHlUTQxOIRxo3dmemf/od0OmDO3Hm0JFN8MnsWVauW01BXw4pl1SxfOo+FC2axqDLOdw4axemnHYM1Pr6pAuvhRTMUlq4gGUQxBiKeR3Fp1hi4poGyds+SFfcOjLXMnjWfO2/9J8uXKr57wDGI1JOf349zLjiWU86CJ/85hT898BeOO2Fv+g5cikkvJ5PyyEtYPNWItWlM4PHKS1M4/+w7aGkq4qCDKyku96ksG8QhEw6ltLQ3gwcOojLjYZ5/B1nVxB67jGbf686jfJd+xAsz/OOpZ0FDoiAB1sUGxfLymDlrNvO/XMTlvz2bo44bx9//9iKXXvRHbr9d89vf/4hX/jORfzz6H0459TDO+8WPKCwu5sH7/sXvrvwj99xdwFXXnEyAZcWKOnbdbXvO+9lPeH/yNB566AlOOfV4brn9Fq753c289eqXHLD/PqQlTTJpOe7E8Vxx1Q8oKc1n/uwWbrrhYT79tJnAWpRYojEPwZBOpZg+YyavvfwyNTX1ZG08xtc0NqQwgeW7E8Zz0PgxDBk6kn5953LT9S/w5hszOPfCQ9j3gO2JxgRrFU89/ibX//4ZPFXOYYfvw8it+yCqOmchXDt0RBi8WW8ef2wSF//8bi6+5Aj23m8nPI+NIMV8vVhHghFEIpSWFvLMc7ewZEmGI4++jEf/fDODBkSIFdbQbHx8a2kxyVYxUumAeELIK+3FPXdfTH5kGf0GC40NPq+9soRfXq6Zu3gxxZWl/OqqU5D4Qir7Zzj33CM5/cfXYrHkFcBJp+zGSSfvh9YrQ0Pv6hg0sD8PPXIjgW0iGq/llVdn0KdS0JEqIrE01jSgotXEEpqJb9Ry0rF92H9CXzwBRYDBqS+RPB/M5zz+4HtcfdXfGTGiP6NH70BeXhGTJk/l+usvpay4BGssb7z2Hk8/+jw/OjmBkSqwUUcPBgw+IjGs9UAFxGKxdvfbISuC7pCLg3ESOB6jth3Mo49fjgmK+Pjjubzz+hSiZNDG8OEH73PTTXczYfxYfnv56eigkWf/NZn77n6Ba248ka23KUOI8PKL07jw3DtQpoJhm/Whunolljp2HF3CjqOPBQlIJ5PUfrqSFTMLYKVzf9rIKgKtQVusUWTSAX7KdwZJacF6SVAeO+y8FcccvwdKV1HRu4WKvlGaW3y0jrDffruw7ait2XLUELyYUF29ikjUMnDwQFqaNMZPoHWUaJ5l9O59Of7k3Un6DTzyqKBjteyxfynjP9mJDz+YzeQPZ7Ksej5vvTmZA7+zNwUlCkszeYVJiks8POUhxEAsxqQJfB+soaEuyjuvNfHJ9HmUlZVQXlpCYYEiQLNgwXJ691rG3vsoRm49kNv/9DP2O2ASN9/8d04+6U62GVXO+T8/lAMPOIDZn6WY83kthx02ji23HgKSxIo48/FamSH73Q1bbbMlw4bPZtLb7/HGy/PZdrstqOyd3xZMaW0Yt5U97JtJO+sswSAZ0D6i0igvjdENlA2pJlpoCfDwMxnS1hBoUJ4QmLR7EUozcvOBDOxfgtKrUNEUvcpLaWmG5iafaR/OYcQW/ckrTDnjL5aWZFN4WQ2ShGgdYhuwxoTGO3C6rQ5VOgMKinoF+Ml+fPDuMn57+b0MG9mbRx78kAO/szsVfSP07qs55qQD+MsDV3L+Ly7mjbd+jagU2DTa+k73sAZlfUpKE6QyGWZ9sYBlK5aRSmVobhAu+sWFxGOaeDxBQ01AYX5pGL1s0VahrG29OxNAS1MKpTwK8vOzb9JF+QrObiLZUgbZv67lO+D0c2eMC0A3A7ByeSOfTF9APJbHjBmfce9db7L1ljtz/c0/JxpbDraY8rLNWLEqzfXXP8Xdfz4TpYREgeYHpx3IPnsfyH1/eoLS8nwiXoDYZpAWEI0Q4HmWRCKGVo0YY/Dw8TyDUpZoRNPSkmbZimonYaHxtGa/fXfjxJO/g42sQJMkL99QVBzH4mNVkpVVdfzxusd4f+IkSistB4zfjZFbb0tJZZyAPKwpwhihuDxOv4FxVKQepRopLrCUlgUUlijKK+Ksqqph4eIaVtWm+XDSfD58/wF+e/kDGB+KiuD4H+zOmeccizEKUYaUn0GrBAXxXmw5cjiXXnEhjQ3g+wHpdDMtzXUsW7KMwoJS9txrF2JRSxA0o+PNHHLEOCoqh3PzTQ/w5hsTOffM+/n5Rau44KLD2Hm3flx79VN8/8RpXPLLozn86G2xkmz9ro4Tui7H2VCf5vF/vkRlb8ubH/yOLUZWgvjtDK/uRN3xcG1arEccjAEbARRIgG8hnRSkGLC+yyq2Bu0J2ChBIPhhTkU0HqBCP51WPp6KYH3wFJQVl1BfXx+64jyqq5M8eN8/AA+rohhJuslqLBIYlBbnjRChNeVVoK42xV33PMe1v/sH+IXEy9L0HzqYd9+ZyH1/fpRHHruG3gM8KvuUcPiRezBz2mICI2gF2s8La/gqIlYosoqiSD6jttyaR5/4E0Ul+UyeOJULz/81551/Gi0tjaxaXsuUSdNoqKvCGBMSi9OVJTS4+hlDY30L1oBtl54g4ALVwXiuO4HL5ukW2kVfWMFPC/VVAcmWFoxtob6mgeXLFrH5FjugJUqypYxPp1fxz3+8ysKFK+g3oITli6HvgAhjdtuOXcdsx8wZ87EmA0EcYzx01oAZfnulFF4kitaaAGk1elqbwZgMqVSSxka3MGirHPd5Ql6+RkkKS0A0EiU/nodYzbzZK3no/mdZtGgp193yCw45YgyifD6cPItYxBmTMRrQYCwEacSmUWJQCsRYVJhQ6PsQ+JqY5zF6hxGcetoP2e/A7dCqhWjE2Vi0BCjxQSzpVIbApoklfN586xWuuervzJ3XhADxBBQVKUwg1NQEnHLq0Vx22fHk5Zcy/aPFXP/7+3j+2Xcp6QVn/HQ3Tj/jcDYb3AdRlr332Y733vmCv/x5IrVVFmwcVBprCWs3O7HVhKkTAm2eRAvJZiGTsmy19QCGDa9EiXWeso6qdWeeom8Yuk8w1nN2DhsqguIjVki0xMEIvu+hCfCMJeFDnrV40oJELCIeBiERbcsDV9ZNRmsM+THLqJGDuGNRHQs+tfQZEmHmJ0mefWEq/Xr3x4rCNxG+nA233fA3Dj2sLwcfvGeY9t+WDYRVlBTncdZPDmDowGH85rd3c8mvLuKwo/Zh6kezOe/sy8nPd9JPY3U9E995l6K84dh0b4y3CKubwnR3F58dT0Sp7F3MrNmfsNMOu7tnSGhMOsGrrz9HZUUpBfkF7DJ2OL3KRqBEhdGioatTwlUqSJNM1+Bn0tTU1mbFFgD8wDDlgy+48Q/Ps/uYPTj3ou27/UncUHW1CAKrmDNnJc+/MImMieJTQXFlKf0GV/D0Y2/xzmvTqa2rorklxdDNSxm332DmzfmCq6++m5tvORPPc4PeUwFeFEzEJxCXTe1ik7MeB5cOgRsFztMRbhEsmcYky5Y0YhHXZSGVgZY08SCBZzIgaUxgcClKimQqTWNTI42NSeqqmyCI8OXsOv527we89eoMTjhhM4w0Y3HhDC5C1yASQYWqqA4nmhKFVgFDNy8kGmlm8sRp7L3XaLw8xbIlDTx0/7PE4yl+esH3QEHGaAqLSqjoVcbB3xvJ4d/blWz6tSgFRN2nkhSBDRBqePivL3Ld754gFo1y8eX7cuzxBzNgUJnzdtHk4nOMhxcTjGokEzQgVmNtjKlTl/HMEx+z9VYVHPK97YhF83j6scmsWArjD9uGfoP90JgcQSuPWETQSkKvVq6Bd31dPG5Jyn4vXxn8rLu/Q6KjEje2NpS+uk8w4rsbbK39IYgK0NEG5s79nIreW+H7lkhjjIoWRbFYPCxWMljVQiCWgsIUmiAU9dLEYnVU9ivBiyTpP7QRYRV7jz2e4rIEzb5hzG47s3D+EgRYVdXErTf/mSefmMyKVX3Yc89diMdj0BqP0OYGzCsURu1cQkVvxXuT36TvwAFccfmvOOb4XckvTpJsMcyclibdWMFe43fijDPO494HrkRp2xrjY4whYxvZevs+vPTybeQVDCIvv4BPp3/Bb39zIxdd/H/UVdUwb/58li5aQVNdkkw6TTTugY2BNIYev4BEPEKfPgkSeT7pdGO7D+n7PosXVfPKK5+QyQg/vWj7bgyfMO4CQBQWhfUL+PzzpTzz3LMUFxdwyUW3c8kvz+CGG/7A3HNmkEq3kEho+vYvpaxXPn7a8trLH/DRx5NQEYOIc1MqBZlMhrr6ZkSiYeyHQUSjJBIalg1eh6A2gM2HDWWn0bvSWBtgjALxSaXrSGZWkshvDmM4BGvTBDaJiGXrrYZw4vf3Y968B7niV7dw5ZW3EI9FiEbzKC/JR5HB95MYG1BRWcDgQaVgUkRi9ZT3ThOLpampWkV9bQ0Rz0epJGPH7sScz1by68v/yqMP/5viojyampqIJQLOPvcglApIZ6CpMU2/foPZfMRmiLJ40dA7Zy1WfGcOIGsnc0maRx61H3vttQfxeJyKyjiikkC61bUruHcYj0FewkNr7eaOr3nr5Q/4892PcfD4ndlu+94MGTKIj6d+wb13P0Wgj+KMc8bjJF9IxBXxeIC0i/XKHQIbJr3Y0IYn8tX5HenWAAAgAElEQVTKQDJw8CCbm6Gcrf6lrMXQTHGRYcqHtwLN7SIIrUAqleGjKTPZcuQOlBQWoOrTND/6EVPemIUeUcEevzwIElU0pzJ8+mktI4eNIppIo1Uj9XWGV16ZyM5jRtK3dzlOELfUNPrMX7CAkVvszKqqZfzpT3dz+RXngBjSqYCqZfX0qeyD1galVzf0WoSAfNLNpbzx1hccdfS5CJpdxw7h6X9fgxaP2Z/P48xTfk9MF3D1DWfyk9Ov5eKLj+Po48e4FdZksESY+tEyjjvmUlZVQzThMXhoBV4kzvx5y9lzr83JS8TRSqElyrBBgzn9rINIFGTQykeRCi0krg6tMQmXuOnVokKKzXqCaqoyPPTAVF5/7R2e/Pe5XermuVChFGQAYwuYO9vnphufYXnVIk4+9SCuuOxWMIWccfoJjJ8wlpJegvYsSqURLCYIg/0kRSTS4NyxVjHr04X88fqnEK8Pd951ForFuMUkQtCiqZtVQ91TnxN5t5rM4Hz0MSOpGNOPvEKfxvoI9/9pEq+/+SZXXXccwzfvRyZl8NOK/PwoopuwYqita2DqlC9QOsIee26DRWNNJORNjRXFkkVVPPH4C0Sjmh+fdhy1NTWkkkn6DypFJHCBdIEbj1oLb7w2lYULazni6P2I5aXAeNQ1pJk5czZ19S2M2mYk/fq6qHKlMsycOY/rrn6ayvIRXPbboykoqg3VW+UizW3bym4JaxC5KRPSpMYYAXxaVZcwxcWiufP2f3H/PW9wxpkn8sMf705ENeMHEZaurCWiobKiBBFFXXWKwI9QVCpEommUxFi1LMJfHnyaIUMjHHn0nuG5TbgwrSXQbk1/z/7MWtKNPtWTamh8+nPsvCpWVBgqj9yazcYNJ5qnnFmT7sXydh5ot7Y4mG4gGlXsttu2WD/hkqUn11L/2BS2DCI0xhshYyEmxKMe243qD7YeyGAxFBYmOOywfbHSDNaibIBVHkVFeYwaNQCRKgb2LuXXl12IIok1EPcUAwaWY41xwXZAx+ClwNfM+mwZt91yO//857tE4xH69ynli5nVXHnhUwzboowpk6eSbDT87LIJDB9RwFk/Ppab/vB3evfV7L3vDmGWOIzeZRhTZzxGS3M+mUyUZDrDe+9N4YYb7uGUk08mk0rT1JIi1ZIhaAp4/NH32OfArRg0JNp6P4IFm3a2J6+F1T66CKl0ipqapRTku7II3cmWtaHuboHamiaefWYSr77yEmf+bBz7fWcIW426jAf//DxX/eZaLr4IepWXsOOOO7HttluglWXOF58zceJbHDR+FFdd+2O0BoyHEEVsBD/tExhn5wDBT2kWzqtlycwFVGY6L3oWj0cpLsrjy7nzeO/t9xkx7FDiCZdYCGmy5ofS4gL23md79+UkQAgQnXFvK5QCBg6Mct75R0MQxeJTUZlAVBwX6xSW01DOXgaw5z7bg/UwpBEJEBVQUmzZffetMNbDkgFpQKwHRpg+5TNmTp3DyGNGk8hzi6oIzt5hsupnNuQuSy25VpBMuPxnJ1Z7UaBXeT7xmKGpKY2iFBFDNJJiYL/80G3oNIKSci+0wTh1xPc1M2fMJfB9+g0YuPp4+S/DBkkwgkEHikxDgponP8Y8Mp1YSpP2DCZhSRw9mrKjh0JeGiMRbBAJ7RMmJPusWhNGUErWkBXgEuRcLZL2tWAUBg9tAzqLjLQmzqrlpUx6fyqjx2xLSZmTFFpaWli2bAmzP1/ALTc9xJlnnsqhh+wHsbmYlkomvTuP313zG449aR9O+MF4li9v4h9/nUO/fv0Z0H8ApWWFxOJCJCrEYhGiysOKQQQiEUskkQKTwRhDXkKh9Mp2Ida2Q2m1rASDVTQ2Jlm5solBAzZDezWOjNb24XCD22Vra2qrM1StbGGzEXnOHGgNohSWGL5fSFOTsGpFE4u+bKShsYa8AsPQoX0pL9cUlfho5WPRNDT4PPXYG3wybQlX/+FslLcKaxViinnvtbncetntbFWl+eHQHfGHFKKPG0rFmAry8uNYE2XJAs2Df/4P9enPuer3P8BTOidL162J2apuNnSvulo0uUl4YYi6ZOValx1tCTOKs9Gmpm3cZiUMK7n1ZrLnUrSym42AjXLnbc8xb3aKX15xDMUVdW5MZr00rYbYtu/QPv8nZ6502npGCIIILz4/gxuvf5LpH8/jkkuO4IKfT8CIj8mJDnZQYDXX/f5xbvvjs+TFC7jo0hP5wWm742nn3NjYEoxfn6Hugyrqn5lN5stV1PUSeh+xDQP2GoYqUI68u1kfZk0STJcE4z5G1wSThdcM/lsr+eLWFylORRHlkehTTt3SZWT65bP5DcdAaS0BGhEdtvE0aKPcoFmDwaGzeWZFQoLJdHUU2Lh7aJXGhikF1uDKMgRgTRSrsgbiepQtQWwCFBjdCLqFwDcYv4RYIkG6pZnAptHauvwZaxFjMaFbXKx2pTND17myFiVBO1WnYzmqLMFkK+wbqxEUSlJdv5AcqLCMYkA26DBcc0NXlbR2A4pgbdyRd7hKZieF2AjgoySJKEfqWA8TOCnGKpeo5wyXUfyWKLWf1lP/zDQKptTQ3D/WnmCsIgiiWKMQ1eLUMXFSmQtide8sm9fWJgFkRYbsQM2tQxvabUIiskJr6YXctsdt7zSH1FsnZLjlDLbAjyA2gRfJYGhxx2XJKyuNdCdHrF25jSwpOVILggh+poh0yiMaaSIRa8GKaXePbRBMugg/VY6Ih46ugmg12maXpdxjhNZQ/67uZY0EI2TqfGon19DyxGzUFytZ2tdSeszWDB43FF2g0Uo2CsF0qSIpG8oWayAAZRV+Ywtzbvs3vRtKaYg2UzMgyqjvH0jzn54i2Zyk6l/TKT9hK/CaMQRIWNRobeQCnf/dCI4tujzI2RkgAOWD1S54TsDaTBj2nQ1XCpzxkiYsLfjOD47xA0CjI00EQTMq4sLvsoNPxIDWaEJXIwYlKqyJsno495r6ANlWTTdbgqJ7EZ/GhrlIklXDwsuGkXvZzGKxBpGWsKCUDedaWP8u6xHEZXU7Q6agpAWr6lFh8qAIiLZYL4V4NSjPkMlkgJgT61u/pQGdcpW2bYDBRbi7pwulltYUCRf56uwbOatl1vOWza/C+TJE2ioCZtsBd5z/oUDUSeXA7A+yEopFaVeewYjfVs0vPFZycnG6HKPZn3SZVCgoHeCpOry4C+J0aq37veksrTpajxdpxoZJl8qtXlmLHdmkY0LbUMfrtnsfa0hFEWsRL58gbqmNxKlOJ6kzQiwqpDUkWP3W1hde9sZyOBigtfasVdkVYvVLSqBRjTFKm4sxEtBYLgw9fhx6eJxe+2xD7VNvU/36p5RPGI0uS2UTw8n1+HRWKX5NNaFV1++t7QfZRcS2P5+rwGlptQfgJn9AgKtbkgGl0Xi47GywRoWlF1ySp4iz/4hx70SFy2lWvZNs1GY4kLPoWOqzdTIQquTi4oe6WyGx059JR1G+lXVav7G7o7aqfRIaHCwSztys9JqNLcpaIRyZYi2egHhOaotIBEuETGDQ4kRrFap+Qtv9ZLOAXTW9nJW4XfZvzqNk428szt4mbfJgllyssmt45jYJp6P00soONjsW247MvRUnEXX2otvPmY7IPpK1Fh0uHNJWxh+Q0A3cARqsDTAEGBsQWOOktaxklDtYOrl6hzfY/m82G5sFoHjr7clMfu1LWJjmO4cfwMraz5m9ciV9g8HEZfWzrTvcPXrZ++7yZ4qwfkvH/ULgp/h80idUBEJLzLBoRIKtdh5Oxguwew/CfzpNYU1A8j8fEz9iCEQtoDBiuv46tJFOZ0TjgtHWJLoJGXHXafXC5w7onH+sEBJFaJQ1CXdd52fBSgaxghFXs8azTk8XDEaFxYOMu5aoTOskyq7SuY/YeQ2PUDpot/JkB0/bit/x2LZ9a2PbziZItpNBSBw5A9ZmJahw9rgn0OFRiphKUKgN6cwi0sZgA4hUBaSWJEmVCp4WMGkX35QrqWefFVymumT/np34tv1L6KTK35omdIcnXl206XC+1q4Ctn2d5Jzda73m2snHPWN2FHTn/lvjTkJpONu6p61TdZjx3MWZ1tSSxamYBs9aMinLgi/r2f07RzKj9zxmV5QyZNxRfDz9XW698SkmTNiOMTuPxAZ+l9fqLlZTkdZGODm/xAaaxhafYi00lMXY7wfjkYSrTWJiPvWlPoXLmlj2/HSGHDwK8RrWlKTdirVKMGtRI1rXJNsxRd6tWNaCUVmROFRPrMWqADGKrPPbhiKqELiyhp0Y9FxB8DBsvzPvj1VdfqO2hSKXKDpMrE6IqY1cVv/92mG7mBhrJ6vWa2crC9Y1U/PB52SWF1CfSIKnUBi8LsSwXGN9D7pAtlznmv7e9cF0NR6MMljtgiFrMopVKwNisVU0tWQYWtKb/IIBxKKDKC6oJar7YgKN0EUMzjpgvd3UkglIz68h9tQMAlVMJl9jK2PgZVztnz5xdrrkCKZc8Th9ahQrrn+Fyl8egMprcov+OmSXrityBV/ppHOWoFovb3ARp85GEWCVQYxabRKKCpurWacTG5F2RGjEXVWtRhhrQ67E0tn+bxCsxUiArzPoIEletcHW1qGnVFEmTg3SRvG1tob9FkLsGtrrdmW8zTGQdzZulLgCZGkV8FlQx27nn0O6VyVbbF/I4MGDSWWSHHn44fz7mWqamhuA8k7Ps65YK8F0Zk9VgGlO88W/JtO7vghf+xTW+1RPXkDF3kNAu+hSehdSOHYoyZcXoecth+U+DIiivRZnsvoKx2Hoz0FJ5714svtUKKpbq5HQM9X5t1VksK2tN61AEKo3KhRbBaETrb7dns7xX7CiWwt+BhskqSpNsWhgNfEMeNbp9cZaAsDHTY6upJQNbWT2v4CsFa/TN5hNZels8q+hgLwNbVVWINJkePXhB9nnzJ8zbIdtmDFnGjU19Qys7EX/vhX0692Ishmc13HD+gKslwRjA0PL/BU0zPiCskg59dGAojph/jMzqNxlABRGXSp/UZSBB+/AjIlziTc0svT+Z+h73iHYMnceZTc+yVhcLV8J68WIydqPXPV2l6iZCx9MDCtgTAQlLThftkJMnBxZCDBYo12d2WgDSjmpJwhbOzY3KeZ+XoeysM32BWtwQfz3wQqYPI0eXk6+GUa0lyISWFRgQ9uwRbdpTz3YABjbGpGzjliz1JslrDxjKFzRyKfz36WsX396JfrhpTXPPfUoW26Zz+gdhhLYNEo81r8QukO3CCbb2a9th6WlpZkWFTB/kM8u4/ZnxUOvUbGwni8en8qw43aAuEZpha5I0Lx9LxZ+VEVZdRV9rR8WY+5eCcF1hRDGSSAEJkLGlLUm5CkbwU8nqKqqoqGhgblz57NyaS0NDY1Y45NIBJT3sRx2xJ6Isixeupi/P/w6vXuNZN78ucz6ZBWffDKTgoJ8zjxvAsd8fzeUSrooZDTTP17AqSfezCET9ub3t3y3WwFz/02wBKg49NuygopBRUQCZ33yVWhXUWD16t+0o/G0B2tAtnRlp5AwJ7ErIlm7Wp0NUtwuHeX9dxdSu3w6/fttxpsvP0pxYYaddtqaeCKMMWttSbr+H279JBitKNlqMOOu/BF4cVSqlOo3JlK2uJHaV+ZQu2UfSnboD54hVpRg9En7MjtvEv323g5bHBoIxXwlLYotQlOz5q2XFnL7bY9TVV1HVV01NbUNZDK4ynIR9y+A1mFFGQ8ScRi901COOHIvBMWyxWmu++0LYF+gV2UBR5+wJz89/yomfvAJv7v2cXpVxjng4B0xqgX8KCIaLyokCjW0ptd/W+AC3URBftQ1YNMmm5ULQTZQrUvbmhv8PRLOmtHOtb5OB0qOKa8Tx4AljIJ25zdG2G/fobz37tvMmPEo2247kAEDK8nPr0d7MYSIq0u9gVgvghGtUAVxbJ6HWB/PJNn2ysNp+M2r2LkNTL/jbSqOGsYWB2+P8QwF/YrZ8azvgKQxOpkTYbnxIVjyEoqDx4/mwIMOICNgvKUsnF/H+T+5jfffn0J5eQU/PfcH7DhmEJVlxQza3ENUBmWiIEkX0Ws1gYFRO4zgvgeuJpq/lKkfzaG8b8DOY3vzwL1pli2r5YN3l3HJhb/m0KN3Yezue+F5glYRp4pJeu03/F+FkCA8Qhev+4ZKCONpnGRqO5HcBNjgJnP/C5C2mJV1OixXk+8qwC7nv1oJZb2E8Ydui2X7sIgbiLLYIOPMBF3ZetYBa7XgdOp5Na4TnSIDBASSRCqEvNPHkYml6L1UWPGf2UiDhzYgSmE8H7zwEb+iZSw7rsUGGK8eE1mMxGfR2FDLKy9Pxbc+f3vsDsSz1Das4C/338/pp/4aSCE0A01gAzCWdDLJsiULUWgKCuMsXbGA2+/4Ey+9+GIYpq5QJDAmj+a0EIvlYYJwlQgt/aY1B+bbApuzChrn+hQXySxhQKaEXrmOm9gNH6z/CxDrYoUUep22bIeJjr6k3M3mbEYsRgVhWYqA1v5iFoQIWM+FWGzgd1tvE7E1oXFPARLgR3z0llGG/OQA8m2K3gtSfH7vS6gGDx0EX6/3QAla+WidpL4myf33vM7D9/2bBx/8A8VlKZQWhgwZwCWXXczuY3fl+8deQX1turWtjEuYcwWMRHkUFhSQTkL1ykL69d0WY/NRkQheNIoWIeopl2dFaAzFtn2wbxGcFNJ+37r2MF6tPWvPtvq2Ub/aGtAqUYaBr0py5sC6f9vO0G2C6crtqMR5DxAfEzPoXfvQ+/v7EA0UmYmLmfvQW6gmCTO03TG5GbBfBcS6qV29qonbrn+Rv//1Jf7v0h9S0ncxEqlDeYIXi1LZu4gjjtqRye8u4rgjrmPpkpVtYd1AOsiglYu2DQJIN3nkxYrw/QAlkJ9I4BufTMa6AKjQhe1KHJi2m+lBD/5HsUFO7tYUeRVOShVAcQpv/yH0328M+Q0x1POLmHXPa0TrI2gbR/BCj85GeoIc5LJt7ao0d93xDA//5VVO+uEB7H9I3zAmRvADCPw0xFax1Q4D+fcLjxLzShizw6Ucd/SvWV69DFQLysZBuXKR1i8jXhBj4NAKfD9NJKYo7ZWHiCYTuB47VoSMBuNlw+tNGIDXgyyy5Rp7tjVsm+C7fFUKRrcIpsugKYVLJxdxMSbKOltLrwx8d3PqBhehWmJE3ljOjJueIfVpDSodBdO9okrri5ZGy/PPzOW+21/nmOPHctZ5+6JtBiEJJoOXzfcXQcRn8+EF3HPfNfziolNRApkWwfp5WCwRgXQ6Q2NdE7FogsGDBpJOpYlGI/SqKMZTaWLa6b+II1vlqa80UrkH326ICGo9tm+ihctlU3eVO0IOs0k2+T4XglGuAb0N56y1PkHEEB0WY+trD2D+u/NY+vBk+rzfwPwp/yZ/QAkDfnkA9EoQRHzQLt9B2fDFhlGha9L91hScpyzE8w1HnbA54w+/i8VLqznme1cxaMAwZkz/lGXLV1JVneS8M6/hgp9oPIlRVhHjp+cfydkX7sNZeheUhXSzwYqmOSOsXNXExPemssWwfmgyBC155MXzGLH5YD6aNB+sxg8cESvlarJiPZRxnhOj1+RN+rqHxYZ6cpyR91tlu/4GITfX9dvwildPdhTJEdUkLNSkOhXbrLEECMrqtgJAKhKWZfDximCzfYdS0L+YGc98SN9JNTQtqOb93zzIyEN2p3jMZqiSKEa7vsquBQlhHXuzhlocaxK8LKIyRKIx8pQhldRM+mAe8xesZEj/PozZZVu+d+ghjBg5gnh+HstW1nHzjU9y/wOvcuyJY4kXupoxXtRQUp6gviXJ669+zAsvvM3xRx1FsinD0nm1xLUQkSjKJpAggskYlHJp+EoJYjWQcQmUaxHWWuOZ1gHOACfOPbxOQvX6Ekzbcdn7/e8hmbDqzroYo8NgzU0xzbO1/Dd2JO/6Yk3N7deGtcbBuEJLElZQW8NNCK3iTnb6GwFi0HurMsoG7MGnr39O1RPTGTw/Qc1d77P42RkMO3J3ojsOhHwP4/kEyvnjbZeZnGE7jDVBAkQ3o1UCIcbQzQbwxHOXU1oKiYjnjMCmCSNJikwLffsUkIgInkTRJoW2/8/eecfZUZX//33OzC17t5dsNm1TSCGd0HuNVKXYEMQvTQUREPyBggICBgRsgAqKgIIURfyCIIgU6Z2QQAiEBBLSyybZftvMnOf3x5lbdrObZBPCl4Q8r9dkb+7cOXPmzDnPeernsTaVESNrOeoLozDiUxKv5dgvTSUbZPEj89hlz1qMagV83IjGN15hjIoTz5TZAEMMoRr7+v5U/p9PnLY+u3WoPvRB8rKJ83mwhS3VsW2eNgv0e32USwLMhZBHquJMPGoibZOGsfCKF6hoSlM+P2D+DY/jDS5jyNTdqDpoIpR4EMtilI2x6G7LsBJWXzriI3gErMKJVOIbD2UsXKMoh8BkCYwhqkE72kprxrrtBjbW8Y3TD+XG6/5Dv37VtHYu5epr/8D1N1xNJGpAdxIr62CHHSM0DuuPH3j4niJIFzGUdZhLTpfcvCQy+2yhGvsJL/itR3IppjBKZKuSvLZ++hhm+fopJ2oqFBJVlA2rYPzPjkMdP4mmmhJKvHIa3ofW215l6aUPwuMrYH4M3R7B8SMoE+m6GHP22W4HRiwIdI6pAYhBxEMrzbvvrAApRUwJBBWYbDUqWwsmSkdnJ0YDOoRYUo6FwASa13Qyc8Zb7L7neMrLIpSVVnHuGb+jo83HGJ+xE2v4w58u4/NHTwUE44MxGjGql+FV3ZiLKgQ09WXmS2EsttPGU0+xPNtpy9EWk2AsnIEhV/U7H0CkBWegz7CvjWPQQWOY9+J7LH12HvXLkkTnrGLp3EfIxhUVOw6ldteR6LEDYZAFChUHAsfHweLqShe0L0KcFkE5Mbv4tIuKKlKex1OPNwPNtKxpob2jg2R7J+3tWZYvaubJ/zzFwIE1uKbNRh4rQZTDqhWd3HXrDJRUcPpZRxEryfDlkw7l61/9KV8/6SOu//3/Y+jIwCLy+z4qiBHNgs6oMGvbGsZVN/0/B3JlqylAQQQXyIXcb6ctRj0GDNKVv+cR6Iq01+2ST99pizGY7lSMAG/cANwAZ6gwbtBYOGZnzJKA5ufnsfDZGcSas6hZy+l4axm+DuiIeCSjHh0JMKUubmkcXRIhWlNKZb9yEo39KasqJxqN4EQ0TszBdTQ4mtp0jJGJKuY++QqHTp5EQ21/htYOpsSNEHVdSmIu55x2NGLaiabLcfARBR0tGf51x2u899IcHvzrbymnBeV57D5+Ai8/8xAvvfEWUbeKIGMLb0V8l1K/nVKdZvXKhYgECBrHOPncHKNDxiKQA+YEQ6As6oY14RSX3KDo8/bZvSWpR8mmm2ms5yoXW7BT2wCpxsbGdYbNGIOIQUhTWxnw5hs3oVQbfdeoekjdLzIWSwhWJEpD4OJ4MehwMStStL+6hOXT30Mvb6OiM8AEQa4BvHCh5ioTGA0SsX0LdEAmkkEweKLxxUWkDCSOaCHQGURyIFQGpVMYTJib4YMOLCMwcYxfj5Y4kXgKiTaTdXzQLrFYPSZwCSSNT4pskCVwFY4uI5kSdAQadnBw+8UYNHQw5dWVROMxdNSBmIMujRKJWDAstEG09QSJzkk0Od1H5bNkleqqQhkEUSqsOVScZbIh2lwv0sbeZxuhHuzvW5qp5GGKt+xtPhH6xCSYHHUPsMuVuwicDIH2rARS5VI5fCSVXxwFbQEsTML7izHLVpNtS+MnU6xuWUO6PYsymlgAOrBMwzWC0Ta5LlAarQSl0/ieh2tiaMfDFIfzSAwxvq0coJywjpJBGQdMpzUIi4s49fhuCpwUTpDENVkyxkOFyXzZiEJrmykuQYD+UBAtpGkiqcFzDZ4O6IxmaU1kcEpcahr7UTu8AbdfOaXV5ZRUlRMpK0fHHFwXcJTtj8YmFapckROxHhEUBsdmweZgFkXyslG+ckJO1v8sMYYtSD2pV9sEN9gC9IlLML2TBaDKlVUAQDTa6EIhHNFWXAkcSGpo9e1fMTZZqL0T2lLQaSBjIFecTXTXvz1F2RoDgY94GQLfQ7wAfMh0GoyXxVEGMZKvjyRhtA7Ywmd+yqMzkyaTbMfPpHE6w0pAYq1ENnbE4v1GPIVWFoTZd8HXQjIidMQ8UvEUXkKTqYziVCeINFRSXVvDoOGDKa0uxy2NEI+5KBWGAUQMhRpIVrLJBSJ2rzxg1YDtEsynnbZLMFuEcmU0Cp9RhqBHnqYhoVG1tvhbroyHSAxrDdablkipFcoIjkhYvUMTMcUeLCs5rNt16wmqMFKoQiYa0gba0pANIONDMo00p1j74QrmzJxNaSpCmaeJelCdhZqOKKKiiLKg4qIyBGolRq+kxZ3NClfodBXGVejSKJm6GNkR1QzfcQeGjRlKpFxjtFW7VAgOZd3xts+5YLPtnpRPN21L7+ZTJMFsmPJA3et5AXb3XrcqwAbbzgfJ2ecP46zQBkTrjUjOLGCeWG+W/ayUlbpUHgpRoQKNymAlsYwGD+hM4y1YSuucxXSubCbd1EYsBZHODEHWutoRjQQRjLb2IqOFjGvLsWaiAa1lAamEA4OraZwykrodaqgeUIuOuxgVoFyDVmIrBobgUbK+KpldR4jtEsx26ittVQxmS1F3w3MxbWpSpgpVJyCEcejSanhfnUf3k5A5qTz+sSoYUQwYIzhGoTwwaY9sR5rkyjbWvruCzmXNZJe14qxNEfMg7ilc30X7jpXGEAIHTLlDdFglVWMGkRg/BEZXIpXW9W/VRgtNkZN4tCiU0Ritisq1GlCbXy9nO302aDuD6SOtj+FsjFq2TpVGI5YRqY24XigwrbB8hRMoCBTGM3iZAGn3aVmyhoVvvs/qdz6iqtWlLBMh7imivuBiKy6IBi8WENS4lE8eSsPUKTC4BFMaYFxwQlQ+0ZJPPhUFWiS0PW2XYgmgTeMAACAASURBVLbThukzxWA2FeCqYOPpfVH1VOL146N1DbNCoZS0QqGNQoV2o7BmKWIE3/Pw0hnWzF/Fh/+djTdnDRUpl6qUSyKtcURhlCET8UjFhbIdBzLsiH2QEZWYfh5EfVCqUKxdjGUy2zOqt9NG0HoZDJKmpmrrYjBKqdDlbP8v66gnfaeeSp5a24VCa50/90nCglr5QuEU1dDpfncLCBa6s0OnmuNrTEeWtXOXs2rGYjrfX4msSlKWUpR6GsfYJDIpiVC22wj6fXlPqC9FSn1MxMPoDEqCEE5HYcQynm3JMPl/SZ+WLPWPq9TMBhhMkpoq4c3pv0WxKQzm/4Y29JLWxwg21eZiuqk4fWlnU69bpx1yE0PlXdddQuAFW4hOQBtblI5sQHpVOytmLWTVzAVkPmiiql1TlrHSTbYsgh7dn7qDJ1C5SyNSlsFE0tZmoyJhVUd7496YjJLQ+P5ZYkRFprRthTaF6ayXwWhJUrUVMpjt1BP1Ev8Set6VAbI+QVuWtR+u5KPnZ2NmrKahNYFjNNmIIWgso/7giVQfMBJT64MToMKIY0FhJHSP98BEckymS74P2yjDyWmT0GcGszXGwKwvhWKbZTDbIQz6QsXMJ5d/AU5HDN736PjvO6x+dS466ZHRPmsqAhI7NzL6i7uhGktwYwqljHXPY3plHEpsnKTpJslsc4xmM6WXrZHJFFOXd7utMZhPiw67tZKE0gjY+jyOH4OOGCzOkHxuDqufn4XX2oFRhvYyA+PrGHzMHvQbPwBxMyGOT3HkcNf2c+8nJ83ka1n18NvPKm3tDKaYtjkGs536TsVMuYvNBmULexmNCjSkNawwtP/nQ1Y9/ApuoJGIobnCw9l5MCO/ugfxxrhNHtVYdYn1M5l1+tLD7z9rtC0xGKeysvLy7l+K5HwUHvE4nHHGkSgybC2PnPOoflIHqpAutVVSd7tI0QG2JjXaoCJAlUNsfAOJCY0kO9Okm9qp6BT0wjaaFqwkWxunrK4sDNhT+YZUt/vlvd6fBZtMX0l1+bNV0zYpwfRWdUCHhsaewv5z36+vYsGnjXKwpH2hzVEfbSyQRuGgAoXq1Jh322j55wzWvP0RgRKW1fioPfsx/pjdqOlfjXFVr5JMjkzRgtrOYLYtCWabYzAfl//+s0Ibs6B7GssCNrLCGCHo9Gl9eiFr/vwmifaAbNTg7D6AxpP2xB1ajokIouy8Wp/atJ22LQbzKcqm/ngo7x77BHfCnD1hS1Sr3NK0qYs6V9YGbJkWXR6l39TRlFRXsPLvM3DntmBeXclSXmfAqXvgDilHqxxQ1rpZ3VtfKZTttDH06RdJNpF6KuK9pQ7YOpnLplI+mI+uiMgmIZTuPYDh3zuQkqkj8JSQfW0pK/8xC5WMYESHAF22wN46wO2s+13xue209dFWz2B6qu3b2yTdUgdsXbabj4OUCBDmrBlBwqoOogxqaAl1X55I3cGjUShK30uiX2hCpyIITh7WArZLLNs6bTMqUg5nVylNMdLBJ0WfJQlGwIb/2iDeIneQ5L1qenCCys+PRjqStLy8GB6PU9uwHzIugu8KEQNQiJnZEH021KfcA247k2mrZzBKsLi5IZmwHAifYOLhZ44U+fFVxd9hcYFtSVtFZGgNpQePJru8jc5Z85F/xKmrOQA9wAJm5dzg2yIJG/dkWrqxlfyAbhvjskUZjEjwsbSjlNPDd2ExN2XAcQCx3i8FSqtP1sgLmI1Cvfv4b7w5yZGbRIrek0VD4HGFsgVxXUVi5+Fk22HN7S8hr84lq9M0nLwHzsA44hBWVPiU0mZ6cjZmj8up9BhBa2v5LsDEbv1Mps8MxqgCXi6ANsVN9FAmdXMgG5SFRMh7GorhEhDaWlqZ+dqbLJzxHsYYHIGocYioxCe62EUgCD7ZhWKFCPWJQ0QESgh6m/iiUKIxyiLgaaNxfU2swzDEODRk4yRfXMTLSxazerBHOkiG9phtj7ondq6PxBHEgSFDGxm/z05UDavbBqyjlty8WzecqMWLWOFg4RFDtQMDjmDR/RWCH2LP5svdFzVtQhD/4lHuy6jZqoig8zjbyuTcwQoVuLjZMqrnKkpmVlPZoXFNgDYuRvd+ny2jx/csEAu2v4HufS9SApFN8JTkft6dkRYicHvvWQ48q6/Sj2VoIJherlUo9LrnRKMDe8/KrEtigWLQIk2gXVCFGlX5WlA9kCiFv95B6v7k4Tem8G1u0Uvx+ZyxPn+fwntzDLimK7MozqHKRyOHjeWuM7nGeyEnV+IYu5xiKJQYIm0R4pNKEImhJLNNuM/6riKJCyrASBQj9nKtDCqc6RJ6F1DG1hnKIezbs324UUEzdZRtQ5RVuYwCR2mi4lDiuZR2lpEIDK5W+I6E+byfFIWLSkFvDFTM+hmbFuixWsH67qoU3SuQbGg+dg/Ll418HwUpKWRXgekRYCu30HrMpHYVSgvGN7gBFknPUZhcG8qxgXh5g3FxXwtqV88rtydxIYzRscpaz7K0FNhSjlEUH1qBE8Y45fBsJOzeOtd1Y15aejf8F3CX7VjpAMRoEtkoJVkHRDba+P1pp74zGBUQmBipZAQvWYNyAlR0rd2JFCGjEZQkbEkRY5nMRoPXr3M/gxvrJBbN5G0rJl/fyDIeFURxhldQf86XoCKUuj5J24TKAWH3NqM2cP0mMBhyeT6bQxu6Z6+2lt7aK2pznbY1pKHlhfdouf9FSrOQOHg85acdYFdZEEowvd5TWHcS9cRwir/rxdTaXcTriRQWScsU/b7733VEw41oF7qOjUDL/dNpeWQmJTnmLNuC9cVSHxmM2JrLQTl+cgCd7XGCoAzlDgTlUShoZiUYRyIUF1ErJrUeNQZAcp4h5ROJNeEnUpSWZhGdxBEfdM5T5CN6NSaeQAZk8MtT4GZAmR5zi3IBXh83SVhWpM/XQa+7/nop9OQ4m/As0otxWK3PgLuea4vrjvdOCiGGTtXB7Do6312GE+/Er27DaIiKWI24hyashGBgHadBb5JL79+tjyes0+NejLw5iaWn9nKkDT3W97Mni24cGDoqs7SUQCwiJBxwthH7C/SZwUSIZKOYIEHai5NWlUScCAHxHjcL30h+lNeZfBvpYFICTroMXTYH4yRRBrSyE0YIy3kQQyQLOg0qjYQF5k2oRoguihwNGc86zKB4Nogu/H+jmIaACuyx7hlsPcjeOZuh796g3HgGRQuseOJ3+S0SBsblvyAfsELX63u+F137XsRkRLquQqV0PoWgWOGwSkqG6PgofGUUq+9oJvPOMjr/O4v+U0fjuQpXQImxmDT5NlXYywBRQbfn682S2p3J9KZaka+PsM5IhM8lxeeLH1V1tc10Z0Y9FwwsFozsHXUAvs4QNx6lvsJVPqL8/D23duqzimSnSgoRQYvCoAm6LQ6lFBrfFixjXRdzX+8IOu+W3ijhUTQa07vdY2OYRp+kEQfEYMQUFmLR9Xl9WnL/FJ2DfG3pvpAtp9TdslBsFSjcoauU1H3hrdNy/ly+9Gw3xqh0wdigwlVoM5OKakHldvj8ze04OMrQMHYgar9JLHtwBrHZreidPYJ+EYwO62t3WV7Fy7/YWr4h9ahwdY7xaul90RYqNBR4b+519XaNCs+v8+qk0Mb6+6dCN7UU3VttM+oRbJKRVyOi0MpBKU0gAcqJ2NrORRSIg1Kyfid1rzJk4V4WNV/CrjqAH05lE8rr3R/BertMTg4NZ1d+yoZvzxSrNKE7PC+BKFPEIHRBoumF6WjEAl9TbGsKd3i03SVDk4mWwrkunzZFRcp/UIWFJCFjkMJziVLY4ZKQ0ah8hwr1q7u2B0Wmgi59U6CKx0EsQHwoLQbKbjoKwRGTlz8Qg+CjlIEyTccQl85SjT9nDU2zllJ/yBgUnpV+8gzNwkOIUmjlF0lhUnR0H5QNq0ddhSCFwUHQIZ5wWJYlZKz2UaWLeUjl+qYUIg4Yt4jLBAUGpXxyNaSEXACi5N9YYV8OWwxztbalkOU+a3u+ayezY0sgWzLG2kTCozA+G2he9PoPuu7POa+HXSg9qyQGBzE1qGAQ4jewZNFAfv+7F0mlBpFKJfCNIitCssPw8N8XcPbpfwwXpAKCrkxENIEXIZssw89Wkw0aSWVH0pYcwsq1FSxbWc2iRbWsWt6PrB+3C1kr0A5oB9EORjsYJwI6gagSAuUQKG0XYm6dh/EsfTkKC8eWDjEmhsn0R7wajInZya8c0BqFRohiKAEpAVWCIU4gLoFY70wQiu0GjWfiLFrsMuPNLD7VBLoMjzKypgzPr0Ky/TGZAXjJ/njJWoJsqVVJjaK9pZI//OoDzjr9NlrbfRsTY9kNmAhiNI6K0jixkXEHjSVY0UrbrFV4rYYARQAYE4GgjHfeXsG559zEVVc/QtbUhapm7+pO30hZ5q8cVq3OcOmP7ueYoy7kuWefs04J0YiVw/GxsT+B2CJ0uSMQIRDDSy++w3HHTOO4467jpVcX4emorSNlxK4NCUCMzdUKC9dpwEGhiw71sTzXp4s2wYsEaIV2tH3VBjrTnSxYuJChQxspL6+wDEDEFpPfDHkvm82yYtkydhzeANh3pDH4QDSvChSpYEoRBPDaqx9wycW38MBDN7NieRt33fUSU3Y+kIt+cCVPPnkdSrXx3rurOP/8azjymDEE+KBcIFLYptAk20t4+MGXufDcWyivibK6M4kIDBjgUNevgmikHIIYSz9azN77juD3t/4IrTtsX8WAxBC/mpUrPF5/dTaen2XEyBom7VyB1oCovHt/U0mAQOCxf73G6SfewpChjZz9/WP4+ulTgDQta7LMn+PR2uawam2K5jWreXvmy6TTizntW19g/wN2BhUgyhZYa12T4L57X+W6a29jr/3GcvV1Z7NqcQmvvPI6b7/1Nu+89S4rFjeRTgUoDQd/bjJXXnsSQ3eoIAhiPPHYDG644Sb23GcMyWSW8rIICo3x4zQtc2le7TBgcDkVVa2YygR+Ruh4eyULX5nDwP3GMe/9FryMYeddhrB4yTxeenkmolsYNXIYJ3x1PNaBEHSVfoW8alY0GSjIGuDml6/KS7RGK95/bwXXXfsw77zzAV8/cWeGDxmKE8bOGATlFEtKxcYmQSlBi2Zo42AO+dzO3H3X09x522vU1vVn2A5C1AlCdaknw1ixdaeoz0WJoNsCbXaqwOo1qzniyM/TkeqkoaGBhx56mKamJm65+fdcfe3PNmuoli9fzmmnnsYpxx/DxZcfjoMOxe+eVStBEFeorkmgTAs/v+YmvvzV04k4aVqbW/nGN47GpZ41qzt5+J+v0Ng4mp//8gbErEaMi5gohhbcaApRGUykE580DUMG8/NfXcLoCTtQWV2J72dJplrxPcWst+bx74eeZt7772GkBPRawEdMnJXLOrjp+if43U335qdSIq459is78evfno/SnXRBvt5EcrTLzrvuwB/+cgozp7fx1FMv8JWv70JHci1/ueMJfnnV0wQGKvtFGT+xP0OHDGDwkNF4XmD3TokgQSUvPj+XSy76KStXdXLiSZ/jO+d+gZJSzT9ff4bf3Hw7++wzgrPOP5whg8qJxTSu61BeUUG/+jIQwUtHWb1KE0to9j5wCP0aStEoAr+chx+YyY8uup5VTVn23mdnLrn0BEZXl+A1xIiuTuLOWs2i2Bpu+cszxEpg0pRTOWDqHpy8MMlVP32Qd2bNIvjqeFSRAFPsvbLBfzn7jw5TFnJIeipvIyIPBwuI4pknZ/DWG3M587yjOO20/XEDIafnKqQQy5K3xYT3FCsXorIMGVzGGWcdxdFf/BJ3/el5nn32bYaN2h1RHSEfCTu9sYthGzLCbBaD8TyPefPmsdOUnbjypz/le+edx623/pFdd92Nl199hX/+8yGOO+YL+aAsrXWIllcYwXWCtYoCuIwxBIHP2HFj8T2fSAy00hRKiq1L2WyKdCrFud+7gJdfmc73zr2Yt2Yv5mtfOw8E7r79Ia646kx+85uHCbwoA+o+l792hzF1/OznJ3LQ1EmI9onEYgwYOISO9k5mzJxN/8H9qaqpIRKNU+5C4Gtq66qZ/e50yuOJoh0yjkLx4YeLePjBJ/jZNWdyyhlHISrKay9+yA3X3sqcGVnGTakCt3nTX4CIDazGMLihmoHH7MfRx1gTiagM8Xgd559/IuefdxLg2KAuBZiYjRbVWbRkEBEefegFpl32d775rS9z6ncOQ0VbEdKIeJz13T056+zdUWi7qMQPwwgUSrmI1qA8PvhgES+9+AYHHrgbp57+NVAtiDg8/tgzXPGTO5k69Qi+9o0v8ac/3cPLr01n19OPInGUsObu52h5ayErHZfSkjKMbicSEVwV5ctf2Z+mVT7J9rZ15knu77pu88D2rWhFW7tTkSEF8NJZku1ZEiXl1FQkwKRQuKjQXy4UGX9VTzNOQBnE8VA6Qm19Fdkgy8qVWaASQ8qOF9uWVNIX2iwGk0yl+Pejj3LwIQfTr76ee+65B7AIZ88+8wwGm8BVzFQcxyEIgl7dsq7rIiIEgbWvlJTG2XmfMUhkFVopHBMF5SEqTU82nrVr27n1Dw+Rai2hYdAApkyZTHtnG7+84UfU969jydJ5vPr6e/QfWM+V086lcfBk7vrLnXz4wXTue/A6ShKdiErbyeS6RMvitGQ7ePjRh7j1z7eRyuQmuiIej1ISj+Mqh12nDMOoFotVi4sigpIEw0Y0cOoZB+NElyM41PfX7LjjKObMnc7EKbuhTLHNqifDZW+U28pzaRyAsoXQRLkoiYNKht5WXWQXdUIMlzQYF6NdUFmOOnpnjjx6F2u3oZXWlmYe/89LLF++ku+e+zW7WHUajEaJE4YhBaCzGOMSiGH+grm8Pet1jvvqHqAyCNZlnUwH6NIoQ0Yl2G1fh932/TpKHFTGI9IQo2RQHS2LV5Ge00r72jbiDR6oJA4OtZUl1Ncn+Ki1Le8FElEocUN7RleyAoOE9q1QygjdzhJaXxW28qUvhpT4ZImAioY5s4Lgk/ullgKjgYKnyW4kEURs3W4hY43UBnzPEJhgm4pn2VTaZAZjAkPgG1atXs33PndoyBgMWjsEgY8xBhWOcEdHB/fffz9Dhw5lypQp/PnPf2bs2LFMnToVxynYUDo7O3niiSeYPn06jY2N7LbbblaacVx80XgqQKMgcEFi9JRIOXBQP2685Szamkq4687n+ckVNxIIXHjh1dx442UMHDCEyy+7ln0P2J/Pf/FgZs58gyeefpzvnfcVYnEhMH5YbzqOmFIahyW46mdnMWjgKMaNnUxtbSVGDJl0muXLl9PUtIoVSxexavlcfnXNvRx6xC5M2WUkYoTJU4bzqxvOIxJtD1WkGOmODGvbmmkcPoXcqrcQB319AwUvFYDRglE+RqxXp7Wlnddfm8lrL89j+aIUnZ0pOtJrWLm0lZbVKVrbwQSw086DuOSK49h7n10Q8UH5fDh/Gdf/6iHmv5/myqu/gSgXowKMiaINuCbAUTHElJBJB2SCNCVlVsWsrKxg0OBaHCd8V2g6Mw6JsgHsOG4UYtJoFaBVFB1ROGMHEd09Q2RJM2pFKx3LlxFvqLfjguBoTTymiEYUYpQ1WisrtRF6Ygru9Jy2KdaoLG4oetjYkpybQMKQB9+UEPgl+GEtc2vst8wJ6c3kmtPPyFsBQdlMaB1g8Em2Z+hoNVRXRxE8Co5nJ7zi40EZ2BpokxiMiJBKpViypImmVat4+6236T9wAGPH7ojnebz++mtcdsllPP7k44BlMNdffz2DBg0iFovR2trKnXfeyZ///GfuuecelFK0tLRw1VVX8e9//xvHcdDaJs0NHNAfR0Xx/ASz31nIzb/8HV/+4tEcdsQ+IB10fVkK40dYsbST66+9leeemc/VP7uUW2+7nbO++3WOP/57TJo0CM+LsdOUcWS81XiyhmisjD32Hkcga9A4ZDPCK6+9wznfu5729tAD74OXhUgEXFcTjUWIRWNEozFijkvCTeBolzUrfSZPngQ6RWkFDCsXO8mUQyZlWDC/iUULVzBixAigI28LKCA950K/1k92Ddhd1JhS1qxN8uJL03n/gw+YvNMEBjUO5IEHXuep/7xPfU0tmaSitKyC7517NjuOGUZtXSXJZAep7GIGD4uHOLkBc95dzi+vfYQP3kvx40tPp7omyvW/+Aevv/428z9cRrLT0NEO2bR1jrgCY8YO4JzzPw9OhGhUU1oWtTYRP4GXKifVFieTDliyqJ0P388wYmQZTiSDOBpTFsOtiZGIRSjPCrVuhFIXtNjUE63BDRmIb4SIBnBCCI9cHJC1v+RYghGf+//+FPPmrOGbpx/PgIYKUJ1IUbR5EET575OzePThlxkxfBRjRo/CUVFE+wXpujieRQqvqTjkwdppDH4gKFJEXY9XZ8zhzdfnc/Ahg8Dxi97p5saEbX3kFlfWA0Ag2IDdsbm5hS9/5Wxmz2khC3z37O9S26+O8847j6OPPoYgsHGKvh/YMBIRIpEICxcuZOjQoTz66KM8+eSTTJs2jbvuuouTTjqJtrY2Hn30UcaNG8ff//53li1bxtlnn002mwal6GjO8pdbXuPB+5exavnDHHbYfqxrhYcli1bwve/cyMrlwq9/exmlFQ385Z67OPSwvTjogL0Z0H8oTauX8Zc77+Hv9/6DCeP3pqq8hJFj+qGcVjCaiJNgx+HjufxHP2TyzvsTjVUAgp8RMpkUyWSS1atXsmDBAjo70wwdPIhddxrBoMFxcDow0oEKDYVWMnExXgkvPbeEs797OQccsDPV1aVAT/aX3PNsjKqkMER4c8b7XPyDXzNvjkdNXQXvvt3Ob/54Mb+7+Sf42TgP//N1zj7zpxy1624c9/WBKOWj6ECTQOn+oDsxxmPmm0u5+op7mTunnW+feQIHHjaRp598lvvufB1fUoweM45Jk/dg6eIW+tfX8P0Lvm2zpAPQsWU89vijRKMRysoTmCBgxvRZXDftIZ586l2yPvxw1i8ZNayG7553BKd+8xBsdr5HYmQ1NZNG0PrKAupVBIm4dkHnAhM0ZIMMHekkyhjWrE6RzUZt2ooYtNY0NzdjjDB27I4kSktoWuZyw7XPcfNvnuKkbxzIhT84npp+UbQKUER5+ol3uPFX99PW4nPIQXsybtwIgmBxqHh2nVMqFzNU/ErymaahfVEEV2WoqoI5783ljzf/nYqKz7PrroOJuH7YZrCR73XboR4lGC100TuLKRJAdUUF1/3qlzz59Lvce+99XPCDHzJ4aCNjRo/G8zyy2SyQi+8gVDmgtraWq6++mmg0yoQJE0gmkzz77LOccMIJrFy5kgEDBvCb3/wGx3FoaGjgggsuYNpPryQqMarqyvjpNUfzzVPHM2LkCHBSPdrN6uqruOCiU/Ayit33GsH0N5cwdESM2npwI61g3kLpZhZ+8BGP/6uVW249nP0PaCAWSaHFAe2BaqdfQ4T99x3LbXfcw1VX343rQF1dlIqKKlrWBnz1+IOorosTcRI89dRL3PrHO3n0X9NwIm1WLwdALMyAF+X5p+byP1/7KaPHDuOHlx6PirQQaDC5CLw8SR+8ShqtNbvsNoJ/PvI7Up3lzP9wOc8/O52gU6GjWaa/NZ2bbrmdvfedzOVXno5GePifr/Cn25/k2l8cz5gd+4OJ8PaMZUy74j5efmEVpaVlvPnWDLS7H4cdNobDDrkNUQqjHDpTLv9++HXmfvAukYrFaNWCI55VEUL1NeZEiWqHKVPGcvm0gdT0e4hZs1fz7W9+gYP3b2TI8FJsGRyFuCB1cWioJB74jHRdKCtFG4PR1nWutUHjYII4T/3nNS778Z9ZvtLLh/lr4+AYjcLjf049nCt/9j+cceaJ7LrTwfzq17fzh1ue4X//9zVOPnU/Tv/2ESxeOJebf3s/s2Yu5pRvfZkvn7A/qDZr3DVRyKV24IexVqoHNbboP2IrYKJTnHzqoSxfluamG/9Gqn0tP7z4WA44eBQoP288Lr42t84MRakH25A9eJNUJMdx2GFkI4mK0Tz0r38zedJk+jXU50GXAt/DD7I4joZwhykpKWHEiBFMnjwZgEgkQmlpKYsWLSKVSvHee+/R2NhIQ0ND6HFyqKmpRaOtwVR5xBMuYyeMwu4EnpXRuxh6hdJylwMOnkQmWcl776zk26ddzKRddmDBvE6GD68l6hgGDoQzz5nKkVOv5KwzLuKeB88J0/p9q+cToLShtBwGDCiltLyE8WOHkE610NGaoqMtxaP/eoJILEvgaTpbYowY3UCgA3QoXmvRGBLMfwcuv+w2Xnn9Jb517gFcevnJODig03ZXC4P8Ng2ZLsCQRBRESxXRuCY5q5UVy5soKYkw/8P53HX7IzTUjefW266kJLEUZTTliUE0rUryt3te5JKfnIKjHVY3rWXo0CrOO/94/vq3h6jvX4fCR+sUEsmgtUYpTVwlKEkIGA9X20hXHeLrBsZndfMalq9YDkxAuxlGja9it33GsHDpWsZNrGHICBelO0CF6RWOQao1emwJ5Y2lTFlscGsGQhBF6SyCIesJfuDiRlwOP+pz7LvPVwjEqjOel8TLZggCIRaJU1PrEq9oIeI0sfv+ce7Y48csWQK/veFurr32Hl54+SMu+fFx3H3/pdzx50e49ur7WLx4CT++5FgmTioHNwCjEZObV7m429zqD2eaKpjXVS7Wxavlt794mH/89d9c+4uzOfW0z+FGWxCVQuEU2Ww+O9RHBhOQ0yOVVgRiCIIAx7XfaW0D3bpTLvo0Z1fJ/T8Wi3VxU+dsL8YY2tpaefSRf5NzF+bzBZXOqx89UWd7msceeoNf/fweFn6UJOM5pNLv8MVjTmPggME8+MAvqahyqKsr54CDR9C0wlDbrw5R6S6Cg5EAYyARiTOwbgCXX34ZI4YPZu6chVx2yXXc+7frEd1O85p27rv7CV57Y0bonQjtAChmTl/AnhNR5gAAIABJREFUGSffQWtyLad+61i+f9HxBEZQKos2GtGZ3EOFjMb0fQYqm/+kiGBMjOa1HkuWLMOJpmlanWLenGZGjRqOdgwQob05wppVCXy/mrnzMgReAu2mmTp1Z6Z+biLvvjMfR4QgyNrYkeLAEzRKRcl6Wda2tBAYLFZPuAjdSARRira2DhAb3CaAFkH8AN+kUTqD0mIjZcVWfcQxJPpXoobV4y1sJ5p1IXCQiBAYQyYboJQmUeLywH1PcPFFd7KsKWMzODS4ytqCxMCJ/zOVaT87gdJoObPeaOb3v7+DR/7zLL5kOfiw4Zz//45hr30mg3h86asHsXhJJ08+Nod5cxcyYdKEvIdIcBAlPfgpwUqm1gxtBLQSm4CrrPv/88d8nuO+fDBurA2l0mwWquNWTn2Ga0B5KCpQyk5AL+sT+HYCBIF173WPc8khqOUZTXjO7oqW0YwcOZJ7772XplVN9OvXn/aWNh584H7Ky8vJYvBdTVObYtZLM5kyeRT96h1QKVDpwr1QuCpKQ/8KJkyayJrVs7nggsP4zlnfZubrK7nowkvxMi7GaDKZgM4OwZcKvCBCiRNgJBsa72wQdyzmMmhQf9auXMqPz/8BH61YTluLEHU1hx/2BRKlcSorK4lGYNSOcXDa8B2DEkVbS5JXX5nNgsUfMWbsGFTQn2t+8hitLWv56MMPaGtr46przmX3fQewZOlSHntoNjuM2IGpR1T34X3kJq4mMIpFS5p58aU5GMfBC+JEYiXESmLMmPE2v7z2b7w3axGPPPIw0YRLosJh7cs+P5t2Iz+54nRc5YOAE/p+AuMDHugs2sStNUQCkLSNNUpaxEGlA2u0A5yITTlY25wOHWQ2H8lFofwEKlsZxqFYT8pHC9tYtjzFxHH11NRECAaWYSLgeAqyGhV3EN/Bz8YAD0c6Ofa4ndlzz0a8wDCkcSiOEwEcRDStrS2kUp3EXMWtv3+QK358DxVVmsMOG83Jp3+RvfabgONmUKoDEYi4QszVqEBjRGMkgfLLWL64lbnvL6SmQTNqXB2OquHd2cvJZgzjJw0hWtLGnNlraF7tM3FiDdXVdoM1xiAE1NTFqK7VoMIN5DNMmx3JG41FSKaSoYSiMEYRi8cRFF7WI+JqfN8nm81SU1MDYPM4PPtdWVkZiUSCAQMG0LSqiW+c8HVq+vVj4cIF+L4PKET5rFzRymU/uImn/vUK+x0wgAcfvKJL0FSOSkocDjhoMpU1o5j+xkU0NAyhaXk79//tUWprY9Q0tGOCFGuahHfeXsGue1Xx82vv5ocXf5GICmFBw8RGBQweVM9PLjuLAw44gtLqcma/M49pP/0Vj/z7L4gEZLMZUp1tBMEKm/RGBpRi8eLF3HffvQQ+zJ79DnMXvkNtrUNFZRQVGFwnzqw5LzBut8N57vm5XHTRbRx44DgOOfKcdQ2KGyLRYGLMmT2fu+/9K2XlNdz6h8f55pnHcuPvhvGP/32QOXOeZ9Jeg/n+pdMYMnQQWpfxwL3PM/3VFzBeFhXT1sWNBfTyPVDKzUfEFhIcDYJN7sxtFbkNpLaunJr6KppWZW3iHgalArTO0NK6nMVL3mcvGWeNt2J49umZfP+8v3LSKQfy62mnENTGMSUKZ2UbsnANTIzRmUzT0tZp43AVRCIOQ4YMChH9DKIy+Q2huipOdXUM0Oy+1whuvv277LX3rtT1j6KjaZTqDKeMdW+7UYdoLEok6uBGHOv6Fpd/3P8iP738Nk44eV8uuuKr/POBB5l2+d9oHDKECy8+niOO2otH//kUv7j2b1zww2O58OKjMeJhUChH47gOjpOLUSp6Td3+fhZosxhMabyEww8/jGg0auEbUETdCHvvuTe333obMcfFYIjH45x88skccsgheekmFo9zxBFHsMsuu+B5HkOHDuWx/zzG9Nde58P5H3Luud+hf//BXH3NNBDNoIZSbvjtafx7agO77TredmAd7FdBhXW1Bw8ewne+833O/dZ1VNXczOAhA3nsiZswZiVLFnZy8/UPMmJ4I9+/8AzOOftKjjr8QKbsVA+6EEg374MFXHjez0m2VXD7bXdjXCGVFj6av5qRoyZSVqaIuA6uctlp0liu+eXZ1PWLgvYZP340jz5+C17GoSQRRUdCxDuR0CBpmZmvsuy+xwC+duKeNK1s7eMbCNUT0bS1CPM/aGWnKRM49PD9uOaa3/Hcs9P58aVnc87ZZ+JGfER1WnuAUoh4nPLNXfnm6RNxtFVFjACOzf720wptSkBHQYXBgLnsaKMRE/IccciFCoyfsCOHHTaVt994k7VNPv36u2jl03+Qx5TdXQYMjlLw/GlKE6VUV1Xg45F108TqS0jUV+KtaiO7cC3R8Y2sWrmSBR8to6YygdauDRlQgTXG59XLXAZyQZ3bZY9GdtljCJAFMiHzUPm4IaUgGolSWhohHgetBaVTiLOKL504haEjzqWqJkF1VYKTT9uf4TuU4mU0Bx8yEe228LmjJjBoaCmTdqoB3QFBDDEO8bgLEcE3Aa4TmqHz09RG9ObwAT4LtAlVBcL0eYHy0jLOPPNMjAljEcKdNxJxGTZ8OAaDUoqKigrOOuNMIIzdAOr61fGjH/0o367jONTX13PoEYfnd0TQ/OH3vyem2jBBB9U1ipNPORb7xjyMNmHQVC4c26oKrc3C008+z513/IOs18baNVBZnuaFZ96hX22Ct15r4dWXPuS0bx9H46AK9t9vPN8/97c8+NCPqa6JIljj8ZDBI7jxhpuprRpFLF6GcoTXps/iyst/yT8e/CMiBs/LkE6laW9upXl1E9VVtURiaVAB0ZgQjXmAFy4pG1ihlYMSB5QQ0cLA+mp223UC/3n0xY18C4XkO1EgQZSXnvuAX//q15xwyq6cduZkdtnzAq664q8ctP8J1NfVc+jh+7LX3jtTV1dBJBJh9aoWZr/9CjtOiPK1Ew+2LYZSqJfxSKdtFLBBocMo+86ONJ0dfoimJGhl0CpnNxJiMZeKsgQLPljKyy/O4pgv7YxSmkMP3YsDD9kb7Tggnu25UkyYMJaph+5HSWkHOu7iNJRROrSWlpcWkl7dSUzizJrxAdNfms0JJx4KYpNdhSDEw8mNhSGfpCSQBw/vAagl798LeZNWho72dlpbkmASIEL//oqjjhsPOiCQDEpFOOiQvYEApVKAYdykGsZNrCaiAzAlqKCKdNJ6vBJlkdAdnsN5yXmlur69zwL1kcG4YaK5NfICoaEuDD8XQUK/j1K5wCJDHqC6mFSIIRJKISZnuM1fh71WS8j4PZQ2uDqwrt3A+lDyYqe2O1kQuMx9r4VHHn6Mq6/7H/bYayKuo2luaeLZ/77K+zOi3HDjbZx22hFc8MNj0NEWrv3ZqTz5+Kvss8dZnPbNnTj/++daF+ZJP6a+Xy177PY5xowZTbxUcKMu3zvnRF545r84jiLiukSjmmjcJRIL+GjBKkaPGYCoVkBs/3OcN+ys0QGETEzEoaMtyQ471HH3X6ehVNNG7G/d4jQUTJg4mN/f8kMOOGQXlNvCbruP4IGHrwFTQrLDSl3z3l/Jk48/y4fzPqB/XT+mHroHu+7Z3+bbhJFktfVljB7bwJy3vTxsqaDJph3+9cDrXDXtDvrX9eMLx+6FeClMGOOhUMRcj313H8wbz4/kP09M54ijJ+K4trtRB8u4w2hZgBVNHzBxp1K+ccqJuCqLqi6HATUE2bn4y9ZiViXpWKM4YJ99OPvsL4FKhuBduYRXyQfAhbOga0BXkZ5pwbCK85asX+fEEw+hdU2GC8/9I7f87h7+38VH8vkvfM7OX9F2gUjOIZ4L7BMcIuE7jfKPe1/muqv/lwUfNXP2uSfx7W+fgGPWWuZLccRvUV+2JV/0ekg1NjaGm1eOYYQFzMSgyFBd5fPmGzeiSAIWxyTwEjSvHEg6U0dGRfONdUWt90E5vdoSNuSWzfVHIcQibVT0e5d4zCeuHIwImIDk2rUs+tNblP53BdExDQy84miC8nYCVQnGwTgtaBUBrAHOUQrllyBeFO16KKcTxEG0YIzGyyqiURB8xMTQUl5IqsMD3W5D1bWEDFRABYjxgBhK2xIcEoIr5Z8jZDDrIjNYkV1wQ1VDrNF6Iw0wtlllYzckEUItJsOYC+txswBhglJuHo9FJIJSJaA7UU57uJgUxuQC30vAlIJOgkqjlQaJEfilpJNR/EyMREUKFV2BLTsSXqc0Ipp0Z4LAj1FasSYPAt/TMxlxMcoF7aMFnJSL/5/FNN/xCtHRDdR+Y3eS/etJE6G8uhmtU0VzI7fgN44kLHUrRZ4+SxZKYsUyzapVK+k3MEv/hioLp9Hje8gh0FnOKShWrxKWLPQpLatk4OAK4qWdaN2KVrmcpu49DUHARCMZxbK/vkn6vjkMHDOSsq9PwuxUahMotwFZZxNsMNqCFOVD231yqHJd34drk+F6ZdQbGDxlYx+dXIkHZaUmkwft6Y0MotvQaBxlk8/CMCgUHtpJgSoD4yIS2L3XgEOAigeIBBgToJ0MolqKvGAKRQQwISZwQeIS5WDCyZTrQ+EpQ5gATFhDqvswWHUP5a1/PHoaonDDVsoH2shhlEio5duFH4aqK8/aLbStMyW6xf5WgjAh0sm7pJXyQLWFqmIYT6vSKDdLolxQFX63jhRFH6uA0rJ2oL3wXRc7RNFlGBRZbCKiA67CxCBwBTIBJH3ipUnciM2RsrdS+asLS3cjF2JOUuvye4N2OxjYqBkwuAKjAlBZwGK9rJsJHd5XFTx4tfURautjdhNSTSh8VA7Z7jNOm8BgrNqilaCdEKQYQpG1q9XcWc8IS6+xLArEsfVyxAUtOEZwAlB+gCgnH2nc89UaB21xCRQoxw+lg3C/UQZUGnF8q08HVfacwrpcxVhIA0KIzDzXzDFTRdAFcsLCLBrtFIFH5RhQV4bSM7ZUDwtkA+tFoFCbR6zL15ojQkkitEOoPHMglGRAjPXM2d+EDFblEgjDG4s1oOo8Yw0HXPmWcam+F23riRS2PhJKLLiTElRco2Iukg6QdGBzeZwMuUW+7n37Jsn0TgalwRET1jfPbQ69keSvQ6ch99sN1AD7rAXbbQKDEZxIJzVDPgSzBMkO7PWXGr/HdAMAMesZZiVo1xpKQUOQwFHlQAdWQpEeY5cUoI0gTugxKHY7h32327UfxmUn7M4uhRDuruJzLsoWUCbEGbFuWl2Ui5/3CxQlLOYAyteva388U62r5CjhTr1u60oRZrhbO0Ih58aOVwFwu7gpQUkQqj/WBqGKK4xtFoWYwUbhhGpnSWmcysoykm2dZFpaiUoFyjG2WFkXTOQtIR+YcOyiG3GHns9+dqwrG0d9ZjBKqdAEKxgnjSqZv9460L1BYqx3B1TG2gVyYNxOhFxsimOsH6E3wHBlQAd25xabgx8aBlVozS9aVLn/K2ssFkNouCtiHrowXURCo3NoLLSfc65Hh3xt2/yK1xQ8HR8POEhOein+bMGqi6WnUHZRFO6b74ftrZIeNPweV0bOqVoI0c5LRR8LhTYucewo1SZgQDX+6kUEnSkIEffJe6sKruiu0kvx993P9Y368mhWiuytT+tSz1Yd+Nh49qeMNshgiuv5dmckGp/8IsohoheRbKhqQI+Us9RDngnoDMrEKNQr0iijC6Dj3XqlRUDbyGFDLN9WoeUglG4oeqtFwE9FM0zyC8uG5Bsj1niqsAzMhABT4eDookVtp5qFc9ySlEOsLyYLltT9l6GagXSRLLumA/SkguS1ry1GSqy5m6hGShwLVuMZVCAWPLuHoMp1+9m74tw72+jpumKmtbHUndHlc8GLRjb3niQvYZo8Y5Fux7ZB1gsXhvF3CfG3m36+YFlu8TlSlGUtOXGbvH6+sbT++SLYsHRs+xLL2xokxKhHB6BddGAR8xVRUBmLsKYcdJGbvLhdUTnJxoSJjcYyDABTYtUnlQviyn0OrzbauuSNE15jXe0Kx/Y39/xFUpCYj3O370qK7urRhqgw4btCD+TeR8+NdTWqr2+xdr/XxnROYTE9wgInjoNE4gS4iITY+yZcmOsYyTfG0Luh/nZvo3tbG/us3X/bvd0Qr0ZUyGjsmOpQ7TS58ReD7xhEGyK92Re2ItpoCaaYindG6xnRqCDIF7cqnLPBd84mbeDF4Dw5A7JiXabRlSxMYsRuepJP9c2d7frjfD0kuun3IXNBbPAV4fkwzsdSYN2rSgAPHURAEiipJQg8dLQpXDqbkMC4HurOHD6eMriyXhGl6+v/uAuzh3Kl0rb6Dba6g/gKm9pmaw4pta4TYePb70t/N5aBdr+m+G+xHSu0yuSbXHfDsYKwWOjNLVXb+P+INjsXKVf/WSknD1VQfO7jl/Y2NMkUiAumLLy5h2AIAkFMzCKhhR4VExg83yeZ7KC1tR0/m6ayJmDAoCoEaG/z+Ghumvra4axcsZoFH6zlvffeo6QUjvnqOEaMLgfJArbG0esvz+ZbJ93EkUceyDW/OaYgBsKWGAgL4v1/MBdF1t10Nqu9nG1cCmaWfFCcsirc1rzkFBRFHn+2aLMZzKePBN9XfPThUh5/fDrNzdC0tpl58+Yzc8Z7dHZaiUIXeYzEGBxXUVqumbzrcO77xzSU6zN/3kq+eOSVJNvBjSmG7VDLnrvtwYI3FvG/D/yLX/zmZPbYe1RenTNKgQslFZ/Qk6r/WyCAj5PJbKipba2k6meFtkEGo8AV+g0awBGfPwJjyklU+qSSAX+46Z/84ZY7aRjUn8uuPJvDj5yMIymisTa0jqC0tbeItGGMIpP2GNq4A7//45XssGMCERetorw1cybf/uaNzH2/jbKSVq64/Cq+cPQBjJkwCkk4mEjiE3lSga6hOlsxdZH1elDLt9PWSdtgYQUbTJdIwIDBcRqGZSmpgEVL1/DE08/z699ei+8HvPXmB5x+8o84+sgfIDpAHA+jDCZ0kZvAkExmcaMu1f3KeH/u+3zp2G/wmxtvI6tidERTZBwhlXRYszxDutMDXIxAYAICcsFoW84rkLcLfoKLMef5+DiOLv0OP+uwJHF3pvnZyT/etmgbYzAq78oWtxXcNWS9JE89Pp0fXHAVt//5akbuWIpyNEOG7sAll1xISUmGaZfeDiYahoYDaIxRpFMarR2qa0vJ+BlaW10S6QraX5jHEAVlxrq7fXEwTvGCCT0jn8wTf6ISzMd5Pxv/ERpVc7bNjIfuSJNwIsRjMXIxR9tp66SNWAWFF7ze6NtPCdlENJs853nw3NMLOe/cn7Pv/mMYOS6Gjq4FoLQsw6jxMX5y9dnccfsbnHn6NaRTkMurEgN+VofuW5+Mn6FpWZq1r8+h4dWPuHjSntQuzbJk3lICYw2RWrlYj4hVtbraR7Z+mV+URWowuqDG9EV60krhaAtUrpUKsfPCc6JQgaZ1xWrWfrSQeFQTTbioXLTvdglmq6T1MhiBXJnedUp19lSy85Og9d9TQNt6Otm0y7PPfMh3z5jGsccdxLTrzkRHl6NVFvDxM804yrDTTgN54H/v5pXnVrPHLufw2xvvwEgaQwee30kkJgRGYVLl1Dul7DNsOEM6kkxY+P/bO9MYy46rjv9O1b3vvd5nunt6xrOP97FjJ3HiQGwFLKJIJAiCxCJFYkmkIAGSvyCEZBQEkZNIseIPWMQxkViCHWGwE0wcbCeyZEBxQiBeADsmxjb2eGY8Hs/W+1vurcOHqnvffUv39Otl0tN+/1HrzbtLVd16Vf976tRZlMueOMbeB5/k9w9fzb50ksbJMrZqGLLe1NwoiLM0XRGKlsQXF+Hk1hztO/0rHAImZJhAHEYd1hVsrAhmkKnizlapn50l3TmKObgTohijZURL56uij02ILbZEAtThkiGefbrOJ3/j87zrhkv5zOc/gYmOez8RaWCDw6OQgqlx/fvKfP2R2zm0bw//+vjrzE+PQDLpKcFAkiScmZmmvG8HH/yDj2M/+jM8n8xRLpXZs1jmvSdGOPjYUWp/8S/8zvU3sr9u0dOKrYGoD+HQkgQ9J5rsczW2FxuLDiLBE4J1PvC+dWCdYNR0/ZPCHyo4VZxLkUYDSZy31E29pa6kilSV+R+dYubfXqdRS1nYq7DPQFQFmwQ7mD4uNmzBXSSL2CpXXFPmwYc/zdSu7dx1533cdNMHePzxx/jPZ09w8miNu+/8Dl+7//vUawn79hzk9277KP/wyGeReBFhgVpNKZWHqNWgurjI6ZNvsu/AOGcn53h8l/DF0kke/MtbOfK/R7n7U1/mA5UdXFYf4kP1EQaerHL0Ow+g2wV72RCjNxxg/F2Xw0QFRmKwDdRqsO1r7p9IiL+gEGLKKNLV5LmpOO7F2DPXn/gKWs8V6nGZKqvgYyPBQCW36e2QXPy1zTg+4TLVkFNakUYKsxGcURqvnWHhqdepPneK6rnTuKSBTSskkTJ0yz52f+z9MC5gmnFR3haLpKbh75bAFiOYbAIkTGxLef9P7OfZpxvc+blv8gXzDXbtgd17Y37hV3YzOTnE+I5J0iTmWw+9wK2//QW++e3bKUcOMQ4jyuBwg6SR8oMnj/DVv36CWz7406SkVBcsg6KMbnO4eIGXFt/inR8+zPB73sndd9zPzfuuYN8CbFuoM/hUjYXnZpm5/4cklZjGaImhq/ey/8bDyFQZRktQiaDUQMsJEqlXUgdLZBPCTmThLTS4Jki2sFC3Yj1IZsSWU0BOMibongokE7SuohAn2fXiDZpNFnQJSAwkkf/TCBKBqoO5BObrMFdj/tgJjv7XCyy8eoqRWYgSwSrBcdVQqxhmRgzTw3XKV+zgqluuhrEKStU/d+arskUm3dsJW4xgPETBGQXncJpw1eED/P3X/5TtUykmqmFsnSzswvRpsOlTPPTQw8zOzBAPRKAOYw2TUxV27anzf68dI3WGj/ziT3H8jdd47NGvMLk7BbOIMTGJRszaeeZH4HtHj3HJDdfwc7/+S7z5H89w5J//m/hcg9HFiIEFx/CpKvblFzj+6IvUrVKPFRm2DB+cYPL6g8SHdyKDFjtagXIJGASrSCn4RZlgWk+KGouxvSVSb5ViwhG1kNr8ApMF0XYatLoWGkAiyEKCTM/D3ALMLVJ74zQnXz7OuVePQ92HfYjqDpM6bGqIkxgRwwD4aISiNKxjJlbmRpTZKUPlwDgH330l1166i2g0xg4YNKp7nzFCtP+tYOzzNsSWJBj/svO+HdDApXXq7ghRpYIx3hvbBQc+R51GrU4UCzaOIRfHlWuuO8Sffel2HvjbZxifKDE62uCRb32XL/35Z6iUZ7AmxURVRsfrDG8HjessVgzV0QhzleXA5Tdw4OffQfXNaWZePMVbr7zB9EvHscfnGXQlymmZOBHKZxLc2ZOcePoEzhrqBqomIRoZYHRijIGRYQZGhogig7rU+3hFFld2NCrNfFMigpj2mDatEAVSh6YOCZk4XUNJF5VGktBIE2xDGao66tUGC3NzLDQS0jpQS7GNlMgJcepDPhhVIpcyGhlS410mEmOoilIrC4ujQmIFSkppapDhS8cZ3TvJJfunGNg1RmVbGRs5H0UPgvd5JkFBToAtcX0uLngeL9pDbT6d20Yhgub6u92j+mJE5rfin8IgDJGkdd44dox9lx7KQ0pkPjyaOOanFyiLZWRoCNxMcOAUDIajR1/n3nu/wvt+8nrmZs/y7X/8LjPHZ/nDP/o4YhzXXnOAv/van1CqlHj26Vdo1IXFqqER1bBWibZBeWw7U1dOsUOvQxNHY67GzNl5zhx/iyPPvEz11Rmi01VG5pVtVSFyhqEkgtM16mffoCrKmUzBmgfiBmcsKqYQDIplySW7UbJ4NuqvFxWs+sj3TpSGUaoiJEZ9dDcRIkzwAHYojoXIO+gtxg3ODDaYHY4YmtjG5MQE8fgoE7unGNg1TGPYURkaYHB4wIf1MYpGEiacAzMffJGELH5wcx2X7YNfTBMya2sYhdJ5tsXp/oK27cIjag/VUMzA6KDTQ/4C4bwTBYITcGh/FnPAaR6rUyUhLp9GU8e/P3mM/fsOM3tOSV0VayPSJOb1V+f54Y+eQyKfG8can+dHgZmzNb73xGlGK3u47bbfZWLXIn/86d/i1375DqZPWz57xycpjywwMjAAWkLcCMZBlBpKTsA4nHGgCU5rPqxmZIjLMDE5xI7Lh7nq5gOYRFEHbiFl8c15zrx8kiPPv4ScqVFKDTQcyWIVqTqkpkSpIXIW4wzFaPluBS+HbC47G8IHABhwVtFSBGWLiw0uciSxUjeKs1AaGaS8bYjh8TGmDl7CwN5xtJRgYkdUinz64EhRcRgTPK7F/yReR1TP/Kb98cIky4ON5yEvOuPCrWg8/NixEg1tod/fBoiWFacvih+1CEFNM0WKiKUcb2OwNMQ9d32DV16cZ3JyO8aKV+QaQ7kUc/NN72XP/hFMVMeH6bRMnzvHffc+ygP3HueeL3+OickEZJEbbzzEw/90F/fc/Vc8/z/P8u4b9+IQH7FfI9QlzM/O4DT1VqiZ/kBywb8ZkU4EsV4SQUAGDQMTI+y5epR9H7k87OIE3Yga1CiJ9cG2osQfy+IN9wyTzX4lT8uRRdJ3XkpRab6FxWgeLClTLCtxCCqmKKlX/AogIehXIf5MHrEtf/asWwrTrc11oHnNxfam79bai0kKWz9sPR1M8HMxqijzHLpceeTxO1mci5icGgNTAzMfrG2TELAZ/CRppgzZtn2M3/zEr/LhDykHr5gDu4jgMGaBK68b4M4v3oqxizi3iEsN6CLXvmMnf3Pfp5idmcciWBFSXVoJm4e1zHULYQBa9UsfNaBJPkM17Oy4CBKbaStW0UUalojiSa5oNHm+F46jGQ0vI4D2sjMbZqF1G92H6iw+9/LEkZW9FR0fi2S7lbH1CKYFQmQjhseqDI45xJ5CQ9R4IUUzY3UjeQoQ1PnMBVjGxiJGRxIcC/gtYXAmAV1oS5WMAAAG1ElEQVQAqj4XsUbBZiShMmi5/j07QSESA5Ji0yQP0FSUXpoIMX3DKz671ql3ujTGFPIASTN3PBLS5Pa2ixS6JXxmIgJBN9PeOM1neVMWaV7TEviq5bu/xon62L+54kGDxOKJaiWuBhkZbiWSycbB22FjbIsTTEhxaucRFVyWlzLI3cYpzh8I17v8HtUk7EYZvzPj4uYlBHUPQhYj2B9zqNYQMV5RrIoak5cphe3WXGKgucHQZvpGSDZbsInTJrnka47eCUYFXCGYeaaDS5cd8CGkZR6EW+n05PZtboZYlfwza39GoK2EdP729rGByAOqr7/Cdc0Ek4nAbtMysvESS8h17WP8FnyDsjZnHSyuRQGZf++yRZpxk2SJjsmWGD5/cjNlrP/UggSQZYbM0q7moolkhBJ0Nhq+h2PFKG/ZhO+5R0LiejVZUjm8UZ9qm5RVaC/euM7zW9jxkcJVBRLMPaRb0CSZPjaZbmkDGXzFBJN1RGs6sWZSb3V+8G3splOoTwUKmRRbttYz/QJR0KuacFsz+4G30Pf5jVsyIeRM3mubQsXFHmghLrqU2zkJTb5MKigotPX5ipLPqoenF798fTTrzPc3coIrlu+vlcLRbIJkxbTHCm4hqkzq6b2x5Gu4zTEd14yMsv2/zfBMayMYFYJRZGc55yUYFYuJ91Orz9JQJa2nlOMYRaknKTau+FSqAmKak9UnTjcr2jrtWm+X0BAGoeRAnQEaxFFKlLxEmp5Eqgn8YBZGDElpBnEZFbosnxZGXe7BS0tmySDNrIUi17KoLkhAbSfIdC+tk6uNzHpGJr1J/k0K+pbOegr3tWwHtbU5C1pdqKWlLIF2l4QVt7inWwpGed63oef6cuhqiM3fk0t7BenNiXor86BYSmoOe6xByZURBjHpTkxtgiRq0OgIiJott9cfuQ6yR/jhkPpsHd3K3b9/f8vx/A0ZckBX67OUSiXSJPHrdNd86GzHwSzx66tZX8M9ASIXpCgRDsWjfGz3lfzsYIkIIXYWnFCzte5LGm0qDdc/WHa3CbqS24oe1YWyWv6vTY7J6/DLlE7F7AqrXfVLKyyVutzfKrV0wmhvupfWWntz7FwPdH8nrwUhIaD1BOgnpUV0AEnLPP/mCe576wW+rzUWojJpR+Xr36KsXZnyvVcyzd43XceDyPISjIgwODBCkhqM1Y4bMvJwXfJMGzFdJ/laETmfm6keCdM25q3KAGcHRik3lG1zSikpQ6UeTDza6g8ifcpqVKPLwYHx/k29QXJ9Rvc3U3Hpp22HPKEVM0+uFEsNiJXdbHyMm26nZDkS8NKNrsLkf7WktB5YU1+1oblTqeCkqbyXCJWY+XgQF4+DmSaNDXoB92BcZrO1BtOH9m5SziPBZClc0zAdlwoy1d12QkDjdXc9UIGG9Vw7VlN21RPGZlPEKbHzon69kCwtQ66MXtfWZG1SnElXUbo0/5YcxbLE//0q3qzyjbZqfqH7GFjJndKcYau4XQhbfhcQ6+v/lD2+74ImwaiAVUM9KnFitMTZAUN6wbfO1qbjWuoFsDxFqgmsVvHfnULb4BKR7u0KStj1tgYWoJz6cqux8FqpjBk1hSh7DlwYGEusvTdumK7HYGwnlExBShsJrXJJlpW6WnVRezMKZXZuW3c5Hwrodf5cfFblvUNEQiweVwhQdpGgUx0HrGQXSb0diE/23t2PoptCViT2HZZujAdsccVQrEOMDQmihaUcqRwblbAs7vH64ltD20ik0M/Z5Grpen/vqoliDWO3g+tocmC3c8XzBoKX+8rb4MvsnZTWivOR5sbAVyjQ5S2wUTqYrOz1L27Fi7zlPK2X0gNsFLksjUzDYuj2aBuXBTHLLbwOz5t3ZbvI2jnYBNPMq90D1qaD0dbt6bw1K7hVMkM76XGqhN0uXSrC3/pDO2yCLhQkr797D22Gbe1OtP8u2fclCcYJWNGwTEqAqKOQ5bINiJFVKSDXBkFC+IKuy6MsYT2srwJaLZLnz26rctkJ0U0t1va9Y/eocK8a2r2OV4xV/zSSN6fr8JfzLb80GO31VqsCLlg2XxCEhzMXXLu8hM5NHJs5/2y7L1v2vYNgMknFO7bZoOi1dGfOUGjXTYUfD9MuN6HVJGR5k9a30uyH7+yI3nphOQVGD8cvAJZ7s3c/1ySV1UoGm8MobSNRkOs6DNek8KIpLKs3CXqSYJoXL8+Ym1fx1l37n3v6bp7fpY8+CiiQxxIbsxcbtl7akj766GPToE8wffTRx4ZAVfsE00cffWwc+gTTRx99bBj6BNNHH31sGPoE00cffaw7MjuYPsH00UcfG4Y+wfTRRx8bhv8HaF9Vdo5Dkm0AAAAASUVORK5CYII=;movable=0;resizable=0;rotatable=0;deletable=0;editable=0;connectable=0;" vertex="1" parent="1">
                    <mxGeometry x="170" y="230" width="280" height="216" as="geometry"/>
                </mxCell>
                <mxCell id="5" value="" style="shape=image;verticalLabelPosition=bottom;labelBackgroundColor=default;verticalAlign=top;aspect=fixed;imageAspect=0;image=data:image/png,iVBORw0KGgoAAAANSUhEUgAAAQoAAADOCAYAAADGxUzfAAAgAElEQVR4nOydd3wdxdX3v2dm9xZ1WbYsuUq2caHamGrAgAnGtNBJQgmE3gKBkNCS0EtICDWYzhNCCyWU0GvABEKxjXGhuXerWV237My8f+xeSbZlA05IHt7H5/NZ6Up3y+zuzJlzfud3zsigQYMcACjWFdvD/zZetNb06tWLxsZGnHMkk0ny8/Opra3FGPMvnVsElFKAEAQBIvK1jnMCyoE4gDglHWWMzB/EmBE78uRHT1Dn10C+hO1zlqxSSH4cm87iBxasQzlwzq3/GtF1ok/d2vz12vi/QXLNd9+dJm+Sf6N4X3dHtf5x0KPY9XQo5xx5eXnE43HS6fQGB9g3E4m29UuP9+CiI53CiiUjaTIuzeDeFRy176E8Me0JFq9eivJ9rDhwlkx7B54LjwlPab/y2msriX+H/Pue3dcT+cp7/PbkP32v8N1S5N+2RIoisiacBsmGH50g3fSIlSDcs4f3Ze3XszysdbQ0NmGspb21jby8PJyxYO0a592oThGaBKFl4b562K7TNnHR/RsyBMxdspgn3/sr7aVNiO9hTYDV4EQiCwKsBeVsqALchp+BOHA4nHS/t43viIKg/qPTu8OJ5b8wXvk6k8C/+2pE72uTsggl0gRRJ5dcZ1ehkpAA5RSGLCqwODLdDhWwfrT3miIiONXDA3YQZLLEYjESiQS+79Pe0opyazk5Dhzf0BVxYK0JX6z0PHdLjxaFAmzYXhcQ94W+ZcWsdA0ESUsgBicGJxbQ9O3bl81GDue9Ke+gbEDnyPka/Wl93X3juqLD/Ztdw6+8ovt320Rf+8r/8StK9PO/oxj/98n6XY/IgkDSiG5DBDCxbp3agdey3sPVenwVpRTJvAISCUd7ez2ZbDuiQEVvxFmNKIWz+pvfDZF5/E1eroA4izgHGLSLI4ksrbqBlN+M9dqx2mIBX3sM6t+PcTvvxOxp0+loakJZS6C+3oCVbj6+rPPzG0poxmzMkRsnAkrkv6IoHGD/01d24XS5SUKRLjBzTXEE5BdZXnv9IRJ5WbQVnI11m5UdSCo8iVoXCFUbMNnshoA/q8BtnKKw8s2xFHAoAkSyODy0SZA0SdLEyOosVmdxyuGcQaxgBVzCx8tYYib0cQKtvhrMXOt/PUHH31R6tJC+NQnv4r8DZv5nXQ8I3V9n/+Pq6X+tbMCisGidIq+wjbifBgzKpbrvADYOOCzBGod+lZJQbv2+nxLB/gu9cUPX7nF/59Aug6gOMspDmThYjedlQ8tGQFlBO4t2DosjjcX3FL4DMAT4G4WriMg3HuwikWuHw/6HXQ8gdAs34l67Ij8bI/9hjMJ1u+ImTQFsQFEoB2IdnmrD0YSyPr6x4LpjBx1AZBqu9R7Xqwg6XYx1O7lSGrAoK93wkm8mG2scO6vwrUNcCifgBaDXugVH2HkSgDiDw+JEoSWz8f14Y46zgHPIfxjMRBxONi72IWz8mBM2xlL8F8SBQ5CcxtgkPSsK5ULTWLtwwzm0C3r0ia2zKFHrvMj1TuwiOOvo0fi2YWeUbrPlmufdkMFuI06EfMV+4b5d57NhJ7YhRuEg6ihEP9Y8l+v2W5BO0FVwETD6TSXqjN9w0AtrPuMunoaNfBKJ2tPzedd0IenSguttR6Qo1v/tV9+CbJy7JCi63oONtu7/6y7R+9wgL2jt7yzhHShw4VsVZ0LwdpOiANZSFLlB6Zxbj3lpu0BOp3AYrPg9PsyNgyJDERFEdBSOU6jO0OMGXBrRuRZucMAqLFZU5z6iwvCuwqKcArERK0Ij4mFNGNlx0jM3RDnbidU4IZrlXfQZnETXWQ8SFFpO0m3r9m0O+PyKwWVFcEh4TUDE0qn0IoXhIjdHcudzOZaZw9H1GRFw3lptCT+vPXDCAeVQEp7FOB1eU0wYZncaXC4yZlEuYONIfK7bcd1VtaO7DdkdaHfYDSgm17l3qOAkdIexuDXuu2u//+uyhqIwuEhZRDjzWiPDaI24cEA6MTircEERkE8QW41TjYhotE2iN+DHSk+h007RGAzOCU7yUIHCqeZwQNk4sgEb1KFxQRHi8hDlMIHG2pDjoJRB+01YlYEgH5vui9NNSLwu6iA+VrKAxrk8MmTJppN4tgpj4nh+gHVpRBuUWJzVOBsPgz9ePTq2Ihwg3aBLg5AJLNovxEWWkrMOUeGsp61D2xROZI3jwudLj5+7/1PhEZiAtnaH7w9C6wSoOkSvxsNHEbbRuRgWD0cIEisEUU1oSWMlwIrBiQqVWlCCy1Qgqh0ldWiVxuER2DiZbAGZoIx4IgFOMNlVaOaSXxDHIQTZUky6L16iBfEawCWwQRyRLBJrDN/DxrgQLuT1dIoQKj+XJJMpIRMo4okmYjodacJsJ1/FrTXuxQrYQkymkqxLgt+I9lbgSQoVEehy6iEXat8kkQ2We3lrWBRrGZmd3AgliBIETVtrwOQ/fMDoLc7gpuvfxgUDUXYwLqgEkw/WD2exb7gp67NsUTsnHncNxoCxBjDR7KvW2cIBIARZeO+fc9l2h5N47c3ZzJi5mgMOPIcp/1jOxInnY4IygkyC117+lF12PYkVK5oxxsfYBGILCPWmAAGpVJrHH3+TwdXjGbfTXhx+5DHceMtkps2aQ01LAxkFS1as5JLLfscBh/0cK37YHqVACYgPpj91y6q5/oo32GbEqUzY9UKef3YGInlYPLLisIpIUaznvnr4f3ezW2uPt9/+hMrK/ejTZwLHHvsHOjp6sXxFmocffIctRx7NsOojqOx9COW9DqK87ABGDv8+1119B855gMO6ONmOAbz4ZAtbjzyRzbfYi9/+/rcsWFjL+ec8Se+iH9O/7AdU9dufkUN3Ynj1aIYO3oafHHc2i5fUEBhId2juv/91+vQfx8mnX0ZzR4o33/qQvfc+gXPPvhObLo28Bvnm2xqjPXKpXIw5s1dy0knXcuppv2fh0iYyEmBVFiuyBkbmup3CimAlxaOP38noMeO48opHsKY8tKI2+Rnrla9N4e4uIXjpWL3ace21kxlYXcGtNz1Ke7qOqsFVXHv5/3DbrSezz8SdsNKK6AzfKCBooaMtzt/fWMBvr/sdF/365K8MfToAL8ZmI7bguGP248YbHuCy3/yWupqAuCrlrjvvwJoCVq6q4Z47H6dfn36UFg1j8bz5tLc1UFqUoqoqSda14LTFqgDRhqrqKq644kJS2Xo++3I21177B5YtbmThwgZMIIjRjNlxKIERYjpqicqASTLrk1rOOftm5i74gsFVfVjd0M5dt7/JTjtNoLQihZIMWG+j45w5hb7PfmNZVv8sX85pZPacj/HjHhWVFVQN68cO4zZn/B7jmHTothQVFYaukXVoZ7CSwSJ88vF8rrvyJt5+cxaTDtieq35/CuXlSZSkOf28HTn0qBHsuP14rBhQLShlcc4ACmU1IpZUVtPWptlp3GYcd/KexJKw065jOOb4HzP1n58RmDgxT+CbEumAHqMeAosWLeLTT+cwfsJeVFX3RauVIQaG14VGuGjnLtAJlGG/g3bli/mtzJu/mPnzFzByeALr7CYDYj2yUYoChPYWeOKx5zjkRzty3c2nMHtWIyNGDEBwFCfzGbfL9whMK+J5CAGuh5Boz3BTONAskJ9fzCGHH4aIQjmDlZ6xj5yZuGjRYk487vd8NqcZ52DChIPQGg49/Efk5cWoHNCbM886klfemEueV8+++5xKXlKzuqGGK685geLSgZSUxjDi8OMJKiv7k0gkGDlqc5xuR8U1ximWD65hzNgMjfXtfPThVKqr83E6gSWNqAClM/zzHzM46IAbGTN2DF8ufgYVa2TFEssdt7zEmWdcykN/uQa8xSFNeONeQcS5ciBtiNfI8G1KGTV6DIoGnDVst2M12479FaI1zstgbGiRKaVQzmHJIih6l5Vz5lnHc8d91SSKV6NFRRalYtCQUgZU9yZwq/CUIJIOMW3xEFEh2u3gow8+5vHHn2H7nYcxbqexOFUPuplkooPZc6by1DNP8oMjt4UcdiB6DSwpxMRyWESOrxFZWp0z/ZrAb11dO8uWNXf2LU/5EQxuQ4UYgicRfV6iJ50DegVrYdmKVSxfsYLNRwz5bwSbvzPyDRVFGCUARzrbytQZ8znjZ4fi5WcYM7YQJQ1gijjwkF2R2EKssSiXRxD4iE6h8BDRZIOOCLAUNBpsIgS/lCMwFohjRBGL+QwdPginGjDOQ6zCqgh0XEccgwb254UXn0FUkuXLVnLVpffx4Uf/4MILT+PIHx7A0hWzueCcWxg7ZgTPvXoTSxcv49cX3kK/wb3ZZ59x4K/CSQZsEiVCXl4ZH8+czQ477snIEQMYNryK0dtuxf6TtqNqSBX5ySSBaaMjU0s2AOvH8LXCpYvIZGroP7Avp587nliyFkeKygEJ9vzeFnz66SwgQCmFbGTWbAjCuQiKjCHGx6lsmJMjgigfJIZzBSCCse00t7SxankLyxe2Ulv3JYMHl7HLztsxaEAJlQMsTpqwwEsvvsclF9zBPgdsz7VXnwDKglicGKxL42wCLXEED6XbgYCWthYwGaqrC4jbVrQN84MK8ttIpxqZ//nKru7mADRYL1SUYoEgVDwoLA4T4TjOKUQiIFRy0TIBa0i1WTraNZ7WeNbhtMOKXT+YHYWKrLNkgjTpTJpMyiOT0kAIoHdhRZsIFN3lm1sU4nBBPpmUpq6hnn79B0OgESto0dTXNHH9DddzxTU/RekUy5bXsdvO57P7uFGcedZPOfiQEykvL+L2O05mp11H4JTFqSzzP29jn73OobkZelUUMWHCXpF/XoQ1PsoprAXPtWLEobv7oISIvPKyeN58Zs9o4bBDf4HKlNCRamHy5Ht44smHOfW0Y1i4aCk/PuY4FJb65qXM+byWO+88D/waUGmwBaQzaRbX1FNQks8bUx6haXWa2R/PZuHCL3nhb8+zbMVK6htaSaXC63oafB/2PWAUt95yOXGVBYnRp29vJk4chwk6IuhC48d8lBI8X1BKI9augwdtSLrv6ZzgnAa8EGS2ClGKObO/4Ior7uG1l5dGM6pCOU0iGVBYkCDuJxHdQWVFEaefmeHAw3ZGDAQmxksvTuPnP7uDvSaM49orz8IEWdrTGdrbOki3Z1hd38LH0z/irb//g1XLV7PbruP5xcVHY43GizmKi+JABmwISMc8TZANqKltJLQOFFGMBFFBZB1oBI2zDqWEIOtobEnj+UJxqcLZLLmcHAhAFM6FxDylDZ6fCd29zrDpV3RhhLKyXvTt25v29rk0NjZg3aAwG1iZXDffJN1k/YrC0Rki7QI7He2tmr88/DxT3v6Uj95t5IiDzmXo0AquuPJkhgwawifTl/LKc4u44qoinJfGWSGbcvzjrYV8PPUibr7xcp549O+cefL93Pvg+YzdqT+LF9Sw78Rf4EwRPznxANLpJv788FMMHlIJKqCxIcXkW57l7jueY/e9K3nowcvWaKoQMjKDjOLdd1ZxzI+uYNKkiRx33MlccskF3HHn5Zz385/x9ptfMGnSePpUKqy3OjS7i+OMGFWOk2aUyccS8M9353DkUTdR0b+AUZtvQ9WgoRTmefTrV8lmw4dQXFxCPB6noCCf/MJC8vNjGNtMLNEBKkvWtJJOp6gcAMpLI1EUx3YLOxsTIBKyVDfG9whJSD4rV7bxyCNPc/ddz1NTC5P23YWbb/45p592HIcf2kF+YgAP/flZPE9x358vQukOsKBUFudaw79VikxK8dST73H5pX/isEP348qrz+e5v77O6adcTUcWtAICKMrPo7xvJaWlvRDJZ9bML3ntlbcJjKBjhvyCGE5SOLEICTxP48djoatCEke6s/1hGD60EGzEWzDO8c6773HVVQ/TvDqPM396IIcfOY5kogMlIW8HG6OhzmfVyiwHfH8iJ5x8JKJSa/FHvmqkG3r3yaeltZFPPpnH4Yduh+cRKrBv/jr+v5cNWhTWgcqpVhv+zqazvD/lU/7+6sdo8cm0lNHeXEKqvR0spNpUhFbHcC5AaYsSSyrVwfi9qjj4iG0Z0Hc0Pzz6cJ76698YvcNZdHTEcK4XV193IYcfvRONzXUU9Mnnhb9NwQEFRSXsM3F/Xnt+OjuP67veeaNmeT233PgEW28xiFvvPovZn9QSqBT9qx1/e3kyLqtZvryGK351P88+/Ta/vPA0yioKKSjMovBBZdFOsfseOzBz1ku8M+VD3n7vXVqaljH7k5XU1q1i1aq6NagASit2HT+ae//nSoyrQ0krzfWNzJ4zm4Jin04yT1jjBhMYrDU4lwMEN1JcyHfIpmOYTD6HH3YI247ZkcVLFhBPJBg/YUsaG1I8/MBbfPHlF5xx5uGo+CqWLl3E3M+XMHbM1hSXeKACjDW8+NJHXPCL/yHboWlv70BUE+N2HsUjf7mCwpJi+vUfSLoDXn/pA+oblvOLS44CtZp0polYzOPJxz5A8Ekm41gXoCN8QSkfrXyCQGNsnNfeeIOrr7yb1bV0PkdrIZWGwkLFqafvy7HHHcHxxxpu/sMbnH36Qzzz5FR+c9nhbLl1BY6AD99bwA3XPUUqVci5F53CwKpiUMs6CWbKhuwKJ7KBQIbjgIN2oXZ1intufxyhnZ+ffzAlpXmbFEUPsh5FEXZC5bIIBo2EboAEFJV4TL7/HOpWZTn68Gt49OlbKSyuI6YyBMagk0IW8DyF0wXgHJ4HpaWV3HnXrcTizVRWN5HNZPn76wvIpgpZtKCJouJ8Dj1qR1zeXAqS7Rx8xI68/PwUPGfxtM/2O/Tizfeux4+3YYN1k3UEGNC/jMf/8ktENLV1K/nbU29QUAB+woKqx4vHiRc0Ut4/j1dfWMrCJfWM22kkyiYQaQdrcSpAu1YSajXLF83itec+4rQzj+Xss89hwbzF3HDTZP70wGQS8QStra1M+cf7PPznh/FE0IFDicZaFdboEAPWIc6StcLqpibmzP6CvEQvUNnI1fHX+3I23GEdSjoYVCX87IL9MCbJzE8WMW9hCq01zsaYPn0q99/7EHuO34Pjjz0Mber4+L1GJt/+ElddX8R224/A2STPP/0RZ5/8IEMGj2Dg4MEkk4L4dVQM1FT07x8NtmaymTzKKz2WLW/HujTaayfPd1gTJs1lMo50SsDmdw5Uaw3ZIItFMFh6l/di1MiRNJfns/v4vagaPID+A/pTV9vIM88+TEdHlnjc8sOjduegww/klddm8YfrH2DSfr/mh0fvwIUXHkNDQ5oFi+qANlYsmY9nKzCBxQN8p7tlmnanYkXkLKtC9q9SiBFa6jI0rTakOgyZdJaY9rDGsAmjWFM2aFGENG6LIueG2JCyLFmsdNDR0QQ0E4sblInjsjFSqRiCIJ5DeylEtxOPx9h81DD8ZDtONaN0K0WFfejocDQ11/PB1A8YOmok1kthTQYT+NSsWIwo0CqLs214vmBdFmvA9kAZRyxWhMAlWTS/jQcefIV773qcAQNLOPawazjs0EM44qhx9O5tOOrYCTzx+Kvc+Ps7mTLlarTqwBGA2KhqVYDoNPl5CWpr67nrznuZMuXvWKtZtHAFd9xxC8WlJRTlFzJ33jKUNbigHe3C2hXJvAL6VQ5ixswVeLYUT7UjKo+5n83ljTemcd4FPwDVhDWCczYE8SRH5YRvkj4uzqFVAGJYuTTF9Klz0LEmZsz8mMm3PMZO2+/D9Tedhvbm40wRA/tXkfRLuP2mt7jrf7ZA+22M2b6cx547lcK8EUy+5RkKChNorUEFUfp9aJKjNEHg6OgwKOUQlQXJIlbheR6pjg5qVtWhdQxsAE5hAgiMAU+RFSGNoazfQJJ5ZXw0Yy5T/jmDwLbS0lpPSS+fiWMnYOOC5zS+H9B/WIyBmxXx8QyYMuUzttv+HQ4/fB/2PXAy90x+m4svupElSz/jwosPQ3upEBx1LiRoCVEOQq435whUio72NJNvfYkH7nuLCy8+nDPO2h3tIMhmwv67yaxYQzYyPBqKA7LZANDgPKzEsIHKpWx0irUW5Xcg1uAkAAHf88A68hJJqgcP4vUXpyFWiOk4y5bXceed92KycUw2iafzsFkDZLF+K8r2nFLe1NjCPXe8ynVXP4EFhgyv5DeX/ZS6+mYmT36IXcePpl+VT2VlEccccyBvvDGLwKVQZOmCCkJwMR7TlJeXs9lmI7j/f24mnWrhw2kzmDXzjzTUp1k471Pa2lPMn7ecAf1KQGURySBZTSJRQHnFID7/7BU+/GAOo8dsztKltTzy4FM4Y9hu+2EoqcETD0HIZgOUjuPp4CvDpT1/Z2lra2P58jqsFZwIQdaQDhrwE9DSHFC/yvC3v77KX598lS+/XMg22w7hww8+Z8dd+jJwUDkDBvXmk4+XYqjDugpEwrC2dGc4uvB9p9PZrknahRED7QniC6lMCmOyKHE48TBOIVqIxxUKS0d7C7NnzmD54gzlFQWU9SqhpLCIeKyITz+bx+uvzmSXnUbzxivvcfOtf2X61BVsMWoAk+8+jUn7bk+vYkvMz2JMO1a10taWZXWDxZkYeOmwUZEL4pTDuLCuhIjGOhspZsHakCU7pLqKESOGoJVFbHhcGJHL9fBNAv+CohCEmBcjk23DmjycvxprIBYD5QzGNuJlfSRTjLOC9WK053kUNcUJahvAayCbKCLtNTOyuhe1Nct48ckZjB47mGf/9j4fvF1P/34VoNvIpIp4++VFXHLx5exzyEguv+anQMeaysIJpSX5/PS8o9l557258MJLufzaC9l5l+2YPXMRgfyFskqD0m2sXFXHXx59juLkYGbOXsEWW5UTsxmcygIW5wQVKyS/uJAF8z7niEMPo9/ACkp79aOwoJgf/HAfPM8jEU+i0Hh+moy1BL4DLwU2IJZson7FMg7Z/0rK+xbS0dFBW6aVo4/bkpisRhvBGsOrb37C6Sffw4R9xnLXnT9Z4xmvL0jXlc/hsKJwLo8vZtfz+MNvUVTcm7b6KvpXNrPddjtz1+3P8/hfnsePO8rKFTvvtA0nn3UWjz36Anfc9jxjtvkJhflCECRI6jhF+TFMJoELSsFriDRyBsGEeTHOEQQh/8K5iOMgDh2D5rY0Cxa1k0VjaQPn0dAYkM3msdmw3sRo4ns7bcfeT26HdQac67GWyZQp07l98jMsW1HPGefswUk/OYghVXkoQgVlrcU6QyIJ+QXgPEPGNyAKYwIefuBdPp76GaeevQcjR27Bi0/P4LbfvcLE/XfkzJ/vgVMdIfcCiMcgFoshEoue6SbpSTZaUSgN+cUp5s2fxYCqrUEJcd8ycmQJpX0cWqIMPJuiMF8xojqJn6pH5hv6vLKAXw7bmTnJ5ZQX94ZBqxg1XHPqKb/AAX36lnLeuSfw9NPPAwHtqVqmffI2tQ2tfDl/GYFJ4+muBK8c+84KSLKBiipNQVERF/78Rk46+XTuuuNGbrjtbPxEB7V1zTz/9MeU5Fdz4SWncuF5d/HcC9diVQvKBGG4FghMmuGb9ePttx+ipc3Q0Jhi+vQ5zJn1JZ999gV1dTUsWLiQFUuWUVxawD33XQouRm7OH73tCB54/EIm//FP1Kyqo0+fvvzgyJ8wceJWiA4tGKdCBVrfmqW2pvlrP/tOz1ssgsYGhSxfsoL5Cz6nqHQJxxx9CldeeSGXXHQBv7n0VESDI4ulA0HAKMbsVMaXX3xMMj+OoNBKUITVxoNsFrFhAqBoh0iAFYfWCk/raFaO8G0n4BwjRlax+547k0o7IAnSjnM+2SDBoOoh7LLbjmhxKCzGGEQcWumQB9LN1RIRxu+xJa/ttQOBS5AN2vBdGhUhn86FFp8SyEt6JJOxMETsfCBDEAQ0rG5iwaIl1NXWkR1mqamrYe7COezYOgjtBxH5KqTHJxIJ8vOSoVcS5SDlEue+Sdj6/3fZaEVR3qeMPz9yMwW9UohOg/MRr4Nho/J5673bEJcGyTKwOp+PZ/0JFTSg22owf28g+PtcdpdebLP1MFxbmor+Hk8/ez3GluFMEYilPVvDnhOLEQzFpR4X/uoQLvjN97HKoLTFGhPCrK5bVqfzEFNEWa9e/OgHP+Hsn17ERb+8hJ3GbcMuO+yFTa9mxYJm7v3j0wwdMpJBg2MsX7yUqy+/jd9cempontg01saZM2MVl/76JiCf3n0qGFA1nFRGgaeoGFDM0OH9mDhpPPG8OEWJGNYatDGI0ggevp9l9NhB3HX/FUBYCNdzBlw26vKCaMXY7bbh2usu4NWX/tb5bK18HaM3LHYrNs7s6fO544/3scv4rfj1FT/ilpse4pADTmXczuM45oTd2W2vgSQLo6Qv56NcKaOGlbPFiGoUHYTmenjWIMhiTQddtGlLOmVo77AkEh7GWILAYqxFaUHE4JyjvKIXm21Wzduvvc8Xny5g8y3KsEZjUpqKPn0YNaoKZHmYxSph+NJKjlm6xl0hLgumEVwMLeGEwBoZxCFe1rssn4GDytAqCaYYpwLi8YCzzz2Is356YMhdUYpjT9iHHx8/CessxqRRyiOmStCqiD7lhsrKcmyQDmGiHiycTRIpitxA6/7iVDctv27KuUJ5jrI+YQl7Z8MZyVoHqgXtvDBL0wGSRvwsBO1km7MsfGMGRVlNKVmyq+pQte0ElQ5NBuUtwXoxBJ+CeJbtx47EOYPCgBeEnL3cTKZCWrfrjJtDU2M7jz78Lg8++DJzv1zG0OGl7LPvzjzwp1fY73vfp7i4mJU1TZT26sdvrjqBzTZPct3vL+Ci839HRT+fk085Fk8X4UyczYfuyN137sX8BV9S11jDspXLmTN7LvW1jdw/+UVEg8WgM1kC005+ARx8yAQOO2IiolsREZQi7OBi0IRwmpOwukJIY3bUrVzCh/94gxHVld/szUXYQUN9O2+8/jFNTc2c9tPvMbi6kGuuP5YDD/6YW258jhNPeAFnFH3KShk2vD/GGFbXNzJ3wTIOPHRb7r77ZLR2iAfKt5qkPnEAACAASURBVAQmIJsOcJKKMs+TNNQFvPLyh2iVxPMK0MqGETEnYRdyjkQ8TmlJgnnzP+eNt95ii60Oo6m5kZWralAqiAhRrlvV8vBHj5iLCSMTSgzSSdrPJcLlaN6GktIEvXoXkGqzpFriqII4KtYRZjDr8PmKi1LuxaKU4KyHyRQx5c15vP7KVHbZbVsqK8oQlocgJl1Y1Sbpks6amTllkKtF4dsMJcUZPpp6K6i2dQ8UBZIOa1uKwblsmALuYiBBVCYvJx7pphRzHphCxVMdkM4S8xy1RR0s26WEvc85GEmEg906i9MpcH5YTEZsRK21UX0H26nYQpcjNwMojNOYoDgshyeCjei/WE065Vi1vJV77nqAQw6fxNgdqnCqCUFYsqiZ++97nN32HMb4PXZGTB5BR//QnNWCUmF9A6XCiI+TFLnUZ4WgnI/yUqAbwnvfgD2Q6+rhHmG+gQkcfkwhEkTjP6ov0XlUDh3uCvdJ+LBQSpHNhpGIwqIkxmbDTF8XhQOdYI3DZAvA9McGPplMGj/eRl5BBuU1h/kbQBAI0z6Yx8xZ8znquAnkJWNhKQGb4ItP6/jz/S9QEKvgrHOOpaCsFvRquvIxEjSujvPMU29R1zCfc88/hlXLG1m+SDF4SDFlfdsiKrbbIOsx583kLJqugjzd98iJT+0qx2OPv8eDDz7L5luM5Nxf/ICRI/PQhAWTczR3xGFFePChV7n9ppepLBvG0ccezPcP2R7Prw0jUxCGTnPvxkn31JL/09KjogAiRZHmw496VhRf+wLKYVOW+R/MZ8UtH1Ke6k3BgDIqC5IsmfoxrSOL6HfBbpQNLA+Zi1jQqchK+Dpm4JrVjiwRviaCtTZKRJOwDoPSYXRDGZwLE9WUUlircNbH0wHWZumiGgOE9SNCUYTp7gbQiCjEWawLB6R0Fn/p6sxdkZl176V7opJg11ANXaa/W2vr+l6iojjhK3PR39L1LulSSEL3+pwOVG6NERfO7FbCIkHKQ7SHdQGdSyY4HxcUgI2hCPkTTtLd1jIJlYVzPg4vimyF4VHl4tEzS5Erb/j16NHdEsFY32ANsQZrkzgb1iARSeOkPcJvwvBzZ4EecTjiuGwJYmMgLSjVjlYmLJ4sa517k6LolH8pPPrVohDraFpVz7J73mR4bV/qq+L0Pn43XFMWM30OySUBM954nz2P/n4U87ZYVLdh332A9WQOqrW+U50zale2qkN5WSAdDuaI5BS5yogLUCoT5UREFanEReegM0RoTOjHklMK0fde5GJ0Vhd33Qd1zwls3dVEl/SQTr3O32u6hDlFGN5zTjG6ziM7/5I1B16n/S855nNYacs6iwsCRHUtBoVkEK8JcRohCGnUkcXSfUCLyoTVzKPnICqc1cM25CqVf12A8OvtJzi0agHdiIiHc7pbeN5200qCOAmZxl5zqBgwSBQO75E38bWwov8b8q0pCuccYg1tDe288aeX2W5VMb4A+RAbkkSak5QOrqBlQS2FM7OIy8NKE46wylTPCT5fD2haF1ORKN5PJyimQrAe5xTOpUM3yiUBFc1M0RBwKuxEYvDE73b+aFkBHJIrqvNvWWejq2Ov0f41rIuu79fQTfS8bEDPlAC31v9zSVcWJZG37nKugAsJaWGoBhHTdUynknHdMdGI2/RtL0LYZWmJk0jphxGRTkXv1trfZYEg9/RYnyrYpCDWlH87xOuAjLjQJGwLWPjSNIZMC+jbnADRpHyDymsjXdFE8SE7YHUHxS0duJbWMJVcQqT939+qXAFVHcW+InPCZUNlYZNh7oVkCIurREVcJeg2+FxoUnfbRLIYWLNUW44FuIbkrp/7zVr767WOWd++Xd+LdLkfOetp/Uvgra2ApNuWa1+3vXMJbM51qz3bBUqGO0XHd0vr7qxUFgUqXK5a+Vcsubjx4iKlFmWlSvje1lWY3f/u/lzXteI2KYl15VuJBSkRJLDULVrJyte/oHdrPtoJQkBjWQZ0hpgXoKr7UlhciG7OUD/1M2IuTCXSdmOa1W1ZxHW2roEumJCW3KksojVWxXUWwu2UzuNNVE0qWLcDOhBrMLmivRt8pD1YOj26FhtSEF2AX1dimYsGouu0LNavrLopwbWwj9yaIWu2w3Y9Mxcp8dzzXGcd1bVL9YXrj4Rt3PA9bbzkCguv68itvV/Xptb6u4tX4db77P5vy79dUQig01Dzz/msuuwVhq8oIBjUlxUHDKW+rzBq+2rEj6P8BK4qTelPJqLbE3Q8+iWs0ijr/QvgUW4ABNHWrXJzbtADYgUxXRcRbdCoCBnp1kmcxplYyCy1AdZaTOA6VzMLzxwW0wkVDRhROKVCMpXkhpusUf5Rok4d1f6OSkkarLhoP4m2KBE3dw40Fh0NiO4Dc23roLuy6Rrwa86i3awA0Sjlo5QfUbf1GucJQ+a5mqVrWT2dijhnXfSEsWwaeN91+RYsCqGjPcPfp7yNwZHqFaf6qL0prCzBGkO6uRVMgGDQ8QA291HagzaLnbG4G3tqYy4dDYbODt3t9pzDN+BZohToSGmIRvBxrgBxSXK5C2F4NlIGVoX/twnWhnVETBjZcD6OYgLyw6rXTmFdbobqGkCdw9bk4JJw1qXzW+hp0HVZMgISLiWgJBZ9172U/bpWi4sUVaDAqC68o0vxeTjr44yPMx7WESowEayoLmXlHDgPkVhYO8Lm6knkHrdClBeFjF2YP05kYW7KsvpOiy4uLr6sxy+cIZEwnHLKfl3o99cQh2B9n6LiApbV1zB84vYkxw7E1TdR+/Hn1PUNGDx28xBNRFDaIy9ZRu20L1myup7K8SPA7z5Lff0rQ5gIFIJsPt1nWuUERHVWZBbtAfk4m8DZOIGLY7yQqmzQWLEEzseRxJDEBoNB5YHKx6gUVumQbCYOZYUlS5u4a/I7LFrUxJZbVkQzbQTmSQ5ZVygJw6oOn5rlhmef+IR5XzQxctRQRDJ0lntzXW23CMZ4YVk4rXDOUr8yw+vPL2TuF4vYbGTFWi4D3e49+iwKxAfxEOUjOoYTH5EEVuJkjcU6H1whzuYDHiK58nNRm2wBLQ0x6mtbaGxp4tVXvqShVjGouhSRGJ/P7uC1l2aSlyeUliaicve5oO+/6HZs0jP/VfkWoh4O7QvVW41g6KjhiEA2aKWpzCPlDNlFtbjAIl5YG1ElHeltNXPfTFFWUQm+R+g2bKSx43xcdiAuU4LSYIwlnUrR0dFBzep6FixcyLRp01i+ZCVL57fQ2tpMKtOO08KeE4dz2VWngwqYM2M1Z550PSXFvampm0tLk6KhPkNens/+B23HjTf/Ai/ZgLUGnGLpkgbuufuvfP+QXTjqR9sSrZKCk1zFJBcqKqdwxFj4eYprr3yCF158h4MP2pP9D9wDP7+JzsB957gX5sxawA3XPUK/vltw+XUnglfD8pW1PHD/SyTyHfsdtAOQUzJd7wEXslidSyCuDCdCxnp0tPk0NjWzeMky/jHlI959ZwaNTavpaGsl22Eh7Zi475b87taTEB2lwZs8PpuR4r47X6Z3pWb3723Oo4+8xKiRm7PT+KMxTvHWu5/w9F9fYbOtD8PossjA68I/Nsl3V/7tikIA31rQCiU2LJIqAV5xEnxFMu3oaE2R9PNAgVGGRFUhk24+GuVprKRQIhtV1B0Uba2Gpx99nQvO/wPGhtaviqz/FGAMFBYKRYUeVQPjjNhiAMW9KlhV38byVTVhJANFJuWY+2UdeXkNjN9rM845+6cMHzmId96aza8vuoUnn/w7RxwzBqXiOGsQpfBjmkSsEGw+4Mik8xAXA2tRfoDnZ3Gqg4Vf1nPT715l+vTPOOiQvXn2ub+RPmMZt999Pl4sIptJEOECikwmzfz5y2lvqQgXHQJiiQSlvXvRkakPVzZTgqC6OAHO4Yxj7ry53HzDEzz250UEAmgIIgPB02AsFBVDSZlQ2S+fvr17I0GaysEO5TmQkD26uiHDi89/SHNrPddc8DOmffw+XizA9z201nw2ez4f/nMqW25dwVZjhmNdCpxFORslW23SFN9l+RYJVxajABQqZon1UVBVTuXcJpb9dQabHbcLLpENqd9O4RRhBWXsRisJgLw8zZ4HFPGrYEe2G70P2+2wBc1NlvvvmsKvrpjM8GHDuP3Oyxg9tiAs/B2vRymDdV40MF0Ia0qaLTev5t4/X0TvvgnqVqXRePTqpcgGAamUYdY0w3XX3sxJJ4+nuLQU3w8XR3KS4f335nDo/r8nsAYESkrzOPGMXTjuhIN56E9T+Wj6HK76w2nsvOcgDj56a3575QNc/PPHOfcXR9Kn0uD50VMQiCUTlJT1xmiwvsLpGM7TON8jsJD1FIhGSQiNiglXfFMKBgwYyPcPmUAsNp0dx41lp922o1+/kbz84mecf/4v2X3CKP542xkoApSiG/3b4VwGnGBdEe9/tIjHnv0bu+8+FPEyOJePtaWsbnYsW+rz6ewOpk5byC67bsUjDyyivqaWuNfGvvuOZMjw4nCxvk1xx++sfMvMzGgdCa3JL4+x+Y++R/0Fj9H0jwXMLPfZ4tBtwuxDm4sE/Ks9KcQBKisqOfW0E7FGMX/BfH5/9V/pVTKEN998iOOPO4/p0+YwbWoNTz74Ck+8cBGFJQFKwoQhpQOy6Syr6+uIx2JU9u3LvPmz+NWFN3P4EUcwZPggtCfEEz6ZtGHp4lV8MW8+22+/fbj8gA55GtY5BlX35vyLj2WLrbbhd9fdy6ez6pn6bhMffDSbx56+i14VbTjdxrjxo3n4ie156sH3Gbv1sey+1xY88uTZ4R1ZRapdaGlKkc6u4obfPsq0aR+yfFkdX86pJ7CGQX1+jDEh7DNx4rbceNPZ9OkTuiJ5eUkmTtqJ703aGSua5qYsd06+j8cefZ8/3HwREyZU46n2sNyhcyHC2rkYcbhs34fvr+KmG55g3rw6HG18b8LZzJxRCyQZMiRFPP4YdXX1DB7ch2OOnsTMWXP5yxNPs+suw+ldvguWr49xbZL/nfKtWhQ5cdailSJe7uGX5JO/up1Vby2kZcehFPRLrOW/rk3M+SZYRS7iEdasXLBgBeecdhuZdAkvvHwaMz6filOWZCLJYYedwMCyrTh40pX86S/nMLgqgcVigjjGdpBJh8lVnvZIpywNtT7FBZWE65hCPOFjxaKUxveSYel8wkpKnWtWqgB0I06ayaSyzJmziJamvzJ2uzGM3XYi6SwoJyil2Gqbodx15zmcdOaz2EDjTANffrGI6676M88/+znZQGFVM3Pn/pmKynK22nwrSvIbKa8o4u77bkIhLJxXw51//DPXXvogN/zxSEQIeQwC4gSb9Xnt5c/4071vMXrMSC78+Q3ssMMQ7rvv9LDgL66Trk7EzLSBZv7cVXw8fQ4F+cVsO2ZLbrrt57z/wefc9IdHGTWyml/95miee+Z1PnpvOtuP7cvKlYsoKU2y9ZhB5BUQeR3SiVdsku+ebHR49CvXEO3cM/RTlQR4RZaK/cYRt1CyuJXpd7+CaQnCRYA6mxMxDSEqTNv9qhtm93UWJHGwZNFqzjvjHlpX53P/ny5FJZaAbgMMVjWQKF7K1jvCgIqt+P7eV3PvHW+EbocymMCRyWRRolASwxhHNu2Rl1eMc2HZt2S+BsmE6RI5rpeAUl3JV1pAexAEbTS3tKAlyYD+lfzsvGP5cPqTPPPsZLbYejMuveo8Xnr1Lqqq++OkFp1ciEhAtiOP/HgFB+y/G337FjBx4g4sWfk6H86+gV9fsx8DB/XB0oyKz4LYTKqGOibtuyOWdnJkxdxivcbEeOmF2Vx26c1M2ncsx//kSAoLCkl1CCtXtTJ37gqs8QCFi1iiolxYpzTIMGz4QMbvsQOQxddNJOL1xPxGfJUl7jeTiLcTj4f5NOl0ht69S9hu+xFhAh7Smay3Sb6bojqpupGISG6tJmD9QzMXZlx76y4SUaCtMxjncHmCjK9g0C6j6ZVSFM5M8+YNz9JW34JyOlw9PZeTAeEiP+KQzkzSHHFnAwrD+SxbFHDxeQ+xcpnjltt/Sf/qDKLCQjrh6PFwpBlYVcofbj+eH/3gaC755cPstfuvmb9wEU4ZMjZN4BSBjdPcrMkrjjFqm76YwMOLaXr3zUN0GD50TkfKUdBKhwVvu0V3ndHYIMOYsYO4/sZTUF4LvifU1KykaXULr7/2dy791W8569Rfc8N1k3EZhZBi1Ogibr77RE45ezeSBW3EEwHKNRILmlFBChd44ALEpYi7NNY10JrqwEgh1hSG2a0SJslNn/opf7zxEcbtsC0X//pYlF5NMh4j5is+eG8B3590Nddc9jjOFiDOojF4zhFTlm3HDOWHR+xFLJ5CvFAhhhyMABNkMDZLed8+DBo6lJWrDXX1lqJEPptVDSCqDdA5gWyS76ZseF2PaPD3xIH6yuXroxBf1+zqCBx0lGnyjxhN75oG+GwxMjPLO7e+yT6/OgLtGYw1IShnFSHfyUSJil9vOmptyfLGS18yZ9YKLvnNiWw5phxoCm81qlWhVRxcDCFL74os5160H0f8cG9mfvoKgwf1xQQBMT+GNZBJBbS1dFBU6FFamkdrSweeH6NvRRkrl7eGJf5taEI5LSitUJ0l1RxiLcZkyWZTBMbw9JPvc+45V4VmvYV0GlbVrOTT2TH6lhQQZAtZsmQ51UP6ocWAMxgTskI9T1BR+TshhlEOY0DEYoEVK1bwwUdTo9oWBusyiDhM4LN0STN5hcVccvmPSSQsvu9IJuJ4Huyx5w6cf36a666+g5bmDq75/Wl4sdVhLomfZdTWhajYlnw2dzZK2ZBB6jRB1tHR7jDZfBYtbODJv0wha2DmjBVoZdHadMtm3aQlvsvyLWIUuRItCpTDEloIsTwPU91G7Ko9KfvnClpue5lR72RYcNqLVJ87CW+YdCNchVyEiPq45jkRwryFblRkhMJC4fhTt+Ynp97KjA9bGdjrB3gqn4BWOqzFOvjZ2VdywfmgLXh47DFhJPc8fD5DRm0LKot1kMzLQ2lHTW0d77zzIVVVw3AqQzaTxI/HKO/Ti5VLm0IAtnM5O+jkXgo4CVmU6UyW5qY2NhsVcOiPRnLokc8hkuGjf37GFb96kEMO35+Tz5iEc4tRyobZmZJBcOAMECBOk0z6YYn8ztWssmAd1oQVpBfMW0Jjwyp+efHxkfXk0dpsePSBf/L88x/y2z+eQP9qjaUZP2bIz4/jeQEFxW0cf8ZW7HvIddx3x1sM7PtD9tpzO265/SRKKwKctIFuwwVxVre2cOtNr3DP3S/zgx/tQty37DX+FLbaagybDd+K6695irHbbcZJp+6A6HRU7t924RSb5Dsp36KikK58CGuj1O0MWgchcJaniI2rpCo2iSU3vkz+vFqWXP0kA4/bBXYph/yw9F1IyhYcASI2KkCTS6fuudaDI4s1GmwhBUX9OOyI0YzcuoDNtxzMVluOJhYLq3A1NDRw720zeeXlF2hvs+QVBSixaN+nuKgv9fVtvPLie7z77lSOO+UoVtQ18+Irb5FQBt+241uHZz3ERRmVuVwpInfJKIJ0DAIvspSEWZ/M5lcX3ENSV9PekWbatDlMnz6HybfdyXEn7slpZ+2NHwsxAk9FhEqlwhJ6SoeXUEJ+AVQP8lmyRIihEW3ZY48R7Lb7FhEHA5yLM2fObJ584in69h3KsKpinM2ESkgcsTh4sajN1tK3b4LzL96XHXceyjNPvszrb7zIET/aN8r/8BAxeCi004zbeQsuuOg43n/3Az745yzKygsZWF3FAw89hxdXbDV6RAiOdiePbZLvrHx7iiKHK0S1C5xz2KjMmO8URgeYBCS260f1xYfw5RVPUroqw5J736V4+UiKDt4cihRKwsxMFF2FZCIEfV1wrBvWogLEb6CiUjjr5wfSf1AcRwbnmsmtpC5isUEWENKZDHlYHBYtlhEjSvjt739AW2MJnu7N/gfuQzxhOP7EHWlvHIKnwoV1tR9eV6wLQU0rYYEX59HclOZvT3yCtdNYXduEyTiyWUvNqjoIHPsfuCtnn3cQvfvGmfnxPB645zm23KqcvfbePqpApTpzuZQKLRTrwuyR8r5FXHTxoWFkw2ZQnoeWcPHf8CmEs/jW2wzj7vt/E7lHqZCqaWN4OkYs4eNpAy6q1iWGWNyw16ThfG+v0ZFSbsURgpxhUSALykSK2COVSuOcZlB1f7bYuooddhhLMi9BSXFJVOdjk8vx/4P8B0oOR8lZLlyBOuz4Hjqr0AIuL4sbkSB+3GhqegUE7RlWPjuD+Te8DosyYSOj2RnnheUR3Nol1bqXZMuJQ1SAtRmam2q7pTp328MJmWw4sOKxPDztocRDRFHWJ0H10BKeeuoJqgdXsGBeDUce+ksGDdiKCXuPQ2mhtJdmn303Z8KEPSJ6NlgTJlv5nsL3s8ya9RENqxdz4EG7svOu1WgcfcqKOej7e3PJ5Ucy8cChjN6+P4OqehNkHdlMOMA7FaKA8izaD3ke1sRx1kNrIZYIiMUcWvthbUzxonwOP8phUcRiMKCqkEHVBWin8SR87mIcvhU8wmUVQjcuVwMUlN+Ol2wOn5kzKMmixOD5ChXTBEaRScVpbXOkjaN3eR9q6hpYvHQpy5fVM/uTRSirw3M5Qf6VZL9N8l+X/2Bt8igDUwhByv/H3nnHWVWc//89M+f27bssvSlIB7E3FOw1RkVj7xpjiSaWaIpGE401+jOxxBqjJlFji73ECiI2ehOkLOxSlmXr7efM/P6Yc3fvLgvSVPTL83rdF8st58yZ8plnnvJ5jEFlPYTWyALodfhQyq8Yy+KuLlkDqZmr+PLedzFNAuEKpFEI7SCM7GSTaqPDUyb3kkhTgnY1y6pawIRAF4BXhHELcTNh3KyhqbkRoSSxWLjVz2m0IJvRLJi/ilkzlnHM8XswaJjhR8cM4+TjL+WrObUY7dB/hxhX/uZEBgzsbRe1B0Z7GJFk593788Wsv/HF7L/yyls3cOdfz+D0Mw5F+WX6hFEoEUNKgSMUUgYpKClm8LBBSCmRwg/I9lwiEUV5eZgVy5tItDh4BowIYShGe+W4mQrcTBfcdHeWVweZNLGKmqosjogScCTKT2Y3RmK8MJ7nIIkScKKAPd5Y6n3pU8kJtOfYqm/axn3bIGyBCgaJRmMsXlzHM09O4d03q2msV2RSAZYtaMJLpKmvbeFv979C/Zp4a4bsNvl+yzd39BCdJXb5Mf9CQ1DhaY0QGgeNiEh67NSVit8fxYxH30fPbCSyuJ5pt7zJjuMPRg4Ng/J8rgd7RLCOkPyAb4mXI58RHqjVNNbHue+ul3n7jbk0ZOppaU6RSCRYs7qOxpV1rK5NMWTYAKTUeXRygkVfreIvd7xIZdcyDjt8DDJYx48P35NpE77knDNu5La7T2ePfbazcQIiidEaL+ORTaX8cOWMtal4prVtxhMEVZCgE2T2zC959dmZNCdXkUqlmTN7CaFIkNKyUuwubqMjpZKMHDWAX15+Gqf/5B723+enHHrIXhSUSDJZh8aGZhYvXsaiRTXU1KzC9aBvnxgXXbIv55774zzCX9v78+ZV89p/5xIMVOLqDE5AI8jaHd9YbQipbBauET79p4sijXTSiKwkGApQXTOPV9/6O13KCxg2KMjrLz5J3bw1jB84mB6jh/Pkh+/wh5vf5OY7T8OoFSgjcNzQtpPI91S+hRDu9mIAhM3nEMIGBAkDUmgIGMI9o+x25aG4VWmqHp2MmLmSeTOfYkUFhEZ3ZfTJYwnGHExQWoJUKdtsFTYUsVVKyws59vhxaCO48JIzKCiLInAIhRwcIZBGo2UKIxpBpG2AlxDEW5JM/WIaXcoLeeDhW1GhahAeffqVce+D17B6VZLe/UNAHCEtu1Q4ounZM0xLcz1Ga6T0yWJyae82dYvyihL23ns0ixdk6NmrgnC4B0Ipdtt9JyIFLcQKbS9ZSPW9HkZy8KEjWbLqAeprozTWxXDdLFIpwmGHgsIg4YggEnMQKosScaRMIkS8PY8FMGjQ9qijenDPPf9i6vRPOeW0fdC544GQtnqXsRT3Ap+810BZeZSB23dh4eJaTjh+H35y/D4oaTAkMLgsmbuC6a/MRazMslpm+PUvL6YpXcVjjz7F6Wcf5ntvtsn3VUTv3r3XwnhhPKROU1zi8slnf0F0Qte/rjiKznaMDY/I8wl1tcDLulCbofmBL2metgCd0bQEPZZXuESGdGXf0w+DIgcC2iaTCW1rfuS0GKFBBzFuCcg0qBQCr63dfuyB/x/LYC39KCkd8FXvEDKQQqpsW9vsE/kU/p4fUKTQeeUFhMESt7TW+Mgn0AlivEJrZ1EJhMpR7usc8wRKaPwEUOt+NaI1psW21UGYkF+kKQdIXmv4dY4Wr03lbw8WQjtoE/O1shaEyLaSy1iaTGEBnHxtKIzOhjHSoAJJW9tEWq5P4ymEK3FSBTTXZHj+xUn8d9KnnHDmGI49Zhe0jtt7fE1Nj/XJtqjO71Y6Ja4RvoErHNacd/7hiE6Ia9Y1bp2+v8GD7E9uAUpJRCxCbORwCvv1x6trxNQ2UxyXqJokiz+ejdecoqR7V0RQ2cxsgU+vTStiSScDIoVDGkfnbPd2x9bS7vK2HIbNuLQl7xTKyaKJI6VBoGzeBv4iFL7xT2haeTeNoI21MZcz0ZF5ykagSSeDDLggdY5/yoKYTx/vZ2j4P80Fb+V1o/C5P3Ftu4SXd4+O7F4diWw0QmQQwkW21t/IfW78OHTbjZJ84hkFUiOdOELagsVtNYkERnqIgAvREPNrm3nq+feY8ukcKroUMmBgH4SwtqNNlm1A8Z3KVgYUeV/0ae1kKI3sFiY2aiglQwcg6prwapspbDLEv6xl4YdTaKheTUXXSlQshAmAQSO1jd+QPvlsG7uV8Lktc/ezYeN24hubRSq0v8PbAC8hvbw2We+JkNq6LRHWwIoF/B3g+QAAIABJREFUCiM00l9aNoZA0GGZ+z1s4y7sfXK7d34RIJGnFIj23SMAn13L+Fydxl/QJlfnY61oyLb/C2xchg2xF623EH5NlFz8S8cWI9y2yl3twv4NSA8jPVJpyayZ9UyYMIt5X1YhKeWg/fcnHMgiRHrDpkFnsg0ovlP5Fr0eGyvSti7gQUESejcj9wpRfvWh9LnyBDKVMcKuoLI2AO8s55Nrn+OLP79JdmUGoxWen+dgjK3QDbQR2bZjijbIDgwY0tdGcvEWbSKs2zJXOcxmrvmf+cD2taq1Tec22vgFe3SrFrFWDYq8N75e9c6RB3dMqsjXbETrO8JoqyFIYzUq/3sG4xuLbap8jpuitZJZK0VheyJiW4nMoLWLhyYYjlHZpTu1q+uZ9PEMVLDw6x5gm2zFspVpFJ39VrSevVEeRFxUjzAVew2hoKyE+roGVNylKA5meTOffzoN7RpKKysIFNhaHUrY8nCmXd2Q/B3WXzi+2i6F9AO6OstkylssfnmB9g/ZdszIxUG0F9kuWlHkfaW1XI6vJbQeZkT+N/K1i47HCnt8aF+5dG2NRvheEL81a/e5aW/hsEcr/yO5jqI+vlqSySgWLVlDz947MG7sOJbXLOXII/YHXU+sIFe2bxMmxDaN4jsV0btvH2PLg1tptZLrNGXFGT774q8YE0cI5RvnrHydMfObMj61XV9gtERnrZ0gsyZN1WvTkc/OJ+RKXEfjFoUp3XsHuo0bBf2KIJD1z/QaTxrfRtGmZ+SkfTnCziT/rL0pSlmb/SDHF+E/nW/rsJ+1Pzq0SQ4GhNgU42AbiLQHg47f6viZf891tAn/OTIZh9X1msYmRbwpQLzJZcDAUiq7thB04q3X2jjpSNDbXsvbspIb261Y2f4ORPTp08fkp5m3FStOU1609QFF7h5t1/cH1ADNLpkPq5nz1ESiaySxTIhA1iFTIInu3JuKg0fD9sVQYMDRaCeLkWloLZHnB1x9LVBskadgXUCwIZKzP3YOFB29He1/ue7Fvj5pbyTutE3CekxcDa7rkE7EyKQkTiBFQUGaUGjTXaR5FpFOPuloA9pY6dhfnQHS/235XgLFusRg8DxNsEHT+MUKZr0yg2B1gtIWSTgt8RxwK0NU7DKA4t0HwPZlmNI0nsqVEcR3kf6Q5ZsFCltB3PKEeq4km9FI6RAMqk6PsBve6nW0qdO/O35nQybjujW4bfIDAgprXhN4AktppyVutoj0V/XUvT+H1e/NpLRZUZi2FHbpoMHpFqXXMTsR2LkflGhMyMWTtkivMRqt7fN2rO/5/ZZvDiis+SFX1jA/lkNZT4rYdPfo2nfd0OOHPc51es1WO882gPg6+cEABbQt5NwzCONHbXqG5OpmFr81i/qPqwmszFKYcAh7goDxSIVcUqWKboeNpvKAkVCq0Y6HMR6e1mhteTKllD8AsPjmgOKblHVrFF83Hp0DRRtIrP8O28TKDwoo1pZc6DRYpVgiUpCpamLl50up+mAuxVUusSwEDCSdDE1Fhor9h9Pv6H2g2EMHMnjCBw3PIxgKfJcPtAVkU4Hiu5X2Ld4YY+baQLENJDZeftBAYTWK9uqu8AOSpHHQ2TBydRiWtuDOXU79O1+QXF6HDkqawi4t5YZuew9hu4N2xlQG8XQCI7QfdyD8I4lud+21qp1vdfJDAArYcNtDe6DYBhKbJlspUOS7pjbuXNt67BCic6AgP3ZAYS2cDqQFJBz0ghZannyXuq+WgxS0hLMkSwVddhtE/2P2xFQaNBly8Y9aGtoyWOX3ACy+70Cxsa7RNqDYBhKbLt9w9uimysYavQxaegitUFlLPIMELdd2x9ll7WdnahetXISUEJBQALJUUDRgP4LvL6P6qY8pbBFEUx6JV2YxddZCup6+F92G9MINusiAtPVypB++jfbre9gJKI3cKjSrH5Zsmjt0G0hsnmylGsXmSHtim44axfp+lxONRqYNqhYyH9dS++o0zMoESZFlVSyDO7CQgUfsQo/R/TFBD095SGOQRqD9MGhP+NXLt7r5+H3WKDYl0KotYrXj1bbJhssPECg2X4Tw07q1QaQ0Tr3BnbmGxlfn0zRnGS0hQ7xEUbB7bwb9aFdU9wA6oBEGlJYYo/GExkixDSi2kLQ/emzM5OosQGubbKxspUeP716kn++gQ4JMN3C6dqV8WCkFT5ax4tMvia5K0/L2Ij6Zu4yKH49gh/2G4gU8XKmRRqB0jtvzhxQK3JZI316+DfDZ1J0nPxh9G0hsqmzTKDZSjFaQDeLOaab6nvfQS+M4xiB6FNDn2F2QY3pgCjVGZhHG84sYbU2yOYt6XUCxudddn+QyTNoS47bJty9b3TT+XogDzrAC+l1/EMU/GkJ9oYEVzSx76ANq7/4IsVghMmE8qdYZFbhNNlS+yQSwbbKhsjZQ+FrD2gF4m1Nl/IckxvaR8jCVii6n70jvKw5mYbcsaTdL8qPF1PzhBcQbS1DZAFrYtPKO/fn9j/D8tmVbqPV3Kaq0qPj3ue63lJEK7XMkRIIu519wBIgUghz3maaNh0Gs9RIIn2Xp+zaoORKWzqzkbdJabyOnDDsescoQRcN6M7ehGtOUxFmjiS+qwwk6hHqW44X8wkV5x+W1SXG+LVl7zDbmlatU39nIf91vc+xbm/bKb/82+bZFFZW0EdcIrG1BIsBoIiEfKEj7hCNtufqCzuj4yRvHrQko8kFgXe3qOAHX812hWyuNCWFwHUm4NErfHfuR6RZh8YrlBFclSU6voXlpI+U9+iAKbU0TkXer76NWsVkt3uwff//664ci27we65X2IdrtRVsGLAyOEbiOQJSF6L3/EIoGdmPZS9MJvlaNnriI+fNqKD94BGVHDMYUanAsCJn1gOm3w4mxTbbJhkk7r4c0kKv8ZnSWssIkn025B0NTHoUcYBwkLuvHmc1gXN7isiEh4euyuXz9c+T6TBppq3EBqkXifdzEmn9/RHpZPemAS3U3CI/rze7HjrGFy3xuSuGDQsfs161RNid5dJtd9/sr/1ctkltIrM3G1tcES4WvkUJjClzUfiV0/c3RdDt2T2IiQt9lDrEXVzDvwY/Q9S7KVcgOOLQ1g8Q2+b8r24Bii4vPvyk0BDKYvkmCJw2i6zVHUzqoByWNGueNaubc+D/WTFuFcRUSB2ifTLa1HjtsaYBNe22T769sA4rNEsH6utAIjVYaryCF3ClMyc8Ppuy4cRgDBbMaWHLXO8x6ajIyFUCi2oHDNs1im2xNsg0ovlHx7TrSwwtncPtliR7ek+7jd8cNOVSulARf+IpZd71CqjqBRn3XDd5isvVpRL5rv/X1bQHxDyP+4/8OUBhpX6zr9c2KwCBUBt0zQ+iMPvR45CjSFwxnRYkg8EETLdd+hJ68ApmRfu3P75s70JZaFEJhPTqbTqT7zYgAFNYA7/h/wze/iDd0HA1tpSG3vnH/gQKFQeu8Oh2dOC6Mbv+dzZf1DW7efYRBKo9QuUPPwwcz8IL9WNovS03tKqru+YD612ag0sLnof0+gYXAaGVzYXAwWm6FxycJxsl7Kb65/hUIHARB2ABN0RiJMCGEcNgaNZAtChTC2C4xOuVPmG9XWl27xk8V1wbP7Zg9qP1yfhYojF57UITxv6MN69ZA2krqaQFaGHSnKc15Gku+RU+ACkHXUd0ZdckhuENKCNbA6mfmseK5KciU/yAbLDl7yaa+RNs1jCXk0V6uD0Ted9Z19yCSIowXw8tGkCKy1ZERG6PQJkQm65DNKruIzTewVxoJOoh2o7jpQrQbWs+XtY1m9kJ4mSK0G/uGAWzTZJN7SeOgAdc4eLoAkylECEXWTSMII7wuoKOb2CQBxqLxxu1KgqxRNDQpMl6EmdOCjD/mVhoaIkydupKkFyYrJSvrmvndb5/kR4ffhutIXOGAyNJ2fgXtZWhoyLB4WZK0KaZ2TQWfTKvnhVfm8Pg/5/D3x2bwyCNTeen5KmqXhclVNc+135ADD883+0tsBeW2AsBCGAhoygaWssNxO5MoVgRXCZpfXEjVPz9FJgTG5C/ktZ9Xa1hd28KUT5dRU5XGy0RBB5AiiBRhhC7Ay8TQ2QKErkB6PVCmEkEYjUELY0scCIURIZJukHcm1PCX+z9iTSKDRuF5YchWojNdaFwjmDK5gTdeWMb0T5PgFYAJkhWC2UubuOyqZzjjrDupXrHG1ljdKrQKu0EI4TJ39ldccPZfuOzi51hWEwQT8hdm/nc3p80CTZDPpqzghBP/TEXlCdxxx8ugI+sAJRt38/g/nmWXEadwwO438eqLS/EIYcTWo/BvVkvSWcm0yYVcftG/mDl7Ba6OoE133EwfjA5u4lVt/c/6+kb+/vBLJJPJDfqVEALPg+lTmzjy4D9QtcBBu2U0NirmzI3zq6sewtMB0AUsXRTkv8/N5fTzfoQWvlZg8tsryKQDvPzfmew09DJ6lp7I0IHHce7Jt/LZh8vBK6RL6XYYU85ddz3NBRfcivaKWltvrwDCKIyRZNwQn01OceMNj1uVF2idjELhORAZXkG3C3enpTRAsF6QeG0J8x56D9Wo837TXgyAVEz+dAn7jfsjO+70Cy75xYOkTRGJlMuED+Zy8U/v47Sf3MORR97Cvvv9imHDzmDEsJO4845/Yrwi0FGMcXB1jKnTmzj3tHsYf8T1fDrxKxpWxfh/d33EfmOvZtDQ06gsG8+QXhdyxAHXcMapN/L76+5j5ox5CBTGCzHxg3k8+sizIAWB0Dc7yS0Qt71MLg9pLSar/Pc8lKMRSvDsc6/xj8eeR7cbj02j2WvXLiGY9Mlsbrj+7zQ2prnr3p9z0mn7sv6aJoajjh7LvY9eTu+BIV578z2WLFnhK5Rbh2axCSHc/o4oJfV1ccaNO4808PTLE/jHP64j0ST53a9v4eGHLmXn3bpt1GNqgUVdYVhdl+K2W15kcc0XXHvdrxGdHBHyxRiQIkhZaREDB/bk6t/cyBXX3MSaVJzqupVc+buLcVSA5TXLefThZykt7c6PjjwOk25BC4P0FASXYIlyJQZNMBBgp51G8Z9nniISNdTWrWDqjGksqZrH9OnTqa6uo7ExQzAURBvr3pTGUuBpY9BIXF3AxIlVnHbibxi4fTmHHvkJO+8yyvYhgBH2RBKBkj36oIJBlt07kUgdJD9YxZdiIjucNw4dzhXQWbsfDjl8J5Y3PMO7b83l9dffIJXMElSSqqo6Xn75I/ptV8Lu+45k9z32p7JLCUWFUFkZRMhGDFHqV0X5+6NvcvvNjzJ8xACef/H3jBk3CNcTjNypD19VdeX44y5hz113JWBcEK7VwEQKVBxNhlRS0lRvGDSoB0cfuzOlpQXAppcQ3FgxfiKNaNVglH8GzbVBgPAYOKiSQ44YwpTps0kkwPXCODK1ETvmugAlx+MimDNzCbUrWzjz3GP4yal7EiAOJqexdi5l5TF23ztKtx6n8cJzHzFnznz69dsV49ei/a5D+luBQhrainR30h7LLi1RSFxcEi2Cl176kAMO242/PnARjz74AWWVgu0G9GTQ0B0IhYJ4JoEyDp7xkMoDY9CeRknHqt1Co4UAHQSRxdjilQgBCkkkUMjhhx+Km3VRjgBh2aPaq4o5MdSuXsn99z3P3NlLqG9s4uADjyWbFZxx+nXgwo7D+3LZpWfy+D8momSIfr32J+SE0V6W/cfuwKW/2o+ddxkKKIJOlPKKXiTjGWrrqukejhApcBk2vDd9+5ex804uXy1YwZdz76asQiCUwaBsJwqD0A6pRJDXXpvJhRfcRDxpCBUWM2zYsFyPYqe357OFC3QUCvbsyZC+PyHxahXVL7yPmVBDVWQCfU7dCx2mHVj4OZlIXBzVwJGHdOeIg8/GiGaMzHD8yTtz/Mm7+RNMYjOAXYR/xPI0GDzmzJlCzZKlvPb6A4zYuQjlJBEqQzAIY8f1Z9zYS8B4CBb6RyZ8QPdaJ/DMGfN488132WOfgfzo2L0RsgmtDcIEbZfIdN4EkxYgjQFpE+uMtsTEQgRpLTRkFDlmc9AdGNYFWks/mMvOGYTAmKytTG9U2zr2+8wYhUBx/EnjqK0zfPC/r5g5bQk77lJAW0Fb3boIbHlEv7eFsXMWbT1SRtJW1z2/sLFi9eoMtasbcb2stXWJ7HqcGTlgs6MZCQdZvKAe4WQwh2kUAf93Xrvn/7bFacdu5d/fw0MY1/aX0QgpMFogpLTGLaNIpJv4aOpnnHvWqXQri3P5NfujRAzX9XjsX5cSMg0IFcdogTKFaNIIqUEmwUi0EUiVQWqF9kpA1ft3BuM5xDPleE4Bw4cegFANgOuf8fIqj7dOJgBBJFDK7ruOZ9ddFEY1MunjRbz59vs89OAtDBvWi6VLZnHf3f9hxNC+PP7UH1GhFDdf+wzNTbU8+s+rUME4gowt7q4UsYIg8+bO54Cxx5JMN1JQGGLQ0L70G9iVnj16UVzYk1NOP4mKrg4eEoxGSIkUhnRW8MZrX3HRBTeSdRWxSICyEodQKAx4CDwfWGyP2+MPNvy7R4DoUQPoYQxLX3yP7PvLaIhMofjo4egCwbrmiT1FZTEiizEBjPSNtZ5EYhBCo9G4GBLJJNqD0uIQe+87mH3GjEALDcSZPX0Rd9/7L7p0KefGG85HidxuqfGEXXBG20WhRRYhYOWqOtasXEHvcd2RusUOjSsxJoNywDMOHgF/wXkII6wvwNizgzIag0B7BqSLkNq3z3hobb1UCA9BCETAz9wFIzxb01QoDAYpNEIH0VphcEHmwMaxoIxGe4ZgUNMUr2XJimpGyiFII8nX1oSwTl6rqFgtwh5vFEI7lnNd+Gzu+fqIDuBmAuhMCMc4BI1BIlvHuJNRa/vXSFyRISmyaC+E0EGM9JDtXOX5Gs23Jw600drlvAbCGH/Xsbu+ESCFQGrbmZI0nmuoWZZk2C69yJJGygzGpMlmAixeWMWIQd0REmpXNfDTs65k5K7DOPOMc/jJ8T9nxNBu/OW+m4hEQUgPo5pZvryRq355O9OmNtG1ezFnnnMJnhDgOBgitvCt1ngi609cDwsYucpdgqISxaE/7kPVQrjhhud55dUJGAMnn/QzLr7wZHYaNYr/vT2Z48cfTq++QWbOqOHjyZ/zx5vPwQml8HSanBfAM4LhIwby2dTnyaQcMp5LKpWmds0yGhJLWF5Ty/yvplFTvZrVq5fz4P0PcdoZB3DWOYeiMXzx+Sx+9tPbGbXzSM457xSu+dVtDBjU3+9svRZZrE0/t5MPk0F0cYkd1JO+LXuz4u0PSX5UTcHQPqhRpbjKQ+ZVJzEGtO+pEMpQvayORx56hRef/4RUAuIpSGfB8yCbAc/Yp9xhcBG/vGp/Thx/BML3Bk2cNIXf/+bv9Ow1kptvv4iMAEwWz9VAiHgcaleuYfXqJupWr6Rr1wJ23WM0WQ+CQUV5WQyFQaL47IslfDG5hv3G7smn0yZx7z2Ps/OuO3Pxz09nuwFFSBnH6ACuF2FJVT0vvfQGU6bOYtx++3L8cQcSi7kI4fH0v9/ns0+/5OLLTqSoqAAnqIlGFRMmTOLTT2Zy4MEHMmxEX4TUaANuFl54ZgL3/fVphISjj92XE08+mO6VhQhh4z0cBU2NcWpXNwE5LSaX9IgPuBlfc3DQRlgbl3EsGK3FBWkXcDrTQjodRyqN47g+HcMGuuGFQNpofjIZjetCMOBgWu0s+drHtysbbKOwiK7xXMmqFVmmzqpl0VfN3H/f0wzcroRjThhLIBDmow8W8stL7uXjT26msCRIMhli4sQ4sxbM4ZGHL2HXXXbh809mM27M1Uz45A6kSrNw+SrGH3UNi76UdOsZYUX1Gn52wW/pv10PDC6ppOH1l2Zy9eV3cvzJ/bnpT9eCituBzR8vIVi4uIrTTv0d5SX9eepfT3DDH//AHbffwEknnsnIYX3o2TvC9gN6I1UQMEQLggwfXUFGN6O1R0uTxyeT5nPmSfdihKS0NEQoHCUUDCGEQoUMZRVBKiq7U1HWi113GkY0JtGeRtIMKAyaXXYbxbwFb0Mgy+TJXxIMSSq6RPm6SWMBQ2McD9EjRHZ0GYn3FYGFTdS9MJPK7feDIt2qKifiiokTZ3Hf/c8wY8YyDjx4F3519dkURrvTt+dwdtlpf5YsraFm5RLuuPtaevWswAlkkDgY4qhgDYgs2hNM/HAWv/vNv+jZfU9uue0KJkz4H1decTtNDZBJ+iCjQUpwAhBUiv49u3HeRXGKSwsIhcKUlBZbw7IOMXd+Cy/9dyFTvzC8/f4r9O41mHdfr6Ju+bPceMtp9OmnWDBvDXff9RaPP/kOkViIaEzx8kuP8+rrX3LTjSeyfb8SGpsUzz03lzfeupFlS9cQicFRx+xJRUl3Hvnb57z4zHKu/PWRHHzUcISUPPDQG/z+6heorCyhorKA++77mEcfe4/LLzucs848xD8yuWQymkzaYDyJ1oE2Tc0YNA6esGOppEKqAK/+9wPuvO05DjpgLJf98seEo9pqyYBA4XmG/701gXff/Zhddx/FLrsPBpFhY7woFcXFlBQV8vkXC5gxdTg77tgf5bjtbS3fgWykMdPQ1JDmwnPvZcKkr2jSmvv+37uUFUTo0jXKvvvuRyZdStYUEA5UArUIoQgqzeq6BAcfsisPPPAHJrw1h/Mv+AW33PIXrv7thaSau7NscZQzzjiSG2+/hJa6Ffzq6geZNn0GCLub1dcmySY1VUtT9ijUSdsWflXDuafdhRKV/PX+62iscxDSY9DQCmbM+S/KSFatXMrdf/4Ps2fP4NjjxxGNOvToVYyQLQRUhJKSKHuP6ckXU8cTCAWZMWMKLfE48+d/xZr6eloSjTS0LKe+YQXV1dWUlBdwwAE7c+55xyJEC4KsZfB2koRLFqEpAgROUFNU3s4nwtftEF4oQ2CIoHTcEBJvziG8oI7Em18SO3oQOpgFBIsXruKRB1+ldkWEo488DU83Ulbai8uuPIGfXap46flpPPr3tzj91EPZYfsk6fQC0i0JiovCSOliyOAJePedaVx60f00NBawz7gyyiszdCntwZGHnURpSZTtt+9Ft+69mTR5Ohk3xVXXXEhQNeHoZjRxnn/+PRwnQDgSAQRCBigsrmBB1SJqaldw/Y0Xcez4Mfzz8df47dV/4cGHHK6//izee2c6Lzw/kbPPPZIrrjqfwqIQj/zjBW68+X4eeKCMP/3xHBCSlSub2W27kVzy8wv5/LM5PPH3Zzn3nFO48/9dx41/vI0P31/IwYeNwdVp0vEwPznxSK698SRKyoIsXehy15+fZMGCOFpb7S0ajaAch1QixYzps3jvrUk01CV9l67GMx5NiQSe1hx5xKEcdPju9Nu+P/37DubuO1/ivXcncekvjuLgQ/ckGBAgJC88/yY33/giRnfn6KPHMnhIbzD1+FbWr11bYJAyS7++FTz/7GR+dfVfuOaaExl3wK4IpK/lfzeycUBhFCWlQZ568VdU1aQ59aw/8/D9N9OntyYaaiDpBdBGo0mR06GE0ISiEI4W85trzyUaqWLgsBiZdJY3X1/EpVcIFi2I062yhJtuPJloaD7h7lnO/ekRXHLRDISRFMYCnHnOXpx51v7ISAOGdKdBKX379ua/rzxBKrOGWGGI6VOnUlaRgdAigrEEaIFsWkNzci7zPo5w0k+245DD9gETQIoQRmuETBAtTpH2lvHEI+/x5z+9zuDhfRg2ageC4QI+/2IRd/y/6ykrKyWVyDLhw895/tmnOevcQ3FEGsdkAYM0hoBQZA0oBEFHUFpc7GsCG9DVAGjCXSLE9u1J7YzFUJNi1YxlbHfgYKRjTaHDhvXlyX/fhEuQqVOW8OG709BuBolm8qTP+NPNf2Pf/Xfn6mtPxTO1vPLyNB566L/ccsfxjBreF2Mc3npzDpdddD8624UBA3qwpq4BIeLstmshu+18EEIGMEKRyRRQX9eL6VNnENILUKwBLZECTNYlm/Vwsx6YIKAJBFyC4SC77jGU48fvgXKW0rUyRZduhTQ3aqQIcdBBezJy5AgGjagkHDHU19URlgH6VfYj1WTIpj20pwkXwp5jKjn9jNFks42ofwsCoQb2P7QH8xbsy6RJi5n88Xxq6+bz3gdvcdRRR1JarpGihUBIE3AcXDeAJgQiSRaDJ2zhpsb6CO++U8/sWV/SpbKC0rJiogVhNAUsq1pJ1y6N7LtfiGGDe3Hfg7/i+Wemc/ddj3HOWY8yYtRrXHLpUYw7YB+mz/SYPjfN+OOHMGJ0X2QgaW0ppuPGsK5B1zhCMGr4IPptN4fJEybzxuuzGTy0Dz26lwP5TPi56307cSobDBRCCiCDkBBwBOFwgky2jljxGkJhgTQS4YGbdXGAQCCMEAohDYGAov8OXdlhh3IUtQRCDuVlxTTWQzwRZ9bcTxg0uAeRiAKTRrsa4Vm6OWUchGwiGNag03gC2gh02ju1pMpSXNZMNF3O5A9WceXFf2PH3XrxzGNzOPDAfejV16VnjwIu/PkpHH3IH7j8F7/j1fd+BSKJ0dYzYAwYbS3fpaVdSKQyzJi1gIXLFgKK5haPn55/IWVlJRQUFNPS5CIVCO2iTMY3eOU6zWCyHqlECkcKwqEga2sSNrcDkU93LxDStz3gER1ZQMl5g1lx56f0n9tC/JUviR43CCJJoBkhkqALWV3bwpzZCwkEJfPmLuHJxz5k5KjduPfhKwioVUgTo7JbH+rjAe68+30euP8SHJmlMKo455yDGTfuAO6//z90qYihhEGhEU4GTRKERDkGIVNk02mMJ3yPh83vUI4ik0mxpq7RejQQeBr2HLMzZ511KMKpBy2IFYYpKw9jcHFNkhXL67ntT0/x8WeT6NYrzMGHjmHAwKEUFEVwvQgQRUgoKQ7TvWsMRxoCylBcqigqTVFSLCgpLWFl7RqW16ympVky7YtVfPbRo1x9xcMYoLgITjx5by7+xfGgMgBZHBiMAAAgAElEQVSkM2k8YwiFogwfMYTf33gNzU1pspkMqVSCeLKJlatWUFhQwJh9d7L2NAxOoIEjjh1KUenl3H3nv/h48sdccvGD/PLKpVz16/GM2Wcgt938H84+9XquuuZ4jh0/FEjSPvp1HWsMaGjWPP3Mu3SrEEycdAODh1YgpUaQ4bvMuNgIjSIXvAIYgxEeRuMXuwmAcjFo3EwG/MhKjGpdzCoQAATGBLBRchIpQckARQVR6urq0L7RtKEhwT8ef9a611TSXs8LYXQYQ6qDIalNHWtqyPDYI+/xh2sfwkiHgnKP4opKJk56n8cee5Z/P/1HuveELl1KOPa4scyYUmU7QYZ896yNJFRSUhArpLy8lNGjR/LsC48jQ4aPJn3O1VfdwFVXn09LSwuNjc1MmjiFxqY6EO1dtjbgCrLZLM3NLdalD3b3NR2+KULWWCsyaweBC0BJiCiaQ0nitQ7x+avo545E4PcNkEy5rKhpoTmRIFLgUN/YwKLFVQwYvCuIAMlEKXNnrOafT77NnLmLKCsNUl1TS9/epey15xD23HMYs2cuIxT0x0lL3/QvcoYTQJDJZIi3tPjnefuZ9WYKkvEkdXV1rSH0wkAwYIhGJBgPIwyOkgQDDsKEWfJVM//4x0tU1y7iz/eez4/Hj0GpANOmLeaVVxXWJSiQKJRPCCSltC/f1yCEIEfsawggpGLEyD787GdnMPbAPXFNM7GI9fqgM0ACELiuhyM1kajDBx+8wx9v/Dfz5jcgJUSiUFQo8FxBvFlz1lnH8etfn0BhLMqMqTXcdstjvPraJMoqJedcsDfnnXcUOwysRBgYu+9wPpowl0cf+R/1dUnQMYRs83i0eRlz8Qhtq8sgSKQ1Gc9jx1H9GTKoJ1Kk8tywHYPJOpPOvrv5shFAIXyVEjAGx4vjJEEZD+NkESKAMhB2JApjiwYh0W6EliZJzI3iGINUrg1K0gZlJLFQEf3692XV6gxLFkbo3msEX86fxXPPfUzPnt1tEzVULVLc+qcH+PHJA9j/gN3ozChYVBLm7J/uTffuBdxxx6Ncec3FHHb0LsyZvYxfXHwLxSUFeKymsbGFTz+eQ1B1JRF3KCrx0VpojJAYsggnTaRAMmXadAYMGEUgIgmGg6CDvPve25SURqko78LYsSOJxlIo7fiA36YxCGPA9cimM2QSKWqrV7QbP2MEn3++hJv+8G/GjNmNy67YL/dJexIbKSjpUkLvYdtj3qslHAeSLrqQVhdxzcJG3nx/MmkBLQlJUXEZPXuX8spzb/Ph25NoammmqSVL3z6VHDZ2FF8tmM/dN/+bW++8CBGw7lpECkMSz/N8IJBgIlgPk2X4THkuCTeNcZR1SWrf+6Q80qksq1dmrXamBK52wdU4UuYo3ttCFYBENkky3UwynqGxzkPoUhYvruWJhz/kgzdnMP64XiRTaTwj/PalMSKBIktQS5SRoB2MsNm2Qrhsv30pgYBmwvtT2XPv0RQURVm+NMETj75KrCDNpb88BCM02USIonA53bpWcsihg/nREXsglIOSDlpbTU4LTa70kJJJnnziRW7+4/OEgkF+d904Tjzxx/TsVQwiBaQAgXYETkiAlHhuAGOCeCbMzBlreO65yQweVsmPjhlN0Anw3FNTqF6W5sjjdmS7fhJHZC3JvQbl2FcbSMOGu0W3PFhsMrmuEFBalKVq6Wy69RiMUCADmoouCgfjW4MtMATCmpKKRqRqso03KaRMEgmHCIU8th9QDKKaPfc8iPIuAbQJctihBzN/3jwEhtq6Om778xM89fQXzKuazX5jd0F1EnMl8CiIZthp5150qYQPP/6APtsN5Nrf3cYx43cnGG0kEXf55KMlNDcoTjl9Ty7/+Z+556FfEgplsdF8GiGCKBlixx0Lef2tOygu7UqsoB+fT5nBrX+6myuu+DktzU0sX17DooULSSVdbB5HAPCsv9+P3wmFHbp0KSAc9fB0ot1G4mlD7aoW3nn7K4wXygOK/H62gx6KhCmsKCXBKpQrIJUrV2hzMebOXc4br7xFaVkB117zKL/53Zncevt1VP9iMclknGi0gJ69SikvLwbj8ObrHzFh4vtoEbfV3LXd01xXk075fdEJb4PW4LrCVoz354E2hu2268NOu4wm3mIQIoQQhnQyTkvzKpRyQVg3tjZptImjHJdhw7pzwon7MWfOYn7/+4e56caHCTgOkgCxcBAhXJTyCAYV3bqX0LtXJYgswWiCssoMsQJDS0szjQ2NKKVwHIe99h7O3Dl7ccO1T/H0U29TUBQikYgTDhsuuugoBAbPBEhlAlR260Hf/r0QToZgwMUYDSaLlCDRNnArbxzGjz+EMfvsQSgcpmv3IqRMg2nMRWRhg9oM0ZghWgBCZUEk0RreevNDHrj3Pxx+1O6M3qkr/fr3Z9asr3jw/udwQqdy4UWH4JoEBkOsQBKJ5vp+U48bWxYsRO/evU3HOAoPF+GlKS92+fSLu0Emkah2ZQRTiRSffjqVocMGUd6lEBcPZQxCF6J1EJw0CI9MUvDl3JUMGdYfFVqD8QK0NAr+9/Ykdhw9hL7blYPUGC9Kc4Ng6ZJaBg0rZfXqJu6791F+f+M5YEJkU4ralbV0794NobL+8SMv+AoAB7xCkokIr78+jdPO+h0qoNhtr1689MrNBAiycG4zZ51yLcFglDvv/i2nnXoZ115/OseeOAgppV+cWDDtiyWccsINNNQKYkUhem5XQjKtWbW8hX32255IJEIgoJBS0q9vT84558cUFbkokUJigUIL/6hlQmBAyhRCuK1nDw3UrcnyxN+n8f67k3ju5UtzCupaA+w2Zmh4eTFNj0+neFB/uly+L7pPAkyY+Qs0d9z1KrUrF3L6WQdyw3X3QLaCc889iSOP3pmKrmGE8FCBrAVw7WB0EEMSx2lCChs1O2tWFXfc+jLBUC/uvvc8gmolGOW3xiGri3jyX5/xwf8+4+FHLkWKFTbTVkBzS4hHH/qUjyZ+xO1/Po1efYpIplyyGUNhUQBkGmMkdaubmDW9mlikkF127wXasUFUjn980JoVy1fx0gvvI2WA0846hvqGWpKpZnr3rkRJwIQw2kGqNJgMb739BStWZvnJCfsTcJK4Jkhjc5o5c5bQ3NTCsOHb0617GcqkCSjNlOk13HLzq3Tv2pfrrz+BguJGG5CWMzoaqxXmxy8I4Ydd+Tu8wIDx2oEERmJwuP9vL/PQA+/y0/NP5Nxz90HIOJ5xWL0mjnI0pSVhhHFYtSIJFNClawghWjBSsGqV5vHHX2G7voUcP35fIN94uUFLusN3t4zBc5M1imgkwpgxu6KNAFyUsXEWqBQCFyPsuSwYDjJsRG+E0+w32yNW5HD0cXsDng2AIYtQLRSXORSXloBw6datgGuvuxBBAmPSBMOCnr1LfG6J3AC2P364Gc2Xs6p55ME3+c+zb1FQrOhSUcyC2Wu46pJ/MWxoF2ZPraOpKc11159N7z4FXPjTk7jtTw9SUnk4Bx54INIIjIiy44gxTJ82iWxGks62UFvfzOTPpnLf3f/gp+efTzqVIJ6Ik0wkSLak+M+/JnPggcPp199rpR8QGAsMwiU3YL4C3hoHkUolaGquo7DIWe9UsCnz2TawNhIhFE2NGd54/QveeO9VLrt4Hw46dHuGj/4tTz0+kVtuuY1rf2uoqChl2OgRjBg1kKByqFpQw0eTPmD/QwZw8+3nEgzY5glhI3DTcRuCjlIIwnhZRXV1A2saG3GEwXF8rJN2RAWCcEARiwZY8OVXvP/eBE45/VDCIUk4IJDaxWAwQlNeXsSY/bogjUCStNqXTiEyEmEUCI8eXaOce8FRSEIYXLp2KQYRRBjta2MJ39hjF8VBB+yOh0CKuLVnoCktCrPXHkNBpfz+sgBuEMybvZC5s2cxYvBAYlEnZ2ShdUEJ/Af0X354uMh9aOyx0tDB8yYso3pRURCpXOLNGml6IE09iCa6VESQZO2cwNCtWxBtUiATCOmgdTHz5y0AT9CzR6U9g2x2uPaW0Sw2WaOwf0v7XelaQ6Rfvdto5YcDW5QVUmCMHzTSmjadfy2NEGqtxBfPgCALRlm7mjEI4aBbf9+hWrgJ0FQbZcL7Uxm96ygqe2uE8Ii3pFi6ZDU1S5Pc+qeHOPOcYzjptAOsHcAzzJo5n19c/gdOOnUcZ597HCtqmnnqiRkMGDCAktJiYrEwsViQYFgglYejHAJBh0DAIRgIoKRNYdZeimjURcgW25zcOT8P1e1Et0BhEMRbPNasDtOjRwVOqNa3Tay9CyRWNLPy3zORry8nOrQfXS8fi+nVgtYBGtbAmvom+vYrREkPhI3URBeAiZBMuFRXNVGzLENzSzMFhQ7bD6qgRy8HFWhu3YNa4imef+ZDpk1Zwa13XIx06hBC4WYKef/tJdx0w/3ECmNccfXZ7D2uB8JpQnj2mTSSZdWCRx6YQEtqHjfdfiYY4yvj2t8QBPZ4pxDG+CUf8PMp/LKLwmAnpGzd2a2L0b4nclbinBUVgzZYGwXG9z6L1nSE9nlLGqEDPHDPOyycn+bKa06irLIZIbNIkdMo/PFBr4cORCCsDpL3/TaPldZB3np9Jnfc9jxTpiziV7/+Mb+86jAwFkhsKLrMAwHB7X96gbtve51ALMrV153CmWePwZHxNnDq1JC5rpDwzt7fPM1is4BCa4GRHkK67S5qtM1kyCX0tF1ft/7Wv4r/b14FMiGsUVEbPARKa981C3Yvbm+csKCR5y7VIAjZ68iEJZMxQcBBu4COIAMabRoR0npfMCFcNwwihXIy1sniWneW9HdN8BDSIKVs9Y4YY6eKlDapCW2Qsn2dUTv3cjZtaHPp2twBbSTg2IDs1ui7tQc1Xt3I8sdnEHhvFZGRfeh2xVh0ZQsGgTYOUigkWaxHKvdbafMyhA1DNga0Z1e2EB7ILEIYf9pb9ietQ3huGOVkkMrXAk0Q7UVxM2E8N0AwnEQG60FkbNatr6S7hGy6vkgglQ1/lrnxER45m4oNi9ZI0xZtqFvndvtFkPOe5LKHhfDXVw4rcslleZIPEvnXzYGNm45gdAgnmEbKtAUi8HNLcm1YH69mZ4sxN2YST9t+xyshmy1ABZsJBOoRuYSzTsbXy0bRmXKMiiFCdSi12k+A3DJHh7VlfWCztmxWpTAphc/nIJEG3NYBavMBCu2r27nEllatAtb2XLRXtQTkgQTYjD7t/2knoND2ukJapDbSHmXsarXTVEhrkZYBg9EpMAIlrH3DNiWJI9N2sRu7Xzgqv202Wk8Ygc2i9JvpN00av9s7gETrc+Q4MNt9Zi8g8wsrtfvM3jcn2ZRLvC5BGQICAsK5hWRQwkPlFp1/ltZo7NEu117rylQyB1D26CPbzRcbcOYEEhasjW5VyYVK4kQkjhfwkd4g8uJYbDvSSNJWg0C0XTNnFMxpU0YjsB6FtqcU+Q1p63k/fbO1RwxtO71p+3X7/l67J1u1GTycUBK01VRMzs5lOhuHTRGNlP62oOoJBZp8z4mPbJ3u7BoViKOcDJ5wQLiIdjSN6wKl3GebcjzpOMfWfw0H8lHXSmvK+YaKkWDAMeDmdmAjEVq3Hv+EssvWyDYNwbTeuE2jaLNB5P5d1wO0fSdf47Dpz7nf+eqrsIsGkQYi/rbk+dqrbavRLlLnNIz2d7Jv2Z3Xegc07bNu/Xu1/n/dXSUM6HYnr68fdGMMbtol1ZBCIZGOAcdr/bns6I8XFuxajzHCtAGwwWo+rf2TI8O1WlO7Vdn6AxDGZl/alGkBWvqaSt7Oq7XdC/AXt8gfl9ab5zq03TOvlWO1BcUYgxQ5EPeNpngYPKtRrXVv42td+eeXzsel4++MyCsU6c89489LQQ548+6TB05GZjDC2qFUhyNUe9lUcMjdM3eN/H/XL51mj2qxNh2oTQpb90U1DlJrHNeidKrFsOidz1nwnylsVzSY4dcfhqlMo00QqW2BHJ3fZpO/0Ky2IHMLfz3STuMAu9BbB8NgclR0YD0QIg+EjET5wGSjI+1xQxAA2UY0Ync16fdpJ6pu/jrssMgEpp0q3P7zjs+WA432z6S1xo2nUGsSxIIlRLqWtptwup1tx7S1OXcPI/xd2NeM8tV80f7YuJb46detrNq+KiV8TaMDDai1SeRAoh0Y5P+d0yQ2zPVn6AiuGyc5jwW+rcP+7dkgrLZVndcu/xBhcsFcG3QX7LGKtdaeNWp3pknktJy2z3Jr0ROdLeEtrUnkGvv113FAr61R0BnKrl+k0bjKknnoWs38v7+JnlzD4OYghZ4GYn4vZNrdqX3nrcNIuV7poC4K/zqm7czffmG3P1K0Tm+pQee4HrL+6vczA3PnDAM5b0PuM71eTshcuM7GSlu77D0NyhOEXQmxIMGexXTcgrVpW7Tth96CQ2uLvrYMQJ52shZ9edska0+ikv93viaxrmtvXJ8INlLD/Zqr2bt39mx++32AF5iN4zcmv60d+7kzoGh/b2votEfCzgFqczSJzbvWFqxmLpFpBTMkjX98g+JEE4WJcrxghkzGg0+q4cAYXsj61Dd04DetFJ3Om9M5wBG+9uHZc2nr+5b1CCTkQm2FSxsrUm7RKtsYmePBsM+cvya0bxMB7M61ybM7px4LPKOoX1DL4sc/pkdSkt4hhtq1L8Yxa/9iHbez7GQb2pa8U73vidqY36z/O1tqkm9J6axdVvXbPGxaHzCsuy1i0yb8Ny5bLsvE1Xgz6pl37ROE1yQpSsRojkjikRgyC9UL54GJgtRonE1FgA2U3NlbIJVEKoWUDogMtkiN8T0eCgjgGYXna1b2ZU1tlrRVWROMymKcDEYajFT+M6i2+wmFpwTpnMq9mTTwBks9KOIuzvxGYjUZnJIAzohCTHkWIzeMdDgnm0qftq7fbU00/Nvkm5ctolFoA7LBID9YTFlcEnA1y7qFCO03kJrps+i3Iou7qhmylggE7WBkdguqk21ig3YkQvm7ss4dLQxQ4B8VBBgPKQCtEMLxeTvTWNJYDxvlGaX98UiBdkBmwHhotH/OlcRbBHMXrkFIw07DysA/vm0KHubvRcmVjaz+aD6FiSAMLqZijx3QgbUriHyT0lEj+fojxjb5ocmmA4Vfok8rEFmDuyxN9eufUuEW01KoiO7Tm65HDKG2dgmpqgZknQNJF4rAeFYt902MW+pZ7LWMQXseRgTwvBhSOggclIiQTjksX1lL/ZoGamvrqF3VSEtDhmSqHiMyjNyxN/vuPxykobpqDU8/MYlevQaxqGous2ZUMW/eAioryzj9nMM44cRDQDZZkEQyY/oiTj39To45dj92uuXY1ufKeSE21qovAJmRsCxDenYdKhrF7FAGfUsxJNuSOr9l2QYO/zdlvUBhfdbGqgzGtFvSNnTbwzHm/7N33uFxVFf//9w7M1ukVW+WbMu2XAFjbIwNhIDp1YQSwguEFjqEHxAIIS8tdAxJICGUACEkkNAhlIAhmF5CtXEBGxfcLVu9bp259/fHnV2tZMkFm2Dy6vs8+2gl7c7emZ177rnnfM/34KUEYoWLlYhQmwOraiR7n7QbSRHFKsklZjVT0OZB3I/wCt/tXy9YtoV5bC2IR0O8/dpybrrhj8RiSTrjCdraOohFNUnPBO1NeTtYjnkubbAl7DCuhu/vPxYpLRoaY/z21udRnmDAoByOPX4KF/zsFGZ9Np8br30KITVHH7sX0lcP15YgGJBYlpOVcsQPZnooITfPWCiJbIXA8jiRhI0cV8LQIyaj7DRHZPOxJZN88+Ic/fhvw9f2KGTag08K1Mp2Fj01nWIRwCuQjP6fnYiXtOEkkgzavozaN+ZjJwKwsg4xLAzS1NJ2c8vF5mQ6+oCAYNjiwIOncNAhU0kFv8JTsPDLKBecM425c7+gpLSYs889hj333onC/Dyqh9qgE0iJYehJF+VZJOIOO+w0mr8+dAtOZDlzPp9HcWWYHfQIlEzSEmtm5qw1XHT2rzj62D35/j57YgUkjhMGETB1BRqUsH0DsZmTTGnaFq1m5bNvMKBiICUHTkKXgZYJn+sh6WJy/mfQ703838XXnJnCD/gp3OYkix59h0hdDMsTeAFNMMdkA7RjUzhkAImgQLrQsbrORJMzK2LP6s+ev2/+uBAuOKtRznyU1UxbeyOvv/YaeYU5PPfiYyAdOmNB7r3nKc4682o0UWQghZBJEC5aa1KpOM3Na5EScnIktevqmHbzk7z5+kwQNkpYIIOkUhZgEY4E8VQKJcGT6TRlmvGHbzC6k2s2dA5CC5K1rbS/vYi8ziDJilz0+AGoYNzPsnSlbvvRj/8Evqah8Fl8SUjNakDPqSNHOVgKtPZoaGk0xBtLo8IWyVwH5Xq0rq43zW4gK8Ow/mPLziiFsNvRdpT6uk7+8PsXePzRd7n3T9dh5y1FBmBITSlXXn8mu+8xkR8fdx1trcmsz1WZM5TCJpKfj/ZApYLk5JTjopCWQzCUa+pIsvPyyih0GbUqD6QwrQX8eorsFbm3Zi7pmgbZqkl+2kLdB4sJDiyh8qCdIBzPuvYbqkPoRz+2Pr62r6+FRCqN3ZSkNJ6DFjZJRxP0q6qlNlqQKihwCxyUEritsW94n6sBF62hYV2UO255iSf//m8uuOhICsubcb0onqdxVYKyAZITTtyVOR/HOeKQG1m9eh1pXUPXSxGLRU3vGBSplCDabhHJC4DswLIsIpGwIaZZEsu2TP2EFAgrm1shoBtr0lzu7GuglPILzPx4hgctyxpY8s9PyUsGSVRF0OMH4gX7PYh+fHvYgqCAQgWCBA4YScWNR1B08UG05yWRboqm1W1YqVwCKoC0BBQ5JIVENscR2pBWxVbPjWqzimuHhlrBn+96g+ef/JCfXXI4R/7PaIRsA0ww07IslPYYOXogz02/jUiwmF13uJpjjr6G+vp1WEhCTgALDZ4k2VlIOBRkzJgKkgmFxKagoBCNRGsHSzgEpYWtBY6S4AoSOkgy5Zi0qxdEeyFQQWQqiOWGsHQYlOPHRvyiIS+AXuUgXqqnZKWLLs3BGlcMuVGwelTofocCi0KI/vjGdxxfO5jpCYkX8AgXOJBXjCpopdOKU9gm6VxQmyEcCamRkQCeFcVLt7bT+GXoWxMCtEVnu2b6C/N54N7pHHfqbpx62v5I2nEBW9gmBpFMIoVEiCTDRjk8/MTl/OOJD3nrrZfIzy1CyATaBc8VeK5HU30zeTkhBg8azOdf1BIMOgwoK6O92TXxRO3hKYUjBKmGdt7720vE61sIhULkBBy0C8KSpj+YEOBY5OTnUVicT6Q8QiAYQls2qViMxHsraPhgLrZjIUaWULXvWJTjrmdYvysT77syzn5sGLbswSBUQpHpsI3oRkvOzkvYSmHhknQ8bKGwKnIYe+whrPzr6wxriEDcgQgE8wPseeZU2o+JURBwTMYjXdW71aEJ58GPThrHAYfdSUNdLoftewVjx+7A3DlzWb6ykYamDi459xb+93yJRFFZlc/p507lzHOO5PRzd8aSSZIxSSAQRGpoaergiy8WUDWoCOUmsMmjICdEzaDBzG1ahm3ZmUIrIcHtSBJ/I05li8JJtWMp7ZeS+xUcQqDQWGodroIGy6eQa4mjQIkUncUa9h7A5BP2xoskfdGX7x76jcR/D+z1g4d+f1FhCqQsLKOzoARW+obPKpiyBKBTCCuIHlCAsgUBV0HChQgIKRARQSQ31/ANcP3U6oZ2PZs7MbrqOZAeTgjKKkOsXZNk9pylrKtfzeDBJfzw2BHst/cR7DB2DFYoRmtrijv/8C+efOIDTjz5QOxAyhCoHJvi8iBt0QSvvDWH5156nVOPPwqVclm1fBmWUNhWEguJ8kJ4rmnc66IoHlPM/qceSMPaBlZ9sQyZUJnqRU8rPNclFosRj8YgmiTYobCSmoBSJKwUuixE9aRxDJs0Bh1JfgNbtH70Y/Nh9yQBpQ2HzvpdZj/XRutBC2UyGELhCYm0U+iKANGgIpByYWUMSjSe35tRK4HnH2vjmY0s1aqNoneDo0niyXaGD6/miWdvYPBQB+HF8ZSLoh2pbSSS8vI8PK1BpjUazJmXlAfZb2olCdVBOFzGoYf+gNaWFuKpxey8WxhNK0K5CJ0glug0mVkEwpF4pYLSkkLKx+5oqjq7xRP8AKeUhl7u2iCk8UrQSMvUoWiZ2oKism0D36U4Sj82jC2u9RAaX9BEYJU6VIweSvSLVfDeFzBuO7BMf4SMuIvW62lIfDMQJusiPTzZStIL+gLA6fSii9IJOjujeJhshdam54hEMmRYNaeefjS33/YiBYUBmlpquf13f+CPf7oNabVh2W0EIg3UjBGMGT0EtMJLahIJhWsrtAJHm/4Y6frEjF4mAB7aESjH9ZsDGQ9O+AbDKFX1u+792DawVapH06KoKiIpnrQjbtJl6ayvoEUglZ0V9V5f+2LrIl3A5fMMLA83GWfhl0tN+ZY2xkorcBUkPY+OWAcCgS1ttN98RWAhvBD1azr46P057L33rhSVxSkpDXPBT6/CTbpISzB23BD+9NerOeDAPYxKtpIkki6OJ3CUMs3WhVGCUkLiya6HKyUprU2TGQtfPk2StByidoCEtPv3+P3YZrB19Cik0bL0nCiMtukslpTUR4neOYucs/bCqujACyTTccytiF7snPZVqqTADrsowsx4qQ7cGpqbO4jHo0SjUZqb21mxYi0vTX+NIYMHYFstZtWXFmiP+nXtPPHwJ+RYhZz648PIyY9zwomHcOKx13PiMddyz32/onxQC46tUGhsv6OWGzNsTM9vItP3GRu+hSUMec0w4m1sJbG1yGhc9qMf2wK2zFD48nBGx1ZgORpdE2S7C45i/rTHSH30OdEFCwkfNIaaH+2MF0kgtGEsfrMwcYGAbVNWXsgnHy3hoAN/QM2IXMLhAHZAEs4xkne/uOJ/QLRgW/hEKY+W1jaeeeoNPvtsGUl25hYAACAASURBVE88dTv5ZWuQ0mPirkN5+72/M/vTxeQVpnw9Cw9JAstqx7LjtHfU9hhL706b8IXstcouY1dd6ki+wnf/Lr8f2wLEkEGDu92LShgatlQJCgtcPpx5F1K2I5TpzyG1ry+J8lWYfQl+IfAwzW1lp6B1xhKW//1dStsDpGxB0+hCRp+1F6FRAYSwsITXTb5tfWyK79FzEsos7SnQyiblRcArJpDThKKjS94tI5Xnq3mjuoq3tIObyMP1HIIhhXTaECJu5NyVk3X1vEx9iOcFae4IEeuIUzUggJBJ5AY7UAuksHxFIyNuq5Q28rbCQoquvhf96Me3jS0wFCCUNOK1afiegvAkIm7hzm9l6d0vU7TCpTMgaRkYYNAV36d0UCnY2jcUfRmELTQU2kJgG5Fc7XfGTkvgdftM1eOnAG1a7gmh0dK0ejHqWCm0kpm+m+n3aW00ul1tIbH9zJACqTbIFxEZufy07B6+l5L2JXozpKLb//vRj/8ErML8gmuy/5BuWCO0RyikOPPswxAiifD3zV39CcioC6ebsmQk4i3QloZyh9JdtkMEbToWrSPYlmLR7C+pT7UwcPggMyfTEf71FJQ2xfHuGguZEaWf+o2StQ0q5O+PvKysR8+Jlv48U75tpPLSfUT8zxHmfLUWRhJPCDLdrHwVLSGMcpbwhXmEn3Tt/eHzUQRkGFvp9Ej6RX2edz/68Z/DVsh6yKwHGRaikBrpgKoSBE8Yw8CfH0gsT1K1xkE+tpK3r3+OaFMMqewMsSKdHdEZ7sGmDK93z8MQnDRae2jRaVoaAl0tDddvbahENn/DQ5MiI7QrjOx/uu9IV4eqrnFKTTcPYeMQWePoj1z2Y9vFVjAUar1Ht05NlkZFNNYeJYy6/oeQE6QgalMyN8lnVzzHkrc+R7gaW9hYPSbLphN2+t6mKKH8hz860XO0MvNAmzRmV7m76iFZbya2SgvHZP62sbH1ewD9+G5j66lwbwCWBmG5WMMlwx46igG3HkFTuaRypSBwy1yWnT4dPrQgVo5QQTMoYZoap7kPG8fGRG96xiL6gDY9OI1BMIrcWqcyXk7aoHS99j9yCfvRj28VW3SXpztf9Xz0CQFWUBMeE2aPm48l95TJNEVcQus6WHr7sySeWYBsLEa6Od0b/W7yNmQrIqvrusoKXva9celHP/57sUX3ui/etN5jY5Whli3QJYLSo0cy5IpDWFuZwutsY9njM1h6y9PwVRgrWoxQFkJLk4ZVetPkr4TaejJxWiJ1tihuv2nox/9NSCXS+3KZ6Uyefr7hCa8236OATPduS4IVUOSPL2Xk1UewYmASLaLoBSv4atrD8EotVl0plg74QU7LTx12zyL0ia1amt3lPwituj/4zwrc9qMf3wak5ac4LbTPkfCwlZGyW794MXvybajCU/n8iOy4QFevTqU9lHJR2gPLJTw0wsTLfkDj90poCsXJW9lG7QP/YvXvpkO7jUwGkK5Z3UnHCDYlNrAVvQvjLfU81obHsL42aDo1m/3oD3T2Y9uH7OlFgMSV/i3sR/5NL89Nn3DKNyLdjUXWsbIgtMmM5AwpYPxPD6LwrN2YXRWlTURJzV7BrCufgzkaonngOVhIdJp3oTcxUrA1tyPpY613br28lK6UqXlkp0P706L9+O5AVFdXa+3Xa+hs7QSVoqgwzkef/sEwM7VECMMk7Aou9j5R0qnF7L39pkgraCEQykYnbfTsduoefA1vaStxB1blKtqGBKiZOoHq7QZQUJKHlhqFRvTsEdJzPHQPRkJ39aWeadiefpM5b43SPQxOH17Nlql39bWp6mdi9uPbw1bsZr4+0rFHiYvGD0puAKbtu4cOgb1zHpUVPyB219u0zlvJsDZN54IEsSUf8FGpR8GOVQzYoYq8nQaSlx9BSIlSLkKaU8rWvMiW8jP8Ud/IrUfn7u31xpCo/9gc3ZYNwkYjQxvAtnxe/dgYvlGPoutTFFKlg4HpaZh+f89p2cVRkJ4NLWHUmg6aX59F0/sLyGlzkUqSshWdjiZpuySCCq8wgK6KULbnMKpqBiNCQQKRENIJoCzt61qacxA6y8eQ2o+b+JRrIXr1CESacfmNexTbMvoNxf9V/GcMRRakThuLjccWpBagbPACkHSgzkV9UUvz23Op+3IZjgc5SdNcx5OalPRoD3p0BhRRWxANeqgch6KacrbfcwKR8mIChTnovABKKixSJoBLlyq4kH7MRiqEFmjfqPQbCug3FP930aehkCpFwTdkKPxnG92KmNdneSBeADwLYha0e1DbgTdvOU0raumob8ZtiRGsV37gUIOlSFqaqKXoDEDCVnSEEsTyJIXDK6jeYSBFIyqwi3Kxww5OMICUEoE02w1/XkiFXxzWl6FIS+xlfqOfc9GP/yaIwYNNmXl2t2qtNZaXIL8ouQWGIvMbvU8a8/e04di40VCZ9GjPYGMmm6JtcIPm15Qm1eLRvraJttWNrPviK+Lz15CbkDgpyEkKpAchz4jcKqnwbA8VBqssQs72AynfvgZqKiHPgZBCOy466CG79RE1dSSyh2ydpzV6Ayvo5srcaXwJDdikwHA/vi38d8oAiMGDB2stDI2py1B4SJWisDDJh1tsKDYOYyw2nhmRGyBnSq1QQiC1Zc4BcDMLvkCmFFbCwotDR10rrWsaWLloBXyyikCHRyBlE06AoywspX3dCQFCoQOKREmEyOByqr43CoYXQoGEsICAQtsaYQvQaaOhfeVO46GZuEhWdmWjCl++FgW9b2OMsdiSbUA/vg1kxJX7utG18EWotz304VF4WCpBQaH7HzEUaWzcYBivovfjd/dQNKCkREvDKRdKZQ3MaD9oLKxYiGRrjFhdG81fraFleS2dq+pwV7cQdCHHtchNONieaReYEhLPhljIxg1JIhUF1OxYgxxTCdUFkAeEUmip0LaHlr4Mv1+WrtgUY9FvKP4b8V02FN9oenRzke4bYibH5noY6QIuSBsNoV0sP9CgUGhLdn1ZGuMthFMEgoJAaYT8MaMZordHa0kq6tJe10xLXTOdyxtYs7AWZ1kbFW1Q0mGTGwOExqtrYdX8T0haCiEhVJBLTlUhuaPKCOw5EvKk8T4CAiyFkEYXI/vU+tpWZP/ev/X4b0FvdQ4bMB7bCLYpjyKN7KZEPWMXxjhopJVEa4EnHOPeg2l+qLLTrIrscXb/fvx0reriUmQTr7RSfgbEwNOQiik6V7gkVtbTtqqOuqWrSC1rorQjh5CyTHd3T+EowBLEpcYNSuySXAqqSygbV4O14yAoc9DBOMpW6DSDVRjPY9Pvl36P4r8B3byMbdij2GRDYaahr0SljKEQWat/d2w+XXp946J8yrOVmTzZAUNPeUiZNMVrysQlvpk+GFnaE34jZIRCe6A9hUpqvA6PxuXrWPLZQpIrW8irixNqTpIXD2ClujI3SkIqKMitLGTg5FEwbjDURFAFMZRlZPqEpofKF+ttQdJbD7HBtozfBL6tAN1/r1EUuvs13VZT62Lw4CE9DIURizXiukk+nNnDo0CZVngbSP+ZdXxTjUW2Z5JuEJSl7p3uip7lWUj/2iplGuikkU7zbj2kq1Z9f8UDrcGzQUrL9Cnxv1mtfG9AC/Ak0pUQDUCTB4vX4S2pp2XhCppXriM37iEQxC1FNKLwRkUo2380pVOGo6VGyu6SgJruXcMEIIX8Fu6qb8tF3oSy5O8gBAJhmaJMdJdHoXVPZbVvH3bXJE2ndABfvl6L7tsA8x/pS8m69MWFMOv7xsrUs9FzG9P1vIsG3n2bEG3vZM6HM1n40SK0z6+WQhJQ31DYRWlspRCWRFhW5tyE0iiVQlkCLSVojfQ0QllYhEAF8VxFwLPJs21KC0LkxJNYribsSgIJD/VxnDWLPuWNVz7Ey3PQJLBQOEjfq8qqS8nI8n4zLQcFwg+U9gZDsf860Ogt6KX636kkprUmaadI2S7VQwYyYY+dKR5cvsG0+rcFu6e7no4/aGEBbqYTd9frlKmj0L5n0YeupbDkZt7GVtahFEIarqQnPCzPMabDaOShdRIR92B+K6M+LyAnqQnGNVq5Gap4t7FkBH83NKKvZ8GNF2MbSX/IuqHTPxNIBbZKITTYmfJ9iaUFlrYgCdUNQSpagrgSE3cRCp01KY1ZyFYP35x4Rhc2HAzVaOH1qSuiEb5eaG/Xse/tgfGJBFILv9R+86CERm22gRJdj17Hm/aONn871SWi3Du6NFd7/58ZnVG0D6QkwnMIjA+SMyaIrhJGO3Ibg913ULL7hHPRWMI0/sVvhCOkNnssvf4q7n2tc7XRykMLC+F7BhJp+nEIjSCV+SwJFMQ1efUaRwA5DsKVeF+3C9nXim9owPMVubPfn75JpV8JrzM3V9dlUXikbzgBCkJKoFzTe8yVFlg2UhqDoRAokTamIhNY3uzT1Gzadr/XY29oC+CT0PowBBoBPp9ks5FpLr057+n5faw/oq5/9zj2Rt67scyTFn2bnmxDgVZYrodwNXmJAOGUQG2jHeA300/3UG4INxHBVYBQZo3r5ebRvazsG0MXSxPAAuFhBdpwAhrLskA7aO2i/B4YWkpiEQdZPYCqC4+CiAfW193bfc33+fOD9faUFqZPhx84Se9DobsXln7amiTx5pc0Tv8EqxWSUpMcXcyYqbvBdmXg+AY6Y9A0fXlzBhsJAH4te+oHc3uF39Kg1ykiumbP5qTEBN2v32aP1T9Gnx6FP9z1jp2e6Xrrx0YyX4uAFNQ9/TEd02cRsYyg89dbsL55bIahMKsn2iEWLSQeLSWlXTwr1cfLNz9WILXpByq1NLJ3QmM7DeTl1SPDUYRIN+Uxq5OUEpn0sHQKSlrQkQQpOx0E7TruJmVDvq6wTa975+y/6Uxgqu97XSBKJcGK4ZQNL6PlofcI1rYQX1bLnA8/YtzOB6JzE4YBKswxzbt05v3dx7SB4ZpY6zeAvl14M9/TVbk9vZJsI9DH5NZsxChubWh/KL3fN8ZXFH3aWqW1WXayM1WZUzRkGKEFKqXoKGynPagoEgolQVmCHm/dJrDJs9nspwNoL0AsaeF6Dkrn4G3F4GzPXahAEyYPrdYgZBKBZfLM/mdKNI6XQMsU2nLxrHSvz+7szbSd2KDB+FqWXJlRa2mMQS+WQGp6SWOaSWWSJMKPdnt4xUmc/R1K9jiI6BdtdD7yNrkfrWbFZw8T2XM7ik+eiC6KmS5lumvr4Ymu8JeJmfS9Aq/vNn+d1OPm7+u7tECyx9bT0Omupz2ZZ5sN3cfz3g7al0Ho4xwz3Ie+YzJ9HVVk3qfB9ZA6haVdhLKQykFpGy29XmQXv11sU8zMXiG6Jpr2C602ft8on5jVfYL21lBI+F+aVjrjVXQ3KDKTVeltcEJqf4y9Rf8kXTdpX5NL+/EXcLS5kXQoSc64PAYX7svaxz6G976i8/U5xONRqk6bAkVJsFw/iyAyeeF0ViHN4EyPMb06b9gkpFfz3txwkZW16JroIh13EZjtYJprkv4fpneqzvLg04FNoU3epjvBqOcYzGcL/zi9j2/zYQx0+nh0XZ+0ndqEz9DgxxPSV7XrumR/06LHu5T/AunHmbpWMbbpgmP7a+/NfUifvajU1reAUkrDF0j/jkLproCY+cIVIqM9qbteKUCTNjBkCrwy701rbvYSEcwYlMyN3yVm09PYCJ1FC19vGuqsEWVP0/WNhvAnhQLTt9RKEqwOknv4dny+bjUDliYIvfsVqzpg0Bn7Q2UCHYhnWYX0sY1no9NZkXSRXPp+1CamlOkxmzG8/krn/09nnXNXdiBrUvjwRNpLEShs0gQ5Q8bzfCOh0EJ3+966XSqdXYbjf4b2/Q/fkEutuib1JhsLTV/XWmj/HLXsMlZCm7VCs4GtqJnc2k9ba3+MOm0odNoTyfIq/Gud9iO77hf/Pem+uNuYF5GNLbJhGvC8/6xcvdT+yq/DaBVGW9I0RNbSb5hsg3YQ5LB2jebhh/5FMpFPW5vAdTWu9ohGFS8/v4Jzz/i97wkoTNfzdOpPgdYoN4SOD0OlSvHcEpKpYjqiudQ3SFavkqxdU8Calbm4yQhCCSytcZTCUcpobAqBJyWeCJLSEVzPbNW0FGhhoWXXtTMrtkIIP0OCQEpNyahSRp++H/Xb5ZMSHt7MJay892XEaoFQltn2uGFSiQpSiSJSKowmgBAS7T8UIbSXZ17n2bga4+JqOysNK0FKsALUrraZPTOGqwJIO4AWNp4Kk0qU4iWqUcmhJDoriXeWIFIRBBIlLNrac7j7959y3ll30x6NIYQC6eFKQRJJUlt4whcFssisqNqS5lpp4Y9L8Pm8FVx43l+5+Zp3cVMD/LaQHlp4xhvR+D/Tk7KnujmA8A25nfVwENoYNK0tGhrgyktf4rD9LuOdN99GStNWesO2SGMCt4qP/72MYw69gx8dfhcfvd+IUjn+AuXHMLI8pq6lwjcZ3fLQWcZ4GySXbdHWQ2tFU3MzS5cuZfTo0eTl5fl/11tMp06lUixZvoxx21UZW6y1vzoak5/uJ0q6a7kQuAo++2QNV1/xAH9+6PfUrtH88e5PGFq9F9dc9xv++fINhIIeXy5YwyUX3cJhR4zrqltRQbrSexadHS7PP/M2l5z/AOE8SChwHEFpSZDS8lwKCspoboqxrraO7++5PXfefQFaRE11qNAo7ZBKFLJ2dYo5cxbiuorqQeVMnFQOtJmTVA7dg3nGYCg/BiG0hqBH2dgynDMOYNFD71A8u47gvKWsemoGAy+ZAgSZ/tICfnLyDQweNpiLfn4cxx0/Gc9ppbneZcn8DqJRm7qGepoamljwxQLa29dywsl7s9+BE0DbxuArSXNjiqcff4vf3vIkO+88khtvPYPm+hDvvz+XOXM+57PP5lBX14iXglQS9j1gPLfediKDhxWgVJBXX53N7+74M7t/bzit7a3kRQoNQU+Haahzaaxrp6qqlIIijbCjCO35zoMk1hlm4ectKN3JhIkDWL1yFR998imWVcuYnYo46qhRW3Q/dYM2a/6XC2v57a0vMHfuIo49YRyDBlejlG98er19e3hUQjOoupQDD9uFh/72Gn964DWKy45i+IgwaQ8i+1gq/beuLzvL2fF/6c0x3QawBYZC0NjYzGGHH0YsFqOoqIjnnnuOxsZG7rrrLn7zm99skbGora3llFNO4cTjDuHa6w4D0rTm7q/rylkLJGHywlXEOpv59c13ccIpZ2DbSdrbE5x0/NE4YgCNdSv4x5PvMGDAMK6//iaU2wKejbQskB0go2iSaBFH0cmw4UO5/Q+XM2joEAqLC9FakUq5RDs95n+xiBdf/Bfzv5iH0iEghhQeWmjW1rZz1+9e5567nsB2TIl70Alx+BET+MP95yBkgp5ufLerq3WGYyFFisLhuQw/5XsseejfFM9ei7O0gdbPlhHZeQQ771rFvX+7kHfeW8Q/X36bY46dTEd7G4/+/U2uv/Y5LAuKioJsP7qCysoKhgwrQRMzfVUQeFry3jsLufqyv9JU38lJpx7MTy+ciu04zPjXx9x51z3sMWUEl111DOVlxYRzJAiXgoIcyivyQWviUUHt6jiBkGbS7kMoryjDI4XSFs899y6XXvhnGtelmLL3RK6+4QR23qWArkSrYNWKJu69ezqBsGbcTj/hwIP3onad4KqrHmbWzHlbyVB0ZVW0tnj37XksmL+ac/7f/3DKKbtge3ojyZX1tzGVg3I4/bz9OfDwA3jw/ld44/V5DB+xJ1JHERjymqmNSmuy9hjPd6RtQ5+GwqwyXXtyE0g0kFKQTCaZ/8UXjB49mmnTpvGzn/2MRx55hMmTJ/P555/zyiuvsM8++xAIBIA+gn0bQSAQYNfJk/10KKaeQjgozwbi6w04Ho/REe/grHPP5cMPP+Xnl1zD3NmrOPH4S7BteOhv/+DyK87m7jtfRiqHqoqDcAzrmprRpfz69uPZa+9xgE3QLqWsaATtrTP497vzOKBwIOXlhUghsGWcUADKyoqZNetjcnNzzFaCIAoLtMXiRXW88Oxr3HbHTzn+pH0Q2Hz0bh2/veUePv2wnl12KwKZPoeeIS+zZ09XkwoEtnApGZZHyQWHEJvxFV89+Rrr/v4RFUmPil2Gc8TU0Uw9fAcQAku0kOPkcdFPD+fC845ESWEoGH4wWKl0AFWhkLzw/ExuvuZpzjjjR5x29j44dgy0hybJGeeN58zz/wikQFlI7aBE0tTAIBHaQyvBokXLee/9D5iyz86cfd5RSGniJzP+9R7Tbvg7Bx14GD869hAefvBR/v3OLHbe+WAQ7f69pXCCDsFIGCE6kJaHkIqpR05m2Yo2WpoazEovFVLIbvGedLyjt0B113XNCpL6i00qBS3NAte1CYclnuv6Gaq+eCI9jpxm+6IRdFI2oBykYN3aDpQXwJLRrs/tK3vyHcIGPQrjBitTvi1stKfNza1CtMdSvPjydA455BAqKyt59NFHsSwLz/N4+eWXATK/g/ki4/E44XC418+Ssnu4xPM8gsEg4yfsDKxBEACRRKsAotcArKCpMcE9971CvDPEwEEDGTE8n86OBLfdfiMFBQFWrFjOl198RVXlIK781WWM2n4Yjzz0El8te5PHn/wVjtOJpzvRVhJyY4RKXZoSHTw3/Vn+9PD9xBIxtIaADbZtEwg5SMtj54njsfDAkwhhowgi3BKG1ZRx3I93x3YaQQgqBqYYN3EnVtWuZhcRYUN+phZ+oDCzBxcI4UGhJji5gorlY2h6bw61r8wkNLCI/KoIttRIKwU6hSAHJQSKFAKJpW0Ta5M2KctCeApLeyAUP/rB9/jh4XujZAdSNBBv93htxr9ZunIJ5194sok1KGEo+0IisUErTDRHgvBYsWoVCxcs5AdHjiYoEwg0nrbpbLOQ5DJidAF77VfOlP3ORZDAsjqNhUb4Gj4ennaRmZJ/yCsQlJQFaG2ykDqAVInMtRHCOPKatBfgL2hCmAyM/yezVqe3d34gUQhcL0nCi5Hy21Xa0sq61ps3sS00AWEhRQhPaxRhoNW/K8n8FEJ0CRd9x7BhQ5HeivXi8nueR0NDPVOmTMn8LW1ltTZMSq01HR0dPPfcc1RUVLDXXntx2223MXToUI466ihDQ5YSpRSdnZ28+eabvPPOOwwZMoQJEyYghCYQTIJIIRB4ysECpNVLDFZA1aBi7rjvDDqaC3j87zO4/96H0ULzv5f/kmm/uZLyapcrfnU/39t3dw4/YQBzZ8/jlVef5YKfHY4mitIppHTwlI3CYUh1ATfceD6lxYPZcdx2DKgoN1sPL8ratWtZU7uS2rUrWLNqBTfd9ABTp+7JjuMGIFDstEs+t/3hTAKBJEJ6CBza2+OsqWvm8JpJaBw21rfUZHV6fmMKa3CY/N1GEnt7KcnPEyx97jPGnrEnIqhIeoLWDpcPP3iXd9+ZTWNjG/G4oqUxSf2aVuob4rR0eCTjsOukQVx305FM3nUcwlIIBAu/XMVt055i9TLF1TeejFC5CBlDaYUWlvnpCfDCxGIuKdVBXkEOXhJywmEGDqwysWCMglhHQpKbN4CxY0dgiyRSJ4CkSSoI3+QrU6fjaYUlPYRMILSHIySRsE0ohN9/VnalNfu4YiasKQDjlZgsmWXK8jNXFTxX4CbBEhLHspBpucJNnsh+1kOZLJKnUihitLfHaG1to6xIr2ckMt9nXyGQbRibHaPQWhNPJOjocOlo7+DLL78kmUxSXV1NPB5n1qxZXH311UyfPh0hBJ2dndx2220MHjyYhx9+mMWLFxONRnn22Wf561//CkBrays33HAD06dPz3yGbdtUD67CkjbKDfPZp8u55w938aPj9uTgg/fzU6LZAwOtJPV1Hr+95Q7ee3s+1153FX99+CEuvOh8jjnmPLYbU4xQEcZuv7PxCq16AiHFrntUY9mmAM7zYPbsrzjzjGl0dkI0Cok4WBaEQpLc3CAoB8u2CAWDJqpPlEighKZGl2m/PpmATJCXJ4nkR4AEWmtiUcnCL9excuUyhgwdCDTi7wc27wsQAuVoAkMiVE7aDj5ZzJqPV/Fo88M0Ohajxg9n1Jjtee3lBbzy0iIK8gbR1pEgPz+fCy6+mJFjhhCJBPASLpZuZMDATqM3qmDO3CX8+uZ/sGqpzVXXnE3FoAi/u+Mh/v3vmSxeVE97K8Ri4CbIsLWrh5Zw/oWHklNYRDgcJj8v13geKoTyikjFCkjGYd2qBMuWtDGo2iLgSMPJEH52SShcFJ5WeDqdQjTbBGEbDoXrgWNbmZSp9uM7Gp2WJUrnaXn68df4fO4Kzjz7GKqqijMZinTPOK0c3nrjA6a/+BaDq8cxbNhQlNZdhX0b/xK6bjpheB62nUJKjzmz5zFn9gj2mTLcj0d4mUTG+v6jyHg6meNtox7HZhuKlpYWjj32UubNbyHlupx//vnk5uby85//nKOOOopkMkkymUQphWVZmZ9Llixh8ODBzJgxgw8++IArrriCJ598kmOPPZbW1lamT59OTU0NTz31FA0NDVxyySW0t7WBzqe1oYW/3PcG/3z2KzpinUyaNJ5cQj1GJli5ch3nnn8na1cluf33lxMOV/LYUzZ77zuB119/hIFV1dSuXcxjjz3JE3/rZNR2w8grCDJ8VCnCSoESCB2iqnI4V115NWN32AXLimBbEqVTxOMJ2ts7aWxaS23tWlpbW6gcWM7EXbdjUGUJdqAdKZqwUuAJ5dMwPJQX5qP3a7no/GlM3ms8eQUahGsMxWZ3Q9dGh7MqgrXvGCJLWyhqaiP5aQf/XPAlg3ZOcvefDmfar3/BTTfn8PzzMznn7KsZP/H7HHFsDVLEECqJ1CkcIdAyiBbwycwlXP+rJ1m6KM45Pz2GPfYdyev/eouH7n8PSQ4jRk5ip/E7sW5dK8VF+Vxy8dmgXTyVIpjXxIsvzcCyLCJ5eYDFrJmLuOnGp3h1xgI8SejdaQAAIABJREFUDRecfz1Dh+Rz0cWHcPpZU1H4koAiTSXQaJ3urtK1rju2QooEsZhLp5ti3boWhAh3W5obm5qIxWOMHj2KkoowjQ2S++6YxZ/u+zc/PmUKv7j0BEpKQyBieNi89c4c7r7rZVqabX58ymS232EksJruUzk7bbn+d5B+jRCgUQgrSukAl0WLF3LPH54kP+dIJk0a3S02Z0YsMnyLLtJG1gu2UVdjsw1FQUEB9977R559/lMeffRRLvzZRdTU1DBy5Eg8z8N1zQ2QHXOQUlJUVMS0adMIh8PU1NTQ0dHBjBkzOProo1m3bh2VlZXcd999hMNhysvLueiii7ju2utAByitdLn59uM4/5LvUVCWQ6QogKrrBOFkjUxTVlbAVdecRFtrikmTx/LxRwupGqQI5zdSU5JAul8RdOqpXbKSd16Zz6137cUuuw3Ckpb/xXkIK0p5lc3uUwbyp/vu5ZbrXiQQhOLiEAMqS2hYm+THpx5KYWEBtgjzwZsL+PO9T/HCKzcgVIPZmljmRneFRSoeYcZLSzjzJ9ey4/bDuX3aSYSoA+2mh7350BrheIjt88jfbxTJxz9mD7uS4JRymoaX4SYFobwWZs/7iAce/Bt77jGZm264AItOnn/mE/7ywEvcfucJjBw+CEWAT+Yu5brrn+aTTxoozM9lzty5WHIvDjl0LIce+he0X9wWj0leeO4zvlz4FbmF9diyDk+CxsP1kngqjrRMqnqnCWO49saLKCp7ms/nreSss37IXnsOZ9hwGy07fVKSyCyoWnnolIttS2xsLBIIpRBK47oQcy3efG0ev7r8z6xZ1QH4c0qarLkl4YTj9+eqa0/g9DOPYacd9+S2X/+F++98i2eefJeTTt6N004/klWr1vH7377IRx+u4sxzjuOkk/cFUednKLKNRHpg629Gsrfihh/mgohz7PGHsnxpgvv+8DRt9U/xyyuOYL8Dt+ue6ciQ+Uxtk19cbHRdtkH+RBqbbSiEFJSXV3DooYfw5FNPMnHiREpLSwETt0hHn7MtqZSSgQMHMn78eJRSBINBIpEIy5cvJ5FIsHjxYgYPHkxFRQWe5yGlJDcnx9fnVCjtEsqB4SMHGdIRMZ82nD0wCEUsdtllB7xUEV/MXseZP7meCbsMZunCJEOGRghYHlVVYU4752AOOeBGLjjvKl587VqkFfVJcekMj8IOpCgqySU/P5exO44kHm+hobGBlhbBP194EddNoVMhOjtsBtcUduleCqNYpFWAJXNT/OqKP/LhJx9z+nnf45prziHHTvmTxPHd5kyHUzZsNbIIOQiU9FClCjl1ILkqSssTnzBoiYuVFyMYTrBiSQN/uf9NcnOGcv8DV1KQ3wHKpiB3EI3r4jx47ztcf9NpSNujeU0zQyoruPTRU3nkkacZUF6CFBohE2jihggmBXY4QiAH4skOkJ0muGyI2mg8mlqaWLN2HUiBDHQyaocgu39/BMuWNzFqu1KGDdNIGTd1DCKt3OWfndKgPCQ2wqeMewhSScOezMnVHHzYFHbb7TA8ZSFthac8krEUKqkIBwSlZYq8ghhCtLL790I89NhlfLU4wL13P8XvbnuUd99dzf9e+UMefuZX/Pn+57n1xsdZvGQZV179A8aPK8DwaPD5Otls367geTpWkqY8mE5yDtLL54+/e55/PDGDab8+jdNO3YdQMGWMCH1lZcz3arJb23aGZPMNhc9nyKSH/IBkdnYjDcuyMo+ioiLAp2VLSSQSMVFgpUgmk4RCocz/Ozo6eP2NtxAygFKqywBp/IloDHNP9nW01eXpf7zL3Xe8yJJFzeC0M3NmMyceezFFRRFeefW3SBtKB4SYss9gWtoEgaCHCXx5oCTptmm2bZGfn0dl5UBuuvEaBlYXMGvmPG647i4eeeK3RCK5rF5ez1OPv8aHH7+NVJ65LhIEFjM/XcYpJ95DLB7j9J/uz6WXnYEjlE+ySncd80xBmzaBxOxgW29XPuOX+jeUFBpZEETsUIooDTKkyaGqtISQdKmva+bzz5cxYvgkcnMc3GSQtpYwzQ0OSoVZtTyO9oJoq50DDpzAfvtNZMG8egIykjF2MmOMfUq10qQScTo7o/7tLQELIVxsy8QPOjvjKKX9FKepR9H+FkFYErTrU+YEWkhfL83cVxk+oxS+l6FJpDRKBQjaOTz93CtcftmD1NWbimXbNmRSZUIdnPjjA7j+hlPIyyvj83kt3HfPQzz//KtEY1F237Oan192BFOm7AgiwfEn7Me61S4z/vUZS5esYfxORX6tVpqeLX1vQpMhMPvXQmeEHv1FUVtoFUYQYurhh3H0MQcSDHVi4hMZTjhZX17Xs23XieiGr024kv7NrZTqlSOhlDLt+fz/2bbd7X/pvwcCAWpqanjssccA0ErR0NzE408+TlF+MTgWyg7S1Ozx/qtfMHGPCoYMKSDhJrGy6kuEhpxAgAnjRzB+l8G0dtZz8mlHceH5v2Dh/JVc/LNf0tgqKBogSKCJe6BSNlqk0CIOOpAeHVoJHNumomwAdU3LuPDiM1hT20BzEzhSMvXQH5KTG6CgsIgcO8iO21VgC4X0awBa2+N88ulyVq6Osf32Q7D1Dtxw1Su0NDWydMFiop1t3HLbuUzeo5pVyzv414vzGDGyir33r/DHsJFVRaTvL4W2okRqchm2z2TWPv4+obiN6LTBDhLKVSyY/yW33/ICc+fO46XprxF0JAV5krmfL+P6m+/gyqtOwREeQiaRdhPIVjw3D6kUwlJY6UyCEqA0KS9GPJHCFUFj9LWHUhaOY+F5msZ1nb6eJwglTKDUc0m5cRCu7xdJli/vZM3qFDtsn0dhgSAcDBHJKUDpTsPZkYKUZxGPWWgXLBRHTN2d700egxBBqqqqkdLCEy6eSNFU34iXTJKfL7nnnke45qpHCYVh4uSBnPf/TmLvfScSkApLJ0EJIgFBJGIKu1IpgdIhtAqxdnkHC+fXMmBgkFHbFyFFDl/MWUtHu8dOOw8mFEkyf14DDXUxRu9YTElZCE0A1wvipqCkOI+SkgiINtIsYt2LkcjGthvC7MIWV482NjZSUVGR8SwikQjQVSSmlCKRSJBKpboFOKPRKJFIBNu2GTBgAGvXrmXvvfdh4IAqli1bQk4oH6E8PC1oqLe5+doHeOHpV9hz/woe+ft1vfbPcYKCHccXcc4FU/ngk8+pLK+hsa6Vv/3tYQZW55FX2kkyJVi5yGPepy1MmDiM3970JJf+8nhwOn3jJUBbSEsybPhALr/8DKbsuR85ubl8tWQlN1x3F8+/+BBSekRjUbxknHh8LUp7vjeiWLlyBU8//Sie5/LFgvmsqJ1PUbFNQSQXt8NDIpg569+MmzCI999fxs8v/iP77r89e+13UdZ5bcqto9FaIoMhvIIwqVSKtTOXM+vBGezz/6Zy2++v5IVn32DRgvfZblwFF/ziKqqrhxKw83jqyTf48KMPcd0kgSD+5NR4KFLKsEuFf5Ob1KI06UkXkglMWhCNCcZqBlSUUT2ompYWQDmmnYJfiNfe3sa62rVAiT9uwRszPuOSix7mJyfvzS2/PpVB1SF2GDuIz2YuJha3CUYEHe1JWpo7M7GjUK7HoGE55pzFOoTZqGBrqKyw0NpBq2Z2220Ad917IrvuNo7qQeVYltkWaq0zRYSOY2PbDtKSJpUPeCrAE49/wM3XPsD//Pj7XH71j3jxnzO46bonGDJoJJf+75EcfOQOTP/nx0y78Rku/OWR/OLyI0G4CNvDsQJI4SJIGCqbztYP6UH/7g3bsHfxtQ1FOBxm6tSphEKhjFGwLItx48Zx6623ZgxCOBzmtNNO47DDDstsS3Jzczn88MMZP348UkpGjBjBW2+9xXvvvsfihUv42cUXUFZcyc03XQeyjrKyJFddeyyTJuUyYefRWJaNFr0M3VesHjp0By6+4Fdcfuml/KboQcoHlPLSy39BsIrVK2Lc+btnqBk6ml9eeQbnnXsF+01pYbc9w5gVwOTgFy1axiU/m0Z7c4j77n0AaVnEOl3q13jsNmlX4okYjmOCWTuOG8Htv7+M0lIbWyTYftQInn/mThLxAPlF2RWqArTM8CcUCXbepYQfHf996uuaNvMbMO68FDnEWkPUr4yjQ3nU167jNzc8xENvzeXyq/8f5555AZbTgXDiWIFOE0vTcU4+fXdOOWMXAo4LWiOVMN6D65KIJkGZiWc+SiK1IW1JX9tUCIHSIIVCaM2okdXs8f1dmT17LnUNrVSUBRDCo7xCMX6XXAZV52ZK0gFCYYfcSAilPBBJpKX5wVE7sv8BOxEIeaChdk0Ty5aso6TEMR689Mv2tUZr12xRhECgENoz6U2pmTxpJLtMHulnF+JoP1CYrhoFhWV7hIMeAcswTLWIoa0ox52yIzUjz6KwKEzFoFxOPHVvhgwtI9ap2GPvISCj7HfwdgysPo2xEwYhrBhKgfIgGAr6wVzXF53uSeD67noWm2UolNB4WiKURyQnh7PPPguvR5AmGAwyceLEzNYiPz+fs846q1tco6ioiEsvvRSg2+sOOfQQxMGGdWeJAH9+8C9IqxXbqqVyoOAnZ04FJEJ2oEXC/0TLf2i0smhqtHn11Zncf9/jxKIptG4kFHb416uvUFlZzOyZS5n72UpOPeUoqqo72XVSDZf/4nb+9vjFDBwcwExmhyHVI/nj3X+huKCGoBNCe4rZMz/nqit/y6NP3EMgoGlvbyeRTNKR6qSuoZWiwkJsK4glO8kNQ05Yo4Q2zMb0LZCRxRMIz6KivJC99hrL9Jfe3oh2TvdgppkgFtGOJC+88BH/vPUpLhozgd12H8sdFx7C5Q88yL57nUxZeSlT9pvAHntNpmpgOeGQQ+2alcybN4vhI4o54cf7IKykb8RtUknwEoYHASbIqxXEYkmSCYGUtl+E5yK1RiqjKREOByguyGPNypV89OEsfjB1Tyw6OPSQiRx02B5mLXWNgRQIdtx+ew7YfwrBnKiphSFOWSUYtlYn6DALPl/NnM+W8KPj9jStIf00h8jEDQQ9BYe7LpdlAhfpGAsms2UEYTwTg5EQi8XoaHPBy0VYcUorJVN/OBGhcxAogmGXAw7eEeEL3iqlGbvTAHYYNxiEbYwoNh2dKSSa/DwQwne5Mg2oRC9jTG8et13jkI2+DYX2OfVaorXnk1ak73J6CKmRSJTv0m0I2anS9GvTHkdPGJEaiafNJbSUAmWyEFqm8NLv6SZKYSLvCddlyaIGXnjmUW6bdgETdh2CJQM0N0d5552Pef/t2dz1+2c45+zjuOiyQ5BOG7fc8ktenf4BB+93GT85fRIXXnw682Yv4cRjb2LQwGImjN+NMdvvSH5BPsFAgMsu+wmfffoOGo3jODiOg5QaLTtY5HUwdmwNykqPz0NgJlT63LtuFQHCIxZrY8SofP5y3NVkqko3CO3LSJrgbjA3wG5TxlE5N0H5l62IkM1OB47kuR/fhCsEHR3w1aIWvpzbwqsvvs9XS5ZRUV7EfgeNZ9fdhyK1AzqFFDZlJUWMHlnNksVxlIiiRBwQJFyH55/7lGk3PUh5eQmHHr4f0kugLc+Pl2hCIYvJu4/h7fdG8Mori/jB1L0QBHC0wPa67hETh9WsWTuPcRNdzjn3FLBTfijXZBhMCDFBZ7STXXebxOk/ORZJfVdqsetSZLIPKr1tJB2ITFcCCz/z4BpafNedxomnHEZTk8PPLrqDu+8J8vP/ncrRRx/ua2nESRPCsgbuH12jhIvA4pnHX2fajU+zdHEH551/AmecdzhKtBovB2OYRNaADZ28d3UH3+fZJg2HqK6uzowruzuVUIr8/E4+mZXuFGaufSpRSEv9AFLJcjxh4/bZrerrinBIv9oOBIqQ3UpR2WJCuXGET/CRSFRDnGV/+YTAmw2ER1dScc3+qNwUSobRXgDQCLuVtIegVBC0QypegOV0YoXqQSTALUSrIGgXZAdCuggCaNcUgEkJipQvdZfOViR9HUzhu8PmfKVPCkhrZErwJTW7DEW3i4/RS0DZaCRCJNkUCXkpTD8VDabreluI+MurafzzW4R3rqbosr3witrRwmiQau0YbQolTAEJHooolu1iS9NkSWChFXheCNcNIew2pBM1cRcVRruFuIl8UipOIKcB24kjRcpMHC1BR0imSmmPJdG6neJ8kCKOztwHaWqi8UA8T+JpgW0rhHCNmcgut1eSeCwHlSgjnJtABFZnXbeudaI7eiNL9e6mGdGaAJ6XR/06hxXLF1Fa2UHN8CEYErhnslFppyS95Um/F4nAprEuSX2tRU6kkNIqRSi3A1Nr0+U5pNW8MiMT0qSAk5KVj82k86mFDKqpoeCkHXEnFqJFkv/f3rlH2VXVd/zz2+fcO3dmMjPJTBIICQkSAuFNQaQ+liwrKlgfC2nR2lVdS2F1iV1SbWutqPVRH6hFlBaVuoAqiixbbKtCsSgI4kKkBXmJ8kgIkCgk80gyM/dxzv71j73P4965dzL3Zsg8mO9amSRzzz1nn/347d/+Pb4/03Yg3nOLjm0UCi5N2TQXCJ1QyTtYNxDGu8uMacry3bRNJkKDPYgE3nA1CRoiAkHoOj4sjmC1QhBYrDWo2YsJx/1zK472Qi0UnnFCQFw7rHq6PCxKzan+4tRKowGSExLpdFU3IdL2TekT9dpac89RM2SLxO9YVtj7xNPs+NkdhIUy9EesKMXuvjhhG1BxZQ8CgzVKrG4hCG5Buhta30+TEIx7o5945b6CBM8Q9gxTkMAlniUx3JqwO40TFMr0FxQjXu3HJqcsEpuK6xfvPhV8v7nP08hF79YpdZeh+2lvg2gUAjPtrea/dwu2ShAOc9Ba5eB1fYgZcNqHKlPZppLjXiY4lIih1UWGVnU5DcT447AEZHk8eT1hPuoKM0MbgsLV/xCJCEyNIHSMUNZk1bsSqNrOuGrxx0q/SxsMoWRVolwMR9hkEHNtVHAMV4LTakKEor9xBZUKYmKsGtQWccqo93drgGgRVYOYGplx0z/fSJNHS9rurJ+80JB9T+t92MGnXK25KWhiobp9grFbHoff7KU21IM5ogspjRMGFrXW2UJU3OQ11ntVBKuGJCJAPKuX22V90Bik/R4kVG9EpMWUSQh+fcyDt8UE3hiM4AmMcLunJBpF8i7ZjmtQL1DEB1vhhY8fm/zls4hE6Cr42BwlyWhtXe8G0pIFEjtmNGppuxNRlx/5hZoIlscMBYWkO3NYqNC/6mkK4QjWDnhmqKlICgfvHywmGEPCSWe0Ett6wqRGq9hFDeI1Ayn73T9Z0N6QKCBBmTQKTwN/ro0RiUnqjTYOrxhxR5M6Xs3k2fnnzNBM5c/47a4EsYIO19h7+1bGbn6cLjXoC/o49CVHk6i77sIcKS6B185cQFWySFLmbvJl/zJ12aV1u8Zq2ofJO/ufmvzQOlrL3GV1XemiETW1MSRcnck9DJq2LbM9zBZyfZ0KxfxxJmOiavrUuqplvm+TMhJ1j0n657ko/nhgsU9BYRIjjihinIlGTBUJYozZy/6S8+4LgVezU/riVl2eXCdxZhgTm17f3OBqyLqgUStyO6RzASZTRlvcx6EuAUiMt/nUNbADZNNVPMeiWqXy4LOMfPEXTG4dp3JIQHTmWo4+9zQ0tCA1P0nzZjRA82wIjrdBSNik8+1rtKW4n673Y/JaVmP9ivQO6TEjuV9+6WkqyFLS4jpNIzvPzwLpdhvI986+kQiYvIBzm2pCrVNfYDq1dSxAtBQUU1nbrVdLQ2+0FYQkA7Ies5vbkpxzk+fkG9ZEiue1AM0Xt1V3/pTYx+oH1E8HF7IrJtEGGu4qivVcoFnVd7/TJmzdie9cphcoM4GkW3EyyZIcA2X8t6PsuOVBwicmGBmC6umDvPCcFyJh5ELI1bjm+ONE9p5JEJXvj7rF28wA2CAw0l1/5qgXGM0/m/b7uOYcWIExczj2dLLSCd4ekY1aImKhvp+b6yupFjXP3jcVFNrQOhHHwWDF1/9UxRBiVQmcKwBXAs02FRadDmxjIeEkByDdAb3b1iJo7Npt0x1ICCyOsMRT0mVQb91XVyxXY5QANRZDgNguRCMfAOQ4ElIVUwyu8pn6JKA4fUdVBRODBukSxBrEeEMlJk2CaoQlv1iygKDEAGhFMT6ITMU4Grot4+y59gHiO59i98G9hC/fyNF/dBxBd8Y+rb6QsJVgitKbr4M+c0YnyR0N2kej0GsliPb92fxEFsiVFwj5/zeDZ9Kok4RKoLbpRjXXyGkU0zfO7aTG0+JFaAttAtzOE1AjqavRFmy9Cu9WTcK+DU58J0anHHwdCWvc9VYMdf5qsagGOC+G21etZgWFAgzGFLDGomqwRkCLnr4MwBBbQW3kWZgiX9Xdp6irQW0PQgGMJ1ZNztpNjJpTFDb/qok8MYo3DHo1fyJg7Oc72Hrlj+l9NqI82IW8bgPHn30KlCopxVvmNZi6YyX7XTKptck1Lds4C1pivao+s+sXkrjIWmxz/0/QKETw8/gANW8/0ZZ7NNDYcwR53zk0fVGLuh24w3qedXT/KlPq2lo/BtZtdPUGMy2gthdV58ZTVdSCjYuoBgRSJIodQUo1ihjZPcrY6Bi2NsrKlSXWHNqP1Sqju6o8+Zhy8EEbGBke44FfPsE999zL0FAf57z5RazfGIJUcFqV4e67HuWCd1zKK894GZ/5wttRddF/iZuksZsyQ10mJEydQS2RhQLDFYZvfJSt//Egq/YqE11CcMo6jj73VDQoO9KXJhrLfNubvTxN/jW3jXnOMNuG1/mBtkO4jUZwAARhZ7VBhGol5te/2sKtt9zP7hFldHSULY8/wd13PczuvW7dhgYCcQsxKUSzrCfghJMP4/offBJjLI/+ZhuvP+MT1GpQLMFhhy3nlJNP4e57/o+vX/89vva1P+OkE48GCoiUieKAcqVIqTSExSJEGAMa52P+/btBqmVkAT2ZAATBWIPUAiYe2cuT1/4ce98zHFwxlA8u0f+6Y1nz2s1EZpxYXdaqSew1iSuyzoA2P5Zl4g2Zx/wsS2iBeV17tH1hIRQL/Rx1+Ga6zGZUK5R6DdgevnzZ9Vx59TUcsnYTn/7s2zjjzGNQLRP2lBEtIkxgRFHZQxwLUU044cTDufyKD3HYxgFES4RBH3fedTvvOu8SfnXfHgK7k4su+iRveesrOGLTZrTLEheqjivDOBOWFW/HIHsXkcQW4YyeNjGW+/wNqYUM3/cMj3/rdvofmaSnYigNLWfVuSfBaw6B5TVsOO4zPBsEQpPumj/rUpeExALFPC6L6jBz74HzOqjsJVy2lcOPHeOIEyZZsz7iye0PcOtPb+NLX/5HyvyOn/78Tv74T87jDWf9LaoVrAwjQVT3zPJkRBQVGBwa4qGHHubsN72FSy+9DGuF2Ag2ECqxMDwaMz5pUTFIYAhMCRfgFbpYEk0sA8aVCkyPGM4w6v4ocWRhUonuG+aRS25hy6du4qD7J+mNArqOWcOqd70M3rgOBivYIMJK5kKcSRTsXCrEzqubN5zOB/1mCe1g3gsKIM1BmYnQEHFEpyqTTI7H3P6jJ7noA1/hq//ycTYdPUChKBx51BF8+lMfp9QV8LmLv+IcWrl7R1HE7j27CcOQgf5+ohrUyj2sX3skQhdBIHR3l1wAmrOP+u8LBOKMnOKiHJ1lOzEguoQ3ayGOLdVqTFxVJBKqj4zy4Mdu4OGP/oDiT55m5YQl6q0iL13D6r96NZw2gPbXiANxhtYknLihS+rjFpr0z5yt0cV5dn++oCO6/vkLtxAl7ieahNt+fA8XvvuLnH3OSzn2pH7ufXALtRhElCOOPJiPfOIvOOfs97Jty2f50j99iGJCv6BKpVJBxGW+RrFheJehWCyiQKEodPcKcWSJYotSdcVtxWKkilBBJPL5IeKLDoepVyOuROx5epTH7niAsW2/JX56D0OjBYb29CJSJC4o5pjVHHbui2FDPwxYNIzSvBCSyMHUkN7g3Wjqqptr20A782Y+WVaWAPsoKag+TkCtpikMUwOc5hOcOl8uj3PbT37N31x4GWe8+kQ+c8k7sfIMaoYJAsBEmMIEJ568km9980re9tZ383s3X8C7/vJE3nH+n4L2pN6SOI6plKt094Rs2DjAyLBgAkP/QMl5KmpKEAlBtYcgCumu9TA5HFPQCrXJMmMjk4w8sZ1dW3ewZ/sohR2W3klYNmkYqBlW2QCRfmID5YEiK47bwJqzToZNA9BTRQOLFZ93khhgJXPETWfDyTwhjcJiISxE586SJM58CXOKeW3MbA/ORhHHhl/+Yjfnv+3znP4Hm7ns8o+D2ZblJ1ic61ZDTLibF774IG784XV86IMf4d+/vZ3XvGaCteu73QIUd0SYnChT6upl06aN3HrrQ4SFAoODK5gYCQilm+EdYzy243bef+rLWPH4Xu5991V0RZZlEy4VeVlsWBkLSgErEBulZhQNBdPTxbLVyykdeRC9Zx6HXVMgLqnLRBSLSoTiqekSoydZTMS0PZJGDLqVpjP61nzD0pFlPmDRCAoflkTRWI45ppvv/Nsn2bDpUK644gpOOvEl3HTjLTzy6FPs2r6bL1/yHb577feJyiVWryvwngvP45rv/B1hcTcSRlQqMT3dJcJQ2b1nN9u2beGQQ0rENqZWFnqL3Ry+fj33j+3AFrpYNhGyZnSc5WMCpkAlCBgrWXYsj+kb7GP52pWU1g/Ss2EFy1Z3s2LFCiQwiDFZeroosTjCFjHeOyBZlF4z28LUcJ4kEGPq4nIuWZ/otUB2aBVJ42Q6py1Ywmxg0QgKN50c89aKlQG///K13PfLvXz0A9cTdF3P0EpYvaaLV561jo0v2MjQ0CBxzfK9/7yT9//1Jdz4w885yn6pEphelvX1Ua3F3HXHFq658hbOeNUriG2ZifGIMIRil8XEE5jIUjp0JX1nbuaiD1zOm17vBkYxAAAIc0lEQVT/h/z5ey7AlCbRQtkRzIipI7BJ2qrE2Zr1BozkSKHJjybHh+kx3Q7c7r3mDvmAtCXMPRaRoHAIrFtqqhYb1zhq86F847q/Z91hRUTKjovGeyB2PQu1Sj//c/MtjIyOsPIgUCxBGDG0ClatVrZueYpiVw/nvPl0fvfsNr5/w1WsXKkEOonENbTq2K/CvhJjahnviYkHylhqBKrYICYlwJvCXuWPAg1HhPSjNuDeel9q+sJZeUm4d5oGsYQ5xaITFAmEANFex+0ZljGFsmeoKngDYIxKhcnyBHEshKHPJtUQwXDc8Zu5/KsXc901txEWShgJuemGn/H1b12K6ggmnKTUE7BqTQlKe6hqhWoE1cgSBxFqqyixT1HPe6EbXZdmys7p3J6tdv9MGEwXFj4VmZ1iIe3UC6ipixpOUIidMsPEp3fvG/MrFCP2rxEDIgGBKTC8s8y6Fwz4BPQiSVpwpFWqGmOKAcuW9SJSBglQNSiWp556gmu//a+8/PQXE2mF//7BT9m5cwcf/vB70bib405Yy3X/dRGBEe6++wkiDNW4iJUC4nMwLOJKDHqXZX3sw4Hsu6Ul99xjOm/Swu7/EHCkq3XI8T6K1KV+q806oTElfK6hOIZIoyASExS3Mz5W5mc/3s4hhwy4gj21MmgXsR1g229r3Hv/rzGJXqWGQItYaxjdOcltNz1Et1nF+y48n8E1o3z0Y+fz1jd+nvFdl3HxF96HKewkNAZMgJqQqKLUyjUCnaCAcYkk6qtmQcYopT75W7IU+alov2+bBWAtdKR5MQf4vTqzkUzfyHxeT8s7SJbRPJ8QTmGGTio1azzF0uwm+Ny9gk1cg03GI7Hqx8Z6blSDoZuu7oB//tLV/OaRUxnoX0mxWHLHgQJ0L4t57atOo6+/gDEW1RirsGt4F1df9V1u+O4zXHLpRQwePE4QwItOO44bfnQZV1/1TbZueYyNm/u9y7WAiQpotcb4yBiBGpCYjOsza3M+lXwhHQHmCqmtYhFgRtyZKe/g/HrpxWWj8C5FAAlijjq+j5tvv5SJ8QorBvtQIldjRGKUqq+5UEGNIjLmODYwrFgxwDvPeztvOKubTceGmCDCWgWqHHF0P/9w8QVgJlGdRHBVco8/dj3fuPaD7Nm7C42rWHHkNZAMuannkWz4V0ev2+HXlwTUvjFX2tl8HZrFJSjyEAiCmFLfHkrLAqJoJ5gqjszGIlKjYB1Tl2pI7ItwuJQNS/9Agf7+IphJLBEmjFFbQLGpMdTlc9QwgaW7Tzj51EFUV7iYDsmK/biF6SIrjYV6DsXOsbTgFx+SOTPfhnaRCQoXn5D0srW48m4CQaGBYkwMNePKV1pfgAax3gZjwFR8QR5J7wW1JkWecnR7ogieBo/6c25yznbHJx8z0SKxawlLmG9YZIJiKjTnZhSpLyGgknlJFJsrLNvs+9PnVWQXORq0RiFR97c/qDbaLtrB/mgTC1EwPV+0p05f87k+hs5IUCSlVtHQkc56tHpGuunqbMmhbBsXYozarFBdzqMg6uj9Ow73tY1f1HrPjhcaJicwrBVHTJwbqaRN9eS5gHo7Rcqgm12/hOkxF300N8IpiZNp74U79Qzti3EsCaFvsZINagQNBZVB4rgHESE0pm5XbdWumghoESWcNUZho0poYxcLoUBQQ3iUQrQTs7sG/7sXMxCjUu7ARKg0Jeyl/h2Td8+Xf0mEU0o0LJCcT+pOKVMGw4+QBh2MsD/YdLp4nie789xBZzamVul+porWDIF0YRkktmt8weUmSGrfNnlevnhRcxiaxe1YAWO1VWVQrLg/sn79YS4USOuLoqrGRHGNMBTGJ8YxfvLPvEbm7FKOG4XAx4UFCEOmi3euOYY39/Y7Cv1AsQJRpzFMYhNDxPSXNRopVDHW0fK3CwXHFt4JlLq6pu08c6Gp8YvZjhNYIdQC9+7czlXPPswdpsZ42Lz6Xkv4zOLm8br43xpaseIHtrUW7mtOZRpFcn5Pi9tKQBiAjaGr0Ofciu1AXc0PO4PFNxMYMpZqsUpkipRL/Wzp6qPPQm/kFquNOnye2LSK+sy/48Ohm/RyEsPWfACycn0dYz8W+0ITFIsVIoJYIbZFRkrLqZVWUWCSrrD9cpxTcoXyz9EkjWDqwGvCFJ8xO9d/N/k70SjqYdMK4nlNw1qbq5Q1bbMRE82ijYKUzr4rgsgoaqusmzQUraVQi+mJLWqEWsdbT4zG7QsZFdBpIlRbNSdvdWlv5ebrmzKDsVhCJ2i97GbxGaoQBIgGVAR29hrGukMi04agUJlWk3CXuM9ETdO51ozgqBEtbRQiNuWpTLSJPIv09JBZFRLg388I1TB5djdPdbtFk2ot1rgK3p1AbEdG0Lro92YV08iFbkv+d06rsO3Kifydl1SD5wwH6ogmKMk+o4KvEN/WDTyaldxMLhEnDFLLZX0cj0qLujA5x0BrKjwVX2s00yDaoc7XFlXE9gfxFDFf/wsRzdUobRPSebllY9QftXKtEtfJmvzCPyP5r6gPlW+u8U2L/ZnEi/m8P+t4jgWFK9tgnbs8MQZoByUNfJGYjMC52TXNf+UeZVp+ntQ8m3bbn9kxY35BOvaNZpK9zSeiEvged5T8SXGffIHexsUd5zJJ24nTVH9pUhdk/3AgFOz9x0I0wM4cmWaoAta0b71Kq8ylfdTseNF8pPd56PAfhM33URfmDO1pEXONuRZsRu2U8odA099B4wLopN3zf5HPBpwpbuHMwxlDSen+Ehg6EIo+7CKbDS2Mmq2+uo/nibbUKHJBVR0KirkSMJ0/t/OjUnbWO4AhCtI07GPRYjG/auOc7dRk1fHzZ3BBy6PHQtIknq9YGqMlHCjML3qqJSxhCfMSS4JiCUtYwj7x/y/Ods9nos0EAAAAAElFTkSuQmCC;movable=0;resizable=0;rotatable=0;deletable=0;editable=0;connectable=0;" vertex="1" parent="1">
                    <mxGeometry x="170" y="447" width="266" height="206" as="geometry"/>
                </mxCell>
            </root>
        </mxGraphModel>
    </diagram>
</mxfile>